<?xml version="1.0" standalone="no"?>
<!DOCTYPE svg PUBLIC "-//W3C//DTD SVG 1.1//EN" "http://www.w3.org/Graphics/SVG/1.1/DTD/svg11.dtd" >
<svg xmlns="http://www.w3.org/2000/svg" xmlns:xlink="http://www.w3.org/1999/xlink" version="1.1">
<metadata>
Created by FontForge 20170731 at Tue Mar  5 23:38:52 2013
 By Aleksey,,,
(c) 2011 Microsoft Corporation. All Rights Reserved.
</metadata>
<defs>
<font id="VerdanaPro-Light" horiz-adv-x="557" >
  <font-face 
    font-family="Verdana Pro Light"
    font-weight="300"
    font-stretch="normal"
    units-per-em="1000"
    panose-1="2 11 3 4 3 5 4 4 2 4"
    ascent="800"
    descent="-200"
    x-height="544"
    cap-height="727"
    bbox="-60 -303 1301 1001"
    underline-thickness="50"
    underline-position="-200"
    unicode-range="U+0020-FB04"
  />
<missing-glyph horiz-adv-x="1000" 
d="M125 0v750h750v-750h-750zM188 63h625v625h-625v-625z" />
    <glyph glyph-name="f_f" unicode="ff" horiz-adv-x="632" 
d="M672 706h-1q-51 14 -88 14q-124 0 -124 -151v-25h174v-44h-173v-500h-49v500h-266v-500h-50v500h-62v44h62v19q0 96 46 149t128 53q43 0 87 -10v-49h-1q-51 14 -88 14q-124 0 -124 -151v-25h268v19q0 96 45.5 149t128.5 53q43 0 87 -10v-49z" />
    <glyph glyph-name="fi" unicode="fi" horiz-adv-x="566" 
d="M466 0h-50v500h-271v-500h-50v500h-62v44h62v19q0 96 46 149t128 53q43 0 87 -10v-49h-1q-51 14 -88 14q-124 0 -124 -151v-25h323v-544zM473 642h-63v76h63v-76z" />
    <glyph glyph-name="fl" unicode="fl" horiz-adv-x="565" 
d="M465 0h-49v708q-68 12 -115 12q-158 0 -158 -151v-25h174v-44h-172v-500h-50v500h-62v44h62v19q0 96 55.5 149t152.5 53q35 0 90 -5h72v-760z" />
    <glyph glyph-name="f_f_i" unicode="ffi" horiz-adv-x="883" 
d="M783 0h-51v500h-271v-500h-50v500h-266v-500h-50v500h-62v44h62v19q0 96 46 149t128 53q43 0 87 -10v-49h-1q-51 14 -88 14q-124 0 -124 -151v-25h268v19q0 96 46 149t128 53q44 0 88 -10v-49h-1q-51 14 -89 14q-124 0 -124 -151v-25h324v-544zM789 642h-63v76h63v-76z
" />
    <glyph glyph-name="f_f_l" unicode="ffl" horiz-adv-x="881" 
d="M781 0h-50v708q-67 12 -114 12q-158 0 -158 -151v-25h174v-44h-173v-500h-49v500h-266v-500h-50v500h-62v44h62v19q0 96 46 149t128 53q43 0 87 -10v-49h-1q-51 14 -88 14q-124 0 -124 -151v-25h268v19q0 96 55.5 149t152.5 53q35 0 90 -5h72v-760z" />
    <glyph glyph-name="f_j" unicode="fj" horiz-adv-x="555" 
d="M466 -29q0 -178 -167 -178q-47 0 -85 15v53h2q49 -20 90 -20q32 0 53.5 9.5t33 23t17 40t6.5 46.5t1 58v482h-272v-500h-50v500h-62v44h62v19q0 96 46 149t128 53q43 0 87 -10v-49h-1q-51 14 -88 14q-124 0 -124 -151v-25h323v-573zM475 642h-61v76h61v-76z" />
    <glyph glyph-name=".notdef" horiz-adv-x="1000" 
d="M125 0v750h750v-750h-750zM188 63h625v625h-625v-625z" />
    <glyph glyph-name=".null" horiz-adv-x="0" 
 />
    <glyph glyph-name="nonmarkingreturn" horiz-adv-x="333" 
 />
    <glyph glyph-name="space" unicode=" " horiz-adv-x="356" 
 />
    <glyph glyph-name="space" unicode="&#xa0;" horiz-adv-x="356" 
 />
    <glyph glyph-name="exclam" unicode="!" horiz-adv-x="390" 
d="M224 727l-8 -532h-42l-9 532h59zM221 0h-54v90h54v-90z" />
    <glyph glyph-name="quotedbl" unicode="&#x22;" horiz-adv-x="390" 
d="M308 760l-17 -281h-39l-16 281h72zM153 760l-17 -281h-38l-17 281h72z" />
    <glyph glyph-name="numbersign" unicode="#" horiz-adv-x="779" 
d="M680 469h-148l-53 -212h144v-35h-152l-55 -222h-37l55 222h-162l-55 -222h-36l55 222h-137v35h146l52 212h-140v35h149l55 223h37l-56 -223h162l56 223h37l-56 -223h139v-35zM495 469h-162l-52 -212h162z" />
    <glyph glyph-name="dollar" unicode="$" 
d="M493 177q0 -75 -52.5 -124t-141.5 -54v-175h-44v175q-132 1 -210 43v59h4q84 -55 206 -60v266q-80 18 -121 37.5t-60 48.5q-18 29 -18 72q0 72 54.5 120t144.5 55v130h44v-129q105 -6 182 -37v-65h-1q-80 52 -181 58v-252q104 -21 149 -61t45 -107zM103 471
q0 -46 34.5 -72t117.5 -45v243q-69 -5 -110.5 -39.5t-41.5 -86.5zM446 175q0 45 -31 72q-31 28 -116 49v-255q67 2 107 38t40 96z" />
    <glyph glyph-name="percent" unicode="%" horiz-adv-x="974" 
d="M382 535q0 -204 -151 -204q-78 0 -114.5 49.5t-36.5 154.5t37 155t114 50t114 -50.5t37 -154.5zM708 727l-383 -727h-53l383 727h53zM332 536q-1 90 -24.5 124t-76.5 37q-52 0 -76 -37.5t-24 -124.5q0 -62 9.5 -93.5t31.5 -50.5q23 -17 59 -17q56 4 78 38.5t23 123.5z
M894 191q0 -104 -37 -154.5t-114 -50.5q-78 0 -114.5 50t-36.5 155q0 205 151 205q77 0 114 -50.5t37 -154.5zM844 191q0 90 -24.5 126t-75.5 36q-52 0 -76.5 -37.5t-24.5 -124.5q1 -92 22 -124t79 -37q55 3 77.5 38.5t22.5 122.5z" />
    <glyph glyph-name="ampersand" unicode="&#x26;" horiz-adv-x="668" 
d="M281 -12q-102 0 -165 57t-63 150q4 74 34 118.5t111 89.5q-56 45 -80.5 87.5t-24.5 93.5q0 69 47.5 113.5t124.5 44.5q68 0 114 -43q46 -42 46 -104q0 -78 -59 -131q-32 -29 -94 -64l217 -205q18 41 18 144v60h52v-44q0 -60 -10 -113q-9 -55 -24 -80l167 -158v-4h-61
l-127 120q-76 -132 -223 -132zM374 591q0 49 -31 80.5t-81 31.5q-54 0 -85.5 -32t-31.5 -86q0 -88 95 -159q79 43 104.5 76t29.5 89zM229 375q-67 -40 -94.5 -81.5t-27.5 -96.5q0 -73 47 -118t128 -45q127 0 189 116z" />
    <glyph glyph-name="quotesingle" unicode="'" horiz-adv-x="250" 
d="M163 760l-17 -281h-42l-17 281h76z" />
    <glyph glyph-name="parenleft" unicode="(" horiz-adv-x="390" 
d="M323 -201h-70q-187 212 -187 480q0 266 185 481h72v-1q-98 -89 -153 -214t-55 -266q0 -138 54.5 -263.5t153.5 -215.5v-1z" />
    <glyph glyph-name="parenright" unicode=")" horiz-adv-x="390" 
d="M66 -201q99 93 153.5 218.5t54.5 261.5q0 141 -55 266t-153 214v1h72q185 -213 185 -481q0 -269 -186 -480h-71z" />
    <glyph glyph-name="asterisk" unicode="*" 
d="M505 445l-19 -40l-187 103l2 -177h-44l3 179l-188 -105l-21 40l192 100l-192 101l21 39l189 -104l-4 179h44l-4 -178l189 103l20 -40l-191 -99z" />
    <glyph glyph-name="plus" unicode="+" horiz-adv-x="779" 
d="M686 292h-272v-272h-50v272h-271v47h271v273h50v-273h272v-47z" />
    <glyph glyph-name="comma" unicode="," horiz-adv-x="390" 
d="M264 113l-119 -294h-37l80 294h76z" />
    <glyph glyph-name="hyphen" unicode="-" horiz-adv-x="445" 
d="M358 291h-271v56h271v-56z" />
    <glyph glyph-name="hyphen" unicode="&#xad;" horiz-adv-x="445" 
d="M358 291h-271v56h271v-56z" />
    <glyph glyph-name="period" unicode="." horiz-adv-x="390" 
d="M234 0h-79v105h79v-105z" />
    <glyph glyph-name="slash" unicode="/" horiz-adv-x="432" 
d="M416 760l-350 -908h-50l349 908h51z" />
    <glyph glyph-name="zero" unicode="0" 
d="M505 362q0 -196 -54 -286.5t-173 -90.5q-118 0 -172.5 90.5t-54.5 287.5q0 198 54.5 288.5t172.5 90.5q119 0 173 -91t54 -289zM452 363q-2 185 -39 255.5t-135 73.5q-97 -4 -134 -73.5t-39 -255.5q2 -185 39 -256.5t134 -73.5q97 4 134.5 74t39.5 256z" />
    <glyph glyph-name="one" unicode="1" 
d="M452 0h-348v46h151v540h-151v41q95 3 125 22t42 86h33v-689h148v-46z" />
    <glyph glyph-name="two" unicode="2" 
d="M504 0h-452v57q185 171 241 232q112 124 125 227q2 17 2 34q0 68 -39.5 105t-109.5 37q-103 0 -199 -60h-3v59q36 22 91 37t97 15q97 0 158 -53q60 -52 60 -138q0 -131 -145 -292q-76 -82 -231 -215h405v-45z" />
    <glyph glyph-name="three" unicode="3" 
d="M334 399q83 -17 121.5 -62.5t38.5 -123.5q0 -109 -62.5 -168.5t-176.5 -59.5q-41 0 -100 14q-53 13 -92 34v59l2 1q90 -60 205 -60q82 0 126 46.5t44 135.5q0 73 -43 113.5t-122 40.5h-46v51h13q81 0 132 43.5t51 109.5q0 54 -39 86.5t-105 32.5q-111 0 -196 -60h-2v64
q89 46 194 46q92 0 147 -45.5t55 -122.5q0 -65 -39 -110t-106 -58v-7z" />
    <glyph glyph-name="four" unicode="4" 
d="M533 232h-112v-232h-49v232h-352v71l361 424h40v-450h112v-45zM372 277v368l-316 -368h316z" />
    <glyph glyph-name="five" unicode="5" 
d="M499 235q0 -118 -66 -184t-182 -66q-43 0 -97 12q-51 11 -91 29v62h2q37 -24 92 -40t101 -16q87 0 137.5 53.5t50.5 146.5q0 75 -51.5 116.5t-143.5 41.5q-79 0 -154 -20h-1v357h398v-51h-348v-248q14 4 53 7q37 3 60 3q112 0 176 -53t64 -150z" />
    <glyph glyph-name="six" unicode="6" 
d="M516 230q3 -103 -66 -175t-166 -70q-115 0 -179 87t-64 245q0 198 85 310q86 114 234 114q41 0 80 -11v-57h-2q-32 17 -84 17q-109 0 -177 -80q-69 -81 -79 -217q29 29 82 47q53 19 107 19q104 0 166 -62q63 -61 63 -167zM95 301q0 -130 51 -201.5t137 -71.5
q84 0 131 53.5t47 147.5q0 85 -47 134.5t-130 49.5q-52 0 -102.5 -18.5t-84.5 -48.5l-2 -33v-12z" />
    <glyph glyph-name="seven" unicode="7" 
d="M509 659l-346 -659h-57l355 676h-414v51h462v-68z" />
    <glyph glyph-name="eight" unicode="8" 
d="M512 202q0 -96 -64.5 -156.5t-172.5 -60.5q-106 0 -168.5 58.5t-62.5 159.5q0 63 35.5 115t96.5 81v3q-50 29 -71.5 50t-31.5 48q-9 26 -9 63q0 79 59.5 130t154.5 51q91 0 152.5 -51.5t61.5 -124.5q0 -128 -116 -187v-3q72 -32 104 -73.5t32 -102.5zM443 567
q0 57 -46.5 93t-119.5 36q-74 0 -118.5 -34.5t-44.5 -91.5q0 -86 119 -138q62 -26 100 -36q57 33 83.5 73.5t26.5 97.5zM458 192q0 62 -37 98q-36 38 -129 69l-73 26q-59 -28 -91 -75.5t-32 -107.5q0 -77 48.5 -124t126.5 -47q86 0 136.5 44t50.5 117z" />
    <glyph glyph-name="nine" unicode="9" 
d="M514 409q0 -208 -84 -316t-249 -108q-35 0 -65 10v56h8q28 -15 78 -15q112 0 179.5 76t76.5 211q-76 -53 -181 -53q-114 0 -175.5 59t-61.5 168q0 108 65 176.5t166 68.5q243 0 243 -333zM460 420q0 272 -190 272q-82 0 -129 -53t-47 -143q0 -87 46.5 -133t135.5 -46
q100 0 183 54l1 24v25z" />
    <glyph glyph-name="colon" unicode=":" horiz-adv-x="445" 
d="M261 439h-76v105h76v-105zM261 0h-76v105h76v-105z" />
    <glyph glyph-name="semicolon" unicode=";" horiz-adv-x="445" 
d="M261 439h-76v105h76v-105zM268 113l-119 -294h-37l79 294h77z" />
    <glyph glyph-name="semicolon" unicode="&#x37e;" horiz-adv-x="445" 
d="M261 439h-76v105h76v-105zM268 113l-119 -294h-37l79 294h77z" />
    <glyph glyph-name="less" unicode="&#x3c;" horiz-adv-x="779" 
d="M655 61l-519 240v35l519 240v-55l-447 -203l447 -199v-58z" />
    <glyph glyph-name="equal" unicode="=" horiz-adv-x="779" 
d="M668 384h-557v47h557v-47zM668 205h-557v47h557v-47z" />
    <glyph glyph-name="greater" unicode="&#x3e;" horiz-adv-x="779" 
d="M572 316l-448 200v58l519 -241v-35l-519 -240v55z" />
    <glyph glyph-name="question" unicode="?" horiz-adv-x="501" 
d="M209 329q99 66 127 94q33 32 50 65q17 36 17 76q0 57 -42.5 91t-114.5 34q-93 0 -159 -38h-6v58q86 33 165 33q95 0 152 -49.5t57 -132.5q0 -113 -127 -202l-73 -51v-112h-46v134zM260 0h-51v90h51v-90z" />
    <glyph glyph-name="at" unicode="@" horiz-adv-x="1018" 
d="M519 742q190 0 297 -111t107 -307q0 -134 -80 -243h-192l-12 61q-33 -31 -77.5 -48.5t-86.5 -17.5q-85 0 -133.5 61t-48.5 171q0 102 57.5 171t147.5 69q67 0 139 -30v20h52v-412h132q23 33 39 90q16 55 16 104q0 180 -93 277.5t-264 97.5q-162 3 -271.5 -106.5
t-107.5 -274.5q-4 -162 105.5 -271.5t272.5 -107.5q92 0 164 20v-49q-70 -15 -165 -15q-182 -4 -304.5 118.5t-119.5 306.5q0 116 55 213.5t153 154.5q98 58 218 58zM636 472q-66 29 -128 29q-72 0 -117 -52.5t-45 -139.5q0 -188 138 -188q81 0 152 61v290z" />
    <glyph glyph-name="A" unicode="A" horiz-adv-x="647" 
d="M494 229h-344l-88 -229h-54l282 727h66l282 -727h-56zM168 277h307l-154 399z" />
    <glyph glyph-name="B" unicode="B" horiz-adv-x="612" 
d="M93 727h186q126 0 185 -39t59 -121q0 -58 -27.5 -98.5t-77.5 -53.5v-7q80 -18 121.5 -66t41.5 -121q0 -109 -68.5 -165t-203.5 -56h-216v727zM302 426q166 0 166 137q0 63 -44.5 89t-154.5 26h-125v-252h158zM278 47q134 0 192 40t58 130q0 160 -209 160h-175v-330h134z
" />
    <glyph glyph-name="C" unicode="C" horiz-adv-x="690" 
d="M396 -13q-150 -2 -247 104t-95 272q-2 168 96.5 273.5t257.5 103.5q67 0 138 -17.5t105 -38.5v-68h-4q-107 75 -237 75q-142 0 -223 -87q-80 -86 -80 -241q0 -151 80 -239.5t210 -88.5q78 0 135 19t115 64h4v-61q-104 -70 -255 -70z" />
    <glyph glyph-name="D" unicode="D" horiz-adv-x="729" 
d="M674 363q0 -223 -188 -316q-96 -47 -213 -47h-180v727h178q192 0 297 -96q106 -94 106 -268zM619 364q0 153 -91 233t-267 80h-117v-629h109q177 0 271.5 83t94.5 233z" />
    <glyph glyph-name="E" unicode="E" horiz-adv-x="613" 
d="M553 0h-460v727h460v-49h-409v-242h408v-49h-408v-339h409v-48z" />
    <glyph glyph-name="F" unicode="F" horiz-adv-x="537" 
d="M536 678h-392v-250h327v-48h-327v-380h-51v727h443v-49z" />
    <glyph glyph-name="G" unicode="G" horiz-adv-x="745" 
d="M684 60q-57 -35 -125.5 -55t-129.5 -20q-173 0 -273.5 101.5t-100.5 277.5q0 173 97 274.5t264 101.5q130 0 260 -66v-67h-4q-136 83 -271 83q-138 0 -216 -87q-77 -86 -77 -236q0 -157 81 -245q82 -88 226 -88q127 0 219 54v212h-218v48h268v-288z" />
    <glyph glyph-name="H" unicode="H" horiz-adv-x="690" 
d="M598 0h-52v378h-402v-378h-51v727h51v-299h402v299h52v-727z" />
    <glyph glyph-name="I" unicode="I" horiz-adv-x="383" 
d="M313 0h-244v47h97v633h-97v47h244v-47h-96v-633h96v-47z" />
    <glyph glyph-name="J" unicode="J" horiz-adv-x="401" 
d="M304 194q0 -204 -183 -204q-19 0 -56 6q-34 6 -50 11v54h7q52 -20 100 -20q72 0 101 41.5t29 146.5v450h-147v48h199v-533z" />
    <glyph glyph-name="K" unicode="K" horiz-adv-x="653" 
d="M644 0h-67l-324 365l-109 -115v-250h-51v727h51v-417l386 417h68l-310 -326z" />
    <glyph glyph-name="L" unicode="L" horiz-adv-x="536" 
d="M521 0h-428v727h51v-679h377v-48z" />
    <glyph glyph-name="M" unicode="M" horiz-adv-x="806" 
d="M713 0h-51v691l-245 -487h-32l-244 487v-691h-48v727h85l224 -456l226 456h85v-727z" />
    <glyph glyph-name="N" unicode="N" horiz-adv-x="690" 
d="M598 0h-79l-377 677v-677h-49v727h82l373 -673v673h50v-727z" />
    <glyph glyph-name="O" unicode="O" horiz-adv-x="767" 
d="M384 742q144 3 237 -105t91 -274q1 -165 -92 -273.5t-237 -104.5q-143 -4 -236.5 105.5t-91.5 273.5q-1 165 92.5 273.5t236.5 104.5zM659 363q0 147 -75 238.5t-201 91.5q-123 3 -200 -90.5t-75 -238.5q-2 -147 74.5 -239.5t200.5 -90.5q125 -3 201.5 90t74.5 239z" />
    <glyph glyph-name="P" unicode="P" horiz-adv-x="537" 
d="M502 512q0 -105 -74 -164.5t-201 -59.5h-83v-288h-51v727h168q108 0 174 -57q67 -57 67 -158zM448 511q0 168 -207 168h-97v-344h91q102 0 157.5 46t55.5 130z" />
    <glyph glyph-name="Q" unicode="Q" horiz-adv-x="767" 
d="M384 742q144 4 237 -105t91 -274q0 -132 -55.5 -226t-156.5 -130q5 -70 37 -107t88 -37q49 0 88 14h11v-48q-54 -14 -104 -14q-77 0 -123 49t-47 130q-34 -6 -67 -6q-142 -4 -236 103.5t-92 271.5q-2 165 91.5 274t237.5 105zM659 363q0 146 -75.5 238t-200.5 92
t-200 -91.5t-75 -238.5t74.5 -237t201.5 -90q128 0 201.5 88t73.5 239z" />
    <glyph glyph-name="R" unicode="R" horiz-adv-x="613" 
d="M453 531q0 72 -48.5 110t-139.5 38h-120v-327h115q193 0 193 179zM633 0h-71l-258 306h-159v-306h-52v727h187q107 0 167 -52t60 -145q0 -76 -40 -131.5t-111 -77.5z" />
    <glyph glyph-name="S" unicode="S" horiz-adv-x="613" 
d="M565 197q3 -93 -72.5 -152t-190.5 -58q-144 0 -257 59v66h4q38 -33 109 -56q70 -21 143 -21q102 0 158 42.5t56 118.5q0 71 -81 106q-36 17 -152 43q-98 23 -142 46q-46 25 -70 60q-23 37 -23 89q-2 84 69.5 143t175.5 57q127 0 244 -52v-64h-4q-42 30 -107.5 48.5
t-136.5 18.5q-84 0 -136.5 -41.5t-52.5 -105.5q0 -74 77 -112q38 -18 130 -39q76 -17 113 -29q35 -11 61 -25q25 -13 45 -34q40 -40 40 -108z" />
    <glyph glyph-name="T" unicode="T" horiz-adv-x="613" 
d="M608 678h-275v-678h-52v678h-276v49h603v-49z" />
    <glyph glyph-name="U" unicode="U" horiz-adv-x="690" 
d="M602 267q0 -136 -66 -209t-191 -73q-257 0 -257 283v459h51v-472q0 -108 53.5 -166.5t152.5 -58.5q100 0 153 57t53 164v476h51v-460z" />
    <glyph glyph-name="V" unicode="V" horiz-adv-x="613" 
d="M605 727l-265 -727h-67l-265 727h57l243 -675l245 675h52z" />
    <glyph glyph-name="W" unicode="W" horiz-adv-x="891" 
d="M854 727l-181 -727h-59l-167 647l-170 -647h-56l-184 727h51l165 -651l167 651h57l168 -651l162 651h47z" />
    <glyph glyph-name="X" unicode="X" horiz-adv-x="613" 
d="M91 727l221 -326l219 326h55l-247 -366l244 -361h-59l-219 323l-224 -323h-55l252 363l-246 364h59z" />
    <glyph glyph-name="Y" unicode="Y" 
d="M554 727l-250 -401v-326h-52v319l-249 408h57l217 -356l222 356h55z" />
    <glyph glyph-name="Z" unicode="Z" horiz-adv-x="682" 
d="M616 0h-546v63l488 615h-472v49h523v-62l-494 -617h501v-48z" />
    <glyph glyph-name="bracketleft" unicode="[" horiz-adv-x="419" 
d="M350 -191h-218v951h218v-44h-169v-864h169v-43z" />
    <glyph glyph-name="backslash" unicode="\" horiz-adv-x="432" 
d="M366 -148l-350 908h51l349 -908h-50z" />
    <glyph glyph-name="bracketright" unicode="]" horiz-adv-x="419" 
d="M238 -147v863h-169v44h218v-951h-218v44h169z" />
    <glyph glyph-name="asciicircum" unicode="^" horiz-adv-x="779" 
d="M687 344h-64l-234 321l-233 -322h-63l281 384h31z" />
    <glyph glyph-name="underscore" unicode="_" horiz-adv-x="608" 
d="M610 -134h-612v36h612v-36z" />
    <glyph glyph-name="grave" unicode="`" 
d="M343 640h-38l-100 178h67z" />
    <glyph glyph-name="a" unicode="a" 
d="M418 58q-50 -41 -92 -56.5t-95 -15.5q-84 0 -134 45.5t-50 120.5q0 102 88 147.5t283 48.5v32q0 60 -42.5 95t-113.5 35q-86 0 -163 -37h-3v58q67 28 158 28q215 0 215 -190v-369h-51v58zM418 305q-125 -5 -192 -20.5t-95.5 -46t-31.5 -85.5q0 -56 34.5 -90t92.5 -34
q105 0 192 77v199z" />
    <glyph glyph-name="b" unicode="b" horiz-adv-x="573" 
d="M520 292q0 -146 -60 -225t-171 -79q-69 0 -151 43l-5 -31h-45v760h50v-283q98 82 180 82q94 0 148 -71t54 -196zM468 281q0 229 -151 229q-90 0 -179 -82v-348q65 -47 158 -47q82 0 127 64.5t45 183.5z" />
    <glyph glyph-name="c" unicode="c" horiz-adv-x="504" 
d="M289 -11q-114 0 -175 74t-61 209q0 131 64 207q65 78 177 78q71 0 166 -49v-62h-4q-88 64 -171 64q-86 0 -133 -62t-47 -176q0 -111 48.5 -176t129.5 -65t173 67h4v-52q-22 -22 -75 -40q-53 -17 -96 -17z" />
    <glyph glyph-name="d" unicode="d" horiz-adv-x="573" 
d="M484 0h-49v66q-88 -79 -174 -79q-98 0 -153 74t-55 207q-2 123 64 208t164 82q74 0 154 -42v244h49v-760zM435 465q-71 48 -156 48q-80 0 -128 -67q-47 -67 -47 -176q0 -114 39 -174.5t112 -60.5q49 0 89 17t91 58v355z" />
    <glyph glyph-name="e" unicode="e" horiz-adv-x="554" 
d="M101 274q0 -112 54.5 -177t147.5 -65q49 0 105 18q58 20 82 41h4v-57q-96 -46 -180 -46q-124 0 -192.5 73.5t-68.5 207.5q0 129 66.5 209t174.5 80q94 0 153 -66q58 -64 58 -174v-44h-404zM458 320q0 90 -43.5 141t-120.5 51q-79 0 -132 -53q-51 -51 -59 -139h355z" />
    <glyph glyph-name="f" unicode="f" horiz-adv-x="316" 
d="M356 706h-1q-51 14 -88 14q-124 0 -124 -151v-25h174v-44h-172v-500h-50v500h-62v44h62v19q0 96 46 149t128 53q43 0 87 -10v-49z" />
    <glyph glyph-name="g" unicode="g" horiz-adv-x="572" 
d="M484 71q0 -143 -56 -210.5t-173 -67.5q-62 0 -145 26v54h6q22 -13 68 -22.5t94 -9.5q72 0 114.5 51t42.5 141v56q-49 -46 -90 -62.5t-94 -16.5q-93 0 -145.5 70t-52.5 192q-4 124 62.5 206.5t165.5 82.5q39 0 73 -8q33 -8 82 -33l5 24h43v-473zM435 465q-67 49 -156 49
q-81 0 -128 -63.5t-47 -173.5q0 -220 152 -220q93 0 179 80v328z" />
    <glyph glyph-name="h" unicode="h" horiz-adv-x="585" 
d="M497 0h-49v346q0 163 -125 163q-48 0 -97.5 -22t-87.5 -61v-426h-50v760h50v-284q37 35 87 59q52 24 95 24q84 0 130.5 -50.5t46.5 -141.5v-367z" />
    <glyph glyph-name="i" unicode="i" horiz-adv-x="250" 
d="M157 642h-63v76h63v-76zM150 0h-50v544h50v-544z" />
    <glyph glyph-name="j" unicode="j" horiz-adv-x="306" 
d="M226 642h-61v76h61v-76zM217 -29q0 -178 -167 -178q-48 0 -85 15v53h2q49 -20 90 -20q27 0 46.5 5.5t31 19t18.5 25.5t10 37t3.5 41t0.5 49v482h-118v44h168v-573z" />
    <glyph glyph-name="k" unicode="k" horiz-adv-x="545" 
d="M534 0h-62l-255 275l-79 -78v-197h-50v760h50v-505l281 289h65l-234 -237z" />
    <glyph glyph-name="l" unicode="l" horiz-adv-x="249" 
d="M149 0h-49v760h49v-760z" />
    <glyph glyph-name="m" unicode="m" horiz-adv-x="919" 
d="M485 0h-49v346q0 163 -121 163q-100 0 -177 -83v-426h-50v544h50v-68q33 36 82 59.5t93 23.5q119 0 156 -99q88 99 190 99q82 0 127.5 -50.5t45.5 -141.5v-367h-50v346q0 163 -121 163q-47 0 -96 -24t-86 -62q6 -27 6 -56v-367z" />
    <glyph glyph-name="n" unicode="n" horiz-adv-x="585" 
d="M497 0h-49v346q0 163 -125 163q-48 0 -97.5 -22t-87.5 -61v-426h-50v544h50v-68q37 35 87 59q52 24 95 24q84 0 130.5 -50.5t46.5 -141.5v-367z" />
    <glyph glyph-name="o" unicode="o" horiz-adv-x="561" 
d="M508 272q0 -130 -62.5 -208t-165.5 -78q-104 0 -166 78q-61 79 -61 208q0 131 62 208.5t165 77.5q105 0 166 -79q62 -79 62 -207zM104 272q0 -114 47.5 -178t128.5 -64t129 64t48 178q0 113 -47.5 177t-129.5 64q-81 0 -128.5 -64t-47.5 -177z" />
    <glyph glyph-name="p" unicode="p" horiz-adv-x="573" 
d="M519 283q0 -136 -61 -215.5t-164 -79.5q-88 0 -156 39v-228h-50v745h50v-67q99 82 180 82q96 0 148.5 -73t52.5 -203zM468 276q0 114 -37.5 174t-108.5 60q-103 0 -184 -84v-344q68 -49 158 -49q79 0 125.5 66t46.5 177z" />
    <glyph glyph-name="q" unicode="q" horiz-adv-x="573" 
d="M485 -201h-49v266q-87 -78 -176 -78q-99 0 -153 74t-54 210q0 127 64.5 208t160.5 81q79 0 158 -43l6 27h43v-745zM436 463q-74 51 -158 51q-78 0 -126 -67q-48 -66 -48 -171q0 -120 41 -180t118 -60q91 0 173 75v352z" />
    <glyph glyph-name="r" unicode="r" horiz-adv-x="392" 
d="M396 479h-2q-46 11 -79 11q-89 0 -177 -94v-396h-50v544h50v-92q42 42 91.5 68t88.5 26q45 0 78 -12v-55z" />
    <glyph glyph-name="s" unicode="s" horiz-adv-x="491" 
d="M435 149q0 -74 -54.5 -117.5t-148.5 -43.5q-87 0 -180 47v57h3q87 -63 187 -63q69 0 106 30.5t37 85.5q0 53 -47 74q-25 13 -101 29q-93 22 -126 42q-57 37 -58 106q0 71 53 115.5t139 44.5q42 0 91 -12t80 -30v-59h-5q-33 22 -83 39q-48 16 -93 16q-57 0 -94.5 -27.5
t-37.5 -71.5q0 -50 33 -74t119 -42q99 -17 139.5 -50.5t40.5 -95.5z" />
    <glyph glyph-name="t" unicode="t" horiz-adv-x="363" 
d="M40 500v44h60v157h50v-157h198v-44h-198v-294q0 -98 22.5 -134t85.5 -36q42 0 92 18h2v-49q-62 -16 -98 -16q-154 0 -154 185v326h-60z" />
    <glyph glyph-name="u" unicode="u" horiz-adv-x="585" 
d="M497 0h-50v72q-85 -87 -181 -87q-85 0 -131.5 49.5t-46.5 142.5v367h49v-345q0 -163 126 -163q49 0 102 25q54 25 82 62v421h50v-544z" />
    <glyph glyph-name="v" unicode="v" 
d="M522 544l-225 -544h-39l-224 544h57l190 -469l187 469h54z" />
    <glyph glyph-name="w" unicode="w" horiz-adv-x="716" 
d="M687 544l-142 -544h-38l-147 446l-152 -446h-36l-143 544h52l119 -445l143 445h35l151 -445l110 445h48z" />
    <glyph glyph-name="x" unicode="x" 
d="M311 287l220 -287h-64l-188 247l-194 -247h-60l225 284l-198 260h62l168 -219l173 219h58z" />
    <glyph glyph-name="y" unicode="y" 
d="M96 544q34 -79 95.5 -229t87.5 -211l188 440h54l-325 -745h-54l110 244l-211 501h55z" />
    <glyph glyph-name="z" unicode="z" horiz-adv-x="501" 
d="M482 0h-437v39l365 461h-358v44h420v-37l-368 -463h378v-44z" />
    <glyph glyph-name="braceleft" unicode="{" 
d="M493 -191h-59q-80 0 -127.5 51t-47.5 138v73q0 87 -44 137.5t-121 50.5h-20v50h20q77 0 121 51t44 138v73q0 87 47 138t128 51h59v-47h-55q-65 0 -96 -33t-31 -101v-102q0 -73 -37.5 -123t-102.5 -66v-8q64 -17 102 -68t38 -121v-101q0 -70 31 -102.5t96 -32.5h55v-46z
" />
    <glyph glyph-name="bar" unicode="|" horiz-adv-x="390" 
d="M221 -191h-53v951h53v-951z" />
    <glyph glyph-name="braceright" unicode="}" 
d="M63 760h60q79 0 126.5 -51t47.5 -138v-73q0 -87 44 -137.5t121 -50.5h21v-51h-21q-76 0 -120.5 -51t-44.5 -137v-73q0 -87 -46.5 -138t-127.5 -51h-60v46h56q65 0 96 33t31 102v101q0 74 36.5 123.5t102.5 65.5v8q-63 17 -101 68.5t-38 120.5v102q0 69 -31 101.5
t-96 32.5h-56v47z" />
    <glyph glyph-name="asciitilde" unicode="~" horiz-adv-x="779" 
d="M694 433q-6 -102 -49.5 -162.5t-114.5 -60.5q-44 0 -77 19.5t-68 63.5q-42 55 -68 72q-26 18 -55 18q-46 0 -73 -40t-38 -133h-52q5 101 49.5 163.5t110.5 59.5q47 0 80.5 -20t68.5 -64q45 -59 69 -75q25 -17 54 -17q48 0 79 49t32 127h52z" />
    <glyph glyph-name="exclamdown" unicode="&#xa1;" horiz-adv-x="389" 
d="M220 637h-51v90h51v-90zM226 0h-62l7 531h45z" />
    <glyph glyph-name="cent" unicode="&#xa2;" 
d="M281 -9q-102 9 -156.5 81.5t-54.5 199.5q0 122 57 197q56 75 154 86v165h44v-163q72 -6 153 -49v-62h-5q-74 54 -148 62v-475q75 12 148 65h5v-52q-23 -20 -69 -37q-43 -16 -84 -19v-166h-44v167zM122 272q0 -105 42 -168.5t117 -71.5v477q-76 -9 -117.5 -70t-41.5 -167z
" />
    <glyph glyph-name="sterling" unicode="&#xa3;" 
d="M205 302q0 -175 -121 -248v-6h425v-48h-466v76q60 27 85.5 79t25.5 147h-86v47h86v164q0 107 53.5 167.5t150.5 60.5q69 0 146 -34v-66h-2q-64 46 -149 46q-148 0 -148 -172v-166h197v-47h-197z" />
    <glyph glyph-name="currency" unicode="&#xa4;" 
d="M517 118l-36 -35l-119 119q-35 -25 -83 -25t-85 25l-119 -119l-34 35l119 119q-25 37 -25 84q0 48 25 83l-120 120l36 36l119 -120q38 26 84 26q47 0 84 -26l119 119l35 -35l-120 -119q26 -37 26 -84t-25 -84zM376 321q0 42 -28 70t-69 28q-42 0 -69.5 -28t-27.5 -70
q0 -41 27.5 -69t69.5 -28t69.5 28t27.5 69z" />
    <glyph glyph-name="yen" unicode="&#xa5;" 
d="M510 727l-207 -402v-43h195v-48h-194v-86h194v-48h-194v-100h-48v100h-195v48h195v86h-195v48h196v35l-210 410h53l179 -353l178 353h53z" />
    <glyph glyph-name="brokenbar" unicode="&#xa6;" horiz-adv-x="390" 
d="M221 370h-53v390h53v-390zM221 -191h-53v389h53v-389z" />
    <glyph glyph-name="section" unicode="&#xa7;" 
d="M491 282q0 -44 -28.5 -84.5t-77.5 -68.5v-1q90 -39 90 -131q3 -79 -59.5 -130.5t-160.5 -51.5q-80 0 -158 34v51h2q83 -42 155 -42q83 0 129.5 36.5t46.5 101.5q0 40 -31 64t-109 45l-55 14q-88 22 -126 58t-38 96q0 44 28 84.5t77 68.5q-89 44 -89 146q0 78 55 123
t153 45q77 0 176 -33v-52h-2q-93 43 -171 43q-77 0 -121.5 -33.5t-44.5 -92.5q0 -66 58 -97q28 -15 111 -33q100 -22 145 -60t45 -100zM330 145q49 20 78 55t29 76q0 34 -16.5 55.5t-54.5 37.5q-38 17 -139 42q-43 -16 -72.5 -53t-29.5 -76q0 -35 14 -56t47 -37
q30 -14 144 -44z" />
    <glyph glyph-name="dieresis" unicode="&#xa8;" 
d="M400 642h-73v76h73v-76zM229 642h-73v76h73v-76z" />
    <glyph glyph-name="copyright" unicode="&#xa9;" horiz-adv-x="1018" 
d="M931 320q0 -116 -58 -214q-59 -98 -156 -153q-98 -56 -208 -56q-112 0 -209 55q-98 56 -156 154t-58 214t58 213q58 98 156 154q97 55 209 55q111 0 208 -55q98 -56 156 -154q58 -97 58 -213zM893 320q2 102 -49 192t-141 143t-194 51q-104 3 -194 -50t-141.5 -143.5
t-48.5 -192.5q-3 -102 48.5 -192t141.5 -143t194 -51q106 0 194 52q90 51 140 140t50 194zM675 128q-28 -19 -73.5 -33.5t-84.5 -14.5q-104 0 -165 64.5t-61 175.5t61 176q61 66 166 66q86 0 157 -44v-53h-3q-80 57 -165 57q-80 0 -126.5 -54.5t-46.5 -147.5q0 -92 48 -146
t129 -54q92 0 161 53h3v-45z" />
    <glyph glyph-name="ordfeminine" unicode="&#xaa;" horiz-adv-x="495" 
d="M416 270h-50v50q-24 -26 -67 -45q-43 -18 -81 -18q-73 0 -116 38.5t-43 105.5q0 66 39.5 104t123.5 49q85 12 144 13v22q0 55 -28 81t-90 26t-150 -25h-4v49q81 22 152 22q170 0 170 -164v-308zM366 528q-99 -7 -133 -12q-66 -11 -94.5 -38t-28.5 -75q0 -53 27.5 -78
t88.5 -25q54 0 140 60v168z" />
    <glyph glyph-name="guillemotleft" unicode="&#xab;" horiz-adv-x="542" 
d="M486 108l-239 194v30l239 193v-63l-188 -145l188 -146v-63zM324 87l-256 214v32l256 213v-68l-198 -161l198 -161v-69z" />
    <glyph glyph-name="logicalnot" unicode="&#xac;" horiz-adv-x="794" 
d="M689 35h-56v270h-532v51h588v-321z" />
    <glyph glyph-name="registered" unicode="&#xae;" horiz-adv-x="1018" 
d="M722 96h-54l-160 190h-96v-190h-42v462h121q68 0 107 -34t39 -94q0 -48 -24 -83t-65 -49zM594 431q0 87 -112 87h-70v-194h67q115 0 115 107zM125 320q-3 -102 48.5 -192t141.5 -143t194 -51q106 0 194 52q90 51 140 140t50 194q2 102 -49 192t-141 143t-194 51
q-104 3 -194 -50t-141.5 -143.5t-48.5 -192.5zM86 320q0 116 58 213q58 98 156 154q97 55 209 55q111 0 208 -55q98 -56 156 -154q58 -97 58 -213t-58 -214q-59 -98 -156 -153q-98 -56 -208 -56q-112 0 -209 55q-98 56 -156 154t-58 214z" />
    <glyph glyph-name="macron" unicode="&#xaf;" horiz-adv-x="608" 
d="M610 824h-612v36h612v-36z" />
    <glyph glyph-name="degree" unicode="&#xb0;" horiz-adv-x="519" 
d="M431 567q0 -73 -49 -122q-48 -49 -123 -49q-71 0 -121 48q-48 47 -50 123q0 72 49 122t122 50t122 -49q48 -48 50 -123zM384 567q0 54 -35 89.5t-90 37.5q-52 0 -87 -35.5t-37 -91.5q0 -53 36 -90q35 -35 88 -37q53 0 88 35.5t37 91.5z" />
    <glyph glyph-name="plusminus" unicode="&#xb1;" horiz-adv-x="794" 
d="M693 133h-593v46h271v212h-270v47h271v271h50v-271h271v-47h-271v-212h271v-46z" />
    <glyph glyph-name="twosuperior" unicode="&#xb2;" horiz-adv-x="514" 
d="M425 276h-336v47q136 101 176 138q41 38 65 75q22 35 22 72t-27 58t-76 21q-73 0 -144 -38h-3v53q66 31 140 31q73 0 117 -32.5t44 -88.5q0 -82 -101 -174q-47 -43 -153 -118h276v-44z" />
    <glyph glyph-name="threesuperior" unicode="&#xb3;" horiz-adv-x="514" 
d="M241 267q-83 0 -146 29v52h4q65 -37 148 -37q122 0 122 100q0 40 -30 62t-84 22h-38v45h12q59 0 93.5 23t34.5 60q0 31 -26.5 48t-74.5 17q-82 0 -143 -36h-3v53q61 28 146 28q69 0 111.5 -28.5t42.5 -76.5q0 -41 -29 -68.5t-77 -35.5v-4q116 -17 116 -111
q0 -67 -47.5 -104.5t-131.5 -37.5z" />
    <glyph glyph-name="acute" unicode="&#xb4;" 
d="M297 818l-100 -178h-38l70 178h68z" />
    <glyph glyph-name="mu.001" unicode="&#xb5;" horiz-adv-x="585" 
d="M497 0h-50v72q-76 -84 -157 -84q-101 0 -153 61v-250h-49v745h49v-418q21 -40 60.5 -62.5t89.5 -22.5q42 0 87 23.5t73 58.5v421h50v-544z" />
    <glyph glyph-name="paragraph" unicode="&#xb6;" 
d="M491 -177h-59v853h-120v-853h-58v467q-85 1 -141.5 64.5t-58.5 158.5q1 102 60 158t168 56h209v-904z" />
    <glyph glyph-name="periodcentered" unicode="&#xb7;" horiz-adv-x="365" 
d="M224 261h-83v111h83v-111z" />
    <glyph glyph-name="periodcentered" unicode="&#x2219;" horiz-adv-x="365" 
d="M224 261h-83v111h83v-111z" />
    <glyph glyph-name="cedilla" unicode="&#xb8;" 
d="M425 -38q0 -72 -47 -119t-120 -47q-42 0 -81 16v48h1q37 -19 79 -19q55 0 89 33t34 87q0 31 -5 49h45q5 -20 5 -48z" />
    <glyph glyph-name="onesuperior" unicode="&#xb9;" horiz-adv-x="514" 
d="M389 276h-264v43h109v306h-109v38q65 0 90.5 13.5t31.5 52.5h35v-410h107v-43z" />
    <glyph glyph-name="ordmasculine" unicode="&#xba;" horiz-adv-x="519" 
d="M460 496q0 -108 -57.5 -177t-143.5 -69q-91 0 -146 66q-54 68 -54 180t54 179q55 67 146 67q90 0 146 -68q55 -67 55 -178zM409 497q0 93 -39.5 146t-110.5 53q-73 0 -111.5 -51.5t-38.5 -147.5q0 -92 42 -147.5t108 -55.5q67 0 108.5 55t41.5 148z" />
    <glyph glyph-name="guillemotright" unicode="&#xbb;" horiz-adv-x="542" 
d="M473 301l-256 -214v69l199 161l-199 161v68l256 -213v-32zM295 302l-239 -194v63l187 146l-187 145v63l239 -193v-30z" />
    <glyph glyph-name="onequarter" unicode="&#xbc;" horiz-adv-x="1000" 
d="M894 134h-80v-134h-46v134h-254v55l259 262h41v-274h80v-43zM768 177v215l-213 -215h213zM676 727l-381 -727h-55l381 727h55zM200 276v349h-109v38q65 0 90.5 13.5t31.5 52.5h35v-453h-48z" />
    <glyph glyph-name="onehalf" unicode="&#xbd;" horiz-adv-x="1000" 
d="M944 0h-336v47q136 101 176 138q41 38 65 75q22 35 22 72t-27 58t-76 21q-73 0 -144 -38h-3v53q66 31 140 31q73 0 117 -32.5t44 -88.5q0 -82 -101 -174q-47 -43 -153 -118h276v-44zM674 727l-381 -727h-55l381 727h55zM202 276v349h-109v38q65 0 90.5 13.5t31.5 52.5h35
v-453h-48z" />
    <glyph glyph-name="threequarters" unicode="&#xbe;" horiz-adv-x="1000" 
d="M934 134h-80v-134h-46v134h-254v55l259 262h41v-274h80v-43zM808 177v215l-213 -215h213zM201 267q-83 0 -146 29v52h4q65 -37 148 -37q122 0 122 100q0 40 -30 62t-84 22h-38v45h12q59 0 93.5 23t34.5 60q0 31 -26.5 48t-74.5 17q-82 0 -143 -36h-3v53q61 28 146 28
q69 0 111.5 -28.5t42.5 -76.5q0 -41 -29 -68.5t-77 -35.5v-4q116 -17 116 -111q0 -67 -47.5 -104.5t-131.5 -37.5zM719 727l-381 -727h-55l381 727h55z" />
    <glyph glyph-name="questiondown" unicode="&#xbf;" horiz-adv-x="501" 
d="M292 398q-95 -64 -120 -88q-28 -25 -44 -48q-30 -46 -30 -99q0 -57 42.5 -91t114.5 -34q96 0 159 38h6v-58q-86 -33 -165 -33q-95 0 -152 49.5t-57 132.5q0 112 127 202l73 51v112h46v-134zM241 727h51v-90h-51v90z" />
    <glyph glyph-name="Agrave" unicode="&#xc0;" horiz-adv-x="647" 
d="M494 229h-344l-88 -229h-54l282 727h66l282 -727h-56zM168 277h307l-154 399zM368 822h-38l-100 178h67z" />
    <glyph glyph-name="Aacute" unicode="&#xc1;" horiz-adv-x="647" 
d="M494 229h-344l-88 -229h-54l282 727h66l282 -727h-56zM168 277h307l-154 399zM424 1000l-100 -178h-38l70 178h68z" />
    <glyph glyph-name="Acircumflex" unicode="&#xc2;" horiz-adv-x="647" 
d="M494 229h-344l-88 -229h-54l282 727h66l282 -727h-56zM168 277h307l-154 399zM472 819h-50l-100 132l-100 -132h-52l123 181h56z" />
    <glyph glyph-name="Atilde" unicode="&#xc3;" horiz-adv-x="647" 
d="M494 229h-344l-88 -229h-54l282 727h66l282 -727h-56zM168 277h307l-154 399zM537 968q-4 -65 -34 -103.5t-75 -38.5q-25 0 -47.5 10t-59.5 40q-30 29 -48 39t-39 10q-27 0 -44 -26t-19 -71h-43q4 66 33 104.5t73 38.5q49 0 110 -51q30 -29 48 -39t39 -10q28 0 44.5 26
t18.5 71h43z" />
    <glyph glyph-name="Adieresis" unicode="&#xc4;" horiz-adv-x="647" 
d="M494 229h-344l-88 -229h-54l282 727h66l282 -727h-56zM168 277h307l-154 399zM446 824h-73v76h73v-76zM275 824h-73v76h73v-76z" />
    <glyph glyph-name="Aring" unicode="&#xc5;" horiz-adv-x="647" 
d="M468 833q0 -46 -27.5 -83.5t-72.5 -53.5l270 -696h-56l-88 229h-344l-88 -229h-54l270 697q-45 15 -72 53t-27 83q0 58 42.5 99.5t101.5 41.5q61 0 103 -42q42 -40 42 -99zM168 277h307l-154 399zM428 833q0 42 -30.5 72.5t-74.5 30.5t-74.5 -30.5t-30.5 -72.5
q0 -43 30 -74q31 -31 75 -31q43 0 74 31t31 74z" />
    <glyph glyph-name="AE" unicode="&#xc6;" horiz-adv-x="937" 
d="M183 311l-120 -311h-54l286 727h582v-49h-377v-246h377v-48h-377v-336h377v-48h-429v311h-265zM202 359h246v319h-123z" />
    <glyph glyph-name="Ccedilla" unicode="&#xc7;" horiz-adv-x="690" 
d="M510 -38q0 -72 -47 -119t-120 -47q-42 0 -81 16v48h1q37 -19 79 -19q55 0 89 33t34 87q0 24 -1 31q-28 -5 -68 -5q-150 -2 -247 104t-95 272q-2 168 96.5 273.5t257.5 103.5q67 0 138 -17.5t105 -38.5v-68h-4q-104 75 -237 75q-142 0 -223 -87q-80 -86 -80 -241
q0 -151 80 -239.5t210 -88.5q78 0 135.5 19t114.5 64h4v-61q-51 -35 -144 -58q3 -12 3 -37z" />
    <glyph glyph-name="Egrave" unicode="&#xc8;" horiz-adv-x="613" 
d="M553 0h-460v727h460v-49h-409v-242h408v-49h-408v-339h409v-48zM371 822h-38l-100 178h67z" />
    <glyph glyph-name="Eacute" unicode="&#xc9;" horiz-adv-x="613" 
d="M553 0h-460v727h460v-49h-409v-242h408v-49h-408v-339h409v-48zM437 1000l-100 -178h-38l70 178h68z" />
    <glyph glyph-name="Ecircumflex" unicode="&#xca;" horiz-adv-x="613" 
d="M553 0h-460v727h460v-49h-409v-242h408v-49h-408v-339h409v-48zM477 819h-50l-100 132l-100 -132h-52l123 181h56z" />
    <glyph glyph-name="Edieresis" unicode="&#xcb;" horiz-adv-x="613" 
d="M553 0h-460v727h460v-49h-409v-242h408v-49h-408v-339h409v-48zM456 824h-73v76h73v-76zM285 824h-73v76h73v-76z" />
    <glyph glyph-name="Igrave" unicode="&#xcc;" horiz-adv-x="383" 
d="M313 0h-244v47h97v633h-97v47h244v-47h-96v-633h96v-47zM237 822h-38l-100 178h67z" />
    <glyph glyph-name="Iacute" unicode="&#xcd;" horiz-adv-x="383" 
d="M313 0h-244v47h97v633h-97v47h244v-47h-96v-633h96v-47zM297 1000l-100 -178h-38l70 178h68z" />
    <glyph glyph-name="Icircumflex" unicode="&#xce;" horiz-adv-x="383" 
d="M313 0h-244v47h97v633h-97v47h244v-47h-96v-633h96v-47zM340 819h-50l-100 132l-100 -132h-52l123 181h56z" />
    <glyph glyph-name="Idieresis" unicode="&#xcf;" horiz-adv-x="383" 
d="M313 0h-244v47h97v633h-97v47h244v-47h-96v-633h96v-47zM315 824h-73v76h73v-76zM144 824h-73v76h73v-76z" />
    <glyph glyph-name="Eth" unicode="&#xd0;" horiz-adv-x="729" 
d="M674 363q0 -223 -188 -316q-96 -47 -213 -47h-180v375h-104v50h104v302h178q192 0 297 -96q106 -94 106 -268zM619 364q0 153 -91 233t-267 80h-117v-252h186v-50h-186v-327h109q177 0 271.5 83t94.5 233z" />
    <glyph glyph-name="Ntilde" unicode="&#xd1;" horiz-adv-x="690" 
d="M598 0h-79l-377 677v-677h-49v727h82l373 -673v673h50v-727zM559 968q-4 -65 -34 -103.5t-75 -38.5q-25 0 -47.5 10t-59.5 40q-30 29 -48 39t-39 10q-27 0 -44 -26t-19 -71h-43q4 66 33 104.5t73 38.5q49 0 110 -51q30 -29 48 -39t39 -10q28 0 44.5 26t18.5 71h43z" />
    <glyph glyph-name="Ograve" unicode="&#xd2;" horiz-adv-x="767" 
d="M384 742q144 3 237 -105t91 -274q1 -165 -92 -273.5t-237 -104.5q-143 -4 -236.5 105.5t-91.5 273.5q-1 165 92.5 273.5t236.5 104.5zM659 363q0 147 -75 238.5t-201 91.5q-123 3 -200 -90.5t-75 -238.5q-2 -147 74.5 -239.5t200.5 -90.5q125 -3 201.5 90t74.5 239z
M423 822h-38l-100 178h67z" />
    <glyph glyph-name="Oacute" unicode="&#xd3;" horiz-adv-x="767" 
d="M384 742q144 3 237 -105t91 -274q1 -165 -92 -273.5t-237 -104.5q-143 -4 -236.5 105.5t-91.5 273.5q-1 165 92.5 273.5t236.5 104.5zM659 363q0 147 -75 238.5t-201 91.5q-123 3 -200 -90.5t-75 -238.5q-2 -147 74.5 -239.5t200.5 -90.5q125 -3 201.5 90t74.5 239z
M484 1000l-100 -178h-38l70 178h68z" />
    <glyph glyph-name="Ocircumflex" unicode="&#xd4;" horiz-adv-x="767" 
d="M384 742q144 3 237 -105t91 -274q1 -165 -92 -273.5t-237 -104.5q-143 -4 -236.5 105.5t-91.5 273.5q-1 165 92.5 273.5t236.5 104.5zM659 363q0 147 -75 238.5t-201 91.5q-123 3 -200 -90.5t-75 -238.5q-2 -147 74.5 -239.5t200.5 -90.5q125 -3 201.5 90t74.5 239z
M530 819h-50l-100 132l-100 -132h-52l123 181h56z" />
    <glyph glyph-name="Otilde" unicode="&#xd5;" horiz-adv-x="767" 
d="M384 742q144 3 237 -105t91 -274q1 -165 -92 -273.5t-237 -104.5q-143 -4 -236.5 105.5t-91.5 273.5q-1 165 92.5 273.5t236.5 104.5zM659 363q0 147 -75 238.5t-201 91.5q-123 3 -200 -90.5t-75 -238.5q-2 -147 74.5 -239.5t200.5 -90.5q125 -3 201.5 90t74.5 239z
M597 968q-4 -65 -34 -103.5t-75 -38.5q-25 0 -47.5 10t-59.5 40q-30 29 -48 39t-39 10q-27 0 -44 -26t-19 -71h-43q4 66 33 104.5t73 38.5q49 0 110 -51q30 -29 48 -39t39 -10q28 0 44.5 26t18.5 71h43z" />
    <glyph glyph-name="Odieresis" unicode="&#xd6;" horiz-adv-x="767" 
d="M384 742q144 3 237 -105t91 -274q1 -165 -92 -273.5t-237 -104.5q-143 -4 -236.5 105.5t-91.5 273.5q-1 165 92.5 273.5t236.5 104.5zM659 363q0 147 -75 238.5t-201 91.5q-123 3 -200 -90.5t-75 -238.5q-2 -147 74.5 -239.5t200.5 -90.5q125 -3 201.5 90t74.5 239z
M506 824h-73v76h73v-76zM335 824h-73v76h73v-76z" />
    <glyph glyph-name="multiply" unicode="&#xd7;" horiz-adv-x="794" 
d="M148 103l213 212l-213 213l36 36l212 -213l213 213l36 -36l-213 -213l213 -212l-36 -36l-213 213l-212 -213z" />
    <glyph glyph-name="Oslash" unicode="&#xd8;" horiz-adv-x="767" 
d="M605 656q107 -105 107 -293q3 -168 -90 -274t-239 -104q-110 0 -192 62l-82 -119h-46l99 145q-51 51 -79 127t-28 163q-3 166 91 273.5t238 105.5q111 0 193 -61l75 110h45zM108 364q0 -159 83 -249l356 523q-67 55 -164 55q-130 0 -202.5 -87t-72.5 -242zM659 364
q0 154 -84 248l-356 -524q67 -54 165 -54q128 0 201.5 89.5t73.5 240.5z" />
    <glyph glyph-name="Ugrave" unicode="&#xd9;" horiz-adv-x="690" 
d="M602 267q0 -136 -66 -209t-191 -73q-257 0 -257 283v459h51v-472q0 -108 53.5 -166.5t152.5 -58.5q100 0 153 57t53 164v476h51v-460zM414 822h-38l-100 178h67z" />
    <glyph glyph-name="Uacute" unicode="&#xda;" horiz-adv-x="690" 
d="M602 267q0 -136 -66 -209t-191 -73q-257 0 -257 283v459h51v-472q0 -108 53.5 -166.5t152.5 -58.5q100 0 153 57t53 164v476h51v-460zM465 1000l-100 -178h-38l70 178h68z" />
    <glyph glyph-name="Ucircumflex" unicode="&#xdb;" horiz-adv-x="690" 
d="M602 267q0 -136 -66 -209t-191 -73q-257 0 -257 283v459h51v-472q0 -108 53.5 -166.5t152.5 -58.5q100 0 153 57t53 164v476h51v-460zM493 819h-50l-100 132l-100 -132h-52l123 181h56z" />
    <glyph glyph-name="Udieresis" unicode="&#xdc;" horiz-adv-x="690" 
d="M602 267q0 -136 -66 -209t-191 -73q-257 0 -257 283v459h51v-472q0 -108 53.5 -166.5t152.5 -58.5q100 0 153 57t53 164v476h51v-460zM467 824h-73v76h73v-76zM296 824h-73v76h73v-76z" />
    <glyph glyph-name="Yacute" unicode="&#xdd;" 
d="M554 727l-250 -401v-326h-52v319l-249 408h57l217 -356l222 356h55zM389 1000l-100 -178h-38l70 178h68z" />
    <glyph glyph-name="Thorn" unicode="&#xde;" horiz-adv-x="543" 
d="M516 382q0 -100 -70 -155t-198 -55h-104v-172h-51v727h51v-143h103q132 0 200.5 -51.5t68.5 -150.5zM462 381q0 78 -52 116.5t-164 38.5h-102v-317h102q216 0 216 162z" />
    <glyph glyph-name="germandbls" unicode="&#xdf;" horiz-adv-x="574" 
d="M517 229q0 -110 -60.5 -176.5t-163.5 -66.5q-49 0 -100 17v55h4q46 -27 103 -27q78 0 120.5 51.5t42.5 146.5q0 99 -58 153t-163 54v40q90 0 133 31.5t43 98.5q0 53 -33 83.5t-92 30.5q-72 0 -110.5 -48.5t-38.5 -140.5v-531h-50v527q0 110 54.5 174t148.5 64
q77 0 126 -43t49 -113q0 -56 -32 -96.5t-84 -53.5v-4q78 -23 119.5 -82t41.5 -144z" />
    <glyph glyph-name="agrave" unicode="&#xe0;" 
d="M418 58q-50 -41 -92 -56.5t-95 -15.5q-84 0 -134 45.5t-50 120.5q0 102 88 147.5t283 48.5v32q0 60 -42.5 95t-113.5 35q-86 0 -163 -37h-3v58q67 28 158 28q215 0 215 -190v-369h-51v58zM418 305q-125 -5 -192 -20.5t-95.5 -46t-31.5 -85.5q0 -56 34.5 -90t92.5 -34
q105 0 192 77v199zM319 640h-38l-100 178h67z" />
    <glyph glyph-name="aacute" unicode="&#xe1;" 
d="M418 58q-50 -41 -92 -56.5t-95 -15.5q-84 0 -134 45.5t-50 120.5q0 102 88 147.5t283 48.5v32q0 60 -42.5 95t-113.5 35q-86 0 -163 -37h-3v58q67 28 158 28q215 0 215 -190v-369h-51v58zM418 305q-125 -5 -192 -20.5t-95.5 -46t-31.5 -85.5q0 -56 34.5 -90t92.5 -34
q105 0 192 77v199zM399 818l-100 -178h-38l70 178h68z" />
    <glyph glyph-name="acircumflex" unicode="&#xe2;" 
d="M418 58q-50 -41 -92 -56.5t-95 -15.5q-84 0 -134 45.5t-50 120.5q0 102 88 147.5t283 48.5v32q0 60 -42.5 95t-113.5 35q-86 0 -163 -37h-3v58q67 28 158 28q215 0 215 -190v-369h-51v58zM418 305q-125 -5 -192 -20.5t-95.5 -46t-31.5 -85.5q0 -56 34.5 -90t92.5 -34
q105 0 192 77v199zM427 637h-50l-100 132l-100 -132h-52l123 181h56z" />
    <glyph glyph-name="atilde" unicode="&#xe3;" 
d="M418 58q-50 -41 -92 -56.5t-95 -15.5q-84 0 -134 45.5t-50 120.5q0 102 88 147.5t283 48.5v32q0 60 -42.5 95t-113.5 35q-86 0 -163 -37h-3v58q67 28 158 28q215 0 215 -190v-369h-51v58zM418 305q-125 -5 -192 -20.5t-95.5 -46t-31.5 -85.5q0 -56 34.5 -90t92.5 -34
q105 0 192 77v199zM492 786q-4 -65 -34 -103.5t-75 -38.5q-25 0 -47.5 10t-59.5 40q-30 29 -48 39t-39 10q-27 0 -44 -26t-19 -71h-43q4 66 33 104.5t73 38.5q49 0 110 -51q30 -29 48 -39t39 -10q28 0 44.5 26t18.5 71h43z" />
    <glyph glyph-name="adieresis" unicode="&#xe4;" 
d="M418 58q-50 -41 -92 -56.5t-95 -15.5q-84 0 -134 45.5t-50 120.5q0 102 88 147.5t283 48.5v32q0 60 -42.5 95t-113.5 35q-86 0 -163 -37h-3v58q67 28 158 28q215 0 215 -190v-369h-51v58zM418 305q-125 -5 -192 -20.5t-95.5 -46t-31.5 -85.5q0 -56 34.5 -90t92.5 -34
q105 0 192 77v199zM401 642h-73v76h73v-76zM230 642h-73v76h73v-76z" />
    <glyph glyph-name="aring" unicode="&#xe5;" 
d="M418 58q-50 -41 -92 -56.5t-95 -15.5q-84 0 -134 45.5t-50 120.5q0 102 88 147.5t283 48.5v32q0 60 -42.5 95t-113.5 35q-86 0 -163 -37h-3v58q67 28 158 28q215 0 215 -190v-369h-51v58zM418 305q-125 -5 -192 -20.5t-95.5 -46t-31.5 -85.5q0 -56 34.5 -90t92.5 -34
q105 0 192 77v199zM418 788q0 -59 -43 -101q-42 -42 -101 -42q-58 0 -102 42q-43 42 -43 101t43 100.5t102 41.5q62 0 102 -42q42 -42 42 -100zM379 788q0 43 -30.5 73t-74.5 30t-74.5 -30t-30.5 -73t30.5 -73.5t74.5 -30.5q42 0 73 30q32 32 32 74z" />
    <glyph glyph-name="ae" unicode="&#xe6;" horiz-adv-x="911" 
d="M458 274q0 -112 54.5 -177t147.5 -65q50 0 105 18q58 20 82 41h4v-57q-96 -46 -180 -46q-153 0 -219 108q-59 -62 -105 -84.5t-116 -25.5q-84 0 -134 45.5t-50 120.5q3 103 86 146.5t285 49.5v32q0 60 -42.5 95t-113.5 35q-86 0 -163 -37h-3v58q67 28 158 28
q162 0 202 -109q67 108 195 108q95 0 153 -66q58 -64 58 -174v-44h-404zM432 135q-22 57 -22 133l1 37q-121 -6 -186 -21.5t-94 -46t-32 -84.5q0 -56 34.5 -90t92.5 -34q61 0 108.5 24.5t97.5 81.5zM815 320q0 90 -43.5 141t-120.5 51q-79 0 -130 -50.5t-62 -141.5h356z" />
    <glyph glyph-name="ccedilla" unicode="&#xe7;" horiz-adv-x="504" 
d="M370 -38q0 -72 -47 -119t-120 -47q-42 0 -81 16v48h1q37 -19 79 -19q55 0 89 33t34 87l-1 31q-20 -3 -35 -3q-114 0 -175 74t-61 209q0 131 64 207q65 78 177 78q71 0 166 -49v-62h-4q-88 64 -171 64q-86 0 -133 -62t-47 -176q0 -111 48.5 -176t129.5 -65t173 67h4v-52
q-28 -26 -93 -45q3 -18 3 -39z" />
    <glyph glyph-name="egrave" unicode="&#xe8;" horiz-adv-x="554" 
d="M101 274q0 -112 54.5 -177t147.5 -65q49 0 105 18q58 20 82 41h4v-57q-96 -46 -180 -46q-124 0 -192.5 73.5t-68.5 207.5q0 129 66.5 209t174.5 80q94 0 153 -66q58 -64 58 -174v-44h-404zM458 320q0 90 -43.5 141t-120.5 51q-79 0 -132 -53q-51 -51 -59 -139h355z
M321 640h-38l-100 178h67z" />
    <glyph glyph-name="eacute" unicode="&#xe9;" horiz-adv-x="554" 
d="M101 274q0 -112 54.5 -177t147.5 -65q49 0 105 18q58 20 82 41h4v-57q-96 -46 -180 -46q-124 0 -192.5 73.5t-68.5 207.5q0 129 66.5 209t174.5 80q94 0 153 -66q58 -64 58 -174v-44h-404zM458 320q0 90 -43.5 141t-120.5 51q-79 0 -132 -53q-51 -51 -59 -139h355z
M391 818l-100 -178h-38l70 178h68z" />
    <glyph glyph-name="ecircumflex" unicode="&#xea;" horiz-adv-x="554" 
d="M101 274q0 -112 54.5 -177t147.5 -65q49 0 105 18q58 20 82 41h4v-57q-96 -46 -180 -46q-124 0 -192.5 73.5t-68.5 207.5q0 129 66.5 209t174.5 80q94 0 153 -66q58 -64 58 -174v-44h-404zM458 320q0 90 -43.5 141t-120.5 51q-79 0 -132 -53q-51 -51 -59 -139h355z
M438 637h-50l-100 132l-100 -132h-52l123 181h56z" />
    <glyph glyph-name="edieresis" unicode="&#xeb;" horiz-adv-x="554" 
d="M101 274q0 -112 54.5 -177t147.5 -65q49 0 105 18q58 20 82 41h4v-57q-96 -46 -180 -46q-124 0 -192.5 73.5t-68.5 207.5q0 129 66.5 209t174.5 80q94 0 153 -66q58 -64 58 -174v-44h-404zM458 320q0 90 -43.5 141t-120.5 51q-79 0 -132 -53q-51 -51 -59 -139h355z
M416 642h-73v76h73v-76zM245 642h-73v76h73v-76z" />
    <glyph glyph-name="igrave" unicode="&#xec;" horiz-adv-x="250" 
d="M150 0h-50v544h50v-544zM165 640h-38l-100 178h67z" />
    <glyph glyph-name="iacute" unicode="&#xed;" horiz-adv-x="250" 
d="M150 0h-50v544h50v-544zM236 818l-100 -178h-38l70 178h68z" />
    <glyph glyph-name="icircumflex" unicode="&#xee;" horiz-adv-x="250" 
d="M259 637h-51l-84 136l-86 -136h-52l108 181h56zM150 0h-50v544h50v-544z" />
    <glyph glyph-name="idieresis" unicode="&#xef;" horiz-adv-x="250" 
d="M248 642h-73v76h73v-76zM77 642h-74v76h74v-76zM150 0h-50v544h50v-544z" />
    <glyph glyph-name="eth" unicode="&#xf0;" horiz-adv-x="578" 
d="M360 664q158 -149 158 -358q0 -151 -62 -235.5t-175 -84.5q-101 0 -163 65q-61 65 -61 178q0 102 59 167.5t155 65.5q54 0 93 -13q42 -13 100 -51q-27 141 -136 241l-120 -95l-24 24l118 93q-70 55 -159 93v6h81q57 -31 110 -73l93 73l24 -25zM279 26q92 0 140.5 68.5
t48.5 199.5v16l-2 44q-82 61 -186 61q-78 0 -125 -51.5t-47 -137.5q0 -95 44.5 -147.5t126.5 -52.5z" />
    <glyph glyph-name="ntilde" unicode="&#xf1;" horiz-adv-x="585" 
d="M497 0h-49v346q0 163 -125 163q-48 0 -97.5 -22t-87.5 -61v-426h-50v544h50v-68q37 35 87 59q52 24 95 24q84 0 130.5 -50.5t46.5 -141.5v-367zM506 786q-4 -65 -34 -103.5t-75 -38.5q-25 0 -47.5 10t-59.5 40q-30 29 -48 39t-39 10q-27 0 -44 -26t-19 -71h-43
q4 66 33 104.5t73 38.5q49 0 110 -51q30 -29 48 -39t39 -10q28 0 44.5 26t18.5 71h43z" />
    <glyph glyph-name="ograve" unicode="&#xf2;" horiz-adv-x="561" 
d="M508 272q0 -130 -62.5 -208t-165.5 -78q-104 0 -166 78q-61 79 -61 208q0 131 62 208.5t165 77.5q105 0 166 -79q62 -79 62 -207zM104 272q0 -114 47.5 -178t128.5 -64t129 64t48 178q0 113 -47.5 177t-129.5 64q-81 0 -128.5 -64t-47.5 -177zM316 640h-38l-100 178h67z
" />
    <glyph glyph-name="oacute" unicode="&#xf3;" horiz-adv-x="561" 
d="M508 272q0 -130 -62.5 -208t-165.5 -78q-104 0 -166 78q-61 79 -61 208q0 131 62 208.5t165 77.5q105 0 166 -79q62 -79 62 -207zM104 272q0 -114 47.5 -178t128.5 -64t129 64t48 178q0 113 -47.5 177t-129.5 64q-81 0 -128.5 -64t-47.5 -177zM396 818l-100 -178h-38
l70 178h68z" />
    <glyph glyph-name="ocircumflex" unicode="&#xf4;" horiz-adv-x="561" 
d="M508 272q0 -130 -62.5 -208t-165.5 -78q-104 0 -166 78q-61 79 -61 208q0 131 62 208.5t165 77.5q105 0 166 -79q62 -79 62 -207zM104 272q0 -114 47.5 -178t128.5 -64t129 64t48 178q0 113 -47.5 177t-129.5 64q-81 0 -128.5 -64t-47.5 -177zM429 637h-50l-100 132
l-100 -132h-52l123 181h56z" />
    <glyph glyph-name="otilde" unicode="&#xf5;" horiz-adv-x="561" 
d="M508 272q0 -130 -62.5 -208t-165.5 -78q-104 0 -166 78q-61 79 -61 208q0 131 62 208.5t165 77.5q105 0 166 -79q62 -79 62 -207zM104 272q0 -114 47.5 -178t128.5 -64t129 64t48 178q0 113 -47.5 177t-129.5 64q-81 0 -128.5 -64t-47.5 -177zM489 786q-4 -65 -34 -103.5
t-75 -38.5q-25 0 -47.5 10t-59.5 40q-30 29 -48 39t-39 10q-27 0 -44 -26t-19 -71h-43q4 66 33 104.5t73 38.5q49 0 110 -51q30 -29 48 -39t39 -10q28 0 44.5 26t18.5 71h43z" />
    <glyph glyph-name="odieresis" unicode="&#xf6;" horiz-adv-x="561" 
d="M508 272q0 -130 -62.5 -208t-165.5 -78q-104 0 -166 78q-61 79 -61 208q0 131 62 208.5t165 77.5q105 0 166 -79q62 -79 62 -207zM104 272q0 -114 47.5 -178t128.5 -64t129 64t48 178q0 113 -47.5 177t-129.5 64q-81 0 -128.5 -64t-47.5 -177zM403 642h-73v76h73v-76z
M232 642h-73v76h73v-76z" />
    <glyph glyph-name="divide" unicode="&#xf7;" horiz-adv-x="779" 
d="M428 521h-78v105h78v-105zM428 0h-78v105h78v-105zM686 292h-593v47h593v-47z" />
    <glyph glyph-name="oslash" unicode="&#xf8;" horiz-adv-x="561" 
d="M435 491q73 -79 73 -220q2 -122 -64.5 -204.5t-163.5 -80.5q-76 0 -132 44l-61 -99h-43l77 125q-68 77 -68 215q0 131 61 208q61 79 166 79q72 0 128 -42l53 87h44zM104 273q0 -109 45 -173l234 377q-43 35 -103 35q-86 0 -131 -62t-45 -177zM457 273q0 113 -48 177
l-235 -379q46 -41 105 -41q80 0 129 66.5t49 176.5z" />
    <glyph glyph-name="ugrave" unicode="&#xf9;" horiz-adv-x="585" 
d="M497 0h-50v72q-85 -87 -181 -87q-85 0 -131.5 49.5t-46.5 142.5v367h49v-345q0 -163 126 -163q49 0 102 25q54 25 82 62v421h50v-544zM328 640h-38l-100 178h67z" />
    <glyph glyph-name="uacute" unicode="&#xfa;" horiz-adv-x="585" 
d="M497 0h-50v72q-85 -87 -181 -87q-85 0 -131.5 49.5t-46.5 142.5v367h49v-345q0 -163 126 -163q49 0 102 25q54 25 82 62v421h50v-544zM403 818l-100 -178h-38l70 178h68z" />
    <glyph glyph-name="ucircumflex" unicode="&#xfb;" horiz-adv-x="585" 
d="M497 0h-50v72q-85 -87 -181 -87q-85 0 -131.5 49.5t-46.5 142.5v367h49v-345q0 -163 126 -163q49 0 102 25q54 25 82 62v421h50v-544zM441 637h-50l-100 132l-100 -132h-52l123 181h56z" />
    <glyph glyph-name="udieresis" unicode="&#xfc;" horiz-adv-x="585" 
d="M497 0h-50v72q-85 -87 -181 -87q-85 0 -131.5 49.5t-46.5 142.5v367h49v-345q0 -163 126 -163q49 0 102 25q54 25 82 62v421h50v-544zM415 642h-73v76h73v-76zM244 642h-73v76h73v-76z" />
    <glyph glyph-name="yacute" unicode="&#xfd;" 
d="M96 544q34 -79 95.5 -229t87.5 -211l188 440h54l-325 -745h-54l110 244l-211 501h55zM399 818l-100 -178h-38l70 178h68z" />
    <glyph glyph-name="thorn" unicode="&#xfe;" horiz-adv-x="573" 
d="M519 283q0 -136 -61 -215.5t-164 -79.5q-88 0 -156 39v-228h-50v961h50v-283q99 82 180 82q96 0 148.5 -73t52.5 -203zM468 276q0 114 -37 173.5t-109 59.5q-104 0 -184 -83v-344q68 -49 158 -49q79 0 125.5 66t46.5 177z" />
    <glyph glyph-name="ydieresis" unicode="&#xff;" 
d="M96 544q34 -79 95.5 -229t87.5 -211l188 440h54l-325 -745h-54l110 244l-211 501h55zM401 642h-73v76h73v-76zM230 642h-73v76h73v-76z" />
    <glyph glyph-name="Amacron" unicode="&#x100;" horiz-adv-x="647" 
d="M494 229h-344l-88 -229h-54l282 727h66l282 -727h-56zM168 277h307l-154 399zM497 846h-348v47h348v-47z" />
    <glyph glyph-name="amacron" unicode="&#x101;" 
d="M418 58q-50 -41 -92 -56.5t-95 -15.5q-84 0 -134 45.5t-50 120.5q0 102 88 147.5t283 48.5v32q0 60 -42.5 95t-113.5 35q-86 0 -163 -37h-3v58q67 28 158 28q215 0 215 -190v-369h-51v58zM418 305q-125 -5 -192 -20.5t-95.5 -46t-31.5 -85.5q0 -56 34.5 -90t92.5 -34
q105 0 192 77v199zM452 664h-348v47h348v-47z" />
    <glyph glyph-name="Abreve" unicode="&#x102;" horiz-adv-x="647" 
d="M494 229h-344l-88 -229h-54l282 727h66l282 -727h-56zM168 277h307l-154 399zM502 1001q-8 -83 -57 -135t-123 -52t-123 52t-57 135h44q5 -66 42 -106t94 -40q56 0 93.5 40t42.5 106h44z" />
    <glyph glyph-name="abreve" unicode="&#x103;" 
d="M418 58q-50 -41 -92 -56.5t-95 -15.5q-84 0 -134 45.5t-50 120.5q0 102 88 147.5t283 48.5v32q0 60 -42.5 95t-113.5 35q-86 0 -163 -37h-3v58q67 28 158 28q215 0 215 -190v-369h-51v58zM418 305q-125 -5 -192 -20.5t-95.5 -46t-31.5 -85.5q0 -56 34.5 -90t92.5 -34
q105 0 192 77v199zM458 819q-8 -83 -57 -135t-123 -52t-123 52t-57 135h44q5 -66 42 -106t94 -40q56 0 93.5 40t42.5 106h44z" />
    <glyph glyph-name="Aogonek" unicode="&#x104;" horiz-adv-x="647" 
d="M792 -188q-39 -16 -81 -16q-65 2 -108 48t-43 118q0 34 11 67l-77 200h-344l-88 -229h-54l282 727h66l282 -727h-34q-2 -22 -2 -29q0 -56 31 -93t79 -37q41 0 79 19h1v-48zM168 277h307l-154 399z" />
    <glyph glyph-name="aogonek" unicode="&#x105;" 
d="M561 -204q-63 0 -104 47t-41 119q0 18 2 38v58q-50 -41 -92 -56.5t-95 -15.5q-84 0 -134 45.5t-50 120.5q0 102 88 147.5t283 48.5v32q0 60 -42.5 95t-113.5 35q-86 0 -163 -37h-3v58q67 28 158 28q215 0 215 -190v-369h-6q-2 -22 -2 -39q0 -54 28 -87t73 -33q41 0 78 19
h1v-48q-39 -16 -80 -16zM418 305q-125 -5 -192 -20.5t-95.5 -46t-31.5 -85.5q0 -56 34.5 -90t92.5 -34q105 0 192 77v199z" />
    <glyph glyph-name="Cacute" unicode="&#x106;" horiz-adv-x="690" 
d="M396 -13q-150 -2 -247 104t-95 272q-2 168 96.5 273.5t257.5 103.5q67 0 138 -17.5t105 -38.5v-68h-4q-107 75 -237 75q-142 0 -223 -87q-80 -86 -80 -241q0 -151 80 -239.5t210 -88.5q78 0 135 19t115 64h4v-61q-104 -70 -255 -70zM475 1000l-100 -178h-38l70 178h68z
" />
    <glyph glyph-name="cacute" unicode="&#x107;" horiz-adv-x="504" 
d="M289 -11q-114 0 -175 74t-61 209q0 131 64 207q65 78 177 78q71 0 166 -49v-62h-4q-88 64 -171 64q-86 0 -133 -62t-47 -176q0 -111 48.5 -176t129.5 -65t173 67h4v-52q-22 -22 -75 -40q-53 -17 -96 -17zM386 818l-100 -178h-38l70 178h68z" />
    <glyph glyph-name="Ccircumflex" unicode="&#x108;" horiz-adv-x="690" 
d="M396 -13q-150 -2 -247 104t-95 272q-2 168 96.5 273.5t257.5 103.5q67 0 138 -17.5t105 -38.5v-68h-4q-107 75 -237 75q-142 0 -223 -87q-80 -86 -80 -241q0 -151 80 -239.5t210 -88.5q78 0 135 19t115 64h4v-61q-104 -70 -255 -70zM547 819h-50l-100 132l-100 -132h-52
l123 181h56z" />
    <glyph glyph-name="ccircumflex" unicode="&#x109;" horiz-adv-x="504" 
d="M289 -11q-114 0 -175 74t-61 209q0 131 64 207q65 78 177 78q71 0 166 -49v-62h-4q-88 64 -171 64q-86 0 -133 -62t-47 -176q0 -111 48.5 -176t129.5 -65t173 67h4v-52q-22 -22 -75 -40q-53 -17 -96 -17zM447 637h-50l-100 132l-100 -132h-52l123 181h56z" />
    <glyph glyph-name="Cdotaccent" unicode="&#x10a;" horiz-adv-x="690" 
d="M396 -13q-150 -2 -247 104t-95 272q-2 168 96.5 273.5t257.5 103.5q67 0 138 -17.5t105 -38.5v-68h-4q-107 75 -237 75q-142 0 -223 -87q-80 -86 -80 -241q0 -151 80 -239.5t210 -88.5q78 0 135 19t115 64h4v-61q-104 -70 -255 -70zM428 824h-63v77h63v-77z" />
    <glyph glyph-name="cdotaccent" unicode="&#x10b;" horiz-adv-x="504" 
d="M289 -11q-114 0 -175 74t-61 209q0 131 64 207q65 78 177 78q71 0 166 -49v-62h-4q-88 64 -171 64q-86 0 -133 -62t-47 -176q0 -111 48.5 -176t129.5 -65t173 67h4v-52q-22 -22 -75 -40q-53 -17 -96 -17zM324 642h-63v77h63v-77z" />
    <glyph glyph-name="Ccaron" unicode="&#x10c;" horiz-adv-x="690" 
d="M396 -13q-150 -2 -247 104t-95 272q-2 168 96.5 273.5t257.5 103.5q67 0 138 -17.5t105 -38.5v-68h-4q-107 75 -237 75q-142 0 -223 -87q-80 -86 -80 -241q0 -151 80 -239.5t210 -88.5q78 0 135 19t115 64h4v-61q-104 -70 -255 -70zM546 1000l-123 -181h-56l-123 181h52
l100 -131l100 131h50z" />
    <glyph glyph-name="ccaron" unicode="&#x10d;" horiz-adv-x="504" 
d="M289 -11q-114 0 -175 74t-61 209q0 131 64 207q65 78 177 78q71 0 166 -49v-62h-4q-88 64 -171 64q-86 0 -133 -62t-47 -176q0 -111 48.5 -176t129.5 -65t173 67h4v-52q-22 -22 -75 -40q-53 -17 -96 -17zM445 818l-123 -181h-56l-123 181h52l100 -131l100 131h50z" />
    <glyph glyph-name="Dcaron" unicode="&#x10e;" horiz-adv-x="729" 
d="M674 363q0 -223 -188 -316q-96 -47 -213 -47h-180v727h178q192 0 297 -96q106 -94 106 -268zM619 364q0 153 -91 233t-267 80h-117v-629h109q177 0 271.5 83t94.5 233zM467 1000l-123 -181h-56l-123 181h52l100 -131l100 131h50z" />
    <glyph glyph-name="dcaron" unicode="&#x10f;" horiz-adv-x="597" 
d="M697 760l-103 -242h-39l72 242h70zM484 0h-49v66q-88 -79 -174 -79q-98 0 -153 74t-55 207q-2 123 64 208t164 82q74 0 154 -42v244h49v-760zM435 465q-71 48 -156 48q-80 0 -128 -67q-47 -67 -47 -176q0 -114 39 -174.5t112 -60.5q49 0 89 17t91 58v355z" />
    <glyph glyph-name="Dcroat" unicode="&#x110;" horiz-adv-x="729" 
d="M674 363q0 -223 -188 -316q-96 -47 -213 -47h-180v375h-104v50h104v302h178q192 0 297 -96q106 -94 106 -268zM619 364q0 153 -91 233t-267 80h-117v-252h186v-50h-186v-327h109q177 0 271.5 83t94.5 233z" />
    <glyph glyph-name="dcroat" unicode="&#x111;" horiz-adv-x="573" 
d="M484 630v-630h-49v66q-88 -79 -174 -79q-98 0 -153 74t-55 207q-2 123 64 208t164 82q74 0 154 -42v114h-155v44h155v86h49v-86h91v-44h-91zM435 465q-71 48 -156 48q-80 0 -128 -67q-47 -67 -47 -176q0 -114 39 -174.5t112 -60.5q49 0 89 17t91 58v355z" />
    <glyph glyph-name="Emacron" unicode="&#x112;" horiz-adv-x="613" 
d="M553 0h-460v727h460v-49h-409v-242h408v-49h-408v-339h409v-48zM500 846h-348v47h348v-47z" />
    <glyph glyph-name="emacron" unicode="&#x113;" horiz-adv-x="554" 
d="M101 274q0 -112 54.5 -177t147.5 -65q49 0 105 18q58 20 82 41h4v-57q-96 -46 -180 -46q-124 0 -192.5 73.5t-68.5 207.5q0 129 66.5 209t174.5 80q94 0 153 -66q58 -64 58 -174v-44h-404zM458 320q0 90 -43.5 141t-120.5 51q-79 0 -132 -53q-51 -51 -59 -139h355z
M455 664h-348v47h348v-47z" />
    <glyph glyph-name="Ebreve" unicode="&#x114;" horiz-adv-x="613" 
d="M553 0h-460v727h460v-49h-409v-242h408v-49h-408v-339h409v-48zM515 1001q-7 -83 -57 -135q-49 -52 -123 -52t-123 52q-50 52 -57 135h44q5 -66 42 -106t94 -40q56 0 93.5 40t42.5 106h44z" />
    <glyph glyph-name="ebreve" unicode="&#x115;" horiz-adv-x="554" 
d="M101 274q0 -112 54.5 -177t147.5 -65q49 0 105 18q58 20 82 41h4v-57q-96 -46 -180 -46q-124 0 -192.5 73.5t-68.5 207.5q0 129 66.5 209t174.5 80q94 0 153 -66q58 -64 58 -174v-44h-404zM458 320q0 90 -43.5 141t-120.5 51q-79 0 -132 -53q-51 -51 -59 -139h355z
M472 819q-8 -83 -57 -135t-123 -52t-123 52t-57 135h44q5 -66 42 -106t94 -40q56 0 93.5 40t42.5 106h44z" />
    <glyph glyph-name="Edotaccent" unicode="&#x116;" horiz-adv-x="613" 
d="M553 0h-460v727h460v-49h-409v-242h408v-49h-408v-339h409v-48zM376 824h-63v77h63v-77z" />
    <glyph glyph-name="edotaccent" unicode="&#x117;" horiz-adv-x="554" 
d="M101 274q0 -112 54.5 -177t147.5 -65q49 0 105 18q58 20 82 41h4v-57q-96 -46 -180 -46q-124 0 -192.5 73.5t-68.5 207.5q0 129 66.5 209t174.5 80q94 0 153 -66q58 -64 58 -174v-44h-404zM458 320q0 90 -43.5 141t-120.5 51q-79 0 -132 -53q-51 -51 -59 -139h355z
M328 642h-63v77h63v-77z" />
    <glyph glyph-name="Eogonek" unicode="&#x118;" horiz-adv-x="613" 
d="M473 -204q-63 0 -104 47t-41 119q0 23 3 38h-238v727h460v-49h-409v-242h408v-49h-408v-339h409v-48h-178q-2 -22 -2 -39q0 -54 28 -87t73 -33q41 0 78 19h1v-48q-39 -16 -80 -16z" />
    <glyph glyph-name="eogonek" unicode="&#x119;" horiz-adv-x="554" 
d="M414 -204q-63 0 -104 47t-41 119q0 14 2 28q-104 13 -161 85.5t-57 193.5q0 129 66.5 209t174.5 80q94 0 153 -66q58 -64 58 -174v-44h-404q0 -112 54.5 -177t147.5 -65q49 0 105 18q58 20 82 41h4v-57q-96 -46 -179 -46l-1 -13v-14q0 -54 28 -87t73 -33q41 0 78 19h1
v-48q-39 -16 -80 -16zM458 320q0 90 -43.5 141t-120.5 51q-79 0 -132 -53q-51 -51 -59 -139h355z" />
    <glyph glyph-name="Ecaron" unicode="&#x11a;" horiz-adv-x="613" 
d="M553 0h-460v727h460v-49h-409v-242h408v-49h-408v-339h409v-48zM474 1000l-123 -181h-56l-123 181h52l100 -131l100 131h50z" />
    <glyph glyph-name="ecaron" unicode="&#x11b;" horiz-adv-x="554" 
d="M101 274q0 -112 54.5 -177t147.5 -65q49 0 105 18q58 20 82 41h4v-57q-96 -46 -180 -46q-124 0 -192.5 73.5t-68.5 207.5q0 129 66.5 209t174.5 80q94 0 153 -66q58 -64 58 -174v-44h-404zM458 320q0 90 -43.5 141t-120.5 51q-79 0 -132 -53q-51 -51 -59 -139h355z
M444 818l-123 -181h-56l-123 181h52l100 -131l100 131h50z" />
    <glyph glyph-name="Gcircumflex" unicode="&#x11c;" horiz-adv-x="745" 
d="M684 60q-57 -35 -125.5 -55t-129.5 -20q-173 0 -273.5 101.5t-100.5 277.5q0 173 97 274.5t264 101.5q130 0 260 -66v-67h-4q-136 83 -271 83q-138 0 -216 -87q-77 -86 -77 -236q0 -157 81 -245q82 -88 226 -88q127 0 219 54v212h-218v48h268v-288zM545 819h-50l-100 132
l-100 -132h-52l123 181h56z" />
    <glyph glyph-name="gcircumflex" unicode="&#x11d;" horiz-adv-x="572" 
d="M484 71q0 -143 -56 -210.5t-173 -67.5q-62 0 -145 26v54h6q22 -13 68 -22.5t94 -9.5q72 0 114.5 51t42.5 141v56q-49 -46 -90 -62.5t-94 -16.5q-93 0 -145.5 70t-52.5 192q-4 124 62.5 206.5t165.5 82.5q39 0 73 -8q33 -8 82 -33l5 24h43v-473zM435 465q-67 49 -156 49
q-81 0 -128 -63.5t-47 -173.5q0 -220 152 -220q93 0 179 80v328zM433 637h-50l-100 132l-100 -132h-52l123 181h56z" />
    <glyph glyph-name="Gbreve" unicode="&#x11e;" horiz-adv-x="745" 
d="M684 60q-57 -35 -125.5 -55t-129.5 -20q-173 0 -273.5 101.5t-100.5 277.5q0 173 97 274.5t264 101.5q130 0 260 -66v-67h-4q-136 83 -271 83q-138 0 -216 -87q-77 -86 -77 -236q0 -157 81 -245q82 -88 226 -88q127 0 219 54v212h-218v48h268v-288zM577 1001
q-7 -83 -57 -135q-49 -52 -123 -52t-123 52q-50 52 -57 135h44q5 -66 42 -106t94 -40q56 0 93.5 40t42.5 106h44z" />
    <glyph glyph-name="gbreve" unicode="&#x11f;" horiz-adv-x="572" 
d="M484 71q0 -143 -56 -210.5t-173 -67.5q-62 0 -145 26v54h6q22 -13 68 -22.5t94 -9.5q72 0 114.5 51t42.5 141v56q-49 -46 -90 -62.5t-94 -16.5q-93 0 -145.5 70t-52.5 192q-4 124 62.5 206.5t165.5 82.5q39 0 73 -8q33 -8 82 -33l5 24h43v-473zM435 465q-67 49 -156 49
q-81 0 -128 -63.5t-47 -173.5q0 -220 152 -220q93 0 179 80v328zM460 819q-8 -83 -57 -135t-123 -52t-123 52t-57 135h44q5 -66 42 -106t94 -40q56 0 93.5 40t42.5 106h44z" />
    <glyph glyph-name="Gdotaccent" unicode="&#x120;" horiz-adv-x="745" 
d="M684 60q-57 -35 -125.5 -55t-129.5 -20q-173 0 -273.5 101.5t-100.5 277.5q0 173 97 274.5t264 101.5q130 0 260 -66v-67h-4q-136 83 -271 83q-138 0 -216 -87q-77 -86 -77 -236q0 -157 81 -245q82 -88 226 -88q127 0 219 54v212h-218v48h268v-288zM428 824h-63v77h63
v-77z" />
    <glyph glyph-name="gdotaccent" unicode="&#x121;" horiz-adv-x="572" 
d="M484 71q0 -143 -56 -210.5t-173 -67.5q-62 0 -145 26v54h6q22 -13 68 -22.5t94 -9.5q72 0 114.5 51t42.5 141v56q-49 -46 -90 -62.5t-94 -16.5q-93 0 -145.5 70t-52.5 192q-4 124 62.5 206.5t165.5 82.5q39 0 73 -8q33 -8 82 -33l5 24h43v-473zM435 465q-67 49 -156 49
q-81 0 -128 -63.5t-47 -173.5q0 -220 152 -220q93 0 179 80v328zM312 642h-63v77h63v-77z" />
    <glyph glyph-name="Gcommaaccent" unicode="&#x122;" horiz-adv-x="745" 
d="M684 60q-57 -35 -125.5 -55t-129.5 -20q-173 0 -273.5 101.5t-100.5 277.5q0 173 97 274.5t264 101.5q130 0 260 -66v-67h-4q-136 83 -271 83q-138 0 -216 -87q-77 -86 -77 -236q0 -157 81 -245q82 -88 226 -88q127 0 219 54v212h-218v48h268v-288zM423 -52l-61 -149h-37
l40 149h58z" />
    <glyph glyph-name="gcommaaccent" unicode="&#x123;" horiz-adv-x="572" 
d="M484 71q0 -143 -56 -210.5t-173 -67.5q-62 0 -145 26v54h6q22 -13 68 -22.5t94 -9.5q72 0 114.5 51t42.5 141v56q-49 -46 -90 -62.5t-94 -16.5q-93 0 -145.5 70t-52.5 192q-4 124 62.5 206.5t165.5 82.5q39 0 73 -8q33 -8 82 -33l5 24h43v-473zM435 465q-67 49 -156 49
q-81 0 -128 -63.5t-47 -173.5q0 -220 152 -220q93 0 179 80v328zM248 640l74 178h36l-48 -178h-62z" />
    <glyph glyph-name="Hcircumflex" unicode="&#x124;" horiz-adv-x="690" 
d="M598 0h-52v378h-402v-378h-51v727h51v-299h402v299h52v-727zM494 819h-50l-100 132l-100 -132h-52l123 181h56z" />
    <glyph glyph-name="hcircumflex" unicode="&#x125;" horiz-adv-x="585" 
d="M497 0h-49v346q0 163 -125 163q-48 0 -97.5 -22t-87.5 -61v-426h-50v760h50v-284q37 35 87 59q52 24 95 24q84 0 130.5 -50.5t46.5 -141.5v-367zM460 819h-50l-100 132l-100 -132h-52l123 181h56z" />
    <glyph glyph-name="Hbar" unicode="&#x126;" horiz-adv-x="690" 
d="M598 550v-550h-52v378h-402v-378h-51v550h-69v47h69v130h51v-130h402v130h52v-130h68v-47h-68zM546 428v122h-402v-122h402z" />
    <glyph glyph-name="hbar" unicode="&#x127;" horiz-adv-x="585" 
d="M-2 674h90v86h50v-86h170v-44h-170v-154q37 35 87 59q52 24 95 24q84 0 130.5 -50.5t46.5 -141.5v-367h-49v346q0 163 -125 163q-48 0 -97.5 -22t-87.5 -61v-426h-50v630h-90v44z" />
    <glyph glyph-name="Itilde" unicode="&#x128;" horiz-adv-x="383" 
d="M313 0h-244v47h97v633h-97v47h244v-47h-96v-633h96v-47zM406 968q-4 -65 -34 -103.5t-75 -38.5q-25 0 -47.5 10t-59.5 40q-30 29 -48 39t-39 10q-27 0 -44 -26t-19 -71h-43q4 66 33 104.5t73 38.5q49 0 110 -51q30 -29 48 -39t39 -10q28 0 44.5 26t18.5 71h43z" />
    <glyph glyph-name="itilde" unicode="&#x129;" horiz-adv-x="250" 
d="M273 779q-2 -57 -24 -90t-57 -33q-42 0 -79 40q-23 27 -33 33t-24 6q-37 0 -41 -82h-38q2 56 23.5 89.5t55.5 33.5q41 0 81 -40q29 -30 36 -34q10 -5 21 -5q37 0 41 82h38zM150 0h-50v544h50v-544z" />
    <glyph glyph-name="Imacron" unicode="&#x12a;" horiz-adv-x="383" 
d="M313 0h-244v47h97v633h-97v47h244v-47h-96v-633h96v-47zM366 846h-348v47h348v-47z" />
    <glyph glyph-name="imacron" unicode="&#x12b;" horiz-adv-x="250" 
d="M264 664h-278v47h278v-47zM150 0h-50v544h50v-544z" />
    <glyph glyph-name="Ibreve" unicode="&#x12c;" horiz-adv-x="383" 
d="M313 0h-244v47h97v633h-97v47h244v-47h-96v-633h96v-47zM371 1001q-7 -83 -57 -135q-49 -52 -123 -52t-123 52q-50 52 -57 135h44q5 -66 42 -106t94 -40q56 0 93.5 40t42.5 106h44z" />
    <glyph glyph-name="ibreve" unicode="&#x12d;" horiz-adv-x="250" 
d="M265 799q-12 -167 -141 -167t-141 167h41q4 -66 28 -96t72 -30t71.5 29.5t28.5 96.5h41zM150 0h-50v544h50v-544z" />
    <glyph glyph-name="Iogonek" unicode="&#x12e;" horiz-adv-x="383" 
d="M399 -188q-39 -16 -80 -16q-63 0 -104 47t-41 119q0 23 3 38h-108v47h97v633h-97v47h244v-47h-96v-633h96v-47h-91q-3 -16 -3 -39q0 -54 28 -87t73 -33q41 0 78 19h1v-48z" />
    <glyph glyph-name="iogonek" unicode="&#x12f;" horiz-adv-x="250" 
d="M150 0h-12q-3 -16 -3 -34q0 -125 100 -125q41 0 78 19h1v-48q-39 -16 -80 -16q-64 0 -103 46t-39 117q0 32 8 75v510h50v-544zM157 642h-63v76h63v-76z" />
    <glyph glyph-name="Idotaccent" unicode="&#x130;" horiz-adv-x="383" 
d="M313 0h-244v47h97v633h-97v47h244v-47h-96v-633h96v-47zM223 824h-63v77h63v-77z" />
    <glyph glyph-name="dotlessi" unicode="&#x131;" horiz-adv-x="250" 
d="M150 0h-50v544h50v-544z" />
    <glyph glyph-name="IJ" unicode="&#x132;" horiz-adv-x="765" 
d="M667 194q0 -103 -42 -153.5t-131 -50.5q-16 0 -50 6q-29 5 -46 11v54h8q45 -20 89 -20q67 0 94 41q27 40 27 147v450h-147v48h198v-533zM313 0h-244v47h97v633h-97v47h244v-47h-96v-633h96v-47z" />
    <glyph glyph-name="ij" unicode="&#x133;" horiz-adv-x="537" 
d="M457 642h-61v76h61v-76zM448 -29q0 -178 -157 -178q-41 0 -76 15v48h2q41 -15 81 -15q73 0 91 62q9 31 9 115v482h-99v44h149v-573zM157 642h-63v76h63v-76zM150 0h-50v544h50v-544z" />
    <glyph glyph-name="Jcircumflex" unicode="&#x134;" horiz-adv-x="401" 
d="M304 194q0 -204 -183 -204q-19 0 -56 6q-34 6 -50 11v54h7q52 -20 100 -20q72 0 101 41.5t29 146.5v450h-147v48h199v-533zM363 819h-50l-100 132l-100 -132h-52l123 181h56z" />
    <glyph glyph-name="jcircumflex" unicode="&#x135;" horiz-adv-x="306" 
d="M217 -29q0 -178 -167 -178q-48 0 -85 15v53h2q49 -20 90 -20q27 0 46.5 5.5t31 19t18.5 25.5t10 37t3.5 41t0.5 49v482h-118v44h168v-573zM298 637h-50l-100 132l-100 -132h-51l122 181h56z" />
    <glyph glyph-name="Kcommaaccent" unicode="&#x136;" horiz-adv-x="653" 
d="M644 0h-67l-324 365l-109 -115v-250h-51v727h51v-417l386 417h68l-310 -326zM359 -52l-61 -149h-37l40 149h58z" />
    <glyph glyph-name="kcommaaccent" unicode="&#x137;" horiz-adv-x="545" 
d="M534 0h-62l-255 275l-79 -78v-197h-50v760h50v-505l281 289h65l-234 -237zM325 -52l-61 -149h-37l40 149h58z" />
    <glyph glyph-name="kgreenlandic" unicode="&#x138;" horiz-adv-x="545" 
d="M534 0h-62l-255 275l-79 -78v-197h-50v544h50v-289l281 289h65l-234 -237z" />
    <glyph glyph-name="Lacute" unicode="&#x139;" horiz-adv-x="536" 
d="M521 0h-428v727h51v-679h377v-48zM238 1000l-100 -178h-38l70 178h68z" />
    <glyph glyph-name="lacute" unicode="&#x13a;" horiz-adv-x="249" 
d="M149 0h-49v760h49v-760zM224 1000l-100 -178h-38l70 178h68z" />
    <glyph glyph-name="Lcommaaccent" unicode="&#x13b;" horiz-adv-x="536" 
d="M521 0h-428v727h51v-679h377v-48zM331 -52l-61 -149h-37l40 149h58z" />
    <glyph glyph-name="lcommaaccent" unicode="&#x13c;" horiz-adv-x="249" 
d="M149 0h-49v760h49v-760zM153 -52l-61 -149h-37l40 149h58z" />
    <glyph glyph-name="Lcaron" unicode="&#x13d;" horiz-adv-x="536" 
d="M413 760l-103 -242h-39l72 242h70zM521 0h-428v727h51v-679h377v-48z" />
    <glyph glyph-name="lcaron" unicode="&#x13e;" horiz-adv-x="269" 
d="M369 760l-103 -242h-39l72 242h70zM149 0h-49v760h49v-760z" />
    <glyph glyph-name="Ldot" unicode="&#x13f;" horiz-adv-x="536" 
d="M412 281h-63v77h63v-77zM521 0h-428v727h51v-679h377v-48z" />
    <glyph glyph-name="ldot" unicode="&#x140;" horiz-adv-x="367" 
d="M339 280h-63v77h63v-77zM149 0h-49v760h49v-760z" />
    <glyph glyph-name="Lslash" unicode="&#x141;" horiz-adv-x="541" 
d="M525 0h-427v275l-95 -76v57l95 76v395h51v-354l172 138v-57l-172 -138v-268h376v-48z" />
    <glyph glyph-name="lslash" unicode="&#x142;" horiz-adv-x="250" 
d="M100 311l-89 -72v59l89 71v391h49v-341l95 78v-60l-95 -76v-361h-49v311z" />
    <glyph glyph-name="Nacute" unicode="&#x143;" horiz-adv-x="690" 
d="M598 0h-79l-377 677v-677h-49v727h82l373 -673v673h50v-727zM465 1000l-100 -178h-38l70 178h68z" />
    <glyph glyph-name="nacute" unicode="&#x144;" horiz-adv-x="585" 
d="M497 0h-49v346q0 163 -125 163q-48 0 -97.5 -22t-87.5 -61v-426h-50v544h50v-68q37 35 87 59q52 24 95 24q84 0 130.5 -50.5t46.5 -141.5v-367zM413 818l-100 -178h-38l70 178h68z" />
    <glyph glyph-name="Ncommaaccent" unicode="&#x145;" horiz-adv-x="690" 
d="M598 0h-79l-377 677v-677h-49v727h82l373 -673v673h50v-727zM354 -52l-61 -149h-37l40 149h58z" />
    <glyph glyph-name="ncommaaccent" unicode="&#x146;" horiz-adv-x="585" 
d="M497 0h-49v346q0 163 -125 163q-48 0 -97.5 -22t-87.5 -61v-426h-50v544h50v-68q37 35 87 59q52 24 95 24q84 0 130.5 -50.5t46.5 -141.5v-367zM326 -52l-61 -149h-37l40 149h58z" />
    <glyph glyph-name="Ncaron" unicode="&#x147;" horiz-adv-x="690" 
d="M598 0h-79l-377 677v-677h-49v727h82l373 -673v673h50v-727zM516 1000l-123 -181h-56l-123 181h52l100 -131l100 131h50z" />
    <glyph glyph-name="ncaron" unicode="&#x148;" horiz-adv-x="585" 
d="M497 0h-49v346q0 163 -125 163q-48 0 -97.5 -22t-87.5 -61v-426h-50v544h50v-68q37 35 87 59q52 24 95 24q84 0 130.5 -50.5t46.5 -141.5v-367zM455 818l-123 -181h-56l-123 181h52l100 -131l100 131h50z" />
    <glyph glyph-name="napostrophe" unicode="&#x149;" horiz-adv-x="604" 
d="M122 760l-103 -242h-40l73 242h70zM517 0h-50v346q0 163 -124 163q-104 0 -185 -83v-426h-50v544h50v-68q35 35 87 59q53 24 94 24q85 0 131.5 -50.5t46.5 -141.5v-367z" />
    <glyph glyph-name="Eng" unicode="&#x14a;" horiz-adv-x="690" 
d="M598 0q0 -207 -154 -207q-19 0 -55 6t-51 12v53h8q51 -20 99 -20q54 0 76.5 34.5t24.5 122.5l-404 676v-677h-49v727h82l373 -624v624h50v-727z" />
    <glyph glyph-name="eng" unicode="&#x14b;" horiz-adv-x="585" 
d="M448 346q0 163 -125 163q-48 0 -97.5 -22t-87.5 -61v-426h-50v544h50v-68q37 35 87 59q52 24 95 24q84 0 130.5 -50.5t46.5 -141.5v-396q0 -178 -153 -178q-48 0 -85 15v53h2q49 -20 91 -20q69 0 87 61q9 30 9 98v346z" />
    <glyph glyph-name="Omacron" unicode="&#x14c;" horiz-adv-x="767" 
d="M384 742q144 3 237 -105t91 -274q1 -165 -92 -273.5t-237 -104.5q-143 -4 -236.5 105.5t-91.5 273.5q-1 165 92.5 273.5t236.5 104.5zM659 363q0 147 -75 238.5t-201 91.5q-123 3 -200 -90.5t-75 -238.5q-2 -147 74.5 -239.5t200.5 -90.5q125 -3 201.5 90t74.5 239z
M557 846h-348v47h348v-47z" />
    <glyph glyph-name="omacron" unicode="&#x14d;" horiz-adv-x="561" 
d="M508 272q0 -130 -62.5 -208t-165.5 -78q-104 0 -166 78q-61 79 -61 208q0 131 62 208.5t165 77.5q105 0 166 -79q62 -79 62 -207zM104 272q0 -114 47.5 -178t128.5 -64t129 64t48 178q0 113 -47.5 177t-129.5 64q-81 0 -128.5 -64t-47.5 -177zM454 664h-348v47h348v-47z
" />
    <glyph glyph-name="Obreve" unicode="&#x14e;" horiz-adv-x="767" 
d="M384 742q144 3 237 -105t91 -274q1 -165 -92 -273.5t-237 -104.5q-143 -4 -236.5 105.5t-91.5 273.5q-1 165 92.5 273.5t236.5 104.5zM659 363q0 147 -75 238.5t-201 91.5q-123 3 -200 -90.5t-75 -238.5q-2 -147 74.5 -239.5t200.5 -90.5q125 -3 201.5 90t74.5 239z
M563 1001q-7 -83 -57 -135q-49 -52 -123 -52t-123 52q-50 52 -57 135h44q5 -66 42 -106t94 -40q56 0 93.5 40t42.5 106h44z" />
    <glyph glyph-name="obreve" unicode="&#x14f;" horiz-adv-x="561" 
d="M508 272q0 -130 -62.5 -208t-165.5 -78q-104 0 -166 78q-61 79 -61 208q0 131 62 208.5t165 77.5q105 0 166 -79q62 -79 62 -207zM104 272q0 -114 47.5 -178t128.5 -64t129 64t48 178q0 113 -47.5 177t-129.5 64q-81 0 -128.5 -64t-47.5 -177zM460 819q-8 -83 -57 -135
t-123 -52t-123 52t-57 135h44q5 -66 42 -106t94 -40q56 0 93.5 40t42.5 106h44z" />
    <glyph glyph-name="Ohungarumlaut" unicode="&#x150;" horiz-adv-x="767" 
d="M384 742q144 3 237 -105t91 -274q1 -165 -92 -273.5t-237 -104.5q-143 -4 -236.5 105.5t-91.5 273.5q-1 165 92.5 273.5t236.5 104.5zM659 363q0 147 -75 238.5t-201 91.5q-123 3 -200 -90.5t-75 -238.5q-2 -147 74.5 -239.5t200.5 -90.5q125 -3 201.5 90t74.5 239z
M608 1000l-109 -178h-34l80 178h63zM415 1000l-109 -178h-33l80 178h62z" />
    <glyph glyph-name="ohungarumlaut" unicode="&#x151;" horiz-adv-x="561" 
d="M508 272q0 -130 -62.5 -208t-165.5 -78q-104 0 -166 78q-61 79 -61 208q0 131 62 208.5t165 77.5q105 0 166 -79q62 -79 62 -207zM104 272q0 -114 47.5 -178t128.5 -64t129 64t48 178q0 113 -47.5 177t-129.5 64q-81 0 -128.5 -64t-47.5 -177zM481 818l-109 -178h-34
l80 178h63zM288 818l-109 -178h-33l80 178h62z" />
    <glyph glyph-name="OE" unicode="&#x152;" horiz-adv-x="1027" 
d="M967 0h-549q-106 0 -191.5 46.5t-128.5 126.5q-42 81 -42 190q0 174 95 269t269 95h547v-49h-378v-246h377v-48h-377v-336h378v-48zM110 364q0 -149 85.5 -232.5t242.5 -83.5h100v630h-108q-156 0 -238 -80.5t-82 -233.5z" />
    <glyph glyph-name="oe" unicode="&#x153;" horiz-adv-x="931" 
d="M493 274q0 -111 51.5 -176.5t140.5 -65.5q47 0 103 18q59 21 79 41h4v-57q-95 -46 -175 -46q-171 0 -228 144q-28 -69 -79.5 -107.5t-115.5 -38.5q-99 0 -159.5 78t-60.5 207t60.5 208t159.5 79q66 0 118 -38.5t79 -109.5q28 70 81.5 109t124.5 39q92 0 149 -66t57 -174
v-44h-389zM104 273q0 -111 46.5 -177t121.5 -66q76 0 123 66.5t47 176.5q0 113 -45 176.5t-124 63.5q-82 0 -125.5 -62t-43.5 -178zM835 320q0 88 -42.5 140t-116.5 52t-123.5 -53t-57.5 -139h340z" />
    <glyph glyph-name="Racute" unicode="&#x154;" horiz-adv-x="613" 
d="M453 531q0 72 -48.5 110t-139.5 38h-120v-327h115q193 0 193 179zM633 0h-71l-258 306h-159v-306h-52v727h187q107 0 167 -52t60 -145q0 -76 -40 -131.5t-111 -77.5zM388 1000l-100 -178h-38l70 178h68z" />
    <glyph glyph-name="racute" unicode="&#x155;" horiz-adv-x="392" 
d="M396 479h-2q-46 11 -79 11q-89 0 -177 -94v-396h-50v544h50v-92q42 42 91.5 68t88.5 26q45 0 78 -12v-55zM316 818l-100 -178h-38l70 178h68z" />
    <glyph glyph-name="Rcommaaccent" unicode="&#x156;" horiz-adv-x="613" 
d="M453 531q0 72 -48.5 110t-139.5 38h-120v-327h115q193 0 193 179zM633 0h-71l-258 306h-159v-306h-52v727h187q107 0 167 -52t60 -145q0 -76 -40 -131.5t-111 -77.5zM359 -52l-61 -149h-37l40 149h58z" />
    <glyph glyph-name="rcommaaccent" unicode="&#x157;" horiz-adv-x="392" 
d="M396 479h-2q-46 11 -79 11q-89 0 -177 -94v-396h-50v544h50v-92q42 42 91.5 68t88.5 26q45 0 78 -12v-55zM147 -52l-61 -149h-37l40 149h58z" />
    <glyph glyph-name="Rcaron" unicode="&#x158;" horiz-adv-x="613" 
d="M453 531q0 72 -48.5 110t-139.5 38h-120v-327h115q193 0 193 179zM633 0h-71l-258 306h-159v-306h-52v727h187q107 0 167 -52t60 -145q0 -76 -40 -131.5t-111 -77.5zM431 1000l-123 -181h-56l-123 181h52l100 -131l100 131h50z" />
    <glyph glyph-name="rcaron" unicode="&#x159;" horiz-adv-x="392" 
d="M396 479h-2q-46 11 -79 11q-89 0 -177 -94v-396h-50v544h50v-92q42 42 91.5 68t88.5 26q45 0 78 -12v-55zM371 818l-123 -181h-56l-123 181h52l100 -131l100 131h50z" />
    <glyph glyph-name="Sacute" unicode="&#x15a;" horiz-adv-x="613" 
d="M565 197q3 -93 -72.5 -152t-190.5 -58q-144 0 -257 59v66h4q38 -33 109 -56q70 -21 143 -21q102 0 158 42.5t56 118.5q0 71 -81 106q-36 17 -152 43q-98 23 -142 46q-46 25 -70 60q-23 37 -23 89q-2 84 69.5 143t175.5 57q127 0 244 -52v-64h-4q-42 30 -107.5 48.5
t-136.5 18.5q-84 0 -136.5 -41.5t-52.5 -105.5q0 -74 77 -112q38 -18 130 -39q76 -17 113 -29q35 -11 61 -25q25 -13 45 -34q40 -40 40 -108zM407 1000l-100 -178h-38l70 178h68z" />
    <glyph glyph-name="sacute" unicode="&#x15b;" horiz-adv-x="491" 
d="M435 149q0 -74 -54.5 -117.5t-148.5 -43.5q-87 0 -180 47v57h3q87 -63 187 -63q69 0 106 30.5t37 85.5q0 53 -47 74q-25 13 -101 29q-93 22 -126 42q-57 37 -58 106q0 71 53 115.5t139 44.5q42 0 91 -12t80 -30v-59h-5q-33 22 -83 39q-48 16 -93 16q-57 0 -94.5 -27.5
t-37.5 -71.5q0 -50 33 -74t119 -42q99 -17 139.5 -50.5t40.5 -95.5zM366 818l-100 -178h-38l70 178h68z" />
    <glyph glyph-name="Scircumflex" unicode="&#x15c;" horiz-adv-x="613" 
d="M565 197q3 -93 -72.5 -152t-190.5 -58q-144 0 -257 59v66h4q38 -33 109 -56q70 -21 143 -21q102 0 158 42.5t56 118.5q0 71 -81 106q-36 17 -152 43q-98 23 -142 46q-46 25 -70 60q-23 37 -23 89q-2 84 69.5 143t175.5 57q127 0 244 -52v-64h-4q-42 30 -107.5 48.5
t-136.5 18.5q-84 0 -136.5 -41.5t-52.5 -105.5q0 -74 77 -112q38 -18 130 -39q76 -17 113 -29q35 -11 61 -25q25 -13 45 -34q40 -40 40 -108zM468 819h-50l-100 132l-100 -132h-52l123 181h56z" />
    <glyph glyph-name="scircumflex" unicode="&#x15d;" horiz-adv-x="491" 
d="M435 149q0 -74 -54.5 -117.5t-148.5 -43.5q-87 0 -180 47v57h3q87 -63 187 -63q69 0 106 30.5t37 85.5q0 53 -47 74q-25 13 -101 29q-93 22 -126 42q-57 37 -58 106q0 71 53 115.5t139 44.5q42 0 91 -12t80 -30v-59h-5q-33 22 -83 39q-48 16 -93 16q-57 0 -94.5 -27.5
t-37.5 -71.5q0 -50 33 -74t119 -42q99 -17 139.5 -50.5t40.5 -95.5zM414 637h-50l-100 132l-100 -132h-52l123 181h56z" />
    <glyph glyph-name="Scedilla" unicode="&#x15e;" horiz-adv-x="613" 
d="M408 -38q0 -72 -47 -119t-120 -47q-42 0 -81 16v48h1q37 -19 79 -19q55 0 89 33t34 87l-1 31q-32 -5 -60 -5q-144 0 -257 59v66h4q38 -33 109 -56q70 -21 143 -21q102 0 158 42.5t56 118.5q0 71 -81 106q-36 17 -152 43q-98 23 -142 46q-46 25 -70 60q-23 37 -23 89
q-2 84 69.5 143t175.5 57q127 0 244 -52v-64h-4q-42 30 -107.5 48.5t-136.5 18.5q-84 0 -136.5 -41.5t-52.5 -105.5q0 -74 77 -112q38 -18 130 -39q76 -17 113 -29q35 -11 61 -25q25 -13 45 -34q40 -40 40 -108q0 -70 -41.5 -121.5t-118.5 -74.5q3 -18 3 -39z" />
    <glyph glyph-name="scedilla" unicode="&#x15f;" horiz-adv-x="491" 
d="M328 -38q0 -72 -48 -119q-47 -47 -120 -47q-41 0 -80 16v48h1q37 -19 78 -19q55 0 89.5 33t34.5 87q0 16 -2 30q-26 -3 -49 -3q-87 0 -180 47v57h3q87 -63 187 -63q69 0 106 30.5t37 85.5q0 53 -47 74q-25 13 -101 29q-93 22 -126 42q-57 37 -58 106q0 71 53 115.5
t139 44.5q42 0 91 -12t80 -30v-59h-5q-33 22 -83 39q-48 16 -93 16q-57 0 -94.5 -27.5t-37.5 -71.5q0 -50 33 -74t119 -42q99 -17 139.5 -50.5t40.5 -95.5q0 -52 -28.5 -90.5t-81.5 -57.5q3 -18 3 -39z" />
    <glyph glyph-name="Scaron" unicode="&#x160;" horiz-adv-x="613" 
d="M565 197q3 -93 -72.5 -152t-190.5 -58q-144 0 -257 59v66h4q38 -33 109 -56q70 -21 143 -21q102 0 158 42.5t56 118.5q0 71 -81 106q-36 17 -152 43q-98 23 -142 46q-46 25 -70 60q-23 37 -23 89q-2 84 69.5 143t175.5 57q127 0 244 -52v-64h-4q-42 30 -107.5 48.5
t-136.5 18.5q-84 0 -136.5 -41.5t-52.5 -105.5q0 -74 77 -112q38 -18 130 -39q76 -17 113 -29q35 -11 61 -25q25 -13 45 -34q40 -40 40 -108zM470 1000l-123 -181h-56l-123 181h52l100 -131l100 131h50z" />
    <glyph glyph-name="scaron" unicode="&#x161;" horiz-adv-x="491" 
d="M435 149q0 -74 -54.5 -117.5t-148.5 -43.5q-87 0 -180 47v57h3q87 -63 187 -63q69 0 106 30.5t37 85.5q0 53 -47 74q-25 13 -101 29q-93 22 -126 42q-57 37 -58 106q0 71 53 115.5t139 44.5q42 0 91 -12t80 -30v-59h-5q-33 22 -83 39q-48 16 -93 16q-57 0 -94.5 -27.5
t-37.5 -71.5q0 -50 33 -74t119 -42q99 -17 139.5 -50.5t40.5 -95.5zM413 818l-123 -181h-56l-123 181h52l100 -131l100 131h50z" />
    <glyph glyph-name="Tcommaaccent" unicode="&#x162;" horiz-adv-x="613" 
d="M608 678h-275v-652q4 -25 4 -64q0 -72 -45 -119q-44 -47 -112 -47q-42 0 -81 16v48h1q37 -19 79 -19q51 0 83.5 33t32.5 87q0 18 -3 39h-11v678h-276v49h603v-49z" />
    <glyph glyph-name="tcommaaccent" unicode="&#x163;" horiz-adv-x="363" 
d="M308 -38q0 -72 -48 -119q-47 -47 -120 -47q-41 0 -80 16v48h1q37 -19 78 -19q55 0 89.5 33t34.5 87q0 17 -3 28q-83 0 -121.5 45.5t-38.5 139.5v326h-60v44h60v157h50v-157h198v-44h-198v-294q0 -98 22.5 -134t85.5 -36q42 0 92 18h2v-49l-46 -10q2 -22 2 -33z" />
    <glyph glyph-name="Tcaron" unicode="&#x164;" horiz-adv-x="613" 
d="M608 678h-275v-678h-52v678h-276v49h603v-49zM456 1000l-123 -181h-56l-123 181h52l100 -131l100 131h50z" />
    <glyph glyph-name="tcaron" unicode="&#x165;" horiz-adv-x="363" 
d="M393 877l-103 -241h-40l73 241h70zM40 500v44h60v157h50v-157h198v-44h-198v-294q0 -98 22.5 -134t85.5 -36q42 0 92 18h2v-49q-62 -16 -98 -16q-154 0 -154 185v326h-60z" />
    <glyph glyph-name="Tbar" unicode="&#x166;" horiz-adv-x="613" 
d="M608 678h-275v-259h139v-46h-139v-373h-52v373h-139v46h139v259h-276v49h603v-49z" />
    <glyph glyph-name="tbar" unicode="&#x167;" horiz-adv-x="363" 
d="M150 263v-57q0 -98 22.5 -134t85.5 -36q42 0 92 18h2v-49q-62 -16 -98 -16q-154 0 -154 185v89h-60v44h60v193h-60v44h60v157h50v-157h198v-44h-198v-193h179v-44h-179z" />
    <glyph glyph-name="Utilde" unicode="&#x168;" horiz-adv-x="690" 
d="M602 267q0 -136 -66 -209t-191 -73q-257 0 -257 283v459h51v-472q0 -108 53.5 -166.5t152.5 -58.5q100 0 153 57t53 164v476h51v-460zM558 968q-4 -65 -34 -103.5t-75 -38.5q-25 0 -47.5 10t-59.5 40q-30 29 -48 39t-39 10q-27 0 -44 -26t-19 -71h-43q4 66 33 104.5
t73 38.5q49 0 110 -51q30 -29 48 -39t39 -10q28 0 44.5 26t18.5 71h43z" />
    <glyph glyph-name="utilde" unicode="&#x169;" horiz-adv-x="585" 
d="M497 0h-50v72q-85 -87 -181 -87q-85 0 -131.5 49.5t-46.5 142.5v367h49v-345q0 -163 126 -163q49 0 102 25q54 25 82 62v421h50v-544zM506 786q-4 -65 -34 -103.5t-75 -38.5q-25 0 -47.5 10t-59.5 40q-30 29 -48 39t-39 10q-27 0 -44 -26t-19 -71h-43q4 66 33 104.5
t73 38.5q49 0 110 -51q30 -29 48 -39t39 -10q28 0 44.5 26t18.5 71h43z" />
    <glyph glyph-name="Umacron" unicode="&#x16a;" horiz-adv-x="690" 
d="M602 267q0 -136 -66 -209t-191 -73q-257 0 -257 283v459h51v-472q0 -108 53.5 -166.5t152.5 -58.5q100 0 153 57t53 164v476h51v-460zM519 846h-348v47h348v-47z" />
    <glyph glyph-name="umacron" unicode="&#x16b;" horiz-adv-x="585" 
d="M497 0h-50v72q-85 -87 -181 -87q-85 0 -131.5 49.5t-46.5 142.5v367h49v-345q0 -163 126 -163q49 0 102 25q54 25 82 62v421h50v-544zM467 664h-348v47h348v-47z" />
    <glyph glyph-name="Ubreve" unicode="&#x16c;" horiz-adv-x="690" 
d="M602 267q0 -136 -66 -209t-191 -73q-257 0 -257 283v459h51v-472q0 -108 53.5 -166.5t152.5 -58.5q100 0 153 57t53 164v476h51v-460zM524 1001q-8 -83 -57 -135t-123 -52t-123 52t-57 135h44q5 -66 42 -106t94 -40q56 0 93.5 40t42.5 106h44z" />
    <glyph glyph-name="ubreve" unicode="&#x16d;" horiz-adv-x="585" 
d="M497 0h-50v72q-85 -87 -181 -87q-85 0 -131.5 49.5t-46.5 142.5v367h49v-345q0 -163 126 -163q49 0 102 25q54 25 82 62v421h50v-544zM467 819q-7 -83 -57 -135q-49 -52 -123 -52t-123 52q-50 52 -57 135h44q5 -66 42 -106t94 -40q56 0 93.5 40t42.5 106h44z" />
    <glyph glyph-name="Uring" unicode="&#x16e;" horiz-adv-x="690" 
d="M602 267q0 -136 -66 -209t-191 -73q-257 0 -257 283v459h51v-472q0 -108 53.5 -166.5t152.5 -58.5q100 0 153 57t53 164v476h51v-460zM489 845q0 -59 -43 -101q-42 -42 -101 -42t-102 42t-43 101t43 100.5t102 41.5q61 0 102 -42q42 -42 42 -100zM450 845q0 43 -30.5 73
t-74.5 30t-74.5 -30t-30.5 -73t30.5 -73.5t74.5 -30.5q41 0 73 30q32 32 32 74z" />
    <glyph glyph-name="uring" unicode="&#x16f;" horiz-adv-x="585" 
d="M497 0h-50v72q-85 -87 -181 -87q-85 0 -131.5 49.5t-46.5 142.5v367h49v-345q0 -163 126 -163q49 0 102 25q54 25 82 62v421h50v-544zM437 788q0 -59 -43 -101q-42 -42 -101 -42t-102 42t-43 101t43 100.5t102 41.5q61 0 102 -42q42 -42 42 -100zM398 788q0 43 -30.5 73
t-74.5 30t-74.5 -30t-30.5 -73t30.5 -73.5t74.5 -30.5q41 0 73 30q32 32 32 74z" />
    <glyph glyph-name="Uhungarumlaut" unicode="&#x170;" horiz-adv-x="690" 
d="M602 267q0 -136 -66 -209t-191 -73q-257 0 -257 283v459h51v-472q0 -108 53.5 -166.5t152.5 -58.5q100 0 153 57t53 164v476h51v-460zM555 1000l-109 -178h-34l80 178h63zM362 1000l-109 -178h-33l80 178h62z" />
    <glyph glyph-name="uhungarumlaut" unicode="&#x171;" horiz-adv-x="585" 
d="M497 0h-50v72q-85 -87 -181 -87q-85 0 -131.5 49.5t-46.5 142.5v367h49v-345q0 -163 126 -163q49 0 102 25q54 25 82 62v421h50v-544zM498 818l-109 -178h-34l80 178h63zM305 818l-109 -178h-33l80 178h62z" />
    <glyph glyph-name="Uogonek" unicode="&#x172;" horiz-adv-x="690" 
d="M504 -204q-62 0 -103 47t-41 119v12v11h-15q-257 0 -257 283v459h51v-472q0 -108 53.5 -166.5t152.5 -58.5q100 0 153 57t53 164v476h51v-460q0 -119 -50.5 -190t-145.5 -87l-1 -14v-15q0 -55 27.5 -87.5t72.5 -32.5q42 0 79 19h1v-48q-39 -16 -81 -16z" />
    <glyph glyph-name="uogonek" unicode="&#x173;" horiz-adv-x="585" 
d="M497 0h-8q-2 -22 -2 -39q0 -55 27.5 -87.5t72.5 -32.5q42 0 79 19h1v-48q-39 -16 -81 -16q-62 0 -103 47t-41 119q0 28 5 48v62q-85 -87 -181 -87q-85 0 -131.5 49.5t-46.5 142.5v367h49v-345q0 -163 126 -163q49 0 102 25q54 25 82 62v421h50v-544z" />
    <glyph glyph-name="Wcircumflex" unicode="&#x174;" horiz-adv-x="891" 
d="M854 727l-181 -727h-59l-167 647l-170 -647h-56l-184 727h51l165 -651l167 651h57l168 -651l162 651h47zM594 819h-50l-100 132l-100 -132h-52l123 181h56z" />
    <glyph glyph-name="wcircumflex" unicode="&#x175;" horiz-adv-x="716" 
d="M687 544l-142 -544h-38l-147 446l-152 -446h-36l-143 544h52l119 -445l143 445h35l151 -445l110 445h48zM506 637h-50l-100 132l-100 -132h-52l123 181h56z" />
    <glyph glyph-name="Ycircumflex" unicode="&#x176;" 
d="M554 727l-250 -401v-326h-52v319l-249 408h57l217 -356l222 356h55zM427 819h-50l-100 132l-100 -132h-52l123 181h56z" />
    <glyph glyph-name="ycircumflex" unicode="&#x177;" 
d="M96 544q34 -79 95.5 -229t87.5 -211l188 440h54l-325 -745h-54l110 244l-211 501h55zM432 637h-50l-100 132l-100 -132h-52l123 181h56z" />
    <glyph glyph-name="Ydieresis" unicode="&#x178;" 
d="M554 727l-250 -401v-326h-52v319l-249 408h57l217 -356l222 356h55zM401 824h-73v76h73v-76zM230 824h-73v76h73v-76z" />
    <glyph glyph-name="Zacute" unicode="&#x179;" horiz-adv-x="682" 
d="M616 0h-546v63l488 615h-472v49h523v-62l-494 -617h501v-48zM442 1000l-100 -178h-38l70 178h68z" />
    <glyph glyph-name="zacute" unicode="&#x17a;" horiz-adv-x="501" 
d="M482 0h-437v39l365 461h-358v44h420v-37l-368 -463h378v-44zM356 818l-100 -178h-38l70 178h68z" />
    <glyph glyph-name="Zdotaccent" unicode="&#x17b;" horiz-adv-x="682" 
d="M616 0h-546v63l488 615h-472v49h523v-62l-494 -617h501v-48zM375 824h-63v77h63v-77z" />
    <glyph glyph-name="zdotaccent" unicode="&#x17c;" horiz-adv-x="501" 
d="M482 0h-437v39l365 461h-358v44h420v-37l-368 -463h378v-44zM282 642h-63v77h63v-77z" />
    <glyph glyph-name="Zcaron" unicode="&#x17d;" horiz-adv-x="682" 
d="M616 0h-546v63l488 615h-472v49h523v-62l-494 -617h501v-48zM489 1000l-123 -181h-56l-123 181h52l100 -131l100 131h50z" />
    <glyph glyph-name="zcaron" unicode="&#x17e;" horiz-adv-x="501" 
d="M482 0h-437v39l365 461h-358v44h420v-37l-368 -463h378v-44zM399 818l-123 -181h-56l-123 181h52l100 -131l100 131h50z" />
    <glyph glyph-name="longs" unicode="&#x17f;" horiz-adv-x="278" 
d="M327 710h-1q-41 10 -74 10q-107 0 -107 -151v-569h-50v563q0 96 41.5 149t117.5 53q30 0 73 -5v-50z" />
    <glyph glyph-name="florin" unicode="&#x192;" 
d="M300 390l-54 -278q-16 -89 -40 -132q-22 -42 -60 -60q-37 -19 -97 -19q-22 0 -70 8v51h1q45 -14 85 -14q52 0 81.5 39.5t47.5 132.5l53 272h-116v44h124l22 110q20 108 63 152.5t123 44.5q37 0 86 -10v-49h-2q-13 4 -42 9q-32 5 -49 5q-51 0 -81 -38.5t-46 -122.5
l-20 -101h160v-44h-169z" />
    <glyph glyph-name="Aringacute" unicode="&#x1fa;" horiz-adv-x="647" 
d="M443 769q0 -36 -21 -67t-54 -45l270 -657h-56l-94 229h-332l-94 -229h-54l270 658q-32 12 -53.5 44t-21.5 67q0 47 35 82q37 35 85 35q49 0 84 -35q36 -35 36 -82zM176 277h292l-147 360zM404 769q0 32 -24 55.5t-57 23.5q-32 0 -56 -23.5t-24 -55.5q0 -33 23 -56.5
t57 -23.5t57.5 23.5t23.5 56.5zM417 1000l-100 -100h-34l71 100h63z" />
    <glyph glyph-name="aringacute" unicode="&#x1fb;" 
d="M418 58q-50 -41 -92 -56.5t-95 -15.5q-84 0 -134 45.5t-50 120.5q0 102 88 147.5t283 48.5v32q0 60 -42.5 95t-113.5 35q-86 0 -163 -37h-3v58q42 17 103 24q-41 35 -41 87q0 46 33 78q34 33 80 33q48 0 81 -32.5t33 -78.5q0 -59 -48 -92q132 -32 132 -181v-369h-51v58z
M418 305q-125 -5 -192 -20.5t-95.5 -46t-31.5 -85.5q0 -56 34.5 -90t92.5 -34q105 0 192 77v199zM346 642q0 30 -22 51t-53 21t-52.5 -21.5t-21.5 -50.5q0 -31 22 -53t52 -22q31 0 53 22t22 53zM273 766h-34l71 134h63z" />
    <glyph glyph-name="AEacute" unicode="&#x1fc;" horiz-adv-x="937" 
d="M183 311l-120 -311h-54l286 727h582v-49h-377v-246h377v-48h-377v-336h377v-48h-429v311h-265zM202 359h246v319h-123zM640 1000l-100 -178h-38l70 178h68z" />
    <glyph glyph-name="aeacute" unicode="&#x1fd;" horiz-adv-x="911" 
d="M458 274q0 -112 54.5 -177t147.5 -65q50 0 105 18q58 20 82 41h4v-57q-96 -46 -180 -46q-153 0 -219 108q-59 -62 -105 -84.5t-116 -25.5q-84 0 -134 45.5t-50 120.5q3 103 86 146.5t285 49.5v32q0 60 -42.5 95t-113.5 35q-86 0 -163 -37h-3v58q67 28 158 28
q162 0 202 -109q67 108 195 108q95 0 153 -66q58 -64 58 -174v-44h-404zM432 135q-22 57 -22 133l1 37q-121 -6 -186 -21.5t-94 -46t-32 -84.5q0 -56 34.5 -90t92.5 -34q61 0 108.5 24.5t97.5 81.5zM815 320q0 90 -43.5 141t-120.5 51q-79 0 -130 -50.5t-62 -141.5h356z
M571 818l-100 -178h-38l70 178h68z" />
    <glyph glyph-name="Oslashacute" unicode="&#x1fe;" horiz-adv-x="767" 
d="M605 656q107 -105 107 -293q3 -168 -90 -274t-239 -104q-110 0 -192 62l-82 -119h-46l99 145q-51 51 -79 127t-28 163q-3 166 91 273.5t238 105.5q111 0 193 -61l75 110h45zM108 364q0 -159 83 -249l356 523q-67 55 -164 55q-130 0 -202.5 -87t-72.5 -242zM659 364
q0 154 -84 248l-356 -524q67 -54 165 -54q128 0 201.5 89.5t73.5 240.5zM484 1000l-100 -178h-38l70 178h68z" />
    <glyph glyph-name="oslashacute" unicode="&#x1ff;" horiz-adv-x="561" 
d="M435 491q73 -79 73 -220q2 -122 -64.5 -204.5t-163.5 -80.5q-76 0 -132 44l-61 -99h-43l77 125q-68 77 -68 215q0 131 61 208q61 79 166 79q72 0 128 -42l53 87h44zM104 273q0 -109 45 -173l234 377q-43 35 -103 35q-86 0 -131 -62t-45 -177zM457 273q0 113 -48 177
l-235 -379q46 -41 105 -41q80 0 129 66.5t49 176.5zM396 818l-100 -178h-38l70 178h68z" />
    <glyph glyph-name="Scommaaccent" unicode="&#x218;" horiz-adv-x="613" 
d="M565 197q3 -93 -72.5 -152t-190.5 -58q-144 0 -257 59v66h4q38 -33 109 -56q70 -21 143 -21q102 0 158 42.5t56 118.5q0 71 -81 106q-36 17 -152 43q-98 23 -142 46q-46 25 -70 60q-23 37 -23 89q-2 84 69.5 143t175.5 57q127 0 244 -52v-64h-4q-42 30 -107.5 48.5
t-136.5 18.5q-84 0 -136.5 -41.5t-52.5 -105.5q0 -74 77 -112q38 -18 130 -39q76 -17 113 -29q35 -11 61 -25q25 -13 45 -34q40 -40 40 -108zM340 -52l-61 -149h-37l40 149h58z" />
    <glyph glyph-name="scommaaccent" unicode="&#x219;" horiz-adv-x="491" 
d="M435 149q0 -74 -54.5 -117.5t-148.5 -43.5q-87 0 -180 47v57h3q87 -63 187 -63q69 0 106 30.5t37 85.5q0 53 -47 74q-25 13 -101 29q-93 22 -126 42q-57 37 -58 106q0 71 53 115.5t139 44.5q42 0 91 -12t80 -30v-59h-5q-33 22 -83 39q-48 16 -93 16q-57 0 -94.5 -27.5
t-37.5 -71.5q0 -50 33 -74t119 -42q99 -17 139.5 -50.5t40.5 -95.5zM279 -52l-61 -149h-37l40 149h58z" />
    <glyph glyph-name="uni021A" unicode="&#x21a;" horiz-adv-x="613" 
d="M608 678h-275v-678h-52v678h-276v49h603v-49zM340 -52l-61 -149h-37l40 149h58z" />
    <glyph glyph-name="uni021B" unicode="&#x21b;" horiz-adv-x="363" 
d="M40 500v44h60v157h50v-157h198v-44h-198v-294q0 -98 22.5 -134t85.5 -36q42 0 92 18h2v-49q-62 -16 -98 -16q-154 0 -154 185v326h-60zM220 -52l-61 -149h-37l40 149h58z" />
    <glyph glyph-name="uni0237" unicode="&#x237;" horiz-adv-x="306" 
d="M217 -29q0 -178 -167 -178q-48 0 -85 15v53h2q49 -20 90 -20q27 0 46.5 5.5t31 19t18.5 25.5t10 37t3.5 41t0.5 49v482h-118v44h168v-573z" />
    <glyph glyph-name="circumflex" unicode="&#x2c6;" 
d="M432 637h-50l-100 132l-100 -132h-52l123 181h56z" />
    <glyph glyph-name="caron" unicode="&#x2c7;" 
d="M432 818l-123 -181h-56l-123 181h52l100 -131l100 131h50z" />
    <glyph glyph-name="uni02C9" unicode="&#x2c9;" 
d="M452 664h-348v47h348v-47z" />
    <glyph glyph-name="breve" unicode="&#x2d8;" 
d="M460 819q-8 -83 -57 -135t-123 -52t-123 52t-57 135h44q5 -66 42 -106t94 -40q56 0 93.5 40t42.5 106h44z" />
    <glyph glyph-name="dotaccent" unicode="&#x2d9;" 
d="M311 642h-63v77h63v-77z" />
    <glyph glyph-name="ring" unicode="&#x2da;" 
d="M423 788q0 -59 -43 -101q-42 -42 -101 -42t-102 42t-43 101t43 100.5t102 41.5q61 0 102 -42q42 -42 42 -100zM384 788q0 43 -30.5 73t-74.5 30t-74.5 -30t-30.5 -73t30.5 -73.5t74.5 -30.5q41 0 73 30q32 32 32 74z" />
    <glyph glyph-name="ogonek" unicode="&#x2db;" 
d="M386 -188q-39 -16 -80 -16q-63 0 -104 47t-41 119q0 28 5 48h45q-5 -18 -5 -49q0 -54 28 -87t73 -33q41 0 78 19h1v-48z" />
    <glyph glyph-name="tilde" unicode="&#x2dc;" 
d="M474 786q-4 -65 -34 -103.5t-75 -38.5q-25 0 -47.5 10t-59.5 40q-30 29 -48 39t-39 10q-27 0 -44 -26t-19 -71h-43q4 66 33 104.5t73 38.5q49 0 110 -51q30 -29 48 -39t39 -10q28 0 44.5 26t18.5 71h43z" />
    <glyph glyph-name="hungarumlaut" unicode="&#x2dd;" 
d="M409 818l-109 -178h-34l80 178h63zM216 818l-109 -178h-33l80 178h62z" />
    <glyph glyph-name="gravecomb" unicode="&#x300;" 
d="M343 822h-38l-100 178h67z" />
    <glyph glyph-name="acutecomb" unicode="&#x301;" 
d="M297 1000l-100 -178h-38l70 178h68z" />
    <glyph glyph-name="uni0302" unicode="&#x302;" 
d="M462 819h-50l-100 132l-100 -132h-52l123 181h56z" />
    <glyph glyph-name="uni0306" unicode="&#x306;" 
d="M460 1001q-8 -83 -57 -135t-123 -52t-123 52t-57 135h44q5 -66 42 -106t94 -40q56 0 93.5 40t42.5 106h44z" />
    <glyph glyph-name="uni0308" unicode="&#x308;" 
d="M443 824h-73v76h73v-76zM272 824h-73v76h73v-76z" />
    <glyph glyph-name="uni030B" unicode="&#x30b;" 
d="M409 1000l-109 -178h-34l80 178h63zM216 1000l-109 -178h-33l80 178h62z" />
    <glyph glyph-name="uni030C" unicode="&#x30c;" 
d="M432 1000l-123 -181h-56l-123 181h52l100 -131l100 131h50z" />
    <glyph glyph-name="uni0326" unicode="&#x326;" horiz-adv-x="390" 
d="M228 -52l-61 -149h-37l40 149h58z" />
    <glyph glyph-name="tonos" unicode="&#x384;" 
d="M312 818l-57 -185h-29l21 185h65z" />
    <glyph glyph-name="dieresistonos" unicode="&#x385;" 
d="M339 818l-57 -185h-29l21 185h65zM438 642h-74v76h74v-76zM191 642h-74v76h74v-76z" />
    <glyph glyph-name="Alphatonos" unicode="&#x386;" horiz-adv-x="662" 
d="M509 229h-344l-88 -229h-54l282 727h66l282 -727h-56zM183 277h307l-154 399zM106 727l-57 -185h-29l21 185h65z" />
    <glyph glyph-name="anoteleia" unicode="&#x387;" horiz-adv-x="365" 
d="M224 419h-83v111h83v-111z" />
    <glyph glyph-name="Epsilontonos" unicode="&#x388;" horiz-adv-x="709" 
d="M649 0h-460v727h460v-49h-409v-242h408v-49h-408v-339h409v-48zM100 727l-57 -185h-29l21 185h65z" />
    <glyph glyph-name="Etatonos" unicode="&#x389;" horiz-adv-x="787" 
d="M694 0h-52v378h-402v-378h-51v727h51v-299h402v299h52v-727zM100 727l-57 -185h-29l21 185h65z" />
    <glyph glyph-name="Iotatonos" unicode="&#x38a;" horiz-adv-x="481" 
d="M411 0h-244v47h97v633h-97v47h244v-47h-96v-633h96v-47zM100 727l-57 -185h-29l21 185h65z" />
    <glyph glyph-name="Omicrontonos" unicode="&#x38c;" horiz-adv-x="847" 
d="M465 742q144 3 237 -105t91 -274q1 -165 -92 -273.5t-237 -104.5q-143 -4 -236.5 105.5t-91.5 273.5q-1 165 92.5 273.5t236.5 104.5zM740 363q0 147 -75 238.5t-201 91.5q-123 3 -200 -90.5t-75 -238.5q-2 -147 74.5 -239.5t200.5 -90.5q125 -3 201.5 90t74.5 239z
M100 727l-57 -185h-29l21 185h65z" />
    <glyph glyph-name="Upsilontonos" unicode="&#x38e;" horiz-adv-x="663" 
d="M660 727l-250 -401v-326h-52v319l-249 408h57l217 -356l222 356h55zM100 727l-57 -185h-29l21 185h65z" />
    <glyph glyph-name="Omegatonos" unicode="&#x38f;" horiz-adv-x="864" 
d="M474 696q-119 0 -191 -72.5t-72 -192.5q0 -101 52 -166q17 -21 39 -42q25 -21 82 -64v-159h-247v48h196v92q-175 129 -175 291q-2 135 88 224.5t228 86.5q136 3 227 -87t89 -224q-4 -88 -43.5 -155t-132.5 -136v-92h196v-48h-247v159l47 35q72 56 99 109q27 54 27 128
q2 119 -71.5 193t-190.5 72zM100 727l-57 -185h-29l21 185h65z" />
    <glyph glyph-name="iotadieresistonos" unicode="&#x390;" horiz-adv-x="250" 
d="M187 818l-58 -185h-28l21 185h65zM276 642h-74v76h74v-76zM49 642h-75v76h75v-76zM150 0h-50v544h50v-544z" />
    <glyph glyph-name="Alpha" unicode="&#x391;" horiz-adv-x="647" 
d="M494 229h-344l-88 -229h-54l282 727h66l282 -727h-56zM168 277h307l-154 399z" />
    <glyph glyph-name="Beta" unicode="&#x392;" horiz-adv-x="612" 
d="M93 727h186q126 0 185 -39t59 -121q0 -58 -27.5 -98.5t-77.5 -53.5v-7q80 -18 121.5 -66t41.5 -121q0 -109 -68.5 -165t-203.5 -56h-216v727zM302 426q166 0 166 137q0 63 -44.5 89t-154.5 26h-125v-252h158zM278 47q134 0 192 40t58 130q0 160 -209 160h-175v-330h134z
" />
    <glyph glyph-name="Gamma" unicode="&#x393;" horiz-adv-x="524" 
d="M535 678h-391v-678h-51v727h442v-49z" />
    <glyph glyph-name="Delta" unicode="&#x394;" horiz-adv-x="647" 
d="M638 0h-630l282 727h66zM563 48l-243 628l-240 -628h483z" />
    <glyph glyph-name="Epsilon" unicode="&#x395;" horiz-adv-x="613" 
d="M553 0h-460v727h460v-49h-409v-242h408v-49h-408v-339h409v-48z" />
    <glyph glyph-name="Zeta" unicode="&#x396;" horiz-adv-x="682" 
d="M616 0h-546v63l488 615h-472v49h523v-62l-494 -617h501v-48z" />
    <glyph glyph-name="Eta" unicode="&#x397;" horiz-adv-x="690" 
d="M598 0h-52v378h-402v-378h-51v727h51v-299h402v299h52v-727z" />
    <glyph glyph-name="Theta" unicode="&#x398;" horiz-adv-x="767" 
d="M384 742q144 4 237 -105t91 -274q1 -165 -92.5 -273.5t-236.5 -104.5q-143 -4 -236.5 105.5t-91.5 273.5q-1 165 92.5 273.5t236.5 104.5zM659 363q0 147 -75 238.5t-201 91.5q-123 3 -200 -90.5t-75 -238.5q-2 -147 74.5 -239.5t200.5 -90.5q126 0 201 91t75 238z
M552 369h-343v49h343v-49z" />
    <glyph glyph-name="Iota" unicode="&#x399;" horiz-adv-x="383" 
d="M313 0h-244v47h97v633h-97v47h244v-47h-96v-633h96v-47z" />
    <glyph glyph-name="Kappa" unicode="&#x39a;" horiz-adv-x="653" 
d="M644 0h-67l-324 365l-109 -115v-250h-51v727h51v-417l386 417h68l-310 -326z" />
    <glyph glyph-name="Lambda" unicode="&#x39b;" horiz-adv-x="647" 
d="M320 676l-259 -676h-53l282 727h66l282 -727h-57z" />
    <glyph glyph-name="Mu" unicode="&#x39c;" horiz-adv-x="806" 
d="M713 0h-51v691l-245 -487h-32l-244 487v-691h-48v727h85l224 -456l226 456h85v-727z" />
    <glyph glyph-name="Nu" unicode="&#x39d;" horiz-adv-x="690" 
d="M598 0h-79l-377 677v-677h-49v727h82l373 -673v673h50v-727z" />
    <glyph glyph-name="Xi" unicode="&#x39e;" horiz-adv-x="636" 
d="M576 678h-516v49h516v-49zM550 377h-464v49h464v-49zM576 0h-516v48h516v-48z" />
    <glyph glyph-name="Omicron" unicode="&#x39f;" horiz-adv-x="767" 
d="M384 742q144 3 237 -105t91 -274q1 -165 -92 -273.5t-237 -104.5q-143 -4 -236.5 105.5t-91.5 273.5q-1 165 92.5 273.5t236.5 104.5zM659 363q0 147 -75 238.5t-201 91.5q-123 3 -200 -90.5t-75 -238.5q-2 -147 74.5 -239.5t200.5 -90.5q125 -3 201.5 90t74.5 239z" />
    <glyph glyph-name="Pi" unicode="&#x3a0;" horiz-adv-x="694" 
d="M601 0h-51v678h-406v-678h-51v727h508v-727z" />
    <glyph glyph-name="Rho" unicode="&#x3a1;" horiz-adv-x="537" 
d="M502 512q0 -105 -74 -164.5t-201 -59.5h-83v-288h-51v727h168q108 0 174 -57q67 -57 67 -158zM448 511q0 168 -207 168h-97v-344h91q102 0 157.5 46t55.5 130z" />
    <glyph glyph-name="Sigma" unicode="&#x3a3;" horiz-adv-x="661" 
d="M614 0h-553v54l326 332l-316 290v51h517v-49h-450l311 -287v-6l-327 -337h492v-48z" />
    <glyph glyph-name="Tau" unicode="&#x3a4;" horiz-adv-x="613" 
d="M608 678h-275v-678h-52v678h-276v49h603v-49z" />
    <glyph glyph-name="Upsilon" unicode="&#x3a5;" 
d="M554 727l-250 -401v-326h-52v319l-249 408h57l217 -356l222 356h55z" />
    <glyph glyph-name="Phi" unicode="&#x3a6;" horiz-adv-x="752" 
d="M698 369q3 -128 -83 -212.5t-213 -82.5v-82h-51v82q-128 -2 -214 82.5t-83 212.5q-2 125 83.5 208t213.5 81v77h51v-77q127 2 212.5 -81t83.5 -208zM351 615q-109 0 -177 -66q-66 -66 -66 -176q0 -117 65 -187q65 -69 178 -69v498zM402 117q112 0 177 69t65 187
q0 110 -66 176t-176 66v-498z" />
    <glyph glyph-name="Chi" unicode="&#x3a7;" horiz-adv-x="613" 
d="M91 727l221 -326l219 326h55l-247 -366l244 -361h-59l-219 323l-224 -323h-55l252 363l-246 364h59z" />
    <glyph glyph-name="Psi" unicode="&#x3a8;" horiz-adv-x="798" 
d="M711 438q-4 -144 -67 -207.5t-219 -74.5v-156h-51v156q-160 15 -221 76t-66 206v289h53v-306q5 -111 54 -157t180 -56v519h51v-519q126 7 178.5 55.5t55.5 157.5v306h52v-289z" />
    <glyph glyph-name="Omega.001" unicode="&#x3a9;" horiz-adv-x="781" 
d="M391 696q-119 0 -191 -72.5t-72 -192.5q0 -101 52 -166q16 -21 39 -42q25 -21 82 -64v-159h-247v48h196v92q-175 129 -175 291q-2 135 88 224.5t228 86.5q136 3 227 -87t89 -224q-4 -88 -43.5 -155t-132.5 -136v-92h196v-48h-247v159l47 35q72 56 99 109q27 54 27 128
q2 119 -71.5 193t-190.5 72z" />
    <glyph glyph-name="Iotadieresis" unicode="&#x3aa;" horiz-adv-x="383" 
d="M313 0h-244v47h97v633h-97v47h244v-47h-96v-633h96v-47zM315 824h-73v76h73v-76zM144 824h-73v76h73v-76z" />
    <glyph glyph-name="Upsilondieresis" unicode="&#x3ab;" 
d="M554 727l-250 -401v-326h-52v319l-249 408h57l217 -356l222 356h55zM401 824h-73v76h73v-76zM230 824h-73v76h73v-76z" />
    <glyph glyph-name="alphatonos" unicode="&#x3ac;" horiz-adv-x="573" 
d="M485 0h-49v65q-87 -78 -176 -78q-99 0 -153 74t-54 210q0 130 63 207q29 36 73 59t81 23q87 0 166 -43l6 27h43v-544zM436 463q-74 51 -158 51q-78 0 -126 -67q-48 -66 -48 -171q0 -120 41 -180t118 -60q91 0 173 75v352zM330 818l-57 -185h-29l21 185h65z" />
    <glyph glyph-name="epsilontonos" unicode="&#x3ad;" horiz-adv-x="473" 
d="M456 53q-80 -66 -198 -66q-87 0 -145.5 45.5t-58.5 117.5q0 100 104 136v3q-41 12 -64.5 44.5t-23.5 76.5q0 65 54 105.5t134 40.5q108 0 176 -48v-56h-5q-23 26 -71 42q-49 18 -100 18q-66 0 -102 -26.5t-36 -74.5q4 -58 37 -80t121 -23h51v-45h-74q-82 -1 -115 -25
t-37 -85q0 -56 40.5 -87.5t111.5 -31.5q59 0 114 21q58 22 82 52h5v-54zM318 818l-57 -185h-29l21 185h65z" />
    <glyph glyph-name="etatonos" unicode="&#x3ae;" horiz-adv-x="585" 
d="M497 -201h-49v547q0 163 -125 163q-48 0 -97.5 -22t-87.5 -61v-426h-50v544h50v-68q37 35 87 59q52 24 95 24q84 0 130.5 -50.5t46.5 -141.5v-568zM355 818l-57 -185h-29l21 185h65z" />
    <glyph glyph-name="iotatonos" unicode="&#x3af;" horiz-adv-x="250" 
d="M150 0h-50v544h50v-544zM195 818l-57 -185h-29l21 185h65z" />
    <glyph glyph-name="upsilondieresistonos" unicode="&#x3b0;" horiz-adv-x="579" 
d="M496 198q0 -106 -53.5 -159t-153.5 -53q-206 0 -206 212v346h49v-323q1 -109 34.5 -147.5t123.5 -42.5q85 0 120.5 42.5t35.5 147.5v323h50v-346zM351 818l-57 -185h-29l21 185h65zM450 642h-74v76h74v-76zM203 642h-74v76h74v-76z" />
    <glyph glyph-name="alpha" unicode="&#x3b1;" horiz-adv-x="573" 
d="M485 0h-49v65q-87 -78 -176 -78q-99 0 -153 74t-54 210q0 130 63 207q29 36 73 59t81 23q87 0 166 -43l6 27h43v-544zM436 463q-74 51 -158 51q-78 0 -126 -67q-48 -66 -48 -171q0 -120 41 -180t118 -60q91 0 173 75v352z" />
    <glyph glyph-name="beta" unicode="&#x3b2;" horiz-adv-x="564" 
d="M512 217q0 -106 -60.5 -167.5t-162.5 -61.5q-79 0 -150 45v-234h-50v730q0 102 55 165.5t147 63.5q81 0 130.5 -49t49.5 -130q0 -62 -33 -109.5t-89 -65.5v-5q73 -11 118 -60.5t45 -121.5zM460 214q0 78 -54 119.5t-159 41.5h-18v44h18h8q80 0 123 41.5t43 118.5
q0 62 -37 98t-99 36q-67 0 -106.5 -50t-39.5 -135v-451q65 -44 140 -44q85 0 133 48t48 133z" />
    <glyph glyph-name="gamma" unicode="&#x3b3;" horiz-adv-x="556" 
d="M522 544l-221 -509v-236h-50v236l-216 509h57l185 -438l191 438h54z" />
    <glyph glyph-name="delta" unicode="&#x3b4;" horiz-adv-x="569" 
d="M513 264q0 -128 -63.5 -204.5t-164.5 -73.5q-107 0 -168 75.5t-61 199.5q0 112 64.5 187.5t178.5 95.5q-81 76 -178 152v64h348v-46h-295q67 -52 185 -157q82 -73 118 -141.5t36 -151.5zM462 268q0 139 -128 243q-109 -13 -168 -78t-59 -172q0 -111 46.5 -171t133.5 -60
q175 0 175 238z" />
    <glyph glyph-name="epsilon" unicode="&#x3b5;" horiz-adv-x="473" 
d="M456 53q-80 -66 -198 -66q-87 0 -145.5 45.5t-58.5 117.5q0 100 104 136v3q-41 12 -64.5 44.5t-23.5 76.5q0 65 54 105.5t134 40.5q108 0 176 -48v-56h-5q-23 26 -71 42q-49 18 -100 18q-66 0 -102 -26.5t-36 -74.5q4 -58 37 -80t121 -23h51v-45h-74q-82 -1 -115 -25
t-37 -85q0 -56 40.5 -87.5t111.5 -31.5q59 0 114 21q58 22 82 52h5v-54z" />
    <glyph glyph-name="zeta" unicode="&#x3b6;" horiz-adv-x="421" 
d="M315 44q63 0 96 -27t33 -78q0 -73 -81 -140h-51v4q49 41 67 69.5t18 59.5q0 68 -82 68h-36q-105 0 -161 60t-56 173q0 108 60 221q31 57 92 132q61 73 122 125v4h-229v45h316v-33q-84 -61 -160 -152q-75 -90 -113 -179q-37 -86 -37 -163q0 -189 166 -189h36z" />
    <glyph glyph-name="eta" unicode="&#x3b7;" horiz-adv-x="585" 
d="M497 -201h-49v547q0 163 -125 163q-48 0 -97.5 -22t-87.5 -61v-426h-50v544h50v-68q37 35 87 59q52 24 95 24q84 0 130.5 -50.5t46.5 -141.5v-568z" />
    <glyph glyph-name="theta" unicode="&#x3b8;" horiz-adv-x="549" 
d="M496 375q0 -204 -54.5 -297t-167.5 -93t-167 93t-54 297q0 198 54.5 291t166.5 93t167 -93t55 -291zM445 401q0 312 -171 312q-170 0 -170 -312h341zM104 357q0 -327 170 -327q171 0 171 327h-341z" />
    <glyph glyph-name="iota" unicode="&#x3b9;" horiz-adv-x="250" 
d="M150 0h-50v544h50v-544z" />
    <glyph glyph-name="kappa" unicode="&#x3ba;" horiz-adv-x="555" 
d="M88 544h50v-289l219 228q37 38 60.5 50.5t54.5 12.5l31 -2v-44h-3l-25 1q-25 0 -44 -10t-43 -35l-139 -147l285 -309h-62l-256 275l-78 -80v-195h-50v544z" />
    <glyph glyph-name="lambda" unicode="&#x3bb;" horiz-adv-x="549" 
d="M183 760l332 -760h-55l-188 440q-22 -53 -84.5 -206t-98.5 -234h-55l211 500l-117 260h55z" />
    <glyph glyph-name="mu" unicode="&#x3bc;" horiz-adv-x="585" 
d="M497 0h-50v72q-76 -84 -157 -84q-101 0 -153 61v-250h-49v745h49v-418q21 -40 60.5 -62.5t89.5 -22.5q42 0 87 23.5t73 58.5v421h50v-544z" />
    <glyph glyph-name="nu" unicode="&#x3bd;" 
d="M522 544l-225 -544h-39l-224 544h57l190 -469l187 469h54z" />
    <glyph glyph-name="xi" unicode="&#x3be;" horiz-adv-x="467" 
d="M467 -61q0 -73 -81 -140h-51v4q49 41 67 69.5t18 59.5q0 68 -82 68h-36q-115 0 -182 53.5t-67 148.5q0 146 158 195v3q-52 15 -85.5 59.5t-33.5 100.5q0 104 84 155v2h-110v43h362v-45h-121q-76 0 -120.5 -42t-44.5 -113q0 -142 179 -142h81v-44h-113q-80 0 -132 -49
q-53 -50 -53 -122q0 -159 198 -159h36q63 0 96 -27t33 -78z" />
    <glyph glyph-name="omicron" unicode="&#x3bf;" horiz-adv-x="561" 
d="M508 272q0 -130 -62.5 -208t-165.5 -78q-104 0 -166 78q-61 79 -61 208q0 131 62 208.5t165 77.5q105 0 166 -79q62 -79 62 -207zM104 272q0 -114 47.5 -178t128.5 -64t129 64t48 178q0 113 -47.5 177t-129.5 64q-81 0 -128.5 -64t-47.5 -177z" />
    <glyph glyph-name="pi" unicode="&#x3c0;" horiz-adv-x="584" 
d="M496 0h-50v500h-308v-500h-50v544h408v-544z" />
    <glyph glyph-name="rho" unicode="&#x3c1;" horiz-adv-x="566" 
d="M514 281q0 -133 -60 -213q-60 -79 -165 -79q-74 0 -157 41v-231h-49v516q0 115 57.5 179t158.5 64q106 0 160.5 -70t54.5 -207zM462 281q0 115 -42 173.5t-121 58.5q-86 0 -126.5 -54.5t-40.5 -171.5v-205q66 -48 157 -48q81 0 127 66t46 181z" />
    <glyph glyph-name="sigma1" unicode="&#x3c2;" horiz-adv-x="495" 
d="M454 -61q0 -73 -81 -140h-52v4q49 41 67.5 69.5t18.5 59.5q0 68 -82 68h-26q-118 0 -182 71t-64 201q0 131 64 207q65 78 177 78q71 0 166 -49v-62h-4q-88 64 -171 64q-86 0 -133 -62t-47 -176q0 -105 50.5 -167t137.5 -62h32q129 0 129 -104z" />
    <glyph glyph-name="sigma" unicode="&#x3c3;" horiz-adv-x="573" 
d="M508 271q2 -122 -64.5 -204.5t-163.5 -80.5q-103 0 -165 77q-62 79 -62 208q0 130 64.5 201.5t182.5 71.5h259v-44h-95q44 -103 44 -229zM457 273q0 135 -48 226h-109q-196 0 -196 -226q-2 -109 48 -177t127 -66q80 0 129 66.5t49 176.5z" />
    <glyph glyph-name="tau" unicode="&#x3c4;" horiz-adv-x="477" 
d="M472 500h-209v-500h-50v500h-208v44h467v-44z" />
    <glyph glyph-name="upsilon" unicode="&#x3c5;" horiz-adv-x="579" 
d="M496 198q0 -106 -53.5 -159t-153.5 -53q-206 0 -206 212v346h49v-323q1 -109 34.5 -147.5t123.5 -42.5q85 0 120.5 42.5t35.5 147.5v323h50v-346z" />
    <glyph glyph-name="phi" unicode="&#x3c6;" horiz-adv-x="718" 
d="M668 279q0 -118 -79 -197t-205 -88v-195h-49v195q-122 2 -204.5 81.5t-80.5 197.5q0 165 139 271h68v-4q-154 -103 -154 -267q0 -103 65 -168t166 -65v517l27 1h15q129 2 212 -76.5t80 -202.5zM616 279q0 105 -62 169q-62 63 -164 63h-6v-470q110 3 171 66t61 172z" />
    <glyph glyph-name="chi" unicode="&#x3c7;" horiz-adv-x="567" 
d="M532 -201h-59l-193 339l-189 -339h-53l217 378l-213 367h59l184 -323l189 323h54l-217 -366z" />
    <glyph glyph-name="psi" unicode="&#x3c8;" horiz-adv-x="748" 
d="M665 224q4 -95 -71.5 -157.5t-195.5 -64.5v-203h-48v203q-120 3 -195.5 65t-71.5 157v320h49v-310q0 -89 52.5 -135t165.5 -53v498h48v-498q113 7 165 53.5t52 134.5v310h50v-320z" />
    <glyph glyph-name="omega" unicode="&#x3c9;" horiz-adv-x="758" 
d="M706 246q0 -120 -49.5 -190t-137.5 -70q-48 0 -85 22t-54 60h-2q-18 -38 -54.5 -60t-85.5 -22q-83 -3 -134.5 68t-50.5 192q0 88 31 157t104 141h63v-7q-69 -52 -108 -129t-39 -161q0 -101 37 -160.5t98 -56.5q40 0 71 20t45 59v297h48v-297q28 -79 116 -79
q62 -3 98.5 57t36.5 159q0 85 -38.5 161t-108.5 130v7h63q73 -73 104.5 -142t31.5 -156z" />
    <glyph glyph-name="iotadieresis" unicode="&#x3ca;" horiz-adv-x="250" 
d="M248 642h-74v76h74v-76zM76 642h-73v76h73v-76zM150 0h-50v544h50v-544z" />
    <glyph glyph-name="upsilondieresis" unicode="&#x3cb;" horiz-adv-x="579" 
d="M496 198q0 -106 -53.5 -159t-153.5 -53q-206 0 -206 212v346h49v-323q1 -109 34.5 -147.5t123.5 -42.5q85 0 120.5 42.5t35.5 147.5v323h50v-346zM411 642h-73v76h73v-76zM240 642h-73v76h73v-76z" />
    <glyph glyph-name="omicrontonos" unicode="&#x3cc;" horiz-adv-x="561" 
d="M508 272q0 -130 -62.5 -208t-165.5 -78q-104 0 -166 78q-61 79 -61 208q0 131 62 208.5t165 77.5q105 0 166 -79q62 -79 62 -207zM104 272q0 -114 47.5 -178t128.5 -64t129 64t48 178q0 113 -47.5 177t-129.5 64q-81 0 -128.5 -64t-47.5 -177zM328 818l-57 -185h-29
l21 185h65z" />
    <glyph glyph-name="upsilontonos" unicode="&#x3cd;" horiz-adv-x="579" 
d="M496 198q0 -106 -53.5 -159t-153.5 -53q-206 0 -206 212v346h49v-323q1 -109 34.5 -147.5t123.5 -42.5q85 0 120.5 42.5t35.5 147.5v323h50v-346zM340 818l-57 -185h-29l21 185h65z" />
    <glyph glyph-name="omegatonos" unicode="&#x3ce;" horiz-adv-x="758" 
d="M706 246q0 -120 -49.5 -190t-137.5 -70q-48 0 -85 22t-54 60h-2q-18 -38 -54.5 -60t-85.5 -22q-83 -3 -134.5 68t-50.5 192q0 88 31 157t104 141h63v-7q-69 -52 -108 -129t-39 -161q0 -101 37 -160.5t98 -56.5q40 0 71 20t45 59v297h48v-297q28 -79 116 -79
q62 -3 98.5 57t36.5 159q0 85 -38.5 161t-108.5 130v7h63q73 -73 104.5 -142t31.5 -156zM431 818l-57 -185h-29l21 185h65z" />
    <glyph glyph-name="afii10023" unicode="&#x401;" horiz-adv-x="613" 
d="M553 0h-460v727h460v-49h-409v-242h408v-49h-408v-339h409v-48zM456 824h-73v76h73v-76zM285 824h-73v76h73v-76z" />
    <glyph glyph-name="afii10051" unicode="&#x402;" horiz-adv-x="733" 
d="M697 220q3 -99 -71.5 -159.5t-194.5 -60.5h-54v48h56q103 0 156.5 44.5t53.5 127.5q0 119 -88 149q-48 17 -139 17h-166v-386h-52v678h-209v49h513v-49h-252v-243h166q153 0 215.5 -51.5t65.5 -163.5z" />
    <glyph glyph-name="afii10052" unicode="&#x403;" horiz-adv-x="524" 
d="M535 678h-391v-678h-51v727h442v-49zM432 1000l-100 -178h-38l70 178h68z" />
    <glyph glyph-name="afii10053" unicode="&#x404;" horiz-adv-x="690" 
d="M559 374h-452v-11q0 -151 80 -239.5t210 -88.5q76 0 130 16q58 17 120 59h4v-60q-46 -27 -116 -45q-68 -18 -128 -18q-161 -2 -258 102t-95 274q-2 168 96.5 273.5t257.5 103.5q135 0 243 -58v-66h-1q-121 75 -258 75q-116 0 -191 -71t-90 -196h448v-50z" />
    <glyph glyph-name="afii10054" unicode="&#x405;" horiz-adv-x="613" 
d="M565 197q3 -93 -72.5 -152t-190.5 -58q-144 0 -257 59v66h4q38 -33 109 -56q70 -21 143 -21q102 0 158 42.5t56 118.5q0 71 -81 106q-36 17 -152 43q-98 23 -142 46q-46 25 -70 60q-23 37 -23 89q-2 84 69.5 143t175.5 57q127 0 244 -52v-64h-4q-42 30 -107.5 48.5
t-136.5 18.5q-84 0 -136.5 -41.5t-52.5 -105.5q0 -74 77 -112q38 -18 130 -39q76 -17 113 -29q35 -11 61 -25q25 -13 45 -34q40 -40 40 -108z" />
    <glyph glyph-name="afii10055" unicode="&#x406;" horiz-adv-x="383" 
d="M313 0h-244v47h97v633h-97v47h244v-47h-96v-633h96v-47z" />
    <glyph glyph-name="afii10056" unicode="&#x407;" horiz-adv-x="383" 
d="M313 0h-244v47h97v633h-97v47h244v-47h-96v-633h96v-47zM315 824h-73v76h73v-76zM144 824h-73v76h73v-76z" />
    <glyph glyph-name="afii10057" unicode="&#x408;" horiz-adv-x="401" 
d="M304 194q0 -204 -183 -204q-19 0 -56 6q-34 6 -50 11v54h7q52 -20 100 -20q72 0 101 41.5t29 146.5v450h-147v48h199v-533z" />
    <glyph glyph-name="afii10058" unicode="&#x409;" horiz-adv-x="1081" 
d="M1044 221q0 -107 -73.5 -164t-206.5 -57h-225v678h-310l-10 -304q-6 -191 -47 -281.5t-136 -93.5l-36 1v51h7l29 -1q51 0 82 52q44 72 48 255l13 370h411v-292h174q280 0 280 -214zM741 47q134 0 192.5 41.5t58.5 132.5q-5 92 -58 128t-192 37h-153v-339h152z" />
    <glyph glyph-name="afii10059" unicode="&#x40a;" horiz-adv-x="1088" 
d="M1052 221q0 -107 -73.5 -164t-206.5 -57h-226v385h-402v-385h-51v727h51v-292h402v292h52v-292h174q280 0 280 -214zM749 47q134 0 192.5 41.5t58.5 132.5q-5 92 -58 128t-192 37h-153v-339h152z" />
    <glyph glyph-name="afii10060" unicode="&#x40b;" horiz-adv-x="759" 
d="M245 396q129 53 224 53q105 0 161.5 -55t56.5 -156v-238h-51v214q0 188 -171 188q-103 0 -220 -48v-354h-52v678h-204v49h509v-49h-253v-282z" />
    <glyph glyph-name="afii10061" unicode="&#x40c;" horiz-adv-x="643" 
d="M626 0h-70l-336 351h-76v-351h-51v727h51v-325q73 0 122 39t84 125q30 74 53 100q25 30 60 45q35 16 88 16h33v-49h-35q-73 0 -107 -41q-20 -24 -44 -82q-33 -78 -60 -110q-28 -34 -75 -59zM412 1000l-100 -178h-38l70 178h68z" />
    <glyph glyph-name="afii10062" unicode="&#x40e;" horiz-adv-x="567" 
d="M559 727l-273 -607q-56 -123 -161 -123q-29 0 -57 9v52h5q27 -11 48 -11q79 0 120 89l26 55l-259 536h59l228 -471l211 471h53zM431 934q-4 -70 -40 -108.5t-99 -38.5t-99 39t-39 108h49q1 -106 89 -106q89 0 90 106h49z" />
    <glyph glyph-name="afii10145" unicode="&#x40f;" horiz-adv-x="694" 
d="M322 0h-229v727h51v-679h406v679h51v-727h-228v-161h-51v161z" />
    <glyph glyph-name="afii10017" unicode="&#x410;" horiz-adv-x="647" 
d="M494 229h-344l-88 -229h-54l282 727h66l282 -727h-56zM168 277h307l-154 399z" />
    <glyph glyph-name="afii10018" unicode="&#x411;" horiz-adv-x="649" 
d="M604 221q0 -107 -73.5 -164t-206.5 -57h-231v727h448v-49h-396v-243h179q280 0 280 -214zM301 47q134 0 192 41.5t58 132.5q0 117 -102 148q-53 17 -147 17h-158v-339h157z" />
    <glyph glyph-name="afii10019" unicode="&#x412;" horiz-adv-x="612" 
d="M93 727h186q126 0 185 -39t59 -121q0 -58 -27.5 -98.5t-77.5 -53.5v-7q80 -18 121.5 -66t41.5 -121q0 -109 -68.5 -165t-203.5 -56h-216v727zM302 426q166 0 166 137q0 63 -44.5 89t-154.5 26h-125v-252h158zM278 47q134 0 192 40t58 130q0 160 -209 160h-175v-330h134z
" />
    <glyph glyph-name="afii10020" unicode="&#x413;" horiz-adv-x="524" 
d="M535 678h-391v-678h-51v727h442v-49z" />
    <glyph glyph-name="afii10021" unicode="&#x414;" horiz-adv-x="712" 
d="M657 -164h-51v166h-550v-166h-52v214h61q68 101 109 285q41 187 41 392h375v-677h67v-214zM539 50v621h-274q-5 -194 -45 -359q-39 -165 -105 -262h424z" />
    <glyph glyph-name="afii10022" unicode="&#x415;" horiz-adv-x="613" 
d="M553 0h-460v727h460v-49h-409v-242h408v-49h-408v-339h409v-48z" />
    <glyph glyph-name="afii10024" unicode="&#x416;" horiz-adv-x="906" 
d="M428 350h-53l-292 -350h-63l312 375q-39 22 -66.5 62t-54.5 116q-27 74 -55 97t-86 28h-23v49h21q99 0 142 -60q22 -28 48 -103q35 -97 72 -134q39 -37 98 -39v336h51v-336q58 0 97 39.5t72 133.5q27 78 47 104q23 29 57 44t86 15h21v-49h-23q-58 -5 -86 -28t-55 -97
q-26 -74 -53.5 -114.5t-67.5 -63.5l313 -375h-64l-291 350h-53v-350h-51v350z" />
    <glyph glyph-name="afii10025" unicode="&#x417;" horiz-adv-x="588" 
d="M357 401q163 -33 163 -193q0 -107 -70 -165t-196 -58q-44 0 -109 14q-64 14 -106 34v59l3 1q98 -60 226 -60q96 0 146.5 45t50.5 132q0 76 -50 117.5t-141 41.5h-106v51h73q98 0 150.5 39t52.5 110q0 57 -44 90t-120 33q-126 0 -213 -60h-2v64q94 46 211 46
q102 0 163 -48q62 -48 62 -124q0 -61 -41 -107q-40 -45 -103 -55v-7z" />
    <glyph glyph-name="afii10026" unicode="&#x418;" horiz-adv-x="690" 
d="M143 727v-673l372 673h83v-727h-50v677l-377 -677h-78v727h50z" />
    <glyph glyph-name="afii10027" unicode="&#x419;" horiz-adv-x="690" 
d="M143 727v-673l372 673h83v-727h-50v677l-377 -677h-78v727h50zM480 934q-4 -70 -40 -108.5t-99 -38.5t-99 39t-39 108h49q1 -106 89 -106q89 0 90 106h49z" />
    <glyph glyph-name="afii10028" unicode="&#x41a;" horiz-adv-x="643" 
d="M626 0h-70l-336 351h-76v-351h-51v727h51v-325q73 0 122 39t84 125q30 74 53 100q25 30 60 45q35 16 88 16h33v-49h-35q-73 0 -107 -41q-20 -24 -44 -82q-33 -78 -60 -110q-28 -34 -75 -59z" />
    <glyph glyph-name="afii10029" unicode="&#x41b;" horiz-adv-x="683" 
d="M590 0h-51v678h-310l-9 -268q-5 -127 -11 -172q-8 -61 -20 -98q-12 -44 -33 -75q-45 -66 -120 -66l-36 1v51h3q14 -2 33 -2q63 0 95 76q15 36 24 94q9 59 12 168l12 340h411v-727z" />
    <glyph glyph-name="afii10030" unicode="&#x41c;" horiz-adv-x="806" 
d="M713 0h-51v691l-245 -487h-32l-244 487v-691h-48v727h85l224 -456l226 456h85v-727z" />
    <glyph glyph-name="afii10031" unicode="&#x41d;" horiz-adv-x="690" 
d="M598 0h-52v378h-402v-378h-51v727h51v-299h402v299h52v-727z" />
    <glyph glyph-name="afii10032" unicode="&#x41e;" horiz-adv-x="767" 
d="M384 742q144 3 237 -105t91 -274q1 -165 -92 -273.5t-237 -104.5q-143 -4 -236.5 105.5t-91.5 273.5q-1 165 92.5 273.5t236.5 104.5zM659 363q0 147 -75 238.5t-201 91.5q-123 3 -200 -90.5t-75 -238.5q-2 -147 74.5 -239.5t200.5 -90.5q125 -3 201.5 90t74.5 239z" />
    <glyph glyph-name="afii10033" unicode="&#x41f;" horiz-adv-x="694" 
d="M601 0h-51v678h-406v-678h-51v727h508v-727z" />
    <glyph glyph-name="afii10034" unicode="&#x420;" horiz-adv-x="537" 
d="M502 512q0 -105 -74 -164.5t-201 -59.5h-83v-288h-51v727h168q108 0 174 -57q67 -57 67 -158zM448 511q0 168 -207 168h-97v-344h91q102 0 157.5 46t55.5 130z" />
    <glyph glyph-name="afii10035" unicode="&#x421;" horiz-adv-x="690" 
d="M396 -13q-150 -2 -247 104t-95 272q-2 168 96.5 273.5t257.5 103.5q67 0 138 -17.5t105 -38.5v-68h-4q-107 75 -237 75q-142 0 -223 -87q-80 -86 -80 -241q0 -151 80 -239.5t210 -88.5q78 0 135 19t115 64h4v-61q-104 -70 -255 -70z" />
    <glyph glyph-name="afii10036" unicode="&#x422;" horiz-adv-x="613" 
d="M608 678h-275v-678h-52v678h-276v49h603v-49z" />
    <glyph glyph-name="afii10037" unicode="&#x423;" horiz-adv-x="567" 
d="M559 727l-273 -607q-56 -123 -161 -123q-29 0 -57 9v52h5q27 -11 48 -11q79 0 120 89l26 55l-259 536h59l228 -471l211 471h53z" />
    <glyph glyph-name="afii10038" unicode="&#x424;" horiz-adv-x="752" 
d="M698 369q3 -128 -83 -212.5t-213 -82.5v-82h-51v82q-128 -2 -214 82.5t-83 212.5q-2 125 83.5 208t213.5 81v77h51v-77q127 2 212.5 -81t83.5 -208zM351 615q-109 0 -177 -66q-66 -66 -66 -176q0 -117 65 -187q65 -69 178 -69v498zM402 117q112 0 177 69t65 187
q0 110 -66 176t-176 66v-498z" />
    <glyph glyph-name="afii10039" unicode="&#x425;" horiz-adv-x="613" 
d="M91 727l221 -326l219 326h55l-247 -366l244 -361h-59l-219 323l-224 -323h-55l252 363l-246 364h59z" />
    <glyph glyph-name="afii10040" unicode="&#x426;" horiz-adv-x="717" 
d="M610 0h-517v727h51v-679h399v679h52v-679h67v-212h-52v164z" />
    <glyph glyph-name="afii10041" unicode="&#x427;" horiz-adv-x="648" 
d="M556 0h-52v332q-111 -53 -223 -53q-110 0 -168.5 56.5t-58.5 162.5v229h50v-213q0 -98 44.5 -142.5t146.5 -44.5q98 0 209 51v349h52v-727z" />
    <glyph glyph-name="afii10042" unicode="&#x428;" horiz-adv-x="949" 
d="M856 0h-763v727h52v-679h304v679h51v-679h305v679h51v-727z" />
    <glyph glyph-name="afii10043" unicode="&#x429;" horiz-adv-x="979" 
d="M872 0h-779v727h52v-679h304v679h51v-679h305v679h51v-680h67v-211h-51v164z" />
    <glyph glyph-name="afii10044" unicode="&#x42a;" horiz-adv-x="721" 
d="M685 221q0 -107 -73.5 -164t-206.5 -57h-226v678h-189v49h240v-292h175q280 0 280 -214zM382 47q134 0 192 41.5t58 132.5q-5 92 -57.5 128t-191.5 37h-153v-339h152z" />
    <glyph glyph-name="afii10045" unicode="&#x42b;" horiz-adv-x="835" 
d="M742 0h-51v727h51v-727zM599 221q0 -107 -74 -164t-207 -57h-225v727h51v-292h174q281 0 281 -214zM295 47q135 0 193 41.5t58 132.5q0 117 -102 148q-53 17 -148 17h-152v-339h151z" />
    <glyph glyph-name="afii10046" unicode="&#x42c;" horiz-adv-x="635" 
d="M599 221q0 -107 -74 -164t-207 -57h-225v727h51v-292h174q281 0 281 -214zM295 47q135 0 193 41.5t58 132.5q0 117 -102 148q-53 17 -148 17h-152v-339h151z" />
    <glyph glyph-name="afii10047" unicode="&#x42d;" horiz-adv-x="692" 
d="M132 424h447q-17 125 -91 195q-74 72 -190 72q-138 0 -257 -85h-2v66q108 68 244 68q159 0 256 -103.5t97 -273.5q2 -171 -96 -274.5t-257 -101.5q-70 0 -141 17q-69 18 -103 42v69h4q107 -80 250 -80q129 0 209.5 89t80.5 230v20h-451v50z" />
    <glyph glyph-name="afii10048" unicode="&#x42e;" horiz-adv-x="943" 
d="M563 742q144 2 235 -104.5t89 -274.5q2 -168 -89 -274t-235 -104q-141 -4 -233.5 106t-90.5 272v7h-95v-370h-51v727h51v-307h98q15 147 102 234q88 88 219 88zM833 364q0 150 -74 239.5t-196 89.5q-128 0 -199.5 -87t-71.5 -242q0 -147 74 -238.5t197 -91.5
q125 0 197 87q71 88 73 243z" />
    <glyph glyph-name="afii10049" unicode="&#x42f;" horiz-adv-x="613" 
d="M160 531q0 -179 194 -179h115v327h-121q-91 0 -139.5 -38t-48.5 -110zM257 321q-70 21 -110.5 77.5t-40.5 131.5q0 93 60.5 145t166.5 52h188v-727h-52v306h-159l-259 -306h-71z" />
    <glyph glyph-name="afii10065" unicode="&#x430;" 
d="M418 58q-50 -41 -92 -56.5t-95 -15.5q-84 0 -134 45.5t-50 120.5q0 102 88 147.5t283 48.5v32q0 60 -42.5 95t-113.5 35q-86 0 -163 -37h-3v58q67 28 158 28q215 0 215 -190v-369h-51v58zM418 305q-125 -5 -192 -20.5t-95.5 -46t-31.5 -85.5q0 -56 34.5 -90t92.5 -34
q105 0 192 77v199z" />
    <glyph glyph-name="afii10066" unicode="&#x431;" horiz-adv-x="562" 
d="M292 524q101 0 159 -70q59 -71 59 -185q2 -122 -62.5 -204t-163.5 -79q-109 -3 -170.5 91t-60.5 267q0 158 41.5 249.5t127.5 127.5q84 35 254 43v-47q-111 -7 -176 -21.5t-103 -42.5q-75 -55 -89 -198q94 69 184 69zM461 264q0 103 -46 158.5t-131 55.5q-92 0 -177 -66
q-3 -28 -3 -67q0 -152 46.5 -233.5t134.5 -81.5q80 0 128 63.5t48 170.5z" />
    <glyph glyph-name="afii10067" unicode="&#x432;" horiz-adv-x="549" 
d="M88 544h186q185 0 185 -125q0 -41 -24 -74.5t-62 -44.5v-5q116 -24 116 -132q0 -163 -227 -163h-174v544zM260 315q146 0 146 101q0 43 -37 63.5t-123 20.5h-109v-185h123zM247 44q105 0 148 26.5t43 89.5q0 57 -39.5 83t-122.5 26h-139v-225h110z" />
    <glyph glyph-name="afii10068" unicode="&#x433;" horiz-adv-x="431" 
d="M431 500h-293v-500h-50v544h343v-44z" />
    <glyph glyph-name="afii10069" unicode="&#x434;" horiz-adv-x="589" 
d="M553 -128h-50v129h-453v-129h-50v174h66q68 109 98 242q31 125 31 256h288v-498h70v-174zM433 46v454h-186q-4 -126 -40 -252q-34 -121 -87 -202h313z" />
    <glyph glyph-name="afii10070" unicode="&#x435;" horiz-adv-x="554" 
d="M101 274q0 -112 54.5 -177t147.5 -65q49 0 105 18q58 20 82 41h4v-57q-96 -46 -180 -46q-124 0 -192.5 73.5t-68.5 207.5q0 129 66.5 209t174.5 80q94 0 153 -66q58 -64 58 -174v-44h-404zM458 320q0 90 -43.5 141t-120.5 51q-79 0 -132 -53q-51 -51 -59 -139h355z" />
    <glyph glyph-name="afii10072" unicode="&#x436;" horiz-adv-x="685" 
d="M367 306q48 0 75 26t46 89q20 70 50 96t92 26h17v-43h-15q-44 0 -66.5 -18.5t-32.5 -62.5q-27 -107 -91 -132l222 -287h-58l-205 265h-34v-265h-50v265h-33l-205 -265h-58l221 287q-66 28 -90 130q-12 47 -34 65t-66 18h-14v43h16q61 0 92 -26q30 -25 51 -96
q18 -62 46 -88.5t74 -26.5v238h50v-238z" />
    <glyph glyph-name="afii10073" unicode="&#x437;" horiz-adv-x="486" 
d="M433 152q0 -77 -58 -120.5t-156 -43.5q-50 0 -101.5 14t-85.5 36v50h5q30 -25 82 -42t107 -17q74 0 115.5 31.5t41.5 90.5q0 58 -35.5 85.5t-118.5 27.5h-77v48h49q91 0 130.5 23t39.5 77q0 47 -36.5 73.5t-101.5 26.5q-47 0 -94 -15.5t-76 -40.5h-4v62q78 38 170 38
q91 0 141.5 -37.5t50.5 -105.5q0 -42 -25.5 -73.5t-70.5 -47.5v-2q51 -12 79.5 -48t28.5 -90z" />
    <glyph glyph-name="afii10074" unicode="&#x438;" horiz-adv-x="589" 
d="M500 0h-50v461l-311 -461h-51v544h50v-470l316 470h46v-544z" />
    <glyph glyph-name="afii10075" unicode="&#x439;" horiz-adv-x="589" 
d="M500 0h-50v461l-311 -461h-51v544h50v-470l316 470h46v-544zM432 745q-3 -66 -39.5 -102t-98.5 -36t-98.5 36.5t-39.5 101.5h49q1 -97 89 -97t89 97h49z" />
    <glyph glyph-name="afii10076" unicode="&#x43a;" horiz-adv-x="541" 
d="M138 0h-50v544h50v-237q68 2 96 25.5t68 105.5q26 60 63 83t99 23h30v-44h-37q-42 0 -67.5 -19.5t-43.5 -63.5q-45 -101 -109 -129l284 -288h-65l-266 267h-52v-267z" />
    <glyph glyph-name="afii10077" unicode="&#x43b;" horiz-adv-x="581" 
d="M492 0h-50v500h-234q-9 -258 -14 -309q-5 -49 -11 -74q-10 -51 -38 -82q-35 -36 -103 -36l-27 1v45h5l27 -1q45 0 68 30q30 36 36 189l9 281h332v-544z" />
    <glyph glyph-name="afii10078" unicode="&#x43c;" horiz-adv-x="618" 
d="M530 0h-50v476l-151 -308h-44l-150 308v-476h-47v544h66l156 -319l156 319h64v-544z" />
    <glyph glyph-name="afii10079" unicode="&#x43d;" horiz-adv-x="584" 
d="M496 0h-50v262h-308v-262h-50v544h50v-237h308v237h50v-544z" />
    <glyph glyph-name="afii10080" unicode="&#x43e;" horiz-adv-x="561" 
d="M508 272q0 -130 -62.5 -208t-165.5 -78q-104 0 -166 78q-61 79 -61 208q0 131 62 208.5t165 77.5q105 0 166 -79q62 -79 62 -207zM104 272q0 -114 47.5 -178t128.5 -64t129 64t48 178q0 113 -47.5 177t-129.5 64q-81 0 -128.5 -64t-47.5 -177z" />
    <glyph glyph-name="afii10081" unicode="&#x43f;" horiz-adv-x="584" 
d="M496 0h-50v500h-308v-500h-50v544h408v-544z" />
    <glyph glyph-name="afii10082" unicode="&#x440;" horiz-adv-x="573" 
d="M519 283q0 -136 -61 -215.5t-164 -79.5q-88 0 -156 39v-228h-50v745h50v-67q99 82 180 82q96 0 148.5 -73t52.5 -203zM468 276q0 114 -37.5 174t-108.5 60q-103 0 -184 -84v-344q68 -49 158 -49q79 0 125.5 66t46.5 177z" />
    <glyph glyph-name="afii10083" unicode="&#x441;" horiz-adv-x="504" 
d="M289 -11q-114 0 -175 74t-61 209q0 131 64 207q65 78 177 78q71 0 166 -49v-62h-4q-88 64 -171 64q-86 0 -133 -62t-47 -176q0 -111 48.5 -176t129.5 -65t173 67h4v-52q-22 -22 -75 -40q-53 -17 -96 -17z" />
    <glyph glyph-name="afii10084" unicode="&#x442;" horiz-adv-x="477" 
d="M472 500h-209v-500h-50v500h-208v44h467v-44z" />
    <glyph glyph-name="afii10085" unicode="&#x443;" 
d="M96 544q34 -79 95.5 -229t87.5 -211l188 440h54l-325 -745h-54l110 244l-211 501h55z" />
    <glyph glyph-name="afii10086" unicode="&#x444;" horiz-adv-x="765" 
d="M712 271q0 -129 -53 -204t-148 -75q-60 0 -104 34v-227h-49v227q-44 -34 -104 -34q-95 0 -148 75t-53 204q0 130 54 208q55 79 147 79q58 0 104 -35v237h49v-237q46 35 104 35q92 0 146 -78q55 -77 55 -209zM358 479q-55 32 -107 32q-68 0 -107 -62t-39 -172
q0 -114 39.5 -177.5t106.5 -63.5q57 0 107 35v408zM407 71q50 -35 107 -35q69 0 107.5 64t38.5 177q0 110 -38.5 172t-107.5 62q-52 0 -107 -32v-408z" />
    <glyph glyph-name="afii10087" unicode="&#x445;" 
d="M311 287l220 -287h-64l-188 247l-194 -247h-60l225 284l-198 260h62l168 -219l173 219h58z" />
    <glyph glyph-name="afii10088" unicode="&#x446;" horiz-adv-x="597" 
d="M511 0h-423v544h50v-500h302v500h50v-500h71v-172h-50v128z" />
    <glyph glyph-name="afii10089" unicode="&#x447;" horiz-adv-x="561" 
d="M472 0h-50v220q-97 -34 -171 -34q-175 0 -175 167v191h49v-164q0 -88 30 -119.5t113 -31.5q53 0 154 35v280h50v-544z" />
    <glyph glyph-name="afii10090" unicode="&#x448;" horiz-adv-x="801" 
d="M713 0h-625v544h50v-500h237v500h51v-500h237v500h50v-544z" />
    <glyph glyph-name="afii10091" unicode="&#x449;" horiz-adv-x="819" 
d="M734 0h-646v544h50v-500h237v500h51v-500h237v500h50v-500h71v-172h-50v128z" />
    <glyph glyph-name="afii10092" unicode="&#x44a;" horiz-adv-x="582" 
d="M546 161q0 -75 -50 -118t-130 -43h-207v500h-154v44h204v-227h157q80 0 130 -42t50 -114zM353 45q76 0 108.5 27.5t32.5 87.5q0 57 -32.5 84t-108.5 27h-144v-226h144z" />
    <glyph glyph-name="afii10093" unicode="&#x44b;" horiz-adv-x="712" 
d="M574 544h50v-544h-50v544zM475 161q0 -75 -50 -118t-130 -43h-207v544h50v-227h157q80 0 130 -42t50 -114zM282 45q76 0 108.5 27.5t32.5 87.5q0 57 -32.5 84t-108.5 27h-144v-226h144z" />
    <glyph glyph-name="afii10094" unicode="&#x44c;" horiz-adv-x="511" 
d="M475 161q0 -75 -50 -118t-130 -43h-207v544h50v-227h157q80 0 130 -42t50 -114zM282 45q76 0 108.5 27.5t32.5 87.5q0 57 -32.5 84t-108.5 27h-144v-226h144z" />
    <glyph glyph-name="afii10095" unicode="&#x44d;" horiz-adv-x="513" 
d="M58 88q91 -57 172 -57q82 0 130 65t48 178h-287v46h285q-10 93 -56.5 141.5t-120.5 48.5q-84 0 -171 -54h-5v62q95 39 166 39q111 0 176 -78q65 -77 65 -207q0 -135 -62.5 -209t-175.5 -74q-41 0 -94 14q-52 15 -75 34v51h5z" />
    <glyph glyph-name="afii10096" unicode="&#x44e;" horiz-adv-x="752" 
d="M699 271q2 -123 -63 -205t-159 -80q-100 0 -160 74.5t-63 201.5h-116v-262h-50v544h50v-237h117q9 117 69 184t153 67q99 0 160.5 -79.5t61.5 -207.5zM305 273q0 -111 47.5 -177t123.5 -66q78 0 125 66t47 177q0 113 -45.5 176t-125.5 63q-84 0 -128 -62t-44 -177z" />
    <glyph glyph-name="afii10097" unicode="&#x44f;" horiz-adv-x="547" 
d="M459 0h-50v235h-120l-188 -235h-66l195 237q-77 16 -112 53.5t-35 101.5q0 152 192 152h184v-544zM409 281v219h-122q-59 0 -89 -10.5t-48 -34.5q-16 -22 -16 -63q0 -58 40.5 -84.5t132.5 -26.5h102z" />
    <glyph glyph-name="afii10071" unicode="&#x451;" horiz-adv-x="554" 
d="M101 274q0 -112 54.5 -177t147.5 -65q49 0 105 18q58 20 82 41h4v-57q-96 -46 -180 -46q-124 0 -192.5 73.5t-68.5 207.5q0 129 66.5 209t174.5 80q94 0 153 -66q58 -64 58 -174v-44h-404zM458 320q0 90 -43.5 141t-120.5 51q-79 0 -132 -53q-51 -51 -59 -139h355z
M409 642h-73v76h73v-76zM238 642h-73v76h73v-76z" />
    <glyph glyph-name="afii10099" unicode="&#x452;" horiz-adv-x="585" 
d="M-2 674h90v86h50v-86h170v-44h-170v-154q37 35 87 59q52 24 95 24q84 0 130.5 -50.5t46.5 -141.5v-260q0 -302 -235 -302h-34v45h41q92 0 135.5 62.5t43.5 198.5v235q0 163 -125 163q-48 0 -97.5 -22t-87.5 -61v-426h-50v630h-90v44z" />
    <glyph glyph-name="afii10100" unicode="&#x453;" horiz-adv-x="431" 
d="M431 500h-293v-500h-50v544h343v-44zM356 811l-100 -178h-38l70 178h68z" />
    <glyph glyph-name="afii10101" unicode="&#x454;" horiz-adv-x="512" 
d="M291 -11q-114 0 -176.5 74t-62.5 209q0 130 65 207q65 78 176 78q71 0 167 -39v-62h-5q-87 54 -171 54q-76 0 -122 -49t-56 -141h286v-46h-288q0 -113 48 -178t131 -65q79 0 172 57h5v-51q-25 -19 -76 -34q-53 -14 -93 -14z" />
    <glyph glyph-name="afii10102" unicode="&#x455;" horiz-adv-x="491" 
d="M435 149q0 -74 -54.5 -117.5t-148.5 -43.5q-87 0 -180 47v57h3q87 -63 187 -63q69 0 106 30.5t37 85.5q0 53 -47 74q-25 13 -101 29q-93 22 -126 42q-57 37 -58 106q0 71 53 115.5t139 44.5q42 0 91 -12t80 -30v-59h-5q-33 22 -83 39q-48 16 -93 16q-57 0 -94.5 -27.5
t-37.5 -71.5q0 -50 33 -74t119 -42q99 -17 139.5 -50.5t40.5 -95.5z" />
    <glyph glyph-name="afii10103" unicode="&#x456;" horiz-adv-x="250" 
d="M157 642h-63v76h63v-76zM150 0h-50v544h50v-544z" />
    <glyph glyph-name="afii10104" unicode="&#x457;" horiz-adv-x="250" 
d="M248 642h-73v76h73v-76zM77 642h-74v76h74v-76zM150 0h-50v544h50v-544z" />
    <glyph glyph-name="afii10105" unicode="&#x458;" horiz-adv-x="306" 
d="M226 642h-61v76h61v-76zM217 -29q0 -178 -167 -178q-48 0 -85 15v53h2q49 -20 90 -20q27 0 46.5 5.5t31 19t18.5 25.5t10 37t3.5 41t0.5 49v482h-118v44h168v-573z" />
    <glyph glyph-name="afii10106" unicode="&#x459;" horiz-adv-x="865" 
d="M829 161q0 -75 -50 -118t-130 -43h-207v500h-234q-9 -258 -14 -309q-5 -49 -11 -74q-10 -51 -38 -82q-35 -36 -103 -36l-27 1v45h5l27 -1q45 0 68 30q30 36 36 189l9 281h332v-227h157q80 0 130 -42t50 -114zM636 45q76 0 108.5 27.5t32.5 87.5q0 57 -32.5 84t-108.5 27
h-144v-226h144z" />
    <glyph glyph-name="afii10107" unicode="&#x45a;" horiz-adv-x="869" 
d="M833 161q0 -75 -50 -118t-130 -43h-207v272h-308v-272h-50v544h50v-227h308v227h50v-227h157q80 0 130 -42t50 -114zM640 45q76 0 108.5 27.5t32.5 87.5q0 58 -34 85.5t-107 27.5h-144v-228h144z" />
    <glyph glyph-name="afii10108" unicode="&#x45b;" horiz-adv-x="585" 
d="M-2 674h90v86h50v-86h170v-44h-170v-154q37 35 87 59q52 24 95 24q84 0 130.5 -50.5t46.5 -141.5v-367h-49v346q0 163 -125 163q-48 0 -97.5 -22t-87.5 -61v-426h-50v630h-90v44z" />
    <glyph glyph-name="afii10109" unicode="&#x45c;" horiz-adv-x="541" 
d="M138 0h-50v544h50v-237q68 2 96 25.5t68 105.5q26 60 63 83t99 23h30v-44h-37q-42 0 -67.5 -19.5t-43.5 -63.5q-45 -101 -109 -129l284 -288h-65l-266 267h-52v-267zM384 811l-100 -178h-38l70 178h68z" />
    <glyph glyph-name="afii10110" unicode="&#x45e;" 
d="M96 544q34 -79 95.5 -229t87.5 -211l188 440h54l-325 -745h-54l110 244l-211 501h55zM420 745q-3 -66 -39.5 -102t-98.5 -36t-98.5 36.5t-39.5 101.5h49q1 -97 89 -97t89 97h49z" />
    <glyph glyph-name="afii10193" unicode="&#x45f;" horiz-adv-x="584" 
d="M496 0h-179v-128h-49v128h-180v544h50v-500h308v500h50v-544z" />
    <glyph glyph-name="afii10050" unicode="&#x490;" horiz-adv-x="524" 
d="M144 678v-678h-51v727h389v200h53v-249h-391z" />
    <glyph glyph-name="afii10098" unicode="&#x491;" horiz-adv-x="431" 
d="M138 500v-500h-50v544h290v182h53v-226h-293z" />
    <glyph glyph-name="Wgrave" unicode="&#x1e80;" horiz-adv-x="891" 
d="M854 727l-181 -727h-59l-167 647l-170 -647h-56l-184 727h51l165 -651l167 651h57l168 -651l162 651h47zM495 822h-38l-100 178h67z" />
    <glyph glyph-name="wgrave" unicode="&#x1e81;" horiz-adv-x="716" 
d="M687 544l-142 -544h-38l-147 446l-152 -446h-36l-143 544h52l119 -445l143 445h35l151 -445l110 445h48zM407 640h-38l-100 178h67z" />
    <glyph glyph-name="Wacute" unicode="&#x1e82;" horiz-adv-x="891" 
d="M854 727l-181 -727h-59l-167 647l-170 -647h-56l-184 727h51l165 -651l167 651h57l168 -651l162 651h47zM546 1000l-100 -178h-38l70 178h68z" />
    <glyph glyph-name="wacute" unicode="&#x1e83;" horiz-adv-x="716" 
d="M687 544l-142 -544h-38l-147 446l-152 -446h-36l-143 544h52l119 -445l143 445h35l151 -445l110 445h48zM459 818l-100 -178h-38l70 178h68z" />
    <glyph glyph-name="Wdieresis" unicode="&#x1e84;" horiz-adv-x="891" 
d="M854 727l-181 -727h-59l-167 647l-170 -647h-56l-184 727h51l165 -651l167 651h57l168 -651l162 651h47zM568 824h-73v76h73v-76zM397 824h-73v76h73v-76z" />
    <glyph glyph-name="wdieresis" unicode="&#x1e85;" horiz-adv-x="716" 
d="M687 544l-142 -544h-38l-147 446l-152 -446h-36l-143 544h52l119 -445l143 445h35l151 -445l110 445h48zM481 642h-73v76h73v-76zM310 642h-73v76h73v-76z" />
    <glyph glyph-name="uni1E9E" unicode="&#x1e9e;" horiz-adv-x="671" 
d="M93 727h443v-62l-176 -193q126 -12 195.5 -76t69.5 -168q0 -106 -69.5 -174t-179.5 -68q-61 0 -129 17v59h3l33 -11q42 -16 100 -16q85 0 136.5 52.5t51.5 139.5q0 98 -70 151t-201 53v45l184 202h-340v-678h-51v727z" />
    <glyph glyph-name="Ygrave" unicode="&#x1ef2;" 
d="M554 727l-250 -401v-326h-52v319l-249 408h57l217 -356l222 356h55zM333 822h-38l-100 178h67z" />
    <glyph glyph-name="ygrave" unicode="&#x1ef3;" 
d="M96 544q34 -79 95.5 -229t87.5 -211l188 440h54l-325 -745h-54l110 244l-211 501h55zM328 640h-38l-100 178h67z" />
    <glyph glyph-name="endash" unicode="&#x2013;" 
d="M482 295h-407v48h407v-48z" />
    <glyph glyph-name="emdash" unicode="&#x2014;" horiz-adv-x="1000" 
d="M925 295h-850v48h850v-48z" />
    <glyph glyph-name="afii00208" unicode="&#x2015;" horiz-adv-x="1000" 
d="M925 295h-850v48h850v-48z" />
    <glyph glyph-name="underscoredbl" unicode="&#x2017;" horiz-adv-x="608" 
d="M610 -207h-612v37h612v-37zM610 -112h-612v36h612v-36z" />
    <glyph glyph-name="quoteleft" unicode="&#x2018;" horiz-adv-x="237" 
d="M45 487l117 273h39l-86 -273h-70z" />
    <glyph glyph-name="quoteright" unicode="&#x2019;" horiz-adv-x="237" 
d="M201 760l-117 -273h-39l87 273h69z" />
    <glyph glyph-name="quotesinglbase" unicode="&#x201a;" horiz-adv-x="237" 
d="M191 138l-116 -273h-39l86 273h69z" />
    <glyph glyph-name="quotereversed" unicode="&#x201b;" horiz-adv-x="237" 
d="M115 760l86 -273h-39l-117 273h70z" />
    <glyph glyph-name="quotedblleft" unicode="&#x201c;" horiz-adv-x="396" 
d="M208 487l114 273h39l-86 -273h-67zM45 487l114 273h39l-86 -273h-67z" />
    <glyph glyph-name="quotedblright" unicode="&#x201d;" horiz-adv-x="396" 
d="M361 760l-113 -273h-40l86 273h67zM198 760l-114 -273h-39l86 273h67z" />
    <glyph glyph-name="quotedblbase" unicode="&#x201e;" horiz-adv-x="396" 
d="M188 138l-113 -273h-39l86 273h66zM351 138l-113 -273h-39l86 273h66z" />
    <glyph glyph-name="dagger" unicode="&#x2020;" 
d="M501 523l-203 3l2 -461h-40l2 461l-204 -3v44l204 -2l-2 195h40l-2 -195l203 2v-44z" />
    <glyph glyph-name="daggerdbl" unicode="&#x2021;" 
d="M501 244l-203 2l2 -189h-40l2 189l-204 -2v44l204 -2v242l-204 -3v44l204 -2l-2 193h40l-2 -193l203 2v-44l-203 3v-242l203 2v-44z" />
    <glyph glyph-name="bullet" unicode="&#x2022;" horiz-adv-x="462" 
d="M381 318q0 -62 -44 -106t-106 -44q-63 0 -106 43t-43 107q0 62 44 106t105 44t105 -44q45 -44 45 -106z" />
    <glyph glyph-name="ellipsis" unicode="&#x2026;" horiz-adv-x="703" 
d="M617 0h-64v67h64v-67zM383 0h-64v67h64v-67zM149 0h-64v67h64v-67z" />
    <glyph glyph-name="perthousand" unicode="&#x2030;" horiz-adv-x="1381" 
d="M382 535q0 -204 -151 -204q-78 0 -114.5 49.5t-36.5 154.5t37 155t114 50t114 -50.5t37 -154.5zM708 727l-383 -727h-53l383 727h53zM332 536q-1 90 -24.5 124t-76.5 37q-52 0 -76 -37.5t-24 -124.5q0 -62 9.5 -93.5t31.5 -50.5q23 -17 59 -17q56 4 78 38.5t23 123.5z
M894 191q0 -104 -37 -154.5t-114 -50.5q-78 0 -114.5 50t-36.5 155q0 205 151 205q77 0 114 -50.5t37 -154.5zM844 191q0 90 -24.5 126t-75.5 36q-52 0 -76.5 -37.5t-24.5 -124.5q1 -92 22 -124t79 -37q55 3 77.5 38.5t22.5 122.5zM1301 191q0 -104 -37 -154.5t-114 -50.5
q-78 0 -114 50t-36 155q0 205 150 205q78 0 114.5 -50.5t36.5 -154.5zM1251 191q0 90 -24 126t-76 36t-76.5 -37.5t-24.5 -124.5q1 -92 22 -124t79 -37q56 3 77.5 38t22.5 123z" />
    <glyph glyph-name="minute" unicode="&#x2032;" horiz-adv-x="237" 
d="M229 727l-128 -302h-39l97 302h70z" />
    <glyph glyph-name="second" unicode="&#x2033;" horiz-adv-x="395" 
d="M229 727l-128 -302h-39l97 302h70zM383 727l-128 -302h-39l98 302h69z" />
    <glyph glyph-name="guilsinglleft" unicode="&#x2039;" horiz-adv-x="409" 
d="M339 95l-256 206v32l256 206v-71l-198 -151l198 -151v-71z" />
    <glyph glyph-name="guilsinglright" unicode="&#x203a;" horiz-adv-x="409" 
d="M326 301l-256 -206v71l198 151l-198 151v71l256 -206v-32z" />
    <glyph glyph-name="exclamdbl" unicode="&#x203c;" horiz-adv-x="623" 
d="M457 727l-8 -532h-42l-9 532h59zM454 0h-54v90h54v-90zM224 727l-8 -532h-42l-9 532h59zM221 0h-54v90h54v-90z" />
    <glyph glyph-name="uni203E" unicode="&#x203e;" horiz-adv-x="608" 
d="M610 824h-612v36h612v-36z" />
    <glyph glyph-name="fraction" unicode="&#x2044;" horiz-adv-x="322" 
d="M380 727l-381 -727h-55l381 727h55z" />
    <glyph glyph-name="fraction" unicode="&#x2215;" horiz-adv-x="322" 
d="M380 727l-381 -727h-55l381 727h55z" />
    <glyph glyph-name="uni2070" unicode="&#x2070;" horiz-adv-x="514" 
d="M427 500q0 -233 -170 -233q-88 0 -128.5 56.5t-40.5 176.5q0 233 169 233q87 0 128.5 -54.5t41.5 -178.5zM257 311q64 0 91.5 42.5t27.5 146.5t-26.5 146.5t-92.5 42.5q-63 0 -91 -44t-28 -145q0 -106 26 -147.5t93 -41.5z" />
    <glyph glyph-name="uni2074" unicode="&#x2074;" horiz-adv-x="514" 
d="M446 410h-80v-134h-46v134h-254v55l259 262h41v-274h80v-43zM320 453v215l-213 -215h213z" />
    <glyph glyph-name="uni2075" unicode="&#x2075;" horiz-adv-x="514" 
d="M417 417q0 -69 -48.5 -109.5t-130.5 -40.5q-77 0 -141 26v53h3q61 -35 140 -35q60 0 93.5 27.5t33.5 81.5q0 89 -132 89q-55 0 -112 -12h-2v230h296v-44h-250v-138q33 6 80 6q82 0 126 -35t44 -99z" />
    <glyph glyph-name="uni2076" unicode="&#x2076;" horiz-adv-x="514" 
d="M434 421q0 -68 -49 -111q-47 -43 -123 -43q-85 0 -132.5 54t-47.5 152q0 120 62.5 189.5t173.5 69.5q36 0 63 -6v-49h-4q-29 12 -64 12q-75 0 -122.5 -43.5t-55.5 -121.5q47 39 134 39q75 0 120 -38t45 -104zM383 418q0 49 -32 76.5t-90 27.5q-73 0 -128 -34l-1 -15v-16
q0 -71 34.5 -110.5t94.5 -39.5q57 0 89.5 29t32.5 82z" />
    <glyph glyph-name="uni2077" unicode="&#x2077;" horiz-adv-x="514" 
d="M429 674l-247 -398h-54l253 405h-295v46h343v-53z" />
    <glyph glyph-name="uni2078" unicode="&#x2078;" horiz-adv-x="514" 
d="M433 403q2 -55 -52 -97t-123 -40q-75 0 -125 38t-50 96q0 38 25.5 69t70.5 49v2q-47 21 -64.5 43t-17.5 59q0 49 44.5 80.5t116.5 31.5q71 0 115.5 -30.5t44.5 -78.5q0 -76 -85 -110v-2q100 -37 100 -110zM371 621q0 31 -31.5 51t-82.5 20q-50 0 -80.5 -19t-30.5 -49
q0 -48 82 -76q47 -15 69 -20q40 20 57 41.5t17 51.5zM382 396q0 33 -25 53t-91 39l-52 15q-82 -33 -82 -100q0 -39 36 -68q35 -28 89 -28q58 0 91.5 24t33.5 65z" />
    <glyph glyph-name="uni2079" unicode="&#x2079;" horiz-adv-x="514" 
d="M433 527q0 -129 -62.5 -194t-183.5 -65q-31 0 -53 6v49h7q27 -11 60 -11q79 0 125.5 41t53.5 118q-56 -33 -129 -33q-81 0 -126 37t-45 105q0 65 50 109t122 44q181 0 181 -206zM382 537q0 152 -130 152q-59 0 -90 -28.5t-31 -79.5q0 -101 126 -101q67 0 124 28z" />
    <glyph glyph-name="uni207F" unicode="&#x207f;" horiz-adv-x="519" 
d="M440 271h-49v296q0 129 -109 129q-88 0 -150 -67v-358h-50v456h50v-54q76 69 152 69q74 0 115 -44t41 -123v-304z" />
    <glyph glyph-name="uni2080" unicode="&#x2080;" horiz-adv-x="514" 
d="M427 224q0 -233 -170 -233q-88 0 -128.5 56.5t-40.5 176.5q0 233 169 233q87 0 128.5 -54.5t41.5 -178.5zM257 35q64 0 91.5 42.5t27.5 146.5t-26.5 146.5t-92.5 42.5q-63 0 -91 -44t-28 -145q0 -106 26 -147.5t93 -41.5z" />
    <glyph glyph-name="uni2081" unicode="&#x2081;" horiz-adv-x="514" 
d="M390 0h-264v43h109v306h-109v38q65 0 90.5 13.5t31.5 52.5h35v-410h107v-43z" />
    <glyph glyph-name="uni2082" unicode="&#x2082;" horiz-adv-x="514" 
d="M425 0h-336v47q136 101 176 138q41 38 65 75q22 35 22 72t-27 58t-76 21q-73 0 -144 -38h-3v53q66 31 140 31q73 0 117 -32.5t44 -88.5q0 -82 -101 -174q-47 -43 -153 -118h276v-44z" />
    <glyph glyph-name="uni2083" unicode="&#x2083;" horiz-adv-x="514" 
d="M241 -9q-83 0 -146 29v52h4q65 -37 148 -37q122 0 122 100q0 40 -30 62t-84 22h-38v45h12q59 0 93.5 23t34.5 60q0 31 -26.5 48t-74.5 17q-82 0 -143 -36h-3v53q61 28 146 28q69 0 111.5 -28.5t42.5 -76.5q0 -41 -29 -68.5t-77 -35.5v-4q116 -17 116 -111
q0 -67 -47.5 -104.5t-131.5 -37.5z" />
    <glyph glyph-name="uni2084" unicode="&#x2084;" horiz-adv-x="514" 
d="M446 134h-80v-134h-46v134h-254v55l259 262h41v-274h80v-43zM320 177v215l-213 -215h213z" />
    <glyph glyph-name="uni2085" unicode="&#x2085;" horiz-adv-x="514" 
d="M417 141q0 -69 -48.5 -109.5t-130.5 -40.5q-77 0 -141 26v53h3q61 -35 140 -35q60 0 93.5 27.5t33.5 81.5q0 89 -132 89q-55 0 -112 -12h-2v230h296v-44h-250v-138q33 6 80 6q82 0 126 -35t44 -99z" />
    <glyph glyph-name="uni2086" unicode="&#x2086;" horiz-adv-x="514" 
d="M434 145q0 -68 -49 -111q-47 -43 -123 -43q-85 0 -132.5 54t-47.5 152q0 120 62.5 189.5t173.5 69.5q36 0 63 -6v-49h-4q-29 12 -64 12q-75 0 -122.5 -43.5t-55.5 -121.5q47 39 134 39q75 0 120 -38t45 -104zM383 142q0 49 -32 76.5t-90 27.5q-73 0 -128 -34l-1 -15v-16
q0 -71 34.5 -110.5t94.5 -39.5q57 0 89.5 29t32.5 82z" />
    <glyph glyph-name="uni2087" unicode="&#x2087;" horiz-adv-x="514" 
d="M429 398l-247 -398h-54l253 405h-295v46h343v-53z" />
    <glyph glyph-name="uni2088" unicode="&#x2088;" horiz-adv-x="514" 
d="M433 127q2 -55 -52 -97t-123 -40q-75 0 -125 38t-50 96q0 38 25.5 69t70.5 49v2q-47 21 -64.5 43t-17.5 59q0 49 44.5 80.5t116.5 31.5q71 0 115.5 -30.5t44.5 -78.5q0 -76 -85 -110v-2q100 -37 100 -110zM371 345q0 31 -31.5 51t-82.5 20q-50 0 -80.5 -19t-30.5 -49
q0 -48 82 -76q47 -15 69 -20q40 20 57 41.5t17 51.5zM382 120q0 33 -25 53t-91 39l-52 15q-82 -33 -82 -100q0 -39 36 -68q35 -28 89 -28q58 0 91.5 24t33.5 65z" />
    <glyph glyph-name="uni2089" unicode="&#x2089;" horiz-adv-x="514" 
d="M433 251q0 -129 -62.5 -194t-183.5 -65q-31 0 -53 6v49h7q27 -11 60 -11q79 0 125.5 41t53.5 118q-56 -33 -129 -33q-81 0 -126 37t-45 105q0 65 50 109t122 44q181 0 181 -206zM382 261q0 152 -130 152q-59 0 -90 -28.5t-31 -79.5q0 -101 126 -101q67 0 124 28z" />
    <glyph glyph-name="franc" unicode="&#x20a3;" 
d="M154 160v-160h-51v160h-69v47h69v520h442v-49h-391v-250h326v-48h-326v-173h180v-47h-180z" />
    <glyph glyph-name="lira" unicode="&#x20a4;" 
d="M195 224q-14 -64 -40 -104t-71 -66v-6h425v-48h-466v76q85 42 103 148h-78v47h84q2 28 2 45v65h-86v47h86v85q0 107 54.5 167.5t149.5 60.5q69 0 146 -34v-66h-2q-63 45 -149 45q-148 0 -148 -171v-87h197v-47h-197v-64q0 -8 -2 -46h199v-47h-207z" />
    <glyph glyph-name="peseta" unicode="&#x20a7;" horiz-adv-x="1116" 
d="M471 485q-8 -92 -73 -144.5t-171 -52.5h-83v-288h-51v727h168q93 0 149.5 -52.5t61.5 -145.5h82v172h50v-172h178q44 27 102 27q38 0 80.5 -12t70.5 -30v-59h-5q-30 24 -73.5 39.5t-82.5 15.5q-48 0 -80 -27.5t-32 -71.5q0 -48 28 -73t105 -43q85 -21 122.5 -54t37.5 -92
q0 -75 -49.5 -118t-134.5 -43q-75 0 -160 47v57h3q75 -63 167 -63q60 0 92 30.5t32 85.5q0 52 -40 73q-19 10 -89 30q-72 19 -105 38q-30 18 -45 44t-15 66q0 48 26 89h-133v-485h-50v485h-83zM419 511q0 168 -178 168h-97v-344h91q88 0 136 46t48 130z" />
    <glyph glyph-name="Euro" unicode="&#x20ac;" 
d="M362 -13q-118 0 -197 76q-77 76 -97 204h-67l20 50h40q-2 16 -2 46q0 23 2 55h-60l20 50h48q24 128 107 200t205 72q90 0 159 -33v-64h-4q-70 45 -165 45q-93 0 -159 -57.5t-92 -162.5h279l-20 -50h-267q-3 -31 -3 -55q0 -22 2 -46h230l-19 -50h-202q15 -100 81.5 -164
t158.5 -64q101 0 177 45h3v-61q-74 -36 -178 -36z" />
    <glyph glyph-name="afii61248" unicode="&#x2105;" horiz-adv-x="999" 
d="M379 374q-18 -18 -54.5 -30.5t-65.5 -12.5q-85 0 -132 53.5t-47 148.5q0 93 49.5 150t130.5 57q47 0 119 -37v-53h-6q-71 47 -119 47q-58 0 -92 -43.5t-34 -120.5q0 -74 34 -117.5t91 -43.5q56 0 120 46h6v-44zM720 727l-383 -727h-55l383 727h55zM919 191
q0 -93 -44.5 -149t-121.5 -56t-121 54.5t-44 150.5q0 94 44 149.5t121 55.5t121.5 -55.5t44.5 -149.5zM869 191q0 78 -30 120t-85 42t-85 -42t-30 -120q0 -156 115 -161q55 0 85 41.5t30 119.5z" />
    <glyph glyph-name="afii61289" unicode="&#x2113;" horiz-adv-x="343" 
d="M109 322v228q0 72 10 108.5t32 55.5t60 19q44 0 70 -31t26 -81q0 -95 -143 -295v-208q0 -36 3.5 -50t13.5 -21q8 -7 26 -7q34 0 85 38v-53q-49 -37 -93 -37q-90 0 -90 114v150l-57 -71l-31 24zM164 391q49 83 69 122q18 34 28 71q9 35 5 38q0 66 -53 66q-20 0 -30 -10
t-15 -34q-4 -20 -4 -87v-166z" />
    <glyph glyph-name="afii61352" unicode="&#x2116;" horiz-adv-x="1111" 
d="M596 0h-65l-383 675v-675h-48v727h86l362 -636v636h48v-727zM1019 534q0 -107 -37 -157.5t-113 -50.5q-79 0 -115 49.5t-36 157.5q0 105 36.5 156t114.5 51q76 0 113 -49.5t37 -156.5zM968 534q0 91 -22.5 129t-76.5 38q-56 0 -78 -37.5t-22 -130.5q0 -87 22 -122.5
t77 -35.5t77.5 36t22.5 123zM790 179h150v-45h-150v45z" />
    <glyph glyph-name="uni2120" unicode="&#x2120;" horiz-adv-x="1105" 
d="M473 332q0 -72 -60 -116q-59 -44 -154 -44q-115 0 -208 44v59h6q34 -27 88.5 -43t112.5 -16q78 0 122 29.5t44 82.5q0 50 -65 76q-27 12 -139 35q-94 22 -128.5 53t-39.5 91q0 65 56.5 109t142.5 44q97 0 197 -39v-57h-7q-73 52 -192 52q-64 0 -105 -28.5t-41 -74.5
q0 -54 57 -80q26 -12 104 -28q39 -7 61 -12.5t54.5 -17t50 -26t30.5 -38.5t13 -55zM1016 182h-49v500l-190 -352h-31l-189 352v-500h-47v544h77l176 -334l177 334h76v-544z" />
    <glyph glyph-name="trademark" unicode="&#x2122;" horiz-adv-x="983" 
d="M866 388h-44v299h-9l-130 -219h-25l-131 222h-12v-302h-45v339h88l113 -193l115 193h80v-339zM370 685h-118v-297h-45v297h-117v42h280v-42z" />
    <glyph glyph-name="Omega" unicode="&#x2126;" horiz-adv-x="781" 
d="M391 696q-119 0 -191 -72.5t-72 -192.5q0 -101 52 -166q16 -21 39 -42q25 -21 82 -64v-159h-247v48h196v92q-175 129 -175 291q-2 135 88 224.5t228 86.5q136 3 227 -87t89 -224q-4 -88 -43.5 -155t-132.5 -136v-92h196v-48h-247v159l47 35q72 56 99 109q27 54 27 128
q2 119 -71.5 193t-190.5 72z" />
    <glyph glyph-name="estimated" unicode="&#x212e;" horiz-adv-x="651" 
d="M121 319q0 -131 63 -208q65 -77 171 -77q57 0 121 21q66 21 96 48h5v-61q-111 -54 -208 -54q-142 0 -220.5 85.5t-78.5 239.5q0 151 76.5 243.5t198.5 92.5q107 0 173.5 -77.5t66.5 -205.5v-47h-464zM536 368q0 108 -51 170.5t-140 62.5q-90 0 -152 -65.5t-70 -167.5h413
z" />
    <glyph glyph-name="oneeighth" unicode="&#x215b;" horiz-adv-x="1000" 
d="M941 127q2 -55 -52 -97t-123 -40q-75 0 -125 38t-50 96q0 38 25.5 69t70.5 49v2q-47 21 -64.5 43t-17.5 59q0 49 44.5 80.5t116.5 31.5q71 0 115.5 -30.5t44.5 -78.5q0 -76 -85 -110v-2q100 -37 100 -110zM879 345q0 31 -31.5 51t-82.5 20q-50 0 -80.5 -19t-30.5 -49
q0 -48 82 -76q47 -15 69 -20q40 20 57 41.5t17 51.5zM890 120q0 33 -25 53t-91 39l-52 15q-82 -33 -82 -100q0 -39 36 -68q35 -28 89 -28q58 0 91.5 24t33.5 65zM675 727l-381 -727h-55l381 727h55zM202 276v349h-109v38q65 0 90.5 13.5t31.5 52.5h35v-453h-48z" />
    <glyph glyph-name="threeeighths" unicode="&#x215c;" horiz-adv-x="1000" 
d="M955 127q2 -55 -52 -97t-123 -40q-75 0 -125 38t-50 96q0 38 25.5 69t70.5 49v2q-47 21 -64.5 43t-17.5 59q0 49 44.5 80.5t116.5 31.5q71 0 115.5 -30.5t44.5 -78.5q0 -76 -85 -110v-2q100 -37 100 -110zM893 345q0 31 -31.5 51t-82.5 20q-50 0 -80.5 -19t-30.5 -49
q0 -48 82 -76q47 -15 69 -20q40 20 57 41.5t17 51.5zM904 120q0 33 -25 53t-91 39l-52 15q-82 -33 -82 -100q0 -39 36 -68q35 -28 89 -28q58 0 91.5 24t33.5 65zM209 267q-83 0 -146 29v52h4q65 -37 148 -37q122 0 122 100q0 40 -30 62t-84 22h-38v45h12q59 0 93.5 23
t34.5 60q0 31 -26.5 48t-74.5 17q-82 0 -143 -36h-3v53q61 28 146 28q69 0 111.5 -28.5t42.5 -76.5q0 -41 -29 -68.5t-77 -35.5v-4q116 -17 116 -111q0 -67 -47.5 -104.5t-131.5 -37.5zM720 727l-381 -727h-55l381 727h55z" />
    <glyph glyph-name="fiveeighths" unicode="&#x215d;" horiz-adv-x="1000" 
d="M957 127q2 -55 -52 -97t-123 -40q-75 0 -125 38t-50 96q0 38 25.5 69t70.5 49v2q-47 21 -64.5 43t-17.5 59q0 49 44.5 80.5t116.5 31.5q71 0 115.5 -30.5t44.5 -78.5q0 -76 -85 -110v-2q100 -37 100 -110zM895 345q0 31 -31.5 51t-82.5 20q-50 0 -80.5 -19t-30.5 -49
q0 -48 82 -76q47 -15 69 -20q40 20 57 41.5t17 51.5zM906 120q0 33 -25 53t-91 39l-52 15q-82 -33 -82 -100q0 -39 36 -68q35 -28 89 -28q58 0 91.5 24t33.5 65zM387 417q0 -69 -48.5 -109.5t-130.5 -40.5q-77 0 -141 26v53h3q61 -35 140 -35q60 0 93.5 27.5t33.5 81.5
q0 89 -132 89q-55 0 -112 -12h-2v230h296v-44h-250v-138q33 6 80 6q82 0 126 -35t44 -99zM720 727l-381 -727h-55l381 727h55z" />
    <glyph glyph-name="seveneighths" unicode="&#x215e;" horiz-adv-x="1000" 
d="M931 127q2 -55 -52 -97t-123 -40q-75 0 -125 38t-50 96q0 38 25.5 69t70.5 49v2q-47 21 -64.5 43t-17.5 59q0 49 44.5 80.5t116.5 31.5q71 0 115.5 -30.5t44.5 -78.5q0 -76 -85 -110v-2q100 -37 100 -110zM869 345q0 31 -31.5 51t-82.5 20q-50 0 -80.5 -19t-30.5 -49
q0 -48 82 -76q47 -15 69 -20q40 20 57 41.5t17 51.5zM880 120q0 33 -25 53t-91 39l-52 15q-82 -33 -82 -100q0 -39 36 -68q35 -28 89 -28q58 0 91.5 24t33.5 65zM672 727l-381 -727h-55l381 727h55zM408 674l-247 -398h-54l253 405h-295v46h343v-53z" />
    <glyph glyph-name="partialdiff" unicode="&#x2202;" horiz-adv-x="598" 
d="M271 -16q-85 0 -139 61q-53 62 -53 158q-4 100 63.5 174.5t157.5 73.5q89 0 163 -59q2 30 2 68q0 235 -154 235q-36 0 -87 -14q-47 -13 -81 -34h-1v50q76 45 170 45q100 0 152.5 -75t52.5 -219q0 -40 -7 -117q-7 -80 -24 -142q-16 -61 -48 -108q-63 -97 -167 -97z
M461 351q-74 54 -160 54q-79 0 -124 -53.5t-45 -147.5q0 -82 36.5 -128t100.5 -46q174 0 192 321z" />
    <glyph glyph-name="Delta.001" unicode="&#x2206;" horiz-adv-x="647" 
d="M638 0h-630l282 727h66zM563 48l-243 628l-240 -628h483z" />
    <glyph glyph-name="product" unicode="&#x220f;" horiz-adv-x="793" 
d="M727 678h-90v-772h-51v772h-379v-772h-51v772h-90v49h661v-49z" />
    <glyph glyph-name="summation" unicode="&#x2211;" horiz-adv-x="741" 
d="M673 -92h-561v62l364 365l-359 332v60h533v-50h-472l359 -322v-31l-370 -367h506v-49z" />
    <glyph glyph-name="minus" unicode="&#x2212;" horiz-adv-x="779" 
d="M686 292h-593v47h593v-47z" />
    <glyph glyph-name="radical" unicode="&#x221a;" horiz-adv-x="794" 
d="M809 860l-426 -919h-31l-171 488h-116v50h167l146 -418l364 799h67z" />
    <glyph glyph-name="infinity" unicode="&#x221e;" horiz-adv-x="971" 
d="M902 324q0 -107 -55 -169t-152 -62q-62 0 -118 43.5t-92 120.5q-42 -84 -93.5 -124t-119.5 -40q-86 0 -138 60q-52 59 -52 160q0 108 55.5 170t151.5 62q63 0 118 -43.5t91 -121.5q84 165 215 165q84 0 136.5 -61t52.5 -160zM853 324q0 78 -37.5 124t-101.5 46
q-22 0 -41 -5.5t-32 -10t-30 -22t-24 -24t-24 -35.5t-21 -36.5t-23 -44.5q-6 -11 -9 -17q31 -72 78.5 -113.5t101.5 -41.5q77 0 120 47t43 133zM475 338q-32 75 -79.5 116t-101.5 41q-77 0 -119.5 -48t-42.5 -134q0 -78 37 -123t102 -45q18 0 33.5 3t28 6.5t25.5 13
t21.5 15.5t19.5 20.5t16.5 22t16 26.5t14 26.5t14.5 30t15 29.5z" />
    <glyph glyph-name="integral" unicode="&#x222b;" horiz-adv-x="685" 
d="M594 705h-2q-46 15 -95 15q-70 0 -100 -38t-30 -130v-555q0 -204 -182 -204q-39 0 -91 11v49q62 -15 93 -15q70 0 100 38.5t30 128.5v556q0 97 49 150.5t139 53.5q37 0 89 -11v-49z" />
    <glyph glyph-name="approxequal" unicode="&#x2248;" horiz-adv-x="779" 
d="M653 503q-7 -71 -45.5 -111.5t-96.5 -40.5q-68 0 -127 53q-58 54 -106 54q-71 0 -89 -105h-49q6 70 45 111t97 41q68 0 134 -60q52 -47 99 -47q71 0 89 105h49zM653 285q-7 -71 -45.5 -111.5t-96.5 -40.5q-69 0 -127 54q-59 53 -106 53q-71 0 -89 -105h-49q6 70 45 111
t97 41q70 0 132 -58q54 -49 101 -49q71 0 89 105h49z" />
    <glyph glyph-name="notequal" unicode="&#x2260;" horiz-adv-x="794" 
d="M668 384h-232l-32 -132h264v-47h-275l-40 -164h-46l40 164h-236v47h247l33 132h-280v47h291l41 167h45l-40 -167h220v-47z" />
    <glyph glyph-name="lessequal" unicode="&#x2264;" horiz-adv-x="794" 
d="M651 137l-518 248v24l518 248v-64l-422 -196l422 -196v-64zM651 0h-518v52h518v-52z" />
    <glyph glyph-name="greaterequal" unicode="&#x2265;" horiz-adv-x="794" 
d="M661 385l-518 -248v64l422 196l-422 196v64l518 -248v-24zM661 0h-518v52h518v-52z" />
    <glyph glyph-name="SF100000" unicode="&#x2500;" horiz-adv-x="708" 
d="M719 261h-730v85h730v-85z" />
    <glyph glyph-name="SF110000" unicode="&#x2502;" horiz-adv-x="708" 
d="M312 -303v1213h85v-1213h-85z" />
    <glyph glyph-name="SF010000" unicode="&#x250c;" horiz-adv-x="708" 
d="M720 346v-85h-323v-564h-85v649h408z" />
    <glyph glyph-name="SF030000" unicode="&#x2510;" horiz-adv-x="708" 
d="M311 261h-322v85h407v-649h-85v564z" />
    <glyph glyph-name="SF020000" unicode="&#x2514;" horiz-adv-x="708" 
d="M312 261v649h85v-564h323v-85h-408z" />
    <glyph glyph-name="SF040000" unicode="&#x2518;" horiz-adv-x="708" 
d="M396 261h-407v85h322v564h85v-649z" />
    <glyph glyph-name="H22073" unicode="&#x25a1;" horiz-adv-x="604" 
d="M71 461h461v-461h-461v461zM108 424v-387h387v387h-387z" />
    <glyph glyph-name="H18543" unicode="&#x25aa;" horiz-adv-x="354" 
d="M290 443v-226h-226v226h226z" />
    <glyph glyph-name="H18551" unicode="&#x25ab;" horiz-adv-x="354" 
d="M290 443v-226h-226v226h226zM253 406h-152v-152h152v152z" />
    <glyph glyph-name="lozenge" unicode="&#x25ca;" horiz-adv-x="818" 
d="M703 319l-294 -313l-293 313l293 313zM643 319l-234 250l-234 -250l234 -249z" />
    <glyph glyph-name="H18533" unicode="&#x25cf;" horiz-adv-x="604" 
d="M86 281q0 90 63 153t153 63q89 0 152 -64q63 -63 63 -152t-64 -152q-63 -63 -151 -63q-90 0 -153 63t-63 152z" />
    <glyph glyph-name="openbullet" unicode="&#x25e6;" horiz-adv-x="354" 
d="M177 453q51 0 87 -36t36 -86q0 -51 -36 -87q-34 -36 -87 -36q-50 0 -87 35q-35 37 -35 88q0 49 35 86q36 36 87 36zM177 416q-35 0 -60 -25t-25 -60q0 -36 25.5 -61t59.5 -25q35 0 60 25t26 61q0 35 -25 60t-61 25z" />
    <glyph glyph-name="musicalnote" unicode="&#x266a;" horiz-adv-x="500" 
d="M237 666h19q91 0 120 -10q32 -11 55 -32q51 -45 51 -148v-50h-48v21q0 53 -35.5 80t-99.5 27h-13v-408q0 -58 -15.5 -91t-53.5 -53t-84 -20q-52 0 -83.5 29.5t-31.5 79.5q0 52 37 86t97 35q37 0 85 -23v477z" />
    <glyph glyph-name="NULL" horiz-adv-x="0" 
 />
    <glyph glyph-name="CR" horiz-adv-x="356" 
 />
    <glyph glyph-name="_418" horiz-adv-x="662" 
d="M615 500h-110v-500h-49v500h-250v-500h-50v500h-110v44h569v-44z" />
    <glyph glyph-name="iacute.locl" horiz-adv-x="250" 
d="M157 642h-63v76h63v-76zM150 0h-50v544h50v-544zM229 970l-100 -178h-38l70 178h68z" />
    <glyph glyph-name="zero.lnum" 
d="M505 362q0 -196 -54 -286.5t-173 -90.5q-118 0 -172.5 90.5t-54.5 287.5q0 198 54.5 288.5t172.5 90.5q119 0 173 -91t54 -289zM452 363q-2 185 -39 255.5t-135 73.5q-97 -4 -134 -73.5t-39 -255.5q2 -185 39 -256.5t134 -73.5q97 4 134.5 74t39.5 256z" />
    <glyph glyph-name="one.lnum" horiz-adv-x="458" 
d="M402 0h-338v46h145v540h-145v41q92 3 120.5 21.5t41.5 86.5h32v-689h144v-46z" />
    <glyph glyph-name="two.lnum" horiz-adv-x="509" 
d="M486 0h-453v57q185 170 240 230q112 123 126 226q3 18 3 37q0 68 -39.5 105t-109.5 37q-103 0 -200 -60h-2v59q36 22 91 37q54 15 97 15q96 0 157 -53q61 -52 61 -138q0 -129 -146 -292q-80 -86 -230 -215h405v-45z" />
    <glyph glyph-name="three.lnum" horiz-adv-x="493" 
d="M286 399q84 -17 122 -62.5t38 -123.5q0 -109 -62.5 -168.5t-175.5 -59.5q-41 0 -100 14q-54 13 -93 34v59l2 1q92 -60 205 -60q82 0 126 46.5t44 135.5q0 73 -43 113.5t-121 40.5h-46v51h12q82 0 132.5 43t50.5 110q0 54 -39 86.5t-105 32.5q-109 0 -195 -60h-2v64
q87 46 193 46q93 0 148 -45.5t55 -122.5q0 -65 -39 -110t-107 -58v-7z" />
    <glyph glyph-name="four.lnum" horiz-adv-x="539" 
d="M525 232h-112v-232h-49v232h-352v71l362 424h39v-450h112v-45zM364 277v368l-316 -368h316z" />
    <glyph glyph-name="five.lnum" horiz-adv-x="492" 
d="M464 235q0 -118 -66 -184t-182 -66q-42 0 -98 12q-51 11 -91 29v62h3q35 -23 91 -40q54 -16 102 -16q87 0 137.5 53.5t50.5 146.5q0 75 -51.5 116.5t-143.5 41.5q-79 0 -154 -20h-1v357h397v-51h-348v-248q14 4 54 7q38 3 60 3q111 0 175.5 -53t64.5 -150z" />
    <glyph glyph-name="six.lnum" horiz-adv-x="562" 
d="M521 230q2 -103 -66.5 -175t-164.5 -70q-115 0 -179 87t-64 245q0 198 85 310q86 114 234 114q41 0 80 -11v-57h-2q-32 17 -84 17q-110 0 -177.5 -79t-78.5 -218q29 29 82 47q53 19 106 19q104 0 166 -62q63 -61 63 -167zM101 301q0 -131 50 -202t138 -71
q75 0 126.5 56.5t51.5 144.5q0 85 -47 134.5t-130 49.5q-52 0 -102.5 -18.5t-84.5 -48.5l-2 -33v-12z" />
    <glyph glyph-name="seven.lnum" horiz-adv-x="498" 
d="M470 659l-331 -659h-56l339 676h-398v51h446v-68z" />
    <glyph glyph-name="eight.lnum" 
d="M512 195q2 -90 -63 -151.5t-162 -58.5q-114 0 -178.5 57t-64.5 161q0 63 35.5 115t96.5 81v3q-50 29 -71.5 50t-31.5 48q-9 26 -9 63q0 79 59.5 130t154.5 51q91 0 152.5 -51.5t61.5 -124.5q0 -128 -116 -187v-3q73 -33 104.5 -75.5t31.5 -107.5zM443 567q0 57 -46.5 93
t-119.5 36q-74 0 -118.5 -34.5t-44.5 -91.5q0 -86 119 -138q62 -26 100 -36q57 33 83.5 73.5t26.5 97.5zM459 192q0 62 -37.5 99t-129.5 68l-73 26q-59 -28 -91 -75.5t-32 -107.5q0 -77 49.5 -124t132.5 -47t132 44.5t49 116.5z" />
    <glyph glyph-name="nine.lnum" horiz-adv-x="561" 
d="M514 409q0 -208 -84 -315.5t-249 -107.5q-34 0 -65 11v56h8q31 -16 78 -16q113 0 180 75.5t76 210.5q-76 -53 -181 -53q-114 0 -175.5 59t-61.5 168q0 108 65 176.5t166 68.5q243 0 243 -333zM460 420q0 272 -190 272q-82 0 -129 -53t-47 -143q0 -87 46.5 -133t135.5 -46
q100 0 183 54l1 24v25z" />
    <glyph glyph-name="dollar.lnum" horiz-adv-x="544" 
d="M495 177q0 -75 -52.5 -124t-142.5 -54v-175h-44v175q-133 1 -209 43v59h3q84 -55 206 -60v266q-118 28 -156 59t-43 99q0 72 54.5 120t144.5 55v130h44v-129q105 -6 182 -37v-65h-1q-80 52 -181 58v-252q105 -21 150 -61t45 -107zM104 471q0 -45 34.5 -71.5t117.5 -45.5
v243q-68 -5 -110 -39.5t-42 -86.5zM447 175q0 45 -31 72q-29 28 -116 49v-256q68 3 107.5 39.5t39.5 95.5z" />
    <glyph glyph-name="cent.lnum" 
d="M281 -9q-102 9 -156.5 81.5t-54.5 199.5q0 122 57 197q56 75 154 86v165h44v-163q72 -6 153 -49v-62h-5q-74 54 -148 62v-475q75 12 148 65h5v-52q-23 -20 -69 -37q-43 -16 -84 -19v-166h-44v167zM122 272q0 -105 42 -168.5t117 -71.5v477q-76 -9 -117.5 -70t-41.5 -167z
" />
    <glyph glyph-name="sterling.lnum" 
d="M205 302q0 -175 -121 -248v-6h425v-48h-466v76q60 27 85.5 79t25.5 147h-86v47h86v164q0 108 54 168t150 60q75 0 146 -34v-66h-2q-65 47 -149 47q-148 0 -148 -173v-166h197v-47h-197z" />
    <glyph glyph-name="currency.lnum" 
d="M517 118l-36 -35l-119 119q-35 -25 -83 -25t-85 25l-119 -119l-34 35l119 119q-25 37 -25 84q0 48 25 83l-120 120l36 36l119 -120q38 26 84 26q47 0 84 -26l119 119l35 -35l-120 -119q26 -37 26 -84t-25 -84zM376 321q0 42 -28 70t-69 28q-42 0 -69.5 -28t-27.5 -70
q0 -41 27.5 -69t69.5 -28t69.5 28t27.5 69z" />
    <glyph glyph-name="yen.lnum" horiz-adv-x="619" 
d="M588 727l-254 -399v-46h227v-48h-226v-86h226v-48h-226v-100h-48v100h-226v48h226v86h-226v48h227v37l-257 408h55l224 -353l226 353h52z" />
    <glyph glyph-name="franc.lnum" horiz-adv-x="513" 
d="M154 160v-160h-51v160h-69v47h69v520h403v-49h-352v-250h287v-48h-287v-173h180v-47h-180z" />
    <glyph glyph-name="lira.lnum" 
d="M195 224q-14 -64 -40 -104t-71 -66v-6h425v-48h-466v76q85 42 103 148h-78v47h84q2 28 2 45v65h-86v47h86v85q0 107 54.5 167.5t149.5 60.5q69 0 146 -34v-66h-2q-63 45 -149 45q-148 0 -148 -171v-87h197v-47h-197v-64q0 -8 -2 -46h199v-47h-207z" />
    <glyph glyph-name="Euro.lnum" 
d="M362 -13q-118 0 -197 76q-77 76 -97 204h-67l20 50h40q-2 16 -2 46q0 23 2 55h-60l20 50h48q24 128 107 200t205 72q90 0 159 -33v-64h-4q-70 45 -165 45q-93 0 -159 -57.5t-92 -162.5h279l-20 -50h-267q-3 -31 -3 -55q0 -22 2 -46h230l-19 -50h-202q15 -100 81.5 -164
t158.5 -64q101 0 177 45h3v-61q-74 -36 -178 -36z" />
    <glyph glyph-name="florin.lnum" horiz-adv-x="477" 
d="M261 390l-54 -278q-18 -93 -39 -134q-20 -41 -53 -59q-31 -18 -84 -18q-20 0 -60 8v51h1q32 -12 74 -12t67 39t42 131l53 272h-116v44h124l22 110q19 105 58 150q39 43 111 43q33 0 76 -9v-53h-1q-32 13 -82 13q-51 -2 -70 -29.5t-40 -123.5l-20 -101h160v-44h-169z" />
    <glyph glyph-name="zero.onum" horiz-adv-x="580" 
d="M525 269q0 -139 -59.5 -211t-175.5 -72t-175.5 72.5t-59.5 211.5t60.5 213.5t174.5 74.5q115 0 175 -74.5t60 -214.5zM472 271q0 122 -44.5 181.5t-137.5 59.5q-182 0 -182 -241t182 -241q93 0 137.5 59.5t44.5 181.5z" />
    <glyph glyph-name="one.onum" horiz-adv-x="426" 
d="M394 0h-337v46h144v401h-144v44q86 2 116 16q31 15 45 53h32v-514h144v-46z" />
    <glyph glyph-name="two.onum" horiz-adv-x="474" 
d="M442 0h-404v53q181 132 233 180q93 91 95 169q0 49 -35 78t-95 29q-94 0 -180 -42h-2v50q81 38 179 38q89 0 138.5 -39t49.5 -106q0 -82 -73 -165q-75 -84 -251 -201h345v-44z" />
    <glyph glyph-name="three.onum" horiz-adv-x="483" 
d="M271 221q79 -13 124 -64.5t45 -130.5q0 -110 -63 -174q-62 -65 -166 -65q-125 0 -210 48v60h3q94 -61 212 -61q81 0 127.5 51.5t46.5 139.5q0 78 -49.5 123.5t-132.5 45.5h-60v48h28q83 0 133.5 41.5t50.5 107.5q0 56 -40 88.5t-105 32.5q-103 0 -193 -63h-1v60
q94 49 190 49q93 0 146 -44t53 -122q0 -63 -36.5 -106.5t-102.5 -57.5v-7z" />
    <glyph glyph-name="four.onum" horiz-adv-x="540" 
d="M525 33h-112v-249h-49v249h-352v57l362 473h39v-485h112v-45zM364 78v402l-307 -402h307z" />
    <glyph glyph-name="five.onum" horiz-adv-x="510" 
d="M476 32q0 -114 -64.5 -179.5t-177.5 -65.5q-44 0 -96 12q-52 10 -91 29v60h2q36 -24 91 -40t101 -16q86 0 134.5 53t48.5 148q0 79 -52.5 127.5t-137.5 48.5q-80 0 -152 -19h-2v353h388v-48h-341v-251q14 4 53 7q33 4 62 4q107 0 170.5 -58.5t63.5 -164.5z" />
    <glyph glyph-name="six.onum" horiz-adv-x="540" 
d="M504 248q0 -121 -61 -191q-60 -70 -163 -70q-240 0 -240 330q0 196 84.5 310t232.5 114q45 0 80 -9v-55h-2q-32 15 -84 15q-101 2 -175 -76.5t-82 -191.5q38 29 90.5 49.5t98.5 20.5q101 0 161 -66q60 -64 60 -180zM91 321q0 -136 49.5 -213.5t139.5 -77.5q80 0 127 58.5
t47 155.5q0 93 -46 147t-127 54q-51 0 -102.5 -19.5t-86.5 -51.5q-1 -15 -1 -53z" />
    <glyph glyph-name="seven.onum" horiz-adv-x="463" 
d="M438 480l-330 -663h-54l342 679h-388v48h430v-64z" />
    <glyph glyph-name="eight.onum" horiz-adv-x="534" 
d="M502 200q0 -99 -63.5 -158t-169.5 -59q-108 0 -171.5 59t-63.5 161q0 63 35 115t97 81v3q-61 30 -86.5 68t-25.5 93q0 78 60.5 129.5t156.5 51.5q90 0 150.5 -51t60.5 -125q0 -61 -30.5 -109.5t-88.5 -77.5v-3q74 -33 106.5 -75.5t32.5 -102.5zM433 567q0 57 -45.5 93
t-117.5 36q-74 0 -120 -35.5t-46 -90.5q0 -87 113 -137q51 -22 104 -37q112 64 112 171zM448 191q0 61 -37 98q-37 39 -129 70l-74 26q-58 -28 -90 -76t-32 -107q0 -78 51 -125.5t133 -47.5q81 0 129.5 44.5t48.5 117.5z" />
    <glyph glyph-name="nine.onum" 
d="M514 222q0 -205 -81 -314.5t-236 -109.5q-46 0 -81 11v55h8q34 -15 78 -15q113 0 180.5 76t75.5 212q-76 -54 -181 -54q-114 0 -175.5 60.5t-61.5 169.5q-2 101 66 172.5t165 69.5q118 0 180.5 -83.5t62.5 -249.5zM461 233q0 276 -192 276q-81 0 -128 -52t-47 -145
q0 -88 47.5 -136.5t134.5 -48.5q101 0 184 54l1 26v26z" />
    <glyph glyph-name="dollar.onum" horiz-adv-x="503" 
d="M449 152q0 -64 -46 -104t-126 -45v-150h-44v150q-117 1 -186 36v58h4q76 -47 182 -50v212q-81 17 -113 32q-33 16 -48 41q-15 24 -15 64q0 129 176 141v99h44v-99q83 -3 161 -31v-61h-1q-77 44 -160 48v-198q91 -18 129 -50.5t43 -92.5zM101 401q0 -41 28.5 -62.5
t103.5 -35.5v190q-68 -4 -100 -25t-32 -67zM399 149q-4 43 -27 63t-95 38v-204q122 8 122 103z" />
    <glyph glyph-name="cent.onum" horiz-adv-x="501" 
d="M250 37q-98 7 -151 68t-53 166q0 101 54.5 164t149.5 72v166h43v-165q73 -4 144 -36v-53h-4q-60 37 -140 43v-384q82 8 140 46h4v-44q-18 -15 -61 -29q-44 -13 -83 -14v-166h-43v166zM96 271q0 -86 40.5 -137t113.5 -57v386q-75 -6 -114.5 -55.5t-39.5 -136.5z" />
    <glyph glyph-name="sterling.onum" horiz-adv-x="491" 
d="M183 235q0 -73 -22 -111q-22 -39 -77 -73v-6l389 1v-46h-430l-1 65q98 41 98 152v18h-78v43h78v112q0 82 42 125t117 43q51 0 114 -26v-53h-1q-50 33 -117 33q-112 0 -112 -120v-114h165v-43h-165z" />
    <glyph glyph-name="currency.onum" horiz-adv-x="545" 
d="M469 109l-34 -33l-80 80q-38 -26 -84 -26t-86 26l-80 -80l-33 33l80 80q-26 41 -26 85q0 46 26 84l-80 81l33 34l81 -81q39 27 85 27q47 0 84 -27l81 80l32 -33l-80 -80q27 -37 27 -85q0 -45 -26 -85zM373 274q0 44 -29.5 73.5t-72.5 29.5t-73 -29.5t-30 -73.5t29 -73
t74 -29q44 0 73 29t29 73z" />
    <glyph glyph-name="yen.onum" horiz-adv-x="540" 
d="M490 544l-197 -287v-36h189v-43h-188v-60h188v-43h-188v-75h-44v75h-189v43h189v60h-189v43h190v29l-199 294h55l164 -241l167 241h52z" />
    <glyph glyph-name="franc.onum" horiz-adv-x="467" 
d="M124 117v-117h-45v117h-60v43h60v383h386v-45h-341v-195h276v-44h-276v-99h184v-43h-184z" />
    <glyph glyph-name="lira.onum" horiz-adv-x="491" 
d="M174 159q-25 -77 -92 -109v-4h375v-46h-416v64q70 28 91 95h-68v43h76l1 17v18l-1 40h-76v43h76v64q0 86 40 130t116 44q55 0 118 -26v-53h-2q-51 33 -120 33q-58 0 -84.5 -30.5t-26.5 -96.5v-65h164v-43h-164v-40q0 -7 -2 -35h166v-43h-171z" />
    <glyph glyph-name="Euro.onum" horiz-adv-x="462" 
d="M311 -14q-99 0 -159.5 55t-73.5 157h-63l19 38h40l-1 15v20q0 16 2 42h-60l19 38h45q12 91 81 148q68 58 170 58q71 0 122 -25l-3 -52h-3q-52 34 -125 34q-77 0 -127 -43t-64 -121h227l-15 -38h-217q-2 -18 -2 -41l1 -34h205l-15 -38h-186q8 -78 56 -123.5t123 -45.5
q88 0 140 33h2l3 -52q-62 -25 -141 -25z" />
    <glyph glyph-name="florin.onum" horiz-adv-x="449" 
d="M239 294l-35 -182q-18 -94 -40 -134q-23 -42 -59 -59q-36 -18 -95 -18q-22 0 -70 8v48h1q43 -15 85 -15q61 4 84 34.5t45 141.5l34 176h-116v41h124l7 37q21 108 63.5 152.5t123.5 44.5q36 0 86 -10v-46h-2q-38 14 -92 14q-61 -4 -88 -41t-47 -151h163v-41h-172z" />
    <glyph glyph-name="A.c2sc" horiz-adv-x="555" 
d="M410 163h-269l-69 -163h-51l225 544h62l225 -544h-54zM156 207h238l-119 285z" />
    <glyph glyph-name="B.c2sc" horiz-adv-x="526" 
d="M88 544h159q194 0 194 -121q0 -43 -22.5 -73.5t-61.5 -40.5v-5q63 -12 96.5 -48t33.5 -90q0 -166 -220 -166h-179v544zM258 320q131 0 131 97q0 43 -38 63t-126 20h-88v-180h121zM243 43q102 0 147.5 28.5t45.5 91.5q0 114 -163 114h-136v-234h106z" />
    <glyph glyph-name="C.c2sc" horiz-adv-x="583" 
d="M342 -9q-130 0 -207 74q-77 75 -77 206q0 127 78 204.5t206 77.5q110 0 196 -50v-59h-2q-92 64 -204 64q-102 0 -162 -63.5t-60 -173.5q0 -108 62 -171.5t164 -63.5q63 0 107.5 14.5t89.5 47.5h5v-54q-38 -24 -92 -38.5t-104 -14.5z" />
    <glyph glyph-name="D.c2sc" horiz-adv-x="619" 
d="M560 271q0 -166 -151 -236q-78 -35 -172 -35h-149v544h147q156 0 240.5 -71.5t84.5 -201.5zM506 272q0 111 -70.5 168.5t-208.5 57.5h-89v-454h83q136 0 210.5 59t74.5 169z" />
    <glyph glyph-name="E.c2sc" horiz-adv-x="525" 
d="M462 0h-374v544h374v-45h-324v-171h322v-44h-322v-240h324v-44z" />
    <glyph glyph-name="F.c2sc" horiz-adv-x="464" 
d="M447 499h-309v-176h260v-44h-260v-279h-50v544h359v-45z" />
    <glyph glyph-name="G.c2sc" horiz-adv-x="627" 
d="M565 44q-96 -55 -206 -55q-139 0 -220 75t-81 208q0 131 78 206q80 75 213 75q106 0 210 -49v-58h-4q-110 62 -217 62q-106 0 -167.5 -62t-61.5 -172q0 -113 64 -176.5t176 -63.5q102 0 169 38v150h-172v43h219v-221z" />
    <glyph glyph-name="H.c2sc" horiz-adv-x="589" 
d="M501 0h-50v277h-312v-277h-51v544h51v-220h312v220h50v-544z" />
    <glyph glyph-name="I.c2sc" horiz-adv-x="347" 
d="M276 0h-206v43h78v458h-78v43h206v-43h-78v-458h78v-43z" />
    <glyph glyph-name="J.c2sc" horiz-adv-x="360" 
d="M268 147q0 -154 -153 -154q-12 0 -47 5q-33 5 -41 8v48h6q43 -15 81 -15q58 0 81 30t23 108v323h-118v44h168v-397z" />
    <glyph glyph-name="K.c2sc" horiz-adv-x="560" 
d="M539 0h-64l-253 268l-83 -80v-188h-51v544h51v-303l300 303h64l-247 -244z" />
    <glyph glyph-name="L.c2sc" horiz-adv-x="464" 
d="M437 0h-349v544h51v-499h298v-45z" />
    <glyph glyph-name="M.c2sc" horiz-adv-x="683" 
d="M594 0h-49v500l-190 -352h-31l-189 352v-500h-47v544h77l176 -334l177 334h76v-544z" />
    <glyph glyph-name="N.c2sc" horiz-adv-x="590" 
d="M501 0h-70l-295 487v-487h-48v544h74l292 -483v483h47v-544z" />
    <glyph glyph-name="O.c2sc" horiz-adv-x="648" 
d="M324 555q118 0 192 -79.5t74 -203.5t-74 -203.5t-192 -79.5q-120 0 -193 79.5t-73 203.5t73 203.5t193 79.5zM539 272q0 106 -58 172t-157 66t-157 -65.5t-58 -172.5q0 -105 58.5 -171.5t156.5 -66.5q99 0 157 65.5t58 172.5z" />
    <glyph glyph-name="P.c2sc" horiz-adv-x="470" 
d="M427 382q0 -80 -59.5 -125.5t-161.5 -45.5h-67v-211h-51v544h140q92 0 145.5 -43t53.5 -119zM375 380q0 120 -161 120h-76v-246h70q81 0 124 32.5t43 93.5z" />
    <glyph glyph-name="Q.c2sc" horiz-adv-x="649" 
d="M324 555q120 2 194 -78.5t72 -204.5q0 -99 -45 -169t-126 -97q3 -50 28.5 -76.5t70.5 -26.5q40 0 70 11h9v-44q-47 -11 -87 -11q-63 0 -100 37t-38 100q-21 -4 -44 -4q-124 0 -197 78.5t-73 201.5q0 127 73 204q73 79 193 79zM538 271q0 107 -58 172.5t-156 65.5
q-102 0 -158 -62t-56 -176q0 -108 58 -172t156 -64q101 0 157.5 62.5t56.5 173.5z" />
    <glyph glyph-name="R.c2sc" horiz-adv-x="530" 
d="M379 395q0 105 -147 105h-93v-232h89q151 0 151 127zM531 0h-67l-204 226h-121v-226h-51v544h159q86 0 135.5 -39t49.5 -109q0 -57 -33 -99.5t-88 -57.5z" />
    <glyph glyph-name="S.c2sc" horiz-adv-x="525" 
d="M473 150q0 -72 -60 -116q-59 -44 -154 -44q-115 0 -208 44v59h6q34 -27 88.5 -43t112.5 -16q78 0 122 29.5t44 82.5q0 50 -65 76q-27 12 -139 35q-94 22 -128.5 53t-39.5 91q0 65 56.5 109t142.5 44q97 0 197 -39v-57h-7q-73 52 -192 52q-64 0 -105 -28.5t-41 -74.5
q0 -54 57 -80q26 -12 104 -28q39 -7 61 -12.5t54.5 -17t50 -26t30.5 -38.5t13 -55z" />
    <glyph glyph-name="T.c2sc" horiz-adv-x="525" 
d="M506 499h-218v-499h-50v499h-219v45h487v-45z" />
    <glyph glyph-name="U.c2sc" horiz-adv-x="588" 
d="M504 200q0 -103 -54.5 -157t-156.5 -54q-209 0 -209 211v344h50v-349q0 -78 41.5 -120t117.5 -42q79 0 120 40.5t41 119.5v351h50v-344z" />
    <glyph glyph-name="V.c2sc" horiz-adv-x="528" 
d="M507 544l-212 -544h-62l-212 544h55l190 -490l191 490h50z" />
    <glyph glyph-name="W.c2sc" horiz-adv-x="756" 
d="M712 544l-145 -544h-57l-131 469l-133 -469h-55l-147 544h49l129 -475l132 475h53l132 -475l127 475h46z" />
    <glyph glyph-name="X.c2sc" horiz-adv-x="528" 
d="M96 544l172 -235l172 235h53l-198 -273l196 -271h-56l-172 234l-176 -234h-53l202 272l-197 272h57z" />
    <glyph glyph-name="Y.c2sc" horiz-adv-x="486" 
d="M469 544l-201 -304v-240h-51v235l-200 309h54l171 -260l174 260h53z" />
    <glyph glyph-name="Z.c2sc" horiz-adv-x="575" 
d="M510 0h-441v54l382 445h-369v45h422v-53l-387 -447h393v-44z" />
    <glyph glyph-name="Aacute.c2sc" horiz-adv-x="555" 
d="M410 163h-269l-69 -163h-51l225 544h62l225 -544h-54zM156 207h238l-119 285zM385 818l-100 -178h-38l70 178h68z" />
    <glyph glyph-name="Abreve.c2sc" horiz-adv-x="555" 
d="M410 163h-269l-69 -163h-51l225 544h62l225 -544h-54zM156 207h238l-119 285zM458 819q-8 -83 -57 -135t-123 -52t-123 52t-57 135h44q5 -66 42 -106t94 -40q56 0 93.5 40t42.5 106h44z" />
    <glyph glyph-name="Acircumflex.c2sc" horiz-adv-x="555" 
d="M410 163h-269l-69 -163h-51l225 544h62l225 -544h-54zM156 207h238l-119 285zM429 637h-50l-100 132l-100 -132h-52l123 181h56z" />
    <glyph glyph-name="Adieresis.c2sc" horiz-adv-x="555" 
d="M410 163h-269l-69 -163h-51l225 544h62l225 -544h-54zM156 207h238l-119 285zM400 642h-73v76h73v-76zM229 642h-73v76h73v-76z" />
    <glyph glyph-name="Agrave.c2sc" horiz-adv-x="555" 
d="M410 163h-269l-69 -163h-51l225 544h62l225 -544h-54zM156 207h238l-119 285zM318 640h-38l-100 178h67z" />
    <glyph glyph-name="Amacron.c2sc" horiz-adv-x="555" 
d="M410 163h-269l-69 -163h-51l225 544h62l225 -544h-54zM156 207h238l-119 285zM452 664h-348v47h348v-47z" />
    <glyph glyph-name="Aogonek.c2sc" horiz-adv-x="555" 
d="M695 -188q-39 -16 -80 -16q-63 0 -104 47t-41 119q0 25 5 47l-65 154h-269l-69 -163h-51l225 544h62l225 -544h-15q-3 -16 -3 -39q0 -54 28 -87t73 -33q41 0 78 19h1v-48zM156 207h238l-119 285z" />
    <glyph glyph-name="Aring.c2sc" horiz-adv-x="555" 
d="M410 163h-269l-69 -163h-51l212 513q-46 14 -74.5 52t-28.5 84q0 59 43 100.5t102 41.5q61 0 102 -42q42 -41 42 -100q0 -45 -27 -82.5t-72 -52.5l213 -514h-54zM380 649q0 43 -30.5 73t-74.5 30t-74.5 -30t-30.5 -73t30.5 -73.5t74.5 -30.5q41 0 73 30q32 32 32 74z
M156 207h238l-119 285z" />
    <glyph glyph-name="Aringacute.c2sc" horiz-adv-x="555" 
d="M407 163h-264l-71 -163h-51l212 488q-33 12 -53 42t-20 66q0 48 33 82q35 35 82 35q48 0 81 -34q34 -34 34 -83q0 -36 -19 -65t-51 -42l213 -489h-54zM162 207h226l-113 261zM351 596q0 32 -22 55t-54 23t-54 -23t-22 -55q0 -31 22.5 -53t53.5 -22q32 0 54 22t22 53z
M369 839l-100 -95h-35l71 95h64z" />
    <glyph glyph-name="Atilde.c2sc" horiz-adv-x="555" 
d="M410 163h-269l-69 -163h-51l225 544h62l225 -544h-54zM156 207h238l-119 285zM482 786q-4 -65 -34 -103.5t-75 -38.5q-25 0 -47.5 10t-59.5 40q-30 29 -48 39t-39 10q-27 0 -44 -26t-19 -71h-43q4 66 33 104.5t73 38.5q49 0 110 -51q30 -29 48 -39t39 -10q28 0 44.5 26
t18.5 71h43z" />
    <glyph glyph-name="AE.c2sc" horiz-adv-x="788" 
d="M167 223l-93 -223h-53l230 544h475v-45h-300v-173h298v-44h-298v-238h300v-44h-349v223h-210zM185 267h192v232h-96z" />
    <glyph glyph-name="AEacute.c2sc" horiz-adv-x="788" 
d="M167 223l-93 -223h-53l230 544h475v-45h-300v-173h298v-44h-298v-238h300v-44h-349v223h-210zM185 267h192v232h-96zM575 818l-100 -178h-38l70 178h68z" />
    <glyph glyph-name="Cacute.c2sc" horiz-adv-x="583" 
d="M342 -9q-130 0 -207 74q-77 75 -77 206q0 127 78 204.5t206 77.5q110 0 196 -50v-59h-2q-92 64 -204 64q-102 0 -162 -63.5t-60 -173.5q0 -108 62 -171.5t164 -63.5q63 0 107.5 14.5t89.5 47.5h5v-54q-38 -24 -92 -38.5t-104 -14.5zM451 818l-100 -178h-38l70 178h68z
" />
    <glyph glyph-name="Ccaron.c2sc" horiz-adv-x="583" 
d="M342 -9q-130 0 -207 74q-77 75 -77 206q0 127 78 204.5t206 77.5q110 0 196 -50v-59h-2q-92 64 -204 64q-102 0 -162 -63.5t-60 -173.5q0 -108 62 -171.5t164 -63.5q63 0 107.5 14.5t89.5 47.5h5v-54q-38 -24 -92 -38.5t-104 -14.5zM486 818l-123 -181h-56l-123 181h52
l100 -131l100 131h50z" />
    <glyph glyph-name="Ccedilla.c2sc" horiz-adv-x="583" 
d="M236 -204q-41 0 -80 16v48h1q37 -19 78 -19q55 0 89.5 33t34.5 87q0 16 -2 30h-15q-130 0 -207 74q-77 75 -77 206q0 127 78 204.5t206 77.5q110 0 196 -50v-59h-2q-92 64 -204 64q-102 0 -162 -63.5t-60 -173.5q0 -108 62 -171.5t164 -63.5q63 0 107.5 14.5t89.5 47.5h5
v-54q-52 -34 -136 -48q2 -22 2 -34q0 -72 -47 -119t-121 -47z" />
    <glyph glyph-name="Ccircumflex.c2sc" horiz-adv-x="583" 
d="M342 -9q-130 0 -207 74q-77 75 -77 206q0 127 78 204.5t206 77.5q110 0 196 -50v-59h-2q-92 64 -204 64q-102 0 -162 -63.5t-60 -173.5q0 -108 62 -171.5t164 -63.5q63 0 107.5 14.5t89.5 47.5h5v-54q-38 -24 -92 -38.5t-104 -14.5zM486 637h-50l-100 132l-100 -132h-52
l123 181h56z" />
    <glyph glyph-name="Cdotaccent.c2sc" horiz-adv-x="583" 
d="M342 -9q-130 0 -207 74q-77 75 -77 206q0 127 78 204.5t206 77.5q110 0 196 -50v-59h-2q-92 64 -204 64q-102 0 -162 -63.5t-60 -173.5q0 -108 62 -171.5t164 -63.5q63 0 107.5 14.5t89.5 47.5h5v-54q-38 -24 -92 -38.5t-104 -14.5zM370 642h-63v77h63v-77z" />
    <glyph glyph-name="Dcaron.c2sc" horiz-adv-x="619" 
d="M560 271q0 -166 -151 -236q-78 -35 -172 -35h-149v544h147q156 0 240.5 -71.5t84.5 -201.5zM506 272q0 111 -70.5 168.5t-208.5 57.5h-89v-454h83q136 0 210.5 59t74.5 169zM459 818l-123 -181h-56l-123 181h52l100 -131l100 131h50z" />
    <glyph glyph-name="Dcroat.c2sc" horiz-adv-x="619" 
d="M560 271q0 -166 -151 -236q-78 -35 -172 -35h-149v277h-81v42h81v225h147q156 0 240.5 -71.5t84.5 -201.5zM507 272q0 111 -71 168.5t-209 57.5h-89v-179h145v-42h-145v-233h83q138 0 212 58.5t74 169.5z" />
    <glyph glyph-name="Eacute.c2sc" horiz-adv-x="525" 
d="M462 0h-374v544h374v-45h-324v-171h322v-44h-322v-240h324v-44zM389 818l-100 -178h-38l70 178h68z" />
    <glyph glyph-name="Ebreve.c2sc" horiz-adv-x="525" 
d="M462 0h-374v544h374v-45h-324v-171h322v-44h-322v-240h324v-44zM464 819q-8 -83 -57 -135t-123 -52t-123 52t-57 135h44q5 -66 42 -106t94 -40q56 0 93.5 40t42.5 106h44z" />
    <glyph glyph-name="Ecaron.c2sc" horiz-adv-x="525" 
d="M462 0h-374v544h374v-45h-324v-171h322v-44h-322v-240h324v-44zM434 818l-123 -181h-56l-123 181h52l100 -131l100 131h50z" />
    <glyph glyph-name="Ecircumflex.c2sc" horiz-adv-x="525" 
d="M462 0h-374v544h374v-45h-324v-171h322v-44h-322v-240h324v-44zM435 637h-50l-100 132l-100 -132h-52l123 181h56z" />
    <glyph glyph-name="Edieresis.c2sc" horiz-adv-x="525" 
d="M462 0h-374v544h374v-45h-324v-171h322v-44h-322v-240h324v-44zM405 642h-73v76h73v-76zM234 642h-73v76h73v-76z" />
    <glyph glyph-name="Edotaccent.c2sc" horiz-adv-x="525" 
d="M462 0h-374v544h374v-45h-324v-171h322v-44h-322v-240h324v-44zM312 642h-63v77h63v-77z" />
    <glyph glyph-name="Egrave.c2sc" horiz-adv-x="525" 
d="M462 0h-374v544h374v-45h-324v-171h322v-44h-322v-240h324v-44zM304 640h-38l-100 178h67z" />
    <glyph glyph-name="Emacron.c2sc" horiz-adv-x="525" 
d="M462 0h-374v544h374v-45h-324v-171h322v-44h-322v-240h324v-44zM451 664h-348v47h348v-47z" />
    <glyph glyph-name="Eng.c2sc" horiz-adv-x="590" 
d="M501 2q0 -175 -149 -175q-12 0 -47 5q-33 5 -40 8v48h6q42 -14 80 -14q54 0 77 29t25 101l-317 483v-487h-48v544h74l292 -446v446h47v-542z" />
    <glyph glyph-name="Eogonek.c2sc" horiz-adv-x="525" 
d="M382 -204q-63 0 -104 47t-41 119q0 23 3 38h-152v544h374v-45h-324v-171h322v-44h-322v-240h324v-44h-177q-3 -16 -3 -39q0 -54 28 -87t73 -33q41 0 78 19h1v-48q-39 -16 -80 -16z" />
    <glyph glyph-name="Eth.c2sc" horiz-adv-x="619" 
d="M560 271q0 -166 -151 -236q-78 -35 -172 -35h-149v277h-81v42h81v225h147q156 0 240.5 -71.5t84.5 -201.5zM507 272q0 111 -71 168.5t-209 57.5h-89v-179h145v-42h-145v-233h83q138 0 212 58.5t74 169.5z" />
    <glyph glyph-name="Gbreve.c2sc" horiz-adv-x="627" 
d="M565 44q-96 -55 -206 -55q-139 0 -220 75t-81 208q0 131 78 206q80 75 213 75q106 0 210 -49v-58h-4q-110 62 -217 62q-106 0 -167.5 -62t-61.5 -172q0 -113 64 -176.5t176 -63.5q102 0 169 38v150h-172v43h219v-221zM517 819q-7 -83 -57 -135q-49 -52 -123 -52t-123 52
q-50 52 -57 135h44q5 -66 42 -106t94 -40q56 0 93.5 40t42.5 106h44z" />
    <glyph glyph-name="Gcircumflex.c2sc" horiz-adv-x="627" 
d="M565 44q-96 -55 -206 -55q-139 0 -220 75t-81 208q0 131 78 206q80 75 213 75q106 0 210 -49v-58h-4q-110 62 -217 62q-106 0 -167.5 -62t-61.5 -172q0 -113 64 -176.5t176 -63.5q102 0 169 38v150h-172v43h219v-221zM483 637h-50l-100 132l-100 -132h-52l123 181h56z
" />
    <glyph glyph-name="Gcommaaccent.c2sc" horiz-adv-x="627" 
d="M565 44q-96 -55 -206 -55q-139 0 -220 75t-81 208q0 131 78 206q80 75 213 75q106 0 210 -49v-58h-4q-110 62 -217 62q-106 0 -167.5 -62t-61.5 -172q0 -113 64 -176.5t176 -63.5q102 0 169 38v150h-172v43h219v-221zM377 -52l-61 -149h-37l40 149h58z" />
    <glyph glyph-name="Gdotaccent.c2sc" horiz-adv-x="627" 
d="M565 44q-96 -55 -206 -55q-139 0 -220 75t-81 208q0 131 78 206q80 75 213 75q106 0 210 -49v-58h-4q-110 62 -217 62q-106 0 -167.5 -62t-61.5 -172q0 -113 64 -176.5t176 -63.5q102 0 169 38v150h-172v43h219v-221zM369 642h-63v77h63v-77z" />
    <glyph glyph-name="Hbar.c2sc" horiz-adv-x="589" 
d="M501 407v-407h-50v271h-312v-271h-51v407h-54v40h54v97h51v-97h312v97h50v-97h55v-40h-55zM451 317v90h-312v-90h312z" />
    <glyph glyph-name="Hcircumflex.c2sc" horiz-adv-x="589" 
d="M501 0h-50v277h-312v-277h-51v544h51v-220h312v220h50v-544zM445 637h-50l-100 132l-100 -132h-52l123 181h56z" />
    <glyph glyph-name="Iacute.c2sc" horiz-adv-x="347" 
d="M276 0h-206v43h78v458h-78v43h206v-43h-78v-458h78v-43zM267 818l-100 -178h-38l70 178h68z" />
    <glyph glyph-name="Ibreve.c2sc" horiz-adv-x="347" 
d="M276 0h-206v43h78v458h-78v43h206v-43h-78v-458h78v-43zM352 819q-8 -83 -57 -135t-123 -52t-123 52t-57 135h44q5 -66 42 -106t94 -40q56 0 93.5 40t42.5 106h44z" />
    <glyph glyph-name="Icircumflex.c2sc" horiz-adv-x="347" 
d="M276 0h-206v43h78v458h-78v43h206v-43h-78v-458h78v-43zM324 637h-50l-100 132l-100 -132h-52l123 181h56z" />
    <glyph glyph-name="Idieresis.c2sc" horiz-adv-x="347" 
d="M276 0h-206v43h78v458h-78v43h206v-43h-78v-458h78v-43zM295 642h-73v76h73v-76zM124 642h-73v76h73v-76z" />
    <glyph glyph-name="Idotaccent.c2sc" horiz-adv-x="347" 
d="M276 0h-206v43h78v458h-78v43h206v-43h-78v-458h78v-43zM205 642h-63v77h63v-77z" />
    <glyph glyph-name="Igrave.c2sc" horiz-adv-x="347" 
d="M276 0h-206v43h78v458h-78v43h206v-43h-78v-458h78v-43zM228 640h-38l-100 178h67z" />
    <glyph glyph-name="IJ.c2sc" horiz-adv-x="677" 
d="M584 147q0 -154 -146 -154q-10 0 -42 5t-38 8v48h7q41 -15 73 -15q54 0 75 30.5t21 107.5v323h-119v44h169v-397zM276 0h-206v43h78v458h-78v43h206v-43h-78v-458h78v-43z" />
    <glyph glyph-name="Imacron.c2sc" horiz-adv-x="347" 
d="M276 0h-206v43h78v458h-78v43h206v-43h-78v-458h78v-43zM347 664h-348v47h348v-47z" />
    <glyph glyph-name="Iogonek.c2sc" horiz-adv-x="347" 
d="M276 0h-57q-2 -22 -2 -39q0 -55 27.5 -87.5t72.5 -32.5q42 0 79 19h1v-48q-39 -16 -81 -16q-62 0 -103 47t-41 119q0 18 2 38h-104v43h78v458h-78v43h206v-43h-78v-458h78v-43z" />
    <glyph glyph-name="Itilde.c2sc" horiz-adv-x="347" 
d="M276 0h-206v43h78v458h-78v43h206v-43h-78v-458h78v-43zM378 786q-4 -65 -34 -103.5t-75 -38.5q-25 0 -47.5 10t-59.5 40q-30 29 -48 39t-39 10q-27 0 -44 -26t-19 -71h-43q4 66 33 104.5t73 38.5q49 0 110 -51q30 -29 48 -39t39 -10q28 0 44.5 26t18.5 71h43z" />
    <glyph glyph-name="Jcircumflex.c2sc" horiz-adv-x="360" 
d="M268 147q0 -154 -153 -154q-12 0 -47 5q-33 5 -41 8v48h6q43 -15 81 -15q58 0 81 30t23 108v323h-118v44h168v-397zM333 637h-50l-100 132l-100 -132h-52l123 181h56z" />
    <glyph glyph-name="Kcommaaccent.c2sc" horiz-adv-x="560" 
d="M539 0h-64l-253 268l-83 -80v-188h-51v544h51v-303l300 303h64l-247 -244zM324 -52l-61 -149h-37l40 149h58z" />
    <glyph glyph-name="Lacute.c2sc" horiz-adv-x="464" 
d="M437 0h-349v544h51v-499h298v-45zM217 818l-100 -178h-38l70 178h68z" />
    <glyph glyph-name="Lcaron.c2sc" horiz-adv-x="464" 
d="M269 305l76 239h69l-106 -239h-39zM437 0h-349v544h51v-499h298v-45z" />
    <glyph glyph-name="Lcommaaccent.c2sc" horiz-adv-x="464" 
d="M437 0h-349v544h51v-499h298v-45zM298 -52l-61 -149h-37l40 149h58z" />
    <glyph glyph-name="Ldot.c2sc" horiz-adv-x="465" 
d="M355 271h-56v62h56v-62zM437 0h-349v544h51v-499h298v-45z" />
    <glyph glyph-name="Lslash.c2sc" horiz-adv-x="467" 
d="M440 0h-348v202l-75 -56v48l75 57v293h50v-255l137 104v-49l-137 -104v-195h298v-45z" />
    <glyph glyph-name="Nacute.c2sc" horiz-adv-x="590" 
d="M501 0h-70l-295 487v-487h-48v544h74l292 -483v483h47v-544zM424 818l-100 -178h-38l70 178h68z" />
    <glyph glyph-name="Ncaron.c2sc" horiz-adv-x="590" 
d="M501 0h-70l-295 487v-487h-48v544h74l292 -483v483h47v-544zM449 818l-123 -181h-56l-123 181h52l100 -131l100 131h50z" />
    <glyph glyph-name="Ncommaaccent.c2sc" horiz-adv-x="590" 
d="M501 0h-70l-295 487v-487h-48v544h74l292 -483v483h47v-544zM329 -52l-61 -149h-37l40 149h58z" />
    <glyph glyph-name="Ntilde.c2sc" horiz-adv-x="590" 
d="M501 0h-70l-295 487v-487h-48v544h74l292 -483v483h47v-544zM500 786q-4 -65 -34 -103.5t-75 -38.5q-25 0 -47.5 10t-59.5 40q-30 29 -48 39t-39 10q-27 0 -44 -26t-19 -71h-43q4 66 33 104.5t73 38.5q49 0 110 -51q30 -29 48 -39t39 -10q28 0 44.5 26t18.5 71h43z" />
    <glyph glyph-name="Oacute.c2sc" horiz-adv-x="648" 
d="M324 555q118 0 192 -79.5t74 -203.5t-74 -203.5t-192 -79.5q-120 0 -193 79.5t-73 203.5t73 203.5t193 79.5zM539 272q0 106 -58 172t-157 66t-157 -65.5t-58 -172.5q0 -105 58.5 -171.5t156.5 -66.5q99 0 157 65.5t58 172.5zM418 818l-100 -178h-38l70 178h68z" />
    <glyph glyph-name="Obreve.c2sc" horiz-adv-x="648" 
d="M324 555q118 0 192 -79.5t74 -203.5t-74 -203.5t-192 -79.5q-120 0 -193 79.5t-73 203.5t73 203.5t193 79.5zM539 272q0 106 -58 172t-157 66t-157 -65.5t-58 -172.5q0 -105 58.5 -171.5t156.5 -66.5q99 0 157 65.5t58 172.5zM504 819q-8 -83 -57 -135t-123 -52t-123 52
t-57 135h44q5 -66 42 -106t94 -40q56 0 93.5 40t42.5 106h44z" />
    <glyph glyph-name="Ocircumflex.c2sc" horiz-adv-x="648" 
d="M324 555q118 0 192 -79.5t74 -203.5t-74 -203.5t-192 -79.5q-120 0 -193 79.5t-73 203.5t73 203.5t193 79.5zM539 272q0 106 -58 172t-157 66t-157 -65.5t-58 -172.5q0 -105 58.5 -171.5t156.5 -66.5q99 0 157 65.5t58 172.5zM475 637h-50l-100 132l-100 -132h-52
l123 181h56z" />
    <glyph glyph-name="Odieresis.c2sc" horiz-adv-x="648" 
d="M324 555q118 0 192 -79.5t74 -203.5t-74 -203.5t-192 -79.5q-120 0 -193 79.5t-73 203.5t73 203.5t193 79.5zM539 272q0 106 -58 172t-157 66t-157 -65.5t-58 -172.5q0 -105 58.5 -171.5t156.5 -66.5q99 0 157 65.5t58 172.5zM446 642h-73v76h73v-76zM275 642h-73v76h73
v-76z" />
    <glyph glyph-name="Ograve.c2sc" horiz-adv-x="648" 
d="M324 555q118 0 192 -79.5t74 -203.5t-74 -203.5t-192 -79.5q-120 0 -193 79.5t-73 203.5t73 203.5t193 79.5zM539 272q0 106 -58 172t-157 66t-157 -65.5t-58 -172.5q0 -105 58.5 -171.5t156.5 -66.5q99 0 157 65.5t58 172.5zM363 640h-38l-100 178h67z" />
    <glyph glyph-name="Ohungarumlaut.c2sc" horiz-adv-x="648" 
d="M324 555q118 0 192 -79.5t74 -203.5t-74 -203.5t-192 -79.5q-120 0 -193 79.5t-73 203.5t73 203.5t193 79.5zM539 272q0 106 -58 172t-157 66t-157 -65.5t-58 -172.5q0 -105 58.5 -171.5t156.5 -66.5q99 0 157 65.5t58 172.5zM540 818l-109 -178h-34l80 178h63zM347 818
l-109 -178h-33l80 178h62z" />
    <glyph glyph-name="Omacron.c2sc" horiz-adv-x="648" 
d="M324 555q118 0 192 -79.5t74 -203.5t-74 -203.5t-192 -79.5q-120 0 -193 79.5t-73 203.5t73 203.5t193 79.5zM539 272q0 106 -58 172t-157 66t-157 -65.5t-58 -172.5q0 -105 58.5 -171.5t156.5 -66.5q99 0 157 65.5t58 172.5zM498 664h-348v47h348v-47z" />
    <glyph glyph-name="Oslash.c2sc" horiz-adv-x="648" 
d="M503 490q87 -79 87 -218q0 -127 -74 -205t-192 -78q-90 0 -155 45l-65 -88h-40l80 109q-86 80 -86 217q-2 123 74 204t192 79q90 0 155 -45l59 81h40zM109 272q0 -112 63 -178l278 378q-53 38 -127 38q-101 0 -157.5 -63t-56.5 -175zM538 272q0 114 -64 178l-277 -378
q53 -38 127 -38q100 0 157 63.5t57 174.5z" />
    <glyph glyph-name="Oslashacute.c2sc" horiz-adv-x="648" 
d="M503 490q87 -79 87 -218q0 -127 -74 -205t-192 -78q-90 0 -155 45l-65 -88h-40l80 109q-86 80 -86 217q-2 123 74 204t192 79q90 0 155 -45l59 81h40zM109 272q0 -112 63 -178l278 378q-53 38 -127 38q-101 0 -157.5 -63t-56.5 -175zM538 272q0 114 -64 178l-277 -378
q53 -38 127 -38q100 0 157 63.5t57 174.5zM439 818l-100 -178h-38l70 178h68z" />
    <glyph glyph-name="Otilde.c2sc" horiz-adv-x="648" 
d="M324 555q118 0 192 -79.5t74 -203.5t-74 -203.5t-192 -79.5q-120 0 -193 79.5t-73 203.5t73 203.5t193 79.5zM539 272q0 106 -58 172t-157 66t-157 -65.5t-58 -172.5q0 -105 58.5 -171.5t156.5 -66.5q99 0 157 65.5t58 172.5zM529 786q-4 -65 -34 -103.5t-75 -38.5
q-25 0 -47.5 10t-59.5 40q-30 29 -48 39t-39 10q-27 0 -44 -26t-19 -71h-43q4 66 33 104.5t73 38.5q49 0 110 -51q30 -29 48 -39t39 -10q28 0 44.5 26t18.5 71h43z" />
    <glyph glyph-name="OE.c2sc" horiz-adv-x="857" 
d="M795 0h-441q-87 0 -157 34.5t-104 94.5q-34 59 -34 142q0 131 77 202t219 71h440v-45h-301v-173h299v-44h-299v-238h301v-44zM444 499h-81q-123 0 -187 -58.5t-64 -168.5t67 -169t190 -59h75v455z" />
    <glyph glyph-name="Thorn.c2sc" horiz-adv-x="475" 
d="M438 286q0 -77 -57 -119t-160 -42h-83v-125h-50v544h50v-104h83q106 0 161.5 -39t55.5 -115zM386 285q0 57 -40.5 84t-129.5 27h-78v-229h78q170 0 170 118z" />
    <glyph glyph-name="Racute.c2sc" horiz-adv-x="530" 
d="M379 395q0 105 -147 105h-93v-232h89q151 0 151 127zM531 0h-67l-204 226h-121v-226h-51v544h159q86 0 135.5 -39t49.5 -109q0 -57 -33 -99.5t-88 -57.5zM359 818l-100 -178h-38l70 178h68z" />
    <glyph glyph-name="Rcaron.c2sc" horiz-adv-x="530" 
d="M379 395q0 105 -147 105h-93v-232h89q151 0 151 127zM531 0h-67l-204 226h-121v-226h-51v544h159q86 0 135.5 -39t49.5 -109q0 -57 -33 -99.5t-88 -57.5zM405 818l-123 -181h-56l-123 181h52l100 -131l100 131h50z" />
    <glyph glyph-name="Rcommaaccent.c2sc" horiz-adv-x="530" 
d="M379 395q0 105 -147 105h-93v-232h89q151 0 151 127zM531 0h-67l-204 226h-121v-226h-51v544h159q86 0 135.5 -39t49.5 -109q0 -57 -33 -99.5t-88 -57.5zM324 -52l-61 -149h-37l40 149h58z" />
    <glyph glyph-name="Sacute.c2sc" horiz-adv-x="525" 
d="M473 150q0 -72 -60 -116q-59 -44 -154 -44q-115 0 -208 44v59h6q34 -27 88.5 -43t112.5 -16q78 0 122 29.5t44 82.5q0 50 -65 76q-27 12 -139 35q-94 22 -128.5 53t-39.5 91q0 65 56.5 109t142.5 44q97 0 197 -39v-57h-7q-73 52 -192 52q-64 0 -105 -28.5t-41 -74.5
q0 -54 57 -80q26 -12 104 -28q39 -7 61 -12.5t54.5 -17t50 -26t30.5 -38.5t13 -55zM359 818l-100 -178h-38l70 178h68z" />
    <glyph glyph-name="Scaron.c2sc" horiz-adv-x="525" 
d="M473 150q0 -72 -60 -116q-59 -44 -154 -44q-115 0 -208 44v59h6q34 -27 88.5 -43t112.5 -16q78 0 122 29.5t44 82.5q0 50 -65 76q-27 12 -139 35q-94 22 -128.5 53t-39.5 91q0 65 56.5 109t142.5 44q97 0 197 -39v-57h-7q-73 52 -192 52q-64 0 -105 -28.5t-41 -74.5
q0 -54 57 -80q26 -12 104 -28q39 -7 61 -12.5t54.5 -17t50 -26t30.5 -38.5t13 -55zM409 818l-123 -181h-56l-123 181h52l100 -131l100 131h50z" />
    <glyph glyph-name="Scedilla.c2sc" horiz-adv-x="525" 
d="M473 150q0 -55 -35 -94t-99 -56q3 -14 3 -38q0 -72 -47 -119t-121 -47q-41 0 -80 16v48h1q37 -19 78 -19q55 0 89.5 33t34.5 87l-2 31q-22 -2 -36 -2q-115 0 -208 44v59h6q34 -27 88.5 -43t112.5 -16q78 0 122 29.5t44 82.5q0 50 -65 76q-27 12 -139 35q-94 22 -128.5 53
t-39.5 91q0 65 56.5 109t142.5 44q97 0 197 -39v-57h-7q-73 52 -192 52q-64 0 -105 -28.5t-41 -74.5q0 -54 57 -80q26 -12 104 -28q39 -7 61 -12.5t54.5 -17t50 -26t30.5 -38.5t13 -55z" />
    <glyph glyph-name="Scircumflex.c2sc" horiz-adv-x="525" 
d="M473 150q0 -72 -60 -116q-59 -44 -154 -44q-115 0 -208 44v59h6q34 -27 88.5 -43t112.5 -16q78 0 122 29.5t44 82.5q0 50 -65 76q-27 12 -139 35q-94 22 -128.5 53t-39.5 91q0 65 56.5 109t142.5 44q97 0 197 -39v-57h-7q-73 52 -192 52q-64 0 -105 -28.5t-41 -74.5
q0 -54 57 -80q26 -12 104 -28q39 -7 61 -12.5t54.5 -17t50 -26t30.5 -38.5t13 -55zM403 637h-50l-100 132l-100 -132h-52l123 181h56z" />
    <glyph glyph-name="Scommaaccent.c2sc" horiz-adv-x="525" 
d="M473 150q0 -72 -60 -116q-59 -44 -154 -44q-115 0 -208 44v59h6q34 -27 88.5 -43t112.5 -16q78 0 122 29.5t44 82.5q0 50 -65 76q-27 12 -139 35q-94 22 -128.5 53t-39.5 91q0 65 56.5 109t142.5 44q97 0 197 -39v-57h-7q-73 52 -192 52q-64 0 -105 -28.5t-41 -74.5
q0 -54 57 -80q26 -12 104 -28q39 -7 61 -12.5t54.5 -17t50 -26t30.5 -38.5t13 -55zM274 -52l-61 -149h-37l40 149h58z" />
    <glyph glyph-name="Tbar.c2sc" horiz-adv-x="525" 
d="M506 499h-218v-188h110v-41h-110v-270h-50v270h-111v41h111v188h-219v45h487v-45z" />
    <glyph glyph-name="Tcaron.c2sc" horiz-adv-x="525" 
d="M506 499h-218v-499h-50v499h-219v45h487v-45zM413 818l-123 -181h-56l-123 181h52l100 -131l100 131h50z" />
    <glyph glyph-name="Tcommaaccent.c2sc" horiz-adv-x="525" 
d="M292 -38q0 -72 -47 -119t-120 -47q-42 0 -81 16v48h1q37 -19 79 -19q55 0 89 33t34 87q0 25 -3 39h-6v499h-219v45h487v-45h-218v-492q4 -15 4 -45z" />
    <glyph glyph-name="uni021A.c2sc" horiz-adv-x="525" 
d="M506 499h-218v-499h-50v499h-219v45h487v-45zM293 -52l-61 -149h-37l40 149h58z" />
    <glyph glyph-name="Uacute.c2sc" horiz-adv-x="588" 
d="M504 200q0 -103 -54.5 -157t-156.5 -54q-209 0 -209 211v344h50v-349q0 -78 41.5 -120t117.5 -42q79 0 120 40.5t41 119.5v351h50v-344zM406 818l-100 -178h-38l70 178h68z" />
    <glyph glyph-name="Ubreve.c2sc" horiz-adv-x="588" 
d="M504 200q0 -103 -54.5 -157t-156.5 -54q-209 0 -209 211v344h50v-349q0 -78 41.5 -120t117.5 -42q79 0 120 40.5t41 119.5v351h50v-344zM474 819q-8 -83 -57 -135t-123 -52t-123 52t-57 135h44q5 -66 42 -106t94 -40q56 0 93.5 40t42.5 106h44z" />
    <glyph glyph-name="Ucircumflex.c2sc" horiz-adv-x="588" 
d="M504 200q0 -103 -54.5 -157t-156.5 -54q-209 0 -209 211v344h50v-349q0 -78 41.5 -120t117.5 -42q79 0 120 40.5t41 119.5v351h50v-344zM445 637h-50l-100 132l-100 -132h-52l123 181h56z" />
    <glyph glyph-name="Udieresis.c2sc" horiz-adv-x="588" 
d="M504 200q0 -103 -54.5 -157t-156.5 -54q-209 0 -209 211v344h50v-349q0 -78 41.5 -120t117.5 -42q79 0 120 40.5t41 119.5v351h50v-344zM416 642h-73v76h73v-76zM245 642h-73v76h73v-76z" />
    <glyph glyph-name="Ugrave.c2sc" horiz-adv-x="588" 
d="M504 200q0 -103 -54.5 -157t-156.5 -54q-209 0 -209 211v344h50v-349q0 -78 41.5 -120t117.5 -42q79 0 120 40.5t41 119.5v351h50v-344zM333 640h-38l-100 178h67z" />
    <glyph glyph-name="Uhungarumlaut.c2sc" horiz-adv-x="588" 
d="M504 200q0 -103 -54.5 -157t-156.5 -54q-209 0 -209 211v344h50v-349q0 -78 41.5 -120t117.5 -42q79 0 120 40.5t41 119.5v351h50v-344zM508 818l-109 -178h-34l80 178h63zM315 818l-109 -178h-33l80 178h62z" />
    <glyph glyph-name="Umacron.c2sc" horiz-adv-x="588" 
d="M504 200q0 -103 -54.5 -157t-156.5 -54q-209 0 -209 211v344h50v-349q0 -78 41.5 -120t117.5 -42q79 0 120 40.5t41 119.5v351h50v-344zM468 664h-348v47h348v-47z" />
    <glyph glyph-name="Uogonek.c2sc" horiz-adv-x="588" 
d="M482 -188q-39 -16 -80 -16q-63 0 -104 47t-41 119v15l1 14q-174 17 -174 209v344h50v-349q0 -78 41.5 -120t117.5 -42q79 0 120 40.5t41 119.5v351h50v-344q0 -99 -52 -153.5t-149 -57.5l-1 -14v-14q0 -54 28 -87t73 -33q41 0 78 19h1v-48z" />
    <glyph glyph-name="Uring.c2sc" horiz-adv-x="588" 
d="M504 200q0 -103 -54.5 -157t-156.5 -54q-209 0 -209 211v344h50v-349q0 -78 41.5 -120t117.5 -42q79 0 120 40.5t41 119.5v351h50v-344zM438 710q0 -59 -43 -101q-42 -42 -101 -42q-58 0 -102 42q-43 42 -43 101t43 100.5t102 41.5q62 0 102 -42q42 -42 42 -100zM399 710
q0 43 -30.5 73t-74.5 30t-74.5 -30t-30.5 -73t30.5 -73.5t74.5 -30.5q42 0 73 30q32 32 32 74z" />
    <glyph glyph-name="Utilde.c2sc" horiz-adv-x="588" 
d="M504 200q0 -103 -54.5 -157t-156.5 -54q-209 0 -209 211v344h50v-349q0 -78 41.5 -120t117.5 -42q79 0 120 40.5t41 119.5v351h50v-344zM500 786q-4 -65 -34 -103.5t-75 -38.5q-25 0 -47.5 10t-59.5 40q-30 29 -48 39t-39 10q-27 0 -44 -26t-19 -71h-43q4 66 33 104.5
t73 38.5q49 0 110 -51q30 -29 48 -39t39 -10q28 0 44.5 26t18.5 71h43z" />
    <glyph glyph-name="Wacute.c2sc" horiz-adv-x="756" 
d="M712 544l-145 -544h-57l-131 469l-133 -469h-55l-147 544h49l129 -475l132 475h53l132 -475l127 475h46zM480 818l-100 -178h-38l70 178h68z" />
    <glyph glyph-name="Wcircumflex.c2sc" horiz-adv-x="756" 
d="M712 544l-145 -544h-57l-131 469l-133 -469h-55l-147 544h49l129 -475l132 475h53l132 -475l127 475h46zM529 637h-50l-100 132l-100 -132h-52l123 181h56z" />
    <glyph glyph-name="Wdieresis.c2sc" horiz-adv-x="756" 
d="M712 544l-145 -544h-57l-131 469l-133 -469h-55l-147 544h49l129 -475l132 475h53l132 -475l127 475h46zM500 642h-73v76h73v-76zM329 642h-73v76h73v-76z" />
    <glyph glyph-name="Wgrave.c2sc" horiz-adv-x="756" 
d="M712 544l-145 -544h-57l-131 469l-133 -469h-55l-147 544h49l129 -475l132 475h53l132 -475l127 475h46zM403 640h-38l-100 178h67z" />
    <glyph glyph-name="Yacute.c2sc" horiz-adv-x="486" 
d="M469 544l-201 -304v-240h-51v235l-200 309h54l171 -260l174 260h53zM349 818l-100 -178h-38l70 178h68z" />
    <glyph glyph-name="Ycircumflex.c2sc" horiz-adv-x="486" 
d="M469 544l-201 -304v-240h-51v235l-200 309h54l171 -260l174 260h53zM394 637h-50l-100 132l-100 -132h-52l123 181h56z" />
    <glyph glyph-name="Ydieresis.c2sc" horiz-adv-x="486" 
d="M469 544l-201 -304v-240h-51v235l-200 309h54l171 -260l174 260h53zM365 642h-73v76h73v-76zM194 642h-73v76h73v-76z" />
    <glyph glyph-name="Ygrave.c2sc" horiz-adv-x="486" 
d="M469 544l-201 -304v-240h-51v235l-200 309h54l171 -260l174 260h53zM279 640h-38l-100 178h67z" />
    <glyph glyph-name="Zacute.c2sc" horiz-adv-x="575" 
d="M510 0h-441v54l382 445h-369v45h422v-53l-387 -447h393v-44zM392 818l-100 -178h-38l70 178h68z" />
    <glyph glyph-name="Zcaron.c2sc" horiz-adv-x="575" 
d="M510 0h-441v54l382 445h-369v45h422v-53l-387 -447h393v-44zM438 818l-123 -181h-56l-123 181h52l100 -131l100 131h50z" />
    <glyph glyph-name="Zdotaccent.c2sc" horiz-adv-x="575" 
d="M510 0h-441v54l382 445h-369v45h422v-53l-387 -447h393v-44zM317 642h-63v77h63v-77z" />
    <glyph glyph-name="Alpha.c2sc" horiz-adv-x="555" 
d="M410 163h-269l-69 -163h-51l225 544h62l225 -544h-54zM156 207h238l-119 285z" />
    <glyph glyph-name="Beta.c2sc" horiz-adv-x="526" 
d="M88 544h159q194 0 194 -121q0 -43 -22.5 -73.5t-61.5 -40.5v-5q63 -12 96.5 -48t33.5 -90q0 -166 -220 -166h-179v544zM258 320q131 0 131 97q0 43 -38 63t-126 20h-88v-180h121zM243 43q102 0 147.5 28.5t45.5 91.5q0 114 -163 114h-136v-234h106z" />
    <glyph glyph-name="Gamma.c2sc" horiz-adv-x="453" 
d="M448 499h-309v-499h-51v544h360v-45z" />
    <glyph glyph-name="Delta.c2sc" horiz-adv-x="556" 
d="M534 0h-513l226 544h62zM463 44l-188 449l-186 -449h374z" />
    <glyph glyph-name="Epsilon.c2sc" horiz-adv-x="525" 
d="M462 0h-374v544h374v-45h-324v-171h322v-44h-322v-240h324v-44z" />
    <glyph glyph-name="Zeta.c2sc" horiz-adv-x="575" 
d="M510 0h-441v54l382 445h-369v45h422v-53l-387 -447h393v-44z" />
    <glyph glyph-name="Eta.c2sc" horiz-adv-x="589" 
d="M501 0h-50v277h-312v-277h-51v544h51v-220h312v220h50v-544z" />
    <glyph glyph-name="Theta.c2sc" horiz-adv-x="648" 
d="M324 555q118 2 193 -78t73 -205q0 -127 -74 -205t-192 -78q-120 0 -193 79.5t-73 203.5q-2 123 74 204t192 79zM538 272q0 108 -59 173t-156 65q-101 0 -157.5 -63t-56.5 -175q0 -106 58 -172t157 -66q100 0 157 63.5t57 174.5zM455 269h-267v46h267v-46z" />
    <glyph glyph-name="Iota.c2sc" horiz-adv-x="347" 
d="M276 0h-206v43h78v458h-78v43h206v-43h-78v-458h78v-43z" />
    <glyph glyph-name="Kappa.c2sc" horiz-adv-x="560" 
d="M539 0h-64l-253 268l-83 -80v-188h-51v544h51v-303l300 303h64l-247 -244z" />
    <glyph glyph-name="Lambda.c2sc" horiz-adv-x="554" 
d="M275 491l-203 -491h-51l226 544h61l225 -544h-55z" />
    <glyph glyph-name="Mu.c2sc" horiz-adv-x="683" 
d="M594 0h-49v500l-190 -352h-31l-189 352v-500h-47v544h77l176 -334l177 334h76v-544z" />
    <glyph glyph-name="Nu.c2sc" horiz-adv-x="590" 
d="M501 0h-70l-295 487v-487h-48v544h74l292 -483v483h47v-544z" />
    <glyph glyph-name="Xi.c2sc" horiz-adv-x="542" 
d="M479 498h-416v46h416v-46zM459 275h-376v46h376v-46zM479 0h-416v45h416v-45z" />
    <glyph glyph-name="Omicron.c2sc" horiz-adv-x="648" 
d="M324 555q118 0 192 -79.5t74 -203.5t-74 -203.5t-192 -79.5q-120 0 -193 79.5t-73 203.5t73 203.5t193 79.5zM539 272q0 106 -58 172t-157 66t-157 -65.5t-58 -172.5q0 -105 58.5 -171.5t156.5 -66.5q99 0 157 65.5t58 172.5z" />
    <glyph glyph-name="Pi.c2sc" horiz-adv-x="592" 
d="M504 0h-50v499h-315v-499h-51v544h416v-544z" />
    <glyph glyph-name="Rho.c2sc" horiz-adv-x="470" 
d="M427 382q0 -80 -59.5 -125.5t-161.5 -45.5h-67v-211h-51v544h140q92 0 145.5 -43t53.5 -119zM375 380q0 120 -161 120h-76v-246h70q81 0 124 32.5t43 93.5z" />
    <glyph glyph-name="Sigma.c2sc" horiz-adv-x="560" 
d="M508 0h-445v48l256 240l-248 210v46h417v-45h-353l243 -206v-8l-255 -241h385v-44z" />
    <glyph glyph-name="Tau.c2sc" horiz-adv-x="525" 
d="M506 499h-218v-499h-50v499h-219v45h487v-45z" />
    <glyph glyph-name="Upsilon.c2sc" horiz-adv-x="486" 
d="M469 544l-201 -304v-240h-51v235l-200 309h54l171 -260l174 260h53z" />
    <glyph glyph-name="Phi.c2sc" horiz-adv-x="644" 
d="M587 276q0 -97 -67 -159t-173 -62v-61h-50v61q-106 1 -173 61q-66 62 -66 160q0 96 66 156q67 60 173 61v57h50v-57q106 0 173 -61t67 -156zM297 453q-85 -1 -136 -48t-51 -126q0 -85 50 -134t137 -50v358zM347 95q87 1 137 50.5t50 133.5q0 79 -51 126t-136 48v-358z
" />
    <glyph glyph-name="Chi.c2sc" horiz-adv-x="528" 
d="M96 544l172 -235l172 235h53l-198 -273l196 -271h-56l-172 234l-176 -234h-53l202 272l-197 272h57z" />
    <glyph glyph-name="Psi.c2sc" horiz-adv-x="678" 
d="M595 330q0 -106 -53.5 -155.5t-177.5 -57.5v-117h-50v117q-128 11 -178 57.5t-53 155.5v214h51v-226q5 -80 41.5 -114t138.5 -41v381h50v-381q97 5 139 42t42 113v226h50v-214z" />
    <glyph glyph-name="Omega.c2sc" horiz-adv-x="657" 
d="M328 513q-92 0 -147.5 -51.5t-55.5 -139.5q0 -75 47 -128q22 -24 88 -68v-126h-204v44h158v64q-141 93 -141 216q0 101 71.5 166t183.5 65q111 2 184.5 -64.5t71.5 -166.5q0 -123 -141 -216v-64h158v-44h-204v126q62 41 87 68q24 25 36 56q12 32 12 72q0 88 -56 139
q-55 52 -148 52z" />
    <glyph glyph-name="Iotadieresis.c2sc" horiz-adv-x="347" 
d="M276 0h-206v43h78v458h-78v43h206v-43h-78v-458h78v-43zM295 642h-73v76h73v-76zM124 642h-73v76h73v-76z" />
    <glyph glyph-name="Upsilondieresis.c2sc" horiz-adv-x="486" 
d="M469 544l-201 -304v-240h-51v235l-200 309h54l171 -260l174 260h53zM365 642h-73v76h73v-76zM194 642h-73v76h73v-76z" />
    <glyph glyph-name="Alphatonos.c2sc" horiz-adv-x="555" 
d="M410 163h-269l-69 -163h-51l225 544h62l225 -544h-54zM156 207h238l-119 285zM337 818l-57 -185h-29l21 185h65z" />
    <glyph glyph-name="Epsilontonos.c2sc" horiz-adv-x="525" 
d="M462 0h-374v544h374v-45h-324v-171h322v-44h-322v-240h324v-44zM343 818l-57 -185h-29l21 185h65z" />
    <glyph glyph-name="Etatonos.c2sc" horiz-adv-x="589" 
d="M501 0h-50v277h-312v-277h-51v544h51v-220h312v220h50v-544zM363 818l-57 -185h-29l21 185h65z" />
    <glyph glyph-name="Iotatonos.c2sc" horiz-adv-x="347" 
d="M276 0h-206v43h78v458h-78v43h206v-43h-78v-458h78v-43zM242 818l-57 -185h-29l21 185h65z" />
    <glyph glyph-name="Omicrontonos.c2sc" horiz-adv-x="648" 
d="M324 555q118 0 192 -79.5t74 -203.5t-74 -203.5t-192 -79.5q-120 0 -193 79.5t-73 203.5t73 203.5t193 79.5zM539 272q0 106 -58 172t-157 66t-157 -65.5t-58 -172.5q0 -105 58.5 -171.5t156.5 -66.5q99 0 157 65.5t58 172.5zM381 818l-57 -185h-29l21 185h65z" />
    <glyph glyph-name="Upsilontonos.c2sc" horiz-adv-x="486" 
d="M469 544l-201 -304v-240h-51v235l-200 309h54l171 -260l174 260h53zM310 818l-57 -185h-29l21 185h65z" />
    <glyph glyph-name="Omegatonos.c2sc" horiz-adv-x="657" 
d="M328 513q-92 0 -147.5 -51.5t-55.5 -139.5q0 -75 47 -128q22 -24 88 -68v-126h-204v44h158v64q-141 93 -141 216q0 101 71.5 166t183.5 65q111 2 184.5 -64.5t71.5 -166.5q0 -123 -141 -216v-64h158v-44h-204v126q62 41 87 68q24 25 36 56q12 32 12 72q0 88 -56 139
q-55 52 -148 52zM392 818l-57 -185h-29l21 185h65z" />
    <glyph glyph-name="afii10017.c2sc" horiz-adv-x="555" 
d="M410 163h-269l-69 -163h-51l225 544h62l225 -544h-54zM156 207h238l-119 285z" />
    <glyph glyph-name="afii10018.c2sc" horiz-adv-x="556" 
d="M504 167q0 -79 -58.5 -123t-165.5 -44h-192v544h366v-44h-315v-173h141q224 0 224 -160zM260 43q103 0 148 29t45 94q-4 65 -44.5 90.5t-147.5 26.5h-123v-240h122z" />
    <glyph glyph-name="afii10019.c2sc" horiz-adv-x="526" 
d="M88 544h159q194 0 194 -121q0 -43 -22.5 -73.5t-61.5 -40.5v-5q63 -12 96.5 -48t33.5 -90q0 -166 -220 -166h-179v544zM258 320q131 0 131 97q0 43 -38 63t-126 20h-88v-180h121zM243 43q102 0 147.5 28.5t45.5 91.5q0 114 -163 114h-136v-234h106z" />
    <glyph glyph-name="afii10020.c2sc" horiz-adv-x="453" 
d="M448 499h-309v-499h-51v544h360v-45z" />
    <glyph glyph-name="afii10021.c2sc" horiz-adv-x="606" 
d="M549 -123h-49v124h-432v-124h-48v168h47q56 81 87 214q32 136 32 285h309v-499h54v-168zM445 45v449h-213q-3 -140 -34 -256q-30 -119 -82 -193h329z" />
    <glyph glyph-name="afii10022.c2sc" horiz-adv-x="525" 
d="M462 0h-374v544h374v-45h-324v-171h322v-44h-322v-240h324v-44z" />
    <glyph glyph-name="afii10023.c2sc" horiz-adv-x="525" 
d="M462 0h-374v544h374v-45h-324v-171h322v-44h-322v-240h324v-44zM405 642h-73v76h73v-76zM234 642h-73v76h73v-76z" />
    <glyph glyph-name="afii10024.c2sc" horiz-adv-x="761" 
d="M356 256h-42l-226 -256h-61l245 280q-32 18 -53 48.5t-41 79.5q-18 50 -43 70t-67 20h-19v46h21q78 0 115 -45q18 -21 39 -79q26 -69 55.5 -96t76.5 -28v248h49v-248q46 0 75.5 27.5t56.5 96.5q12 33 21 50.5t26 37t43 28t64 8.5h20v-46h-19q-45 -4 -66.5 -20t-43.5 -70
q-37 -98 -93 -128l245 -280h-61l-226 256h-42v-256h-49v256z" />
    <glyph glyph-name="afii10025.c2sc" horiz-adv-x="509" 
d="M315 297q125 -24 125 -140q0 -81 -57 -124.5t-160 -43.5q-43 0 -93 10q-53 11 -84 25v54h3q84 -45 182 -45q157 0 157 126q0 54 -39 83t-109 29h-89v46h60q78 0 119 27.5t41 77.5q0 40 -35 63.5t-96 23.5q-99 0 -170 -44h-3v56q76 34 173 34q82 0 134 -35.5t52 -94.5
q0 -46 -31 -80t-80 -43v-5z" />
    <glyph glyph-name="afii10026.c2sc" horiz-adv-x="590" 
d="M136 544v-483l292 483h73v-544h-46v487l-296 -487h-71v544h48z" />
    <glyph glyph-name="afii10027.c2sc" horiz-adv-x="590" 
d="M136 544v-483l292 483h73v-544h-46v487l-296 -487h-71v544h48zM432 745q-3 -66 -39.5 -102t-98.5 -36t-98.5 36.5t-39.5 101.5h49q1 -97 89 -97t89 97h49z" />
    <glyph glyph-name="afii10028.c2sc" horiz-adv-x="551" 
d="M524 0h-67l-261 257h-58v-257h-50v544h50v-240q57 0 94.5 27.5t67.5 93.5q23 52 42.5 73.5t48.5 33.5t70 12h29v-46h-28q-54 0 -83 -30q-14 -14 -35 -58q-26 -53 -47 -77q-21 -25 -59 -45z" />
    <glyph glyph-name="afii10029.c2sc" horiz-adv-x="585" 
d="M496 0h-49v499h-241l-7 -191q-5 -94 -10 -130q-4 -34 -16 -74q-11 -36 -29 -58q-35 -46 -98 -47l-31 1v47h4l25 -2q97 0 103 226l11 273h338v-544z" />
    <glyph glyph-name="afii10030.c2sc" horiz-adv-x="683" 
d="M594 0h-49v500l-190 -352h-31l-189 352v-500h-47v544h77l176 -334l177 334h76v-544z" />
    <glyph glyph-name="afii10031.c2sc" horiz-adv-x="589" 
d="M501 0h-50v277h-312v-277h-51v544h51v-220h312v220h50v-544z" />
    </font>
</defs>
</svg>
