<?xml version="1.0" encoding="UTF-8" standalone="no"?><!DOCTYPE svg PUBLIC "-//W3C//DTD SVG 1.1//EN" "http://www.w3.org/Graphics/SVG/1.1/DTD/svg11.dtd"><svg width="100%" height="100%" viewBox="0 0 433 264" version="1.1" xmlns="http://www.w3.org/2000/svg" xmlns:xlink="http://www.w3.org/1999/xlink" xml:space="preserve" xmlns:serif="http://www.serif.com/" style="fill-rule:evenodd;clip-rule:evenodd;stroke-linejoin:round;stroke-miterlimit:1.41421;"><g id="eventsolution"><rect x="0" y="0" width="432.701" height="166.485" style="fill:#fff;"/><rect x="0" y="0" width="432.558" height="170.016" style="fill:#b20f24;"/><path d="M158.458,148.764l96.647,0c6.361,0 11.565,-5.113 11.565,-11.364l0,-23.42c0,-6.25 -5.204,-11.364 -11.565,-11.364l-56.694,0c-3.319,0 -6.006,-2.78 -6.006,-6.01c0,-3.245 2.702,-5.902 6.006,-5.902l64.109,0l0,-17.064l-80.611,0c-6.362,0 -11.566,5.114 -11.566,11.365l0,23.419c0,6.251 5.204,11.364 11.566,11.364l56.694,0c3.303,0 6.005,2.656 6.005,5.902c0,3.246 -2.702,5.902 -6.005,5.902l-70.209,0c-6.606,0 -12.012,-5.312 -12.012,-11.804l0,-46.148l-120.348,0c-6.361,0 -11.565,5.114 -11.565,11.365l0,23.419c0,6.251 5.204,11.364 11.565,11.364l56.694,0c3.304,0 6.006,2.656 6.006,5.902c0,3.246 -2.702,5.902 -6.006,5.902l-71.1,0l0,17.172l87.602,0c6.362,0 11.566,-5.113 11.566,-11.364l0,-23.42c0,-6.25 -5.204,-11.364 -11.566,-11.364l-56.694,0c-3.319,0 -6.006,-2.78 -6.006,-6.01c0,-3.245 2.703,-5.902 6.006,-5.902l82.221,0l0,34.771c0,12.809 10.665,23.289 23.701,23.289" style="fill:#fff;"/><path d="M26.554,200.545c0,-0.578 -0.215,-1.046 -0.644,-1.406c-0.43,-0.36 -0.91,-0.54 -1.441,-0.54l-14.572,-0.038c-0.623,0 -1.184,0.308 -1.687,0.924c-0.502,0.617 -0.755,1.286 -0.755,2.004l0,1.138l19.065,0l0.034,-2.082Zm6.853,4.066c0,1.235 -0.289,2.273 -0.866,3.114c-0.577,0.841 -1.537,1.262 -2.884,1.262l-22.202,-0.038l0,1.349c0,0.694 0.235,1.339 0.704,1.937c0.469,0.597 0.975,0.896 1.519,0.896l23.354,0l0,6.515l-24.661,0c-1.64,0 -3.058,-0.492 -4.256,-1.475c-1.198,-0.983 -2.11,-2.13 -2.731,-3.441c-0.622,-1.311 -0.932,-2.382 -0.932,-3.217l0,-11.989c0,-0.925 0.223,-1.84 0.67,-2.747c0.445,-0.906 1.036,-1.725 1.772,-2.457c0.735,-0.732 1.506,-1.307 2.314,-1.725c0.81,-0.416 1.558,-0.626 2.247,-0.626l20.15,0c0.577,0 1.221,0.202 1.934,0.606c0.712,0.406 1.357,0.911 1.933,1.513c0.577,0.606 1.044,1.247 1.399,1.928c0.357,0.682 0.536,1.324 0.536,1.928l0,6.667Z" style="fill:#b20f24;fill-rule:nonzero;"/><path d="M69.648,192.007l-11.497,23.686c-0.385,0.785 -0.84,1.514 -1.366,2.188c-0.527,0.675 -1.259,1.263 -2.198,1.765c-0.937,0.5 -2.062,0.75 -3.374,0.75c-1.254,0 -2.369,-0.261 -3.342,-0.789c-0.972,-0.527 -1.751,-1.148 -2.34,-1.861c-0.588,-0.712 -0.989,-1.344 -1.204,-1.898l-11.398,-23.841l7.921,0l9.109,18.637c0.259,0.54 0.453,0.9 0.584,1.079c0.129,0.182 0.342,0.271 0.636,0.271c0.316,0 0.545,-0.096 0.686,-0.289c0.141,-0.192 0.337,-0.546 0.586,-1.061l9.177,-18.637l8.02,0Z" style="fill:#b20f24;fill-rule:nonzero;"/><path d="M95.054,200.545c0,-0.578 -0.215,-1.046 -0.644,-1.406c-0.429,-0.36 -0.908,-0.54 -1.441,-0.54l-14.572,-0.038c-0.623,0 -1.184,0.308 -1.687,0.924c-0.502,0.617 -0.754,1.286 -0.754,2.004l0,1.138l19.065,0l0.033,-2.082Zm6.853,4.066c0,1.235 -0.289,2.273 -0.866,3.114c-0.577,0.841 -1.537,1.262 -2.883,1.262l-22.202,-0.038l0,1.349c0,0.694 0.234,1.339 0.703,1.937c0.47,0.597 0.977,0.896 1.52,0.896l23.354,0l0,6.515l-24.662,0c-1.639,0 -3.058,-0.492 -4.256,-1.475c-1.198,-0.983 -2.11,-2.13 -2.731,-3.441c-0.622,-1.311 -0.932,-2.382 -0.932,-3.217l0,-11.989c0,-0.925 0.223,-1.84 0.67,-2.747c0.445,-0.906 1.037,-1.725 1.772,-2.457c0.735,-0.732 1.506,-1.307 2.315,-1.725c0.81,-0.416 1.557,-0.626 2.247,-0.626l20.149,0c0.577,0 1.221,0.202 1.934,0.606c0.712,0.406 1.358,0.911 1.934,1.513c0.576,0.606 1.044,1.247 1.399,1.928c0.356,0.682 0.535,1.324 0.535,1.928l0,6.667Z" style="fill:#b20f24;fill-rule:nonzero;"/><path d="M136.772,213.613c0,0.798 -0.206,1.737 -0.619,2.824c-0.412,1.086 -1.083,2.037 -2.01,2.852c-0.927,0.816 -2.103,1.224 -3.528,1.224c-1.47,0 -2.558,-0.241 -3.265,-0.723c-0.707,-0.482 -1.463,-1.37 -2.267,-2.669l-11.191,-16.189c-0.355,-0.566 -0.637,-0.927 -0.844,-1.09c-0.209,-0.161 -0.469,-0.241 -0.78,-0.241c-0.205,0 -0.414,0.094 -0.628,0.279c-0.214,0.187 -0.321,0.448 -0.321,0.781l0,18.945l-6.529,0l0,-21.991c0,-0.385 0.105,-0.907 0.314,-1.57c0.209,-0.661 0.555,-1.349 1.036,-2.062c0.484,-0.713 1.123,-1.317 1.922,-1.812c0.798,-0.492 1.762,-0.741 2.887,-0.741c1.425,0 2.543,0.287 3.352,0.857c0.809,0.572 1.462,1.192 1.954,1.86l11.272,15.9c0.353,0.579 0.653,0.948 0.901,1.109c0.245,0.16 0.534,0.241 0.867,0.241c0.386,0 0.624,-0.138 0.717,-0.416c0.09,-0.275 0.135,-0.664 0.135,-1.165l0,-17.808l6.625,0l0,21.605Z" style="fill:#b20f24;fill-rule:nonzero;"/><path d="M180.582,198.676l-12.601,0l0,20.969l-6.886,0l0,-27.637l19.487,0l0,6.668Zm-21.354,20.931l-6.886,0l0,-20.989l-12.602,0l0,-6.65l19.488,0l0,27.639Z" style="fill:#b20f24;fill-rule:nonzero;"/><path d="M214.127,215.386c0,1.156 -0.296,2.156 -0.89,2.996c-0.594,0.843 -1.428,1.263 -2.502,1.263l-28.137,0l0,-6.784l22.559,0c0.395,0 0.813,-0.165 1.255,-0.491c0.44,-0.328 0.661,-0.826 0.661,-1.494c0,-0.359 -0.094,-0.7 -0.28,-1.022c-0.187,-0.319 -0.466,-0.578 -0.84,-0.77c-0.373,-0.193 -0.779,-0.29 -1.221,-0.29l-17.066,0c-0.813,0 -1.539,-0.233 -2.178,-0.703c-0.637,-0.468 -1.131,-1.015 -1.473,-1.638c-0.346,-0.623 -0.519,-1.133 -0.519,-1.532l0,-8.963c0,-0.771 0.377,-1.621 1.128,-2.553c0.752,-0.93 1.722,-1.398 2.908,-1.398l25.27,0l0,6.553l-20.86,0c-0.428,0 -0.773,0.206 -1.033,0.617c-0.26,0.413 -0.39,0.842 -0.39,1.291c0,0.413 0.178,0.848 0.534,1.311c0.356,0.462 0.862,0.693 1.518,0.693l17.114,0c1.514,0 2.634,0.443 3.358,1.331c0.722,0.886 1.084,2.051 1.084,3.488l0,8.095Z" style="fill:#797878;fill-rule:nonzero;"/><path d="M242.542,208.646l0,-5.678c0,-1.192 -0.354,-2.207 -1.067,-3.041c-0.713,-0.833 -1.838,-1.25 -3.375,-1.25l-10.771,0c-0.419,0 -0.935,0.18 -1.552,0.54c-0.617,0.357 -1.154,0.832 -1.611,1.422c-0.459,0.591 -0.687,1.219 -0.687,1.886l0,5.411c0.023,1.294 0.33,2.384 0.925,3.269c0.593,0.887 1.476,1.329 2.654,1.329l11.99,0c0.974,0 1.798,-0.297 2.476,-0.895c0.68,-0.596 1.018,-1.594 1.018,-2.993m6.988,2.595c0,1.531 -0.375,2.939 -1.128,4.222c-0.751,1.286 -1.667,2.303 -2.746,3.054c-1.081,0.753 -2.033,1.128 -2.858,1.128l-18.692,0c-1.537,0 -2.901,-0.456 -4.086,-1.369c-1.189,-0.91 -2.101,-2.048 -2.74,-3.41c-0.639,-1.361 -0.959,-2.666 -0.959,-3.913l0,-10.37c0,-1.128 0.218,-2.212 0.653,-3.247c0.435,-1.032 1.01,-1.948 1.722,-2.747c0.714,-0.795 1.49,-1.426 2.333,-1.887c0.841,-0.462 1.646,-0.695 2.417,-0.695l18.401,0c0.826,0 1.843,0.308 3.052,0.925c1.211,0.617 2.285,1.62 3.224,3.007c0.939,1.389 1.407,3.175 1.407,5.358l0,9.944Z" style="fill:#797878;fill-rule:nonzero;"/><path d="M278.983,219.645l-20.354,0c-1.094,0 -2.156,-0.439 -3.19,-1.32c-1.03,-0.879 -1.879,-1.91 -2.545,-3.094c-0.665,-1.182 -0.998,-2.119 -0.998,-2.814l0,-20.41l6.733,0l0,16.595c0,0.925 0.224,1.735 0.67,2.428c0.447,0.693 0.972,1.219 1.577,1.57c0.606,0.355 1.106,0.53 1.503,0.53l16.604,0l0,6.515Z" style="fill:#797878;fill-rule:nonzero;"/><path d="M311.52,212.11c0,0.938 -0.32,2.004 -0.959,3.199c-0.639,1.194 -1.444,2.215 -2.416,3.065c-0.973,0.846 -1.933,1.272 -2.884,1.272l-17.147,0c-1.381,0 -2.66,-0.456 -3.841,-1.369c-1.183,-0.911 -2.112,-2.065 -2.791,-3.46c-0.678,-1.393 -1.018,-2.746 -1.018,-4.057l0,-18.752l6.887,0l0,16.709c0,0.759 0.194,1.455 0.584,2.091c0.391,0.636 0.848,1.137 1.376,1.504c0.524,0.365 0.991,0.549 1.398,0.549l10.533,0c0.44,0 0.908,-0.214 1.399,-0.645c0.49,-0.43 0.902,-0.945 1.23,-1.542c0.326,-0.597 0.491,-1.109 0.491,-1.533l0,-17.133l7.158,0l0,20.102Z" style="fill:#797878;fill-rule:nonzero;"/><path d="M353.266,198.676l-12.601,0l0,20.969l-6.887,0l0,-27.637l19.488,0l0,6.668Zm-21.353,20.931l-6.887,0l0,-20.989l-12.601,0l0,-6.65l19.488,0l0,27.639Z" style="fill:#797878;fill-rule:nonzero;"/><rect x="355.291" y="192.007" width="6.988" height="27.6" style="fill:#797878;"/><path d="M390.898,208.646l0,-5.678c0,-1.192 -0.355,-2.207 -1.068,-3.041c-0.713,-0.833 -1.838,-1.25 -3.375,-1.25l-10.771,0c-0.418,0 -0.934,0.18 -1.552,0.54c-0.616,0.357 -1.154,0.832 -1.611,1.422c-0.459,0.591 -0.686,1.219 -0.686,1.886l0,5.411c0.022,1.294 0.329,2.384 0.924,3.269c0.594,0.887 1.477,1.329 2.654,1.329l11.99,0c0.974,0 1.798,-0.297 2.476,-0.895c0.68,-0.596 1.019,-1.594 1.019,-2.993m6.988,2.595c0,1.531 -0.376,2.939 -1.129,4.222c-0.751,1.286 -1.667,2.303 -2.745,3.054c-1.082,0.753 -2.033,1.128 -2.859,1.128l-18.692,0c-1.537,0 -2.9,-0.456 -4.086,-1.369c-1.189,-0.91 -2.1,-2.048 -2.739,-3.41c-0.639,-1.361 -0.959,-2.666 -0.959,-3.913l0,-10.37c0,-1.128 0.217,-2.212 0.652,-3.247c0.435,-1.032 1.009,-1.948 1.722,-2.747c0.714,-0.795 1.49,-1.426 2.332,-1.887c0.842,-0.462 1.648,-0.695 2.418,-0.695l18.401,0c0.826,0 1.842,0.308 3.053,0.925c1.21,0.617 2.284,1.62 3.223,3.007c0.939,1.389 1.408,3.175 1.408,5.358l0,9.944Z" style="fill:#797878;fill-rule:nonzero;"/><path d="M432.065,213.613c0,0.798 -0.206,1.737 -0.618,2.824c-0.413,1.086 -1.084,2.037 -2.011,2.852c-0.927,0.816 -2.102,1.224 -3.529,1.224c-1.47,0 -2.557,-0.241 -3.264,-0.723c-0.707,-0.482 -1.462,-1.37 -2.266,-2.669l-11.193,-16.189c-0.353,-0.566 -0.635,-0.927 -0.843,-1.09c-0.21,-0.161 -0.468,-0.241 -0.78,-0.241c-0.204,0 -0.413,0.094 -0.628,0.279c-0.214,0.187 -0.321,0.448 -0.321,0.781l0,18.945l-6.528,0l0,-21.991c0,-0.385 0.104,-0.907 0.314,-1.57c0.208,-0.661 0.554,-1.349 1.036,-2.062c0.483,-0.713 1.123,-1.317 1.922,-1.812c0.798,-0.492 1.761,-0.741 2.886,-0.741c1.426,0 2.543,0.287 3.353,0.857c0.808,0.572 1.46,1.192 1.954,1.86l11.272,15.9c0.353,0.579 0.652,0.948 0.9,1.109c0.245,0.16 0.535,0.241 0.867,0.241c0.387,0 0.625,-0.138 0.717,-0.416c0.09,-0.275 0.135,-0.664 0.135,-1.165l0,-17.808l6.625,0l0,21.605Z" style="fill:#797878;fill-rule:nonzero;"/><path d="M111.52,247.525c0,-2.749 -0.825,-4.85 -2.472,-6.303c-1.651,-1.453 -4.063,-2.18 -7.244,-2.18l-3.182,0l0,17.073l2.956,0c2.111,0 3.921,-0.34 5.428,-1.021c1.505,-0.681 2.635,-1.659 3.387,-2.936c0.749,-1.278 1.127,-2.821 1.127,-4.633m1.484,0.04c0,1.953 -0.424,3.658 -1.266,5.116c-0.844,1.458 -2.12,2.612 -3.83,3.46c-1.71,0.849 -3.639,1.273 -5.786,1.273l-4.892,0l0,-19.738l4.838,0c3.473,0 6.164,0.867 8.073,2.598c1.909,1.731 2.863,4.162 2.863,7.291" style="fill:#797878;fill-rule:nonzero;"/><path d="M118.598,257.414l-1.365,0l0,-14.767l1.365,0l0,14.767Zm0.172,-17.418l-1.71,0l0,-2.067l1.71,0l0,2.067Z" style="fill:#797878;fill-rule:nonzero;"/><path d="M133.762,248.731c0,-1.608 -0.398,-2.881 -1.193,-3.817c-0.795,-0.937 -1.882,-1.406 -3.261,-1.406c-1.432,0 -2.625,0.483 -3.579,1.446c-0.954,0.963 -1.498,2.221 -1.631,3.777l9.664,0Zm-9.716,1.246c0,2.024 0.497,3.626 1.491,4.806c0.994,1.179 2.329,1.769 4.01,1.769c0.881,0 1.836,-0.168 2.856,-0.504c1.021,-0.336 1.76,-0.702 2.22,-1.1l0.107,0l0,1.538c-1.77,0.83 -3.394,1.246 -4.879,1.246c-2.253,0 -4.003,-0.665 -5.242,-1.995c-1.243,-1.33 -1.863,-3.201 -1.863,-5.613c0,-1.547 0.272,-2.917 0.823,-4.11c0.546,-1.193 1.318,-2.116 2.313,-2.77c0.994,-0.655 2.133,-0.982 3.426,-0.982c1.713,0 3.095,0.592 4.149,1.777c1.051,1.184 1.577,2.765 1.577,4.746l0,1.192l-10.988,0Z" style="fill:#797878;fill-rule:nonzero;"/><path d="M162.461,237.676l-7.185,19.737l-1.815,0l-7.198,-19.737l1.537,0l6.601,18.319l6.642,-18.319l1.418,0Z" style="fill:#797878;fill-rule:nonzero;"/><path d="M174.603,248.731c0,-1.608 -0.397,-2.881 -1.193,-3.817c-0.795,-0.937 -1.882,-1.406 -3.261,-1.406c-1.431,0 -2.625,0.483 -3.579,1.446c-0.954,0.963 -1.498,2.221 -1.63,3.777l9.663,0Zm-9.716,1.246c0,2.024 0.497,3.626 1.491,4.806c0.994,1.179 2.329,1.769 4.01,1.769c0.881,0 1.836,-0.168 2.856,-0.504c1.021,-0.336 1.76,-0.702 2.221,-1.1l0.106,0l0,1.538c-1.77,0.83 -3.394,1.246 -4.879,1.246c-2.253,0 -4.003,-0.665 -5.242,-1.995c-1.243,-1.33 -1.863,-3.201 -1.863,-5.613c0,-1.547 0.272,-2.917 0.823,-4.11c0.546,-1.193 1.318,-2.116 2.313,-2.77c0.994,-0.655 2.134,-0.982 3.426,-0.982c1.713,0 3.095,0.592 4.149,1.777c1.051,1.184 1.577,2.765 1.577,4.746l0,1.192l-10.988,0Z" style="fill:#797878;fill-rule:nonzero;"/><path d="M187.938,244.41l-0.04,0c-0.795,-0.193 -1.507,-0.291 -2.134,-0.291c-0.848,0 -1.65,0.197 -2.406,0.59c-0.755,0.392 -1.557,1.04 -2.405,1.941l0,10.764l-1.352,0l0,-14.767l1.352,0l0,2.492c0.742,-0.742 1.564,-1.352 2.465,-1.829c0.901,-0.477 1.71,-0.715 2.426,-0.715c0.802,0 1.501,0.105 2.094,0.317l0,1.498Z" style="fill:#797878;fill-rule:nonzero;"/><path d="M199.192,249.129c-2.253,0.08 -3.986,0.266 -5.196,0.558c-1.213,0.291 -2.095,0.721 -2.644,1.292c-0.554,0.57 -0.829,1.332 -0.829,2.286c0,1.016 0.312,1.831 0.935,2.446c0.623,0.614 1.454,0.921 2.498,0.921c0.988,0 1.892,-0.16 2.711,-0.483c0.815,-0.324 1.657,-0.864 2.525,-1.624l0,-5.396Zm0,6.708c-0.954,0.761 -1.812,1.274 -2.571,1.544c-0.762,0.269 -1.598,0.404 -2.506,0.404c-1.521,0 -2.734,-0.412 -3.638,-1.239c-0.909,-0.827 -1.359,-1.91 -1.359,-3.254c0,-1.272 0.351,-2.285 1.06,-3.036c0.706,-0.75 1.806,-1.311 3.301,-1.677c1.491,-0.366 3.394,-0.571 5.7,-0.616l0,-0.861c0,-1.087 -0.384,-1.948 -1.147,-2.578c-0.765,-0.632 -1.793,-0.949 -3.082,-0.949c-1.537,0 -3.019,0.331 -4.44,0.994l-0.08,0l0,-1.577c0.494,-0.194 1.147,-0.366 1.962,-0.517c0.812,-0.151 1.594,-0.225 2.346,-0.225c3.877,0 5.82,1.718 5.82,5.156l0,10.008l-1.366,0l0,-1.577Z" style="fill:#797878;fill-rule:nonzero;"/><path d="M216.437,257.414l-1.339,0l0,-9.385c0,-2.951 -1.126,-4.428 -3.38,-4.428c-0.875,0 -1.76,0.198 -2.651,0.59c-0.895,0.393 -1.684,0.944 -2.373,1.651l0,11.572l-1.352,0l0,-14.767l1.352,0l0,1.843c0.643,-0.628 1.435,-1.16 2.373,-1.597c0.934,-0.438 1.789,-0.657 2.558,-0.657c1.538,0 2.724,0.457 3.56,1.372c0.835,0.915 1.252,2.194 1.252,3.838l0,9.968Z" style="fill:#797878;fill-rule:nonzero;"/><path d="M230.634,253.371c0,1.334 -0.494,2.397 -1.478,3.188c-0.987,0.791 -2.333,1.186 -4.036,1.186c-0.753,0 -1.518,-0.096 -2.3,-0.284c-0.782,-0.192 -1.644,-0.52 -2.579,-0.988l0,-1.564l0.08,0c0.68,0.503 1.458,0.914 2.34,1.233c0.878,0.318 1.786,0.477 2.724,0.477c1.252,0 2.217,-0.273 2.89,-0.822c0.669,-0.549 1.007,-1.318 1.007,-2.307c0,-0.521 -0.1,-0.939 -0.298,-1.252c-0.199,-0.313 -0.52,-0.575 -0.961,-0.782c-0.445,-0.207 -1.362,-0.466 -2.758,-0.775c-0.556,-0.125 -1.133,-0.264 -1.723,-0.418c-0.593,-0.155 -1.133,-0.376 -1.617,-0.663c-0.487,-0.287 -0.888,-0.665 -1.2,-1.133c-0.314,-0.469 -0.47,-1.075 -0.47,-1.817c0,-0.821 0.215,-1.565 0.65,-2.233c0.43,-0.668 1.04,-1.185 1.822,-1.551c0.782,-0.366 1.697,-0.55 2.751,-0.55c0.775,0 1.603,0.115 2.485,0.345c0.878,0.23 1.59,0.495 2.141,0.795l0,1.617l-0.133,0c-0.583,-0.424 -1.329,-0.782 -2.233,-1.074c-0.908,-0.291 -1.753,-0.437 -2.539,-0.437c-1.027,0 -1.879,0.251 -2.558,0.755c-0.683,0.504 -1.021,1.154 -1.021,1.95c0,0.909 0.308,1.584 0.928,2.027c0.616,0.442 1.687,0.808 3.208,1.1c1.776,0.319 3.032,0.781 3.771,1.385c0.736,0.606 1.107,1.47 1.107,2.592" style="fill:#797878;fill-rule:nonzero;"/><path d="M233.232,243.853l0,-1.206l1.644,0l0,-4.255l1.352,0l0,4.255l5.381,0l0,1.206l-5.381,0l0,7.98c0,1.193 0.089,2.116 0.272,2.77c0.178,0.655 0.473,1.125 0.881,1.412c0.404,0.287 0.997,0.431 1.776,0.431c0.769,0 1.604,-0.164 2.506,-0.49l0.039,0l0,1.325c-0.354,0.097 -0.808,0.192 -1.359,0.285c-0.553,0.093 -0.981,0.14 -1.278,0.14c-1.432,0 -2.489,-0.42 -3.169,-1.26c-0.683,-0.84 -1.02,-2.094 -1.02,-3.765l0,-8.828l-1.644,0Z" style="fill:#797878;fill-rule:nonzero;"/><path d="M253.644,249.129c-2.251,0.08 -3.985,0.266 -5.194,0.558c-1.213,0.291 -2.095,0.721 -2.645,1.292c-0.553,0.57 -0.828,1.332 -0.828,2.286c0,1.016 0.311,1.831 0.934,2.446c0.623,0.614 1.455,0.921 2.499,0.921c0.987,0 1.892,-0.16 2.711,-0.483c0.816,-0.324 1.658,-0.864 2.523,-1.624l0,-5.396Zm0,6.708c-0.954,0.761 -1.811,1.274 -2.57,1.544c-0.762,0.269 -1.597,0.404 -2.505,0.404c-1.521,0 -2.734,-0.412 -3.639,-1.239c-0.908,-0.827 -1.358,-1.91 -1.358,-3.254c0,-1.272 0.351,-2.285 1.06,-3.036c0.706,-0.75 1.806,-1.311 3.301,-1.677c1.491,-0.366 3.393,-0.571 5.698,-0.616l0,-0.861c0,-1.087 -0.381,-1.948 -1.147,-2.578c-0.763,-0.632 -1.791,-0.949 -3.08,-0.949c-1.537,0 -3.019,0.331 -4.441,0.994l-0.079,0l0,-1.577c0.494,-0.194 1.147,-0.366 1.962,-0.517c0.812,-0.151 1.594,-0.225 2.346,-0.225c3.879,0 5.818,1.718 5.818,5.156l0,10.008l-1.366,0l0,-1.577Z" style="fill:#797878;fill-rule:nonzero;"/><rect x="260.1" y="236.788" width="1.352" height="20.626" style="fill:#797878;"/><path d="M265.229,243.853l0,-1.206l1.644,0l0,-4.255l1.352,0l0,4.255l5.381,0l0,1.206l-5.381,0l0,7.98c0,1.193 0.091,2.116 0.272,2.77c0.18,0.655 0.475,1.125 0.881,1.412c0.406,0.287 0.999,0.431 1.776,0.431c0.769,0 1.604,-0.164 2.506,-0.49l0.039,0l0,1.325c-0.352,0.097 -0.806,0.192 -1.358,0.285c-0.552,0.093 -0.98,0.14 -1.279,0.14c-1.432,0 -2.487,-0.42 -3.168,-1.26c-0.682,-0.84 -1.021,-2.094 -1.021,-3.765l0,-8.828l-1.644,0Z" style="fill:#797878;fill-rule:nonzero;"/><path d="M287.499,257.414l-1.352,0l0,-1.962c-1.546,1.582 -3.187,2.373 -4.918,2.373c-1.529,0 -2.716,-0.449 -3.559,-1.346c-0.843,-0.896 -1.266,-2.185 -1.266,-3.864l0,-9.968l1.339,0l0,9.359c0,1.476 0.277,2.585 0.828,3.327c0.552,0.742 1.412,1.113 2.578,1.113c0.875,0 1.808,-0.233 2.797,-0.702c0.99,-0.469 1.723,-1.02 2.201,-1.657l0,-11.44l1.352,0l0,14.767Z" style="fill:#797878;fill-rule:nonzero;"/><path d="M303.392,257.414l-1.339,0l0,-9.385c0,-2.951 -1.127,-4.428 -3.38,-4.428c-0.875,0 -1.758,0.198 -2.651,0.59c-0.893,0.393 -1.684,0.944 -2.373,1.651l0,11.572l-1.352,0l0,-14.767l1.352,0l0,1.843c0.644,-0.628 1.436,-1.16 2.373,-1.597c0.936,-0.438 1.789,-0.657 2.558,-0.657c1.538,0 2.724,0.457 3.559,1.372c0.835,0.915 1.253,2.194 1.253,3.838l0,9.968Z" style="fill:#797878;fill-rule:nonzero;"/><path d="M317.589,244.781c-0.645,-0.459 -1.299,-0.795 -1.961,-1.007c-0.664,-0.212 -1.424,-0.318 -2.281,-0.318c-1.44,0 -2.592,0.576 -3.459,1.729c-0.867,1.154 -1.299,2.72 -1.299,4.7c0,1.954 0.351,3.44 1.054,4.46c0.702,1.021 1.734,1.531 3.094,1.531c0.92,0 1.769,-0.186 2.546,-0.557c0.777,-0.371 1.546,-0.914 2.306,-1.63l0,-8.908Zm1.339,10.697c0,2.589 -0.51,4.494 -1.531,5.714c-1.021,1.219 -2.586,1.829 -4.699,1.829c-0.591,0 -1.18,-0.05 -1.763,-0.146c-0.583,-0.098 -1.307,-0.283 -2.174,-0.557l0,-1.444l0.159,0c0.389,0.219 0.996,0.417 1.823,0.59c0.826,0.171 1.69,0.257 2.591,0.257c0.867,0 1.616,-0.196 2.247,-0.589c0.631,-0.394 1.125,-0.993 1.478,-1.796c0.353,-0.805 0.53,-1.742 0.53,-2.81l0,-1.524c-0.928,0.847 -1.763,1.418 -2.505,1.71c-0.743,0.291 -1.573,0.437 -2.492,0.437c-1.679,0 -2.996,-0.637 -3.95,-1.909c-0.955,-1.272 -1.432,-3.014 -1.432,-5.223c0,-1.529 0.254,-2.878 0.762,-4.049c0.509,-1.171 1.251,-2.094 2.227,-2.771c0.976,-0.676 2.048,-1.014 3.215,-1.014c0.76,0 1.423,0.072 1.988,0.212c0.565,0.141 1.299,0.446 2.201,0.915l0.158,-0.663l1.167,0l0,12.831Z" style="fill:#797878;fill-rule:nonzero;"/><rect x="325.529" y="254.564" width="2.134" height="2.85" style="fill:#797878;"/></g></svg>