<svg xmlns="http://www.w3.org/2000/svg" viewBox="0 0 432.7 263.02"><defs><style>.cls-1{fill:#b20f24;}.cls-2{fill:#fff;fill-rule:evenodd;}.cls-3{fill:#797978;}</style></defs><title>event</title><g id="Ebene_2" data-name="Ebene 2"><g id="Ebene_1-2" data-name="Ebene 1"><rect class="cls-1" width="432.56" height="170.02"/><path class="cls-2" d="M158.46,148.76H255.1a11.49,11.49,0,0,0,11.57-11.36V114a11.49,11.49,0,0,0-11.57-11.36H198.41a6.07,6.07,0,0,1-6-6,6,6,0,0,1,6-5.9h64.11V73.64H181.91A11.5,11.5,0,0,0,170.34,85v23.41a11.5,11.5,0,0,0,11.57,11.37H238.6a5.9,5.9,0,1,1,0,11.8H168.39a11.94,11.94,0,0,1-12-11.8V73.64H36A11.49,11.49,0,0,0,24.47,85v23.41A11.49,11.49,0,0,0,36,119.79h56.7a5.9,5.9,0,1,1,0,11.8H21.63v17.17h87.6A11.5,11.5,0,0,0,120.8,137.4V114a11.5,11.5,0,0,0-11.57-11.36H52.54a6.07,6.07,0,0,1-6-6,6,6,0,0,1,6-5.9h82.22v34.77A23.56,23.56,0,0,0,158.46,148.76Z"/><path class="cls-1" d="M32.58,202.76a4.25,4.25,0,0,1-.84,2.68,3.35,3.35,0,0,1-2.81,1.08l-21.65,0v1.16A2.47,2.47,0,0,0,8,209.32a2,2,0,0,0,1.48.77H32.22v5.6h-24A6.93,6.93,0,0,1,4,214.42a8.85,8.85,0,0,1-2.66-3,6.19,6.19,0,0,1-.91-2.77v-10.3A4.83,4.83,0,0,1,1.1,196a8.26,8.26,0,0,1,1.73-2.12,9.55,9.55,0,0,1,2.26-1.48,5.32,5.32,0,0,1,2.19-.54H26.93a4.24,4.24,0,0,1,1.88.53,8.15,8.15,0,0,1,1.89,1.3,7.64,7.64,0,0,1,1.36,1.65,3.26,3.26,0,0,1,.52,1.66Zm-6.68-3.49a1.43,1.43,0,0,0-.63-1.21,2.29,2.29,0,0,0-1.4-.47l-14.21,0a2.19,2.19,0,0,0-1.64.8,2.49,2.49,0,0,0-.74,1.72v1H25.87Z"/><path class="cls-1" d="M67.92,191.93,56.71,212.29a11.21,11.21,0,0,1-1.33,1.88,6.58,6.58,0,0,1-2.15,1.52,7.66,7.66,0,0,1-3.29.64,7.4,7.4,0,0,1-3.26-.68,7.68,7.68,0,0,1-2.28-1.59,6.34,6.34,0,0,1-1.17-1.64L32.12,191.93h7.72l8.88,16a6.94,6.94,0,0,0,.57.93.77.77,0,0,0,.62.23.81.81,0,0,0,.67-.25,6.32,6.32,0,0,0,.57-.91l9-16Z"/><path class="cls-1" d="M99.37,202.76a4.19,4.19,0,0,1-.85,2.68,3.34,3.34,0,0,1-2.81,1.08l-21.64,0v1.16a2.51,2.51,0,0,0,.68,1.67,2,2,0,0,0,1.48.77H99v5.6H75a6.93,6.93,0,0,1-4.15-1.27,8.74,8.74,0,0,1-2.66-3,6.19,6.19,0,0,1-.91-2.77v-10.3a4.83,4.83,0,0,1,.65-2.36,8.06,8.06,0,0,1,1.73-2.12,9.55,9.55,0,0,1,2.26-1.48,5.29,5.29,0,0,1,2.19-.54H93.71a4.32,4.32,0,0,1,1.89.53,7.89,7.89,0,0,1,1.88,1.3,7.7,7.7,0,0,1,1.37,1.65,3.36,3.36,0,0,1,.52,1.66Zm-6.68-3.49a1.43,1.43,0,0,0-.63-1.21,2.32,2.32,0,0,0-1.41-.47l-14.2,0a2.21,2.21,0,0,0-1.65.8,2.48,2.48,0,0,0-.73,1.72v1H92.65Z"/><path class="cls-1" d="M133.36,210.5a6.31,6.31,0,0,1-.6,2.43,6.24,6.24,0,0,1-2,2.45,5.46,5.46,0,0,1-3.44,1.05,6.3,6.3,0,0,1-3.19-.62,8.22,8.22,0,0,1-2.21-2.29L111.05,199.6a4,4,0,0,0-.82-.94,1.31,1.31,0,0,0-.76-.2,1,1,0,0,0-.61.24.79.79,0,0,0-.32.67v16.28h-6.36v-18.9a4.17,4.17,0,0,1,.31-1.35,6.46,6.46,0,0,1,1-1.77,5.67,5.67,0,0,1,1.87-1.56,5.75,5.75,0,0,1,2.81-.64,6.19,6.19,0,0,1,3.27.74,7.75,7.75,0,0,1,1.91,1.6l11,13.67a3.18,3.18,0,0,0,.88.95,1.61,1.61,0,0,0,.84.21c.38,0,.61-.12.7-.36a3,3,0,0,0,.13-1V191.93h6.46Z"/><path class="cls-1" d="M155.26,215.65h-6.72v-18H136.26v-5.72h19Zm20.81-18H163.79v18h-6.72V191.93h19Z"/><path class="cls-3" d="M208.78,212a4,4,0,0,1-.87,2.57,2.93,2.93,0,0,1-2.44,1.09H178v-5.84h22a2.27,2.27,0,0,0,1.22-.42,1.42,1.42,0,0,0,.64-1.28,1.59,1.59,0,0,0-.27-.88,1.77,1.77,0,0,0-.82-.66,2.76,2.76,0,0,0-1.19-.25H183a3.76,3.76,0,0,1-2.12-.61,4.71,4.71,0,0,1-1.44-1.4,2.66,2.66,0,0,1-.5-1.32v-7.71a3.4,3.4,0,0,1,1.1-2.19,3.65,3.65,0,0,1,2.83-1.2h24.64v5.63H187.15a1.2,1.2,0,0,0-1,.53,1.91,1.91,0,0,0-.38,1.11,1.8,1.8,0,0,0,.52,1.13,1.85,1.85,0,0,0,1.48.59h16.69a3.85,3.85,0,0,1,4.33,4.15Z"/><path class="cls-3" d="M243.3,208.46a6.43,6.43,0,0,1-1.1,3.63,8.61,8.61,0,0,1-2.68,2.63,5.57,5.57,0,0,1-2.79,1H218.51a6.86,6.86,0,0,1-4-1.18,8.15,8.15,0,0,1-2.68-2.93,7.19,7.19,0,0,1-.93-3.37V199.3a6.33,6.33,0,0,1,.64-2.79,8.22,8.22,0,0,1,1.67-2.36,8.62,8.62,0,0,1,2.28-1.63,5.51,5.51,0,0,1,2.36-.59h17.94a7.56,7.56,0,0,1,3,.79,8.24,8.24,0,0,1,3.15,2.59,7.38,7.38,0,0,1,1.37,4.6Zm-6.82-2.23v-4.88a3.57,3.57,0,0,0-1-2.61,4.39,4.39,0,0,0-3.29-1.08h-10.5a3.57,3.57,0,0,0-1.51.46,5.23,5.23,0,0,0-1.57,1.23,2.41,2.41,0,0,0-.67,1.62v4.65a4.65,4.65,0,0,0,.9,2.81,3.05,3.05,0,0,0,2.59,1.14h11.69a3.76,3.76,0,0,0,2.41-.77A3.06,3.06,0,0,0,236.48,206.23Z"/><path class="cls-3" d="M272,215.69H252.17a5.11,5.11,0,0,1-3.11-1.14,9.94,9.94,0,0,1-2.48-2.66,5,5,0,0,1-1-2.42V191.93h6.57v14.26a3.48,3.48,0,0,0,.65,2.09,4.37,4.37,0,0,0,1.54,1.35,3.33,3.33,0,0,0,1.46.46H272Z"/><path class="cls-3" d="M303.74,209.21a5.4,5.4,0,0,1-.94,2.75,9.54,9.54,0,0,1-2.35,2.63,4.64,4.64,0,0,1-2.82,1.1H280.92a6.48,6.48,0,0,1-3.75-1.18,8.5,8.5,0,0,1-2.72-3,7.22,7.22,0,0,1-1-3.49V191.93h6.71v14.36a3.08,3.08,0,0,0,.57,1.8,4.43,4.43,0,0,0,1.34,1.29,2.64,2.64,0,0,0,1.37.47h10.27a2.28,2.28,0,0,0,1.36-.55,4.92,4.92,0,0,0,1.2-1.33,2.61,2.61,0,0,0,.48-1.31V191.93h7Z"/><path class="cls-3" d="M323.62,215.65H316.9v-18H304.62v-5.72h19Zm20.82-18H332.15v18h-6.71V191.93h19Z"/><path class="cls-3" d="M353.22,215.65h-6.81V191.93h6.81Z"/><path class="cls-3" d="M387.94,208.46a6.43,6.43,0,0,1-1.1,3.63,8.5,8.5,0,0,1-2.68,2.63,5.57,5.57,0,0,1-2.78,1H363.15a6.86,6.86,0,0,1-4-1.18,8,8,0,0,1-2.67-2.93,7.09,7.09,0,0,1-.94-3.37V199.3a6.33,6.33,0,0,1,.64-2.79,8.06,8.06,0,0,1,1.68-2.36,8.42,8.42,0,0,1,2.27-1.63,5.51,5.51,0,0,1,2.36-.59h17.94a7.56,7.56,0,0,1,3,.79,8.21,8.21,0,0,1,3.14,2.59,7.38,7.38,0,0,1,1.37,4.6Zm-6.81-2.23v-4.88a3.61,3.61,0,0,0-1-2.61,4.42,4.42,0,0,0-3.29-1.08H366.29a3.61,3.61,0,0,0-1.51.46,5.35,5.35,0,0,0-1.57,1.23,2.41,2.41,0,0,0-.67,1.62v4.65a4.65,4.65,0,0,0,.9,2.81,3.05,3.05,0,0,0,2.59,1.14h11.69a3.81,3.81,0,0,0,2.42-.77A3.06,3.06,0,0,0,381.13,206.23Z"/><path class="cls-3" d="M421.27,210.5a6.35,6.35,0,0,1-.61,2.43,6.15,6.15,0,0,1-2,2.45,5.44,5.44,0,0,1-3.44,1.05,6.28,6.28,0,0,1-3.18-.62,8,8,0,0,1-2.21-2.29L399,199.6a4,4,0,0,0-.83-.94,1.29,1.29,0,0,0-.76-.2,1,1,0,0,0-.61.24.79.79,0,0,0-.31.67v16.28h-6.37v-18.9a4.45,4.45,0,0,1,.31-1.35,6.46,6.46,0,0,1,1-1.77,5.7,5.7,0,0,1,4.69-2.2,6.19,6.19,0,0,1,3.27.74,7.69,7.69,0,0,1,1.9,1.6l11,13.67a3.46,3.46,0,0,0,.88.95,1.64,1.64,0,0,0,.84.21c.38,0,.61-.12.7-.36a2.92,2.92,0,0,0,.14-1V191.93h6.46Z"/><path class="cls-3" d="M113,247.57a10.06,10.06,0,0,1-1.26,5.11,8.81,8.81,0,0,1-3.83,3.46,12.83,12.83,0,0,1-5.79,1.27H97.23V237.68h4.84q5.21,0,8.07,2.59A9.37,9.37,0,0,1,113,247.57Zm-1.48,0a8,8,0,0,0-2.47-6.31Q106.58,239,101.8,239H98.62v17.08h3a13,13,0,0,0,5.43-1,7.23,7.23,0,0,0,3.38-2.93A9,9,0,0,0,111.52,247.53Z"/><path class="cls-3" d="M118.77,240h-1.71v-2.07h1.71Zm-.17,17.41h-1.37V242.65h1.37Z"/><path class="cls-3" d="M124.05,250a7.18,7.18,0,0,0,1.49,4.8,5,5,0,0,0,4,1.77,9,9,0,0,0,2.85-.5,6.69,6.69,0,0,0,2.22-1.1h.11v1.54a11.57,11.57,0,0,1-4.88,1.24,6.81,6.81,0,0,1-5.24-2,7.92,7.92,0,0,1-1.86-5.62,9.76,9.76,0,0,1,.82-4.11,6.52,6.52,0,0,1,2.31-2.77,6.15,6.15,0,0,1,3.43-1,5.29,5.29,0,0,1,4.15,1.78,6.87,6.87,0,0,1,1.57,4.74V250Zm9.71-1.25a5.74,5.74,0,0,0-1.19-3.82,4.07,4.07,0,0,0-3.26-1.4,4.84,4.84,0,0,0-3.58,1.44,5.92,5.92,0,0,0-1.63,3.78Z"/><path class="cls-3" d="M162.46,237.68l-7.18,19.73h-1.82l-7.2-19.73h1.54L154.4,256,161,237.68Z"/><path class="cls-3" d="M164.89,250a7.18,7.18,0,0,0,1.49,4.8,5,5,0,0,0,4,1.77,9,9,0,0,0,2.85-.5,6.69,6.69,0,0,0,2.22-1.1h.11v1.54a11.57,11.57,0,0,1-4.88,1.24,6.81,6.81,0,0,1-5.24-2,7.92,7.92,0,0,1-1.86-5.62,9.76,9.76,0,0,1,.82-4.11,6.52,6.52,0,0,1,2.31-2.77,6.15,6.15,0,0,1,3.43-1A5.29,5.29,0,0,1,174.3,244a6.87,6.87,0,0,1,1.58,4.74V250Zm9.71-1.25a5.69,5.69,0,0,0-1.19-3.82,4.07,4.07,0,0,0-3.26-1.4,4.84,4.84,0,0,0-3.58,1.44,5.92,5.92,0,0,0-1.63,3.78Z"/><path class="cls-3" d="M187.94,244.41h0a9.38,9.38,0,0,0-2.14-.29,5.16,5.16,0,0,0-2.4.59,9.34,9.34,0,0,0-2.41,1.94v10.76H179.6V242.65H181v2.49a10.41,10.41,0,0,1,2.47-1.83,5.27,5.27,0,0,1,2.42-.72,6.31,6.31,0,0,1,2.1.32Z"/><path class="cls-3" d="M199.19,255.84a9.24,9.24,0,0,1-2.57,1.54,7.45,7.45,0,0,1-2.5.41,5.2,5.2,0,0,1-3.64-1.24,4.71,4.71,0,0,1-.3-6.29,6.57,6.57,0,0,1,3.3-1.68,26.73,26.73,0,0,1,5.7-.62v-.86a3.18,3.18,0,0,0-1.15-2.58,4.68,4.68,0,0,0-3.08-.94,10.42,10.42,0,0,0-4.44,1h-.08V243a11.34,11.34,0,0,1,2-.51,12.14,12.14,0,0,1,2.35-.23q5.82,0,5.82,5.16v10h-1.37Zm0-6.71a27,27,0,0,0-5.19.56,5.34,5.34,0,0,0-2.65,1.29,3.16,3.16,0,0,0-.83,2.29,3.25,3.25,0,0,0,.94,2.44,3.37,3.37,0,0,0,2.5.92,7.42,7.42,0,0,0,2.71-.48,8.93,8.93,0,0,0,2.52-1.63Z"/><path class="cls-3" d="M216.44,257.41H215.1V248q0-4.42-3.38-4.43a6.56,6.56,0,0,0-2.65.59,7.38,7.38,0,0,0-2.38,1.65v11.57h-1.35V242.65h1.35v1.84a8.63,8.63,0,0,1,2.38-1.6,6.2,6.2,0,0,1,2.56-.65,4.54,4.54,0,0,1,3.55,1.37,5.45,5.45,0,0,1,1.26,3.84Z"/><path class="cls-3" d="M230.63,253.37a3.89,3.89,0,0,1-1.47,3.19,6.31,6.31,0,0,1-4,1.19,9.73,9.73,0,0,1-2.3-.29,12.45,12.45,0,0,1-2.58-1v-1.56h.08a9.27,9.27,0,0,0,2.34,1.23,7.91,7.91,0,0,0,2.72.48,4.44,4.44,0,0,0,2.89-.82,2.83,2.83,0,0,0,1-2.31,2.29,2.29,0,0,0-.3-1.25,2.12,2.12,0,0,0-1-.78,15.72,15.72,0,0,0-2.75-.78c-.56-.12-1.14-.26-1.73-.42a5.92,5.92,0,0,1-1.61-.66,3.61,3.61,0,0,1-1.2-1.13,3.18,3.18,0,0,1-.48-1.82,4,4,0,0,1,.65-2.23,4.29,4.29,0,0,1,1.83-1.55,6.34,6.34,0,0,1,2.75-.55,9.83,9.83,0,0,1,2.48.34,9.56,9.56,0,0,1,2.14.8v1.61H230a8,8,0,0,0-2.23-1.07,8.43,8.43,0,0,0-2.54-.44,4.14,4.14,0,0,0-2.56.76,2.51,2.51,0,0,0-.09,4,8.35,8.35,0,0,0,3.21,1.1,8.46,8.46,0,0,1,3.77,1.39A3.17,3.17,0,0,1,230.63,253.37Z"/><path class="cls-3" d="M233.23,243.85v-1.2h1.65v-4.26h1.35v4.26h5.38v1.2h-5.38v8a10.92,10.92,0,0,0,.27,2.77,2.44,2.44,0,0,0,.88,1.42,3.14,3.14,0,0,0,1.78.43,7.52,7.52,0,0,0,2.5-.49h0v1.32c-.35.1-.81.19-1.36.29a8.68,8.68,0,0,1-1.28.14,3.82,3.82,0,0,1-3.16-1.26,5.85,5.85,0,0,1-1-3.77v-8.83Z"/><path class="cls-3" d="M253.64,255.84a9.24,9.24,0,0,1-2.57,1.54,7.41,7.41,0,0,1-2.5.41,5.21,5.21,0,0,1-3.64-1.24,4.71,4.71,0,0,1-.3-6.29,6.66,6.66,0,0,1,3.3-1.68,26.81,26.81,0,0,1,5.7-.62v-.86a3.15,3.15,0,0,0-1.15-2.58,4.68,4.68,0,0,0-3.08-.94,10.48,10.48,0,0,0-4.44,1h-.08V243a11.49,11.49,0,0,1,2-.51,12,12,0,0,1,2.34-.23q5.82,0,5.82,5.16v10h-1.37Zm0-6.71a27,27,0,0,0-5.19.56,5.34,5.34,0,0,0-2.64,1.29,3.11,3.11,0,0,0-.83,2.29,3.28,3.28,0,0,0,.93,2.44,3.38,3.38,0,0,0,2.5.92,7.38,7.38,0,0,0,2.71-.48,8.66,8.66,0,0,0,2.52-1.63Z"/><path class="cls-3" d="M261.45,257.41H260.1V236.79h1.35Z"/><path class="cls-3" d="M265.23,243.85v-1.2h1.64v-4.26h1.36v4.26h5.38v1.2h-5.38v8a10.92,10.92,0,0,0,.27,2.77,2.44,2.44,0,0,0,.88,1.42,3.1,3.1,0,0,0,1.77.43,7.57,7.57,0,0,0,2.51-.49h0v1.32c-.35.1-.81.19-1.36.29a8.68,8.68,0,0,1-1.28.14,3.84,3.84,0,0,1-3.17-1.26,5.91,5.91,0,0,1-1-3.77v-8.83Z"/><path class="cls-3" d="M287.5,257.41h-1.35v-2a6.88,6.88,0,0,1-4.92,2.38,4.64,4.64,0,0,1-3.56-1.35,5.46,5.46,0,0,1-1.27-3.86v-10h1.34V252a5.54,5.54,0,0,0,.83,3.32,3,3,0,0,0,2.58,1.12,6.58,6.58,0,0,0,2.8-.71,5.85,5.85,0,0,0,2.2-1.65V242.65h1.35Z"/><path class="cls-3" d="M303.39,257.41h-1.34V248c0-2.95-1.12-4.43-3.38-4.43a6.63,6.63,0,0,0-2.65.59,7.45,7.45,0,0,0-2.37,1.65v11.57H292.3V242.65h1.35v1.84a8.57,8.57,0,0,1,2.37-1.6,6.24,6.24,0,0,1,2.56-.65,4.56,4.56,0,0,1,3.56,1.37,5.5,5.5,0,0,1,1.25,3.84Z"/><path class="cls-3" d="M318.93,255.48q0,3.89-1.53,5.71a5.78,5.78,0,0,1-4.7,1.83,11.73,11.73,0,0,1-1.77-.14,18,18,0,0,1-2.17-.56v-1.45h.16a6.65,6.65,0,0,0,1.82.59,12.17,12.17,0,0,0,2.59.26,4.19,4.19,0,0,0,2.25-.59,3.85,3.85,0,0,0,1.48-1.79,7,7,0,0,0,.53-2.81V255a8.46,8.46,0,0,1-2.51,1.71,6.78,6.78,0,0,1-2.49.44,4.68,4.68,0,0,1-3.95-1.91,8.54,8.54,0,0,1-1.43-5.22A10.06,10.06,0,0,1,308,246a6.33,6.33,0,0,1,2.23-2.77,5.49,5.49,0,0,1,3.21-1,7.81,7.81,0,0,1,2,.22,10.41,10.41,0,0,1,2.2.91l.16-.66h1.17Zm-1.34-10.7a7.47,7.47,0,0,0-2-1,7.62,7.62,0,0,0-2.28-.31,4.09,4.09,0,0,0-3.46,1.73,7.59,7.59,0,0,0-1.3,4.69,7.92,7.92,0,0,0,1.05,4.47,3.52,3.52,0,0,0,3.1,1.53,5.8,5.8,0,0,0,2.54-.56,9,9,0,0,0,2.31-1.63Z"/><path class="cls-3" d="M327.66,257.41h-2.13v-2.85h2.13Z"/><path class="cls-3" d="M423.19,197a4.57,4.57,0,0,1,.64-2.36,4.74,4.74,0,0,1,6.49-1.74,4.78,4.78,0,0,1,1.74,1.72,4.62,4.62,0,0,1,.64,2.38,4.68,4.68,0,0,1-.64,2.39,4.89,4.89,0,0,1-1.75,1.75,4.68,4.68,0,0,1-2.37.64,4.59,4.59,0,0,1-2.37-.65,4.8,4.8,0,0,1-2.38-4.13Zm.84,0a3.85,3.85,0,0,0,.54,2,3.71,3.71,0,0,0,1.43,1.43,3.91,3.91,0,0,0,5.34-1.43,3.94,3.94,0,0,0,.53-2,4,4,0,0,0-.52-2,3.92,3.92,0,0,0-1.43-1.43,4,4,0,0,0-3.93,0,3.78,3.78,0,0,0-1.43,1.43A3.93,3.93,0,0,0,424,197.06Zm6.36,2.35h-1.11l-1.53-1.89h-.67v1.89h-.89v-4.9h1.61a2.14,2.14,0,0,1,1.32.35,1.19,1.19,0,0,1,.47,1,1.45,1.45,0,0,1-.27.89,1.61,1.61,0,0,1-.73.52Zm-1.76-3.49a.57.57,0,0,0-.3-.52,1.6,1.6,0,0,0-.79-.17h-.46v1.56h.45a1.3,1.3,0,0,0,.82-.21A.85.85,0,0,0,428.63,195.92Z"/></g></g></svg>