<?xml version="1.0" encoding="UTF-8" standalone="no"?><!DOCTYPE svg PUBLIC "-//W3C//DTD SVG 1.1//EN" "http://www.w3.org/Graphics/SVG/1.1/DTD/svg11.dtd"><svg width="100%" height="100%" viewBox="0 0 433 264" version="1.1" xmlns="http://www.w3.org/2000/svg" xmlns:xlink="http://www.w3.org/1999/xlink" xml:space="preserve" xmlns:serif="http://www.serif.com/" style="fill-rule:evenodd;clip-rule:evenodd;stroke-linejoin:round;stroke-miterlimit:1.41421;"><g id="installsolution"><rect x="0" y="0" width="432.988" height="168.885" style="fill:#fff;"/><rect x="0" y="0" width="432.559" height="170.658" style="fill:#b20f24;"/><path d="M158.458,149.325l96.647,0c6.361,0 11.565,-5.133 11.565,-11.407l0,-23.507c0,-6.274 -5.204,-11.407 -11.565,-11.407l-56.694,0c-3.319,0 -6.006,-2.791 -6.006,-6.033c0,-3.258 2.702,-5.924 6.006,-5.924l64.109,0l0,-17.128l-80.611,0c-6.362,0 -11.566,5.133 -11.566,11.407l0,23.507c0,6.275 5.204,11.408 11.566,11.408l56.694,0c3.303,0 6.005,2.666 6.005,5.923c0,3.259 -2.702,5.924 -6.005,5.924l-70.209,0c-6.607,0 -12.012,-5.331 -12.012,-11.847l0,-46.322l-120.348,0c-6.361,0 -11.565,5.133 -11.565,11.407l0,23.507c0,6.275 5.204,11.408 11.565,11.408l56.694,0c3.303,0 6.006,2.666 6.006,5.923c0,3.259 -2.703,5.924 -6.006,5.924l-71.1,0l0,17.237l87.602,0c6.362,0 11.566,-5.133 11.566,-11.407l0,-23.507c0,-6.274 -5.204,-11.407 -11.566,-11.407l-56.694,0c-3.319,0 -6.006,-2.791 -6.006,-6.033c0,-3.258 2.703,-5.924 6.006,-5.924l82.221,0l0,34.902c0,12.856 10.665,23.376 23.701,23.376" style="fill:#fff;"/><rect x="0.512" y="192.736" width="6.521" height="27.915" style="fill:#b20f24;"/><path d="M39.438,214.59c0,0.806 -0.197,1.758 -0.589,2.856c-0.394,1.099 -1.031,2.06 -1.916,2.884c-0.882,0.827 -2.001,1.239 -3.359,1.239c-1.399,0 -2.436,-0.244 -3.11,-0.732c-0.674,-0.487 -1.393,-1.386 -2.159,-2.7l-10.658,-16.375c-0.337,-0.572 -0.604,-0.938 -0.803,-1.102c-0.199,-0.16 -0.448,-0.244 -0.743,-0.244c-0.194,0 -0.393,0.097 -0.598,0.283c-0.203,0.19 -0.305,0.452 -0.305,0.79l0,19.163l-6.218,0l0,-22.243c0,-0.391 0.1,-0.918 0.3,-1.589c0.197,-0.668 0.527,-1.364 0.986,-2.086c0.459,-0.722 1.07,-1.332 1.831,-1.832c0.76,-0.499 1.676,-0.751 2.747,-0.751c1.359,0 2.423,0.29 3.193,0.868c0.771,0.579 1.392,1.206 1.861,1.88l10.735,16.084c0.337,0.585 0.623,0.959 0.857,1.121c0.235,0.164 0.511,0.243 0.827,0.243c0.368,0 0.596,-0.138 0.681,-0.419c0.087,-0.279 0.13,-0.673 0.13,-1.178l0,-18.015l6.31,0l0,21.855Z" style="fill:#b20f24;fill-rule:nonzero;"/><path d="M70.798,216.383c0,1.169 -0.278,2.181 -0.831,3.031c-0.555,0.853 -1.333,1.277 -2.336,1.277l-26.259,0l0,-6.863l21.054,0c0.369,0 0.759,-0.164 1.17,-0.497c0.411,-0.33 0.616,-0.833 0.616,-1.511c0,-0.362 -0.087,-0.707 -0.259,-1.031c-0.176,-0.325 -0.436,-0.585 -0.784,-0.781c-0.348,-0.194 -0.729,-0.292 -1.138,-0.292l-15.93,0c-0.759,0 -1.436,-0.236 -2.032,-0.712c-0.596,-0.474 -1.055,-1.026 -1.376,-1.657c-0.321,-0.629 -0.482,-1.147 -0.482,-1.549l0,-9.067c0,-0.779 0.351,-1.638 1.052,-2.582c0.703,-0.941 1.606,-1.413 2.715,-1.413l23.582,0l0,6.627l-19.468,0c-0.4,0 -0.721,0.21 -0.965,0.625c-0.241,0.417 -0.364,0.852 -0.364,1.305c0,0.418 0.167,0.858 0.499,1.327c0.334,0.467 0.805,0.701 1.418,0.701l15.97,0c1.414,0 2.459,0.448 3.135,1.346c0.674,0.896 1.013,2.073 1.013,3.528l0,8.188Z" style="fill:#b20f24;fill-rule:nonzero;"/><path d="M110.216,199.481l-11.761,0l0,21.21l-6.425,0l0,-27.955l18.186,0l0,6.745Zm-19.927,21.171l-6.427,0l0,-21.23l-11.761,0l0,-6.725l18.188,0l0,27.955Z" style="fill:#b20f24;fill-rule:nonzero;"/><path d="M134.22,211.997c0,-0.351 -0.106,-0.673 -0.318,-0.966c-0.21,-0.292 -0.472,-0.525 -0.783,-0.702c-0.312,-0.174 -0.562,-0.262 -0.752,-0.262l-12.868,0c-0.593,0 -1.003,0.247 -1.235,0.74c-0.233,0.495 -0.348,0.877 -0.348,1.15c0,0.573 0.15,1.034 0.451,1.385c0.3,0.35 0.605,0.527 0.909,0.527l13.454,0c0.296,0 0.618,-0.191 0.967,-0.577c0.348,-0.382 0.523,-0.814 0.523,-1.295m8.102,8.694l-6.806,0l0,-1.949c-0.178,0.481 -0.537,0.926 -1.075,1.336c-0.539,0.409 -1.025,0.613 -1.458,0.613l-18.439,0c-0.496,0 -0.996,-0.158 -1.495,-0.477c-0.503,-0.318 -0.911,-0.763 -1.228,-1.335c-0.316,-0.572 -0.479,-1.216 -0.49,-1.931c-0.01,-1.376 -0.024,-3.12 -0.039,-5.224c-0.017,-2.105 -0.024,-3.217 -0.024,-3.333c0,-1.572 0.34,-2.81 1.019,-3.715c0.681,-0.902 1.476,-1.354 2.383,-1.354l17.444,0c0.802,0 1.503,0.252 2.106,0.76c0.6,0.507 1.033,1.014 1.296,1.52l0,-2.546c0,-0.53 -0.129,-1.07 -0.388,-1.622c-0.259,-0.549 -0.624,-1.006 -1.1,-1.37c-0.474,-0.362 -1.027,-0.544 -1.661,-0.544l-20.878,0l0,-6.784l23.537,0c0.993,0 1.93,0.3 2.817,0.896c0.886,0.599 1.668,1.375 2.344,2.329c0.674,0.957 1.2,1.948 1.575,2.974c0.373,1.027 0.56,1.945 0.56,2.749l0,19.007Z" style="fill:#b20f24;fill-rule:nonzero;"/><path d="M169.896,220.691l-18.641,0c-1.002,0 -1.976,-0.445 -2.922,-1.335c-0.945,-0.889 -1.722,-1.932 -2.332,-3.13c-0.609,-1.194 -0.915,-2.144 -0.915,-2.845l0,-20.646l6.169,0l0,16.786c0,0.936 0.204,1.754 0.613,2.455c0.409,0.703 0.89,1.233 1.445,1.591c0.552,0.358 1.012,0.535 1.374,0.535l15.209,0l0,6.589Z" style="fill:#b20f24;fill-rule:nonzero;"/><path d="M196.278,220.691l-18.642,0c-1.002,0 -1.976,-0.445 -2.921,-1.335c-0.946,-0.889 -1.723,-1.932 -2.332,-3.13c-0.61,-1.194 -0.915,-2.144 -0.915,-2.845l0,-20.646l6.168,0l0,16.786c0,0.936 0.204,1.754 0.613,2.455c0.41,0.703 0.89,1.233 1.444,1.591c0.554,0.358 1.013,0.535 1.376,0.535l15.209,0l0,6.589Z" style="fill:#b20f24;fill-rule:nonzero;"/><path d="M227.326,216.383c0,1.169 -0.277,2.181 -0.831,3.031c-0.554,0.853 -1.332,1.277 -2.335,1.277l-26.26,0l0,-6.863l21.054,0c0.37,0 0.76,-0.164 1.171,-0.497c0.411,-0.33 0.616,-0.833 0.616,-1.511c0,-0.362 -0.087,-0.707 -0.26,-1.031c-0.176,-0.325 -0.436,-0.585 -0.784,-0.781c-0.348,-0.194 -0.728,-0.292 -1.138,-0.292l-15.929,0c-0.759,0 -1.437,-0.236 -2.032,-0.712c-0.596,-0.474 -1.055,-1.026 -1.377,-1.657c-0.32,-0.629 -0.482,-1.147 -0.482,-1.549l0,-9.067c0,-0.779 0.351,-1.638 1.052,-2.582c0.703,-0.941 1.607,-1.413 2.715,-1.413l23.583,0l0,6.627l-19.468,0c-0.4,0 -0.721,0.21 -0.965,0.625c-0.241,0.417 -0.364,0.852 -0.364,1.305c0,0.418 0.167,0.858 0.499,1.327c0.333,0.467 0.805,0.701 1.418,0.701l15.97,0c1.414,0 2.459,0.448 3.134,1.346c0.675,0.896 1.013,2.073 1.013,3.528l0,8.188Z" style="fill:#797878;fill-rule:nonzero;"/><path d="M253.845,209.566l0,-5.744c0,-1.207 -0.331,-2.233 -0.998,-3.075c-0.665,-0.843 -1.715,-1.266 -3.149,-1.266l-10.052,0c-0.391,0 -0.873,0.184 -1.448,0.545c-0.575,0.363 -1.076,0.845 -1.504,1.442c-0.427,0.596 -0.64,1.231 -0.64,1.907l0,5.471c0.021,1.311 0.308,2.414 0.861,3.308c0.556,0.898 1.381,1.343 2.479,1.343l11.19,0c0.908,0 1.678,-0.299 2.312,-0.904c0.632,-0.604 0.949,-1.612 0.949,-3.027m6.521,2.625c0,1.549 -0.351,2.971 -1.052,4.27c-0.701,1.3 -1.558,2.329 -2.566,3.09c-1.007,0.76 -1.895,1.139 -2.666,1.139l-17.442,0c-1.437,0 -2.708,-0.459 -3.816,-1.383c-1.108,-0.922 -1.96,-2.072 -2.557,-3.45c-0.595,-1.378 -0.894,-2.697 -0.894,-3.959l0,-10.487c0,-1.142 0.204,-2.238 0.61,-3.285c0.407,-1.045 0.941,-1.97 1.607,-2.778c0.665,-0.804 1.39,-1.442 2.176,-1.911c0.787,-0.467 1.537,-0.701 2.256,-0.701l17.174,0c0.77,0 1.72,0.311 2.849,0.935c1.129,0.624 2.132,1.638 3.007,3.041c0.876,1.403 1.314,3.211 1.314,5.42l0,10.059Z" style="fill:#797878;fill-rule:nonzero;"/><path d="M287.618,220.691l-18.642,0c-1.002,0 -1.975,-0.445 -2.92,-1.335c-0.947,-0.889 -1.723,-1.932 -2.333,-3.13c-0.609,-1.194 -0.915,-2.144 -0.915,-2.845l0,-20.646l6.168,0l0,16.786c0,0.936 0.204,1.754 0.613,2.455c0.41,0.703 0.891,1.233 1.445,1.591c0.553,0.358 1.013,0.535 1.376,0.535l15.208,0l0,6.589Z" style="fill:#797878;fill-rule:nonzero;"/><path d="M318.217,213.068c0,0.951 -0.298,2.027 -0.894,3.237c-0.596,1.208 -1.347,2.242 -2.255,3.099c-0.908,0.859 -1.806,1.287 -2.691,1.287l-16.004,0c-1.286,0 -2.482,-0.461 -3.584,-1.384c-1.103,-0.922 -1.971,-2.088 -2.604,-3.499c-0.634,-1.409 -0.95,-2.778 -0.95,-4.104l0,-18.968l6.427,0l0,16.902c0,0.769 0.182,1.472 0.546,2.115c0.365,0.644 0.792,1.149 1.282,1.521c0.491,0.37 0.926,0.554 1.305,0.554l9.831,0c0.41,0 0.846,-0.216 1.305,-0.652c0.459,-0.435 0.841,-0.956 1.147,-1.56c0.307,-0.605 0.461,-1.12 0.461,-1.551l0,-17.329l6.678,0l0,20.332Z" style="fill:#797878;fill-rule:nonzero;"/><path d="M358.201,199.481l-11.762,0l0,21.21l-6.424,0l0,-27.955l18.186,0l0,6.745Zm-19.928,21.171l-6.425,0l0,-21.23l-11.762,0l0,-6.725l18.187,0l0,27.955Z" style="fill:#797878;fill-rule:nonzero;"/><rect x="360.091" y="192.736" width="6.521" height="27.915" style="fill:#797878;"/><path d="M393.319,209.566l0,-5.744c0,-1.207 -0.332,-2.233 -0.998,-3.075c-0.665,-0.843 -1.715,-1.266 -3.15,-1.266l-10.051,0c-0.391,0 -0.873,0.184 -1.448,0.545c-0.575,0.363 -1.078,0.845 -1.505,1.442c-0.427,0.596 -0.639,1.231 -0.639,1.907l0,5.471c0.02,1.311 0.308,2.414 0.86,3.308c0.556,0.898 1.381,1.343 2.479,1.343l11.19,0c0.908,0 1.678,-0.299 2.312,-0.904c0.632,-0.604 0.95,-1.612 0.95,-3.027m6.52,2.625c0,1.549 -0.351,2.971 -1.052,4.27c-0.701,1.3 -1.557,2.329 -2.565,3.09c-1.007,0.76 -1.897,1.139 -2.667,1.139l-17.442,0c-1.437,0 -2.708,-0.459 -3.816,-1.383c-1.108,-0.922 -1.96,-2.072 -2.556,-3.45c-0.597,-1.378 -0.895,-2.697 -0.895,-3.959l0,-10.487c0,-1.142 0.204,-2.238 0.61,-3.285c0.408,-1.045 0.942,-1.97 1.607,-2.778c0.665,-0.804 1.391,-1.442 2.177,-1.911c0.786,-0.467 1.537,-0.701 2.255,-0.701l17.175,0c0.769,0 1.719,0.311 2.849,0.935c1.128,0.624 2.131,1.638 3.006,3.041c0.876,1.403 1.314,3.211 1.314,5.42l0,10.059Z" style="fill:#797878;fill-rule:nonzero;"/><path d="M431.979,214.59c0,0.806 -0.198,1.758 -0.589,2.856c-0.394,1.099 -1.031,2.06 -1.916,2.884c-0.882,0.827 -2.002,1.239 -3.36,1.239c-1.399,0 -2.435,-0.244 -3.11,-0.732c-0.672,-0.487 -1.392,-1.386 -2.158,-2.7l-10.658,-16.375c-0.338,-0.572 -0.605,-0.938 -0.803,-1.102c-0.2,-0.16 -0.449,-0.244 -0.743,-0.244c-0.195,0 -0.393,0.097 -0.598,0.283c-0.204,0.19 -0.306,0.452 -0.306,0.79l0,19.163l-6.218,0l0,-22.243c0,-0.391 0.101,-0.918 0.3,-1.589c0.198,-0.668 0.527,-1.364 0.987,-2.086c0.458,-0.722 1.07,-1.332 1.83,-1.832c0.761,-0.499 1.677,-0.751 2.748,-0.751c1.359,0 2.422,0.29 3.193,0.868c0.771,0.579 1.392,1.206 1.86,1.88l10.735,16.084c0.338,0.585 0.623,0.959 0.858,1.121c0.235,0.164 0.51,0.243 0.827,0.243c0.368,0 0.595,-0.138 0.681,-0.419c0.087,-0.279 0.13,-0.673 0.13,-1.178l0,-18.015l6.31,0l0,21.855Z" style="fill:#797878;fill-rule:nonzero;"/><path d="M128.213,248.459c0,-2.76 -0.828,-4.868 -2.481,-6.327c-1.655,-1.459 -4.079,-2.189 -7.272,-2.189l-3.193,0l0,17.138l2.967,0c2.119,0 3.935,-0.342 5.448,-1.025c1.512,-0.684 2.645,-1.664 3.4,-2.947c0.754,-1.283 1.131,-2.833 1.131,-4.65m1.49,0.04c0,1.96 -0.424,3.672 -1.271,5.136c-0.848,1.463 -2.128,2.621 -3.845,3.472c-1.716,0.852 -3.652,1.278 -5.808,1.278l-4.909,0l0,-19.813l4.856,0c3.486,0 6.187,0.87 8.103,2.609c1.916,1.738 2.874,4.177 2.874,7.318" style="fill:#797878;fill-rule:nonzero;"/><path d="M135.318,258.384l-1.371,0l0,-14.822l1.371,0l0,14.822Zm0.173,-17.483l-1.716,0l0,-2.076l1.716,0l0,2.076Z" style="fill:#797878;fill-rule:nonzero;"/><path d="M150.539,249.67c0,-1.615 -0.399,-2.893 -1.198,-3.832c-0.798,-0.94 -1.889,-1.411 -3.273,-1.411c-1.437,0 -2.634,0.484 -3.592,1.45c-0.958,0.967 -1.504,2.231 -1.637,3.793l9.7,0Zm-9.753,1.25c0,2.031 0.499,3.64 1.497,4.823c0.998,1.185 2.339,1.777 4.025,1.777c0.886,0 1.843,-0.168 2.867,-0.506c1.025,-0.337 1.766,-0.705 2.229,-1.104l0.106,0l0,1.543c-1.774,0.833 -3.406,1.251 -4.896,1.251c-2.262,0 -4.017,-0.667 -5.263,-2.003c-1.247,-1.335 -1.869,-3.213 -1.869,-5.635c0,-1.551 0.274,-2.926 0.825,-4.125c0.549,-1.197 1.324,-2.123 2.322,-2.78c0.998,-0.657 2.144,-0.984 3.439,-0.984c1.72,0 3.109,0.594 4.165,1.782c1.055,1.19 1.583,2.776 1.583,4.764l0,1.197l-11.03,0Z" style="fill:#797878;fill-rule:nonzero;"/><path d="M171.403,258.384l-6.653,0l0,-1.277l2.621,0l0,-17.258l-2.621,0l0,-1.277l6.653,0l0,1.277l-2.622,0l0,17.258l2.622,0l0,1.277Z" style="fill:#797878;fill-rule:nonzero;"/><path d="M186.85,258.384l-1.344,0l0,-9.421c0,-2.962 -1.131,-4.443 -3.393,-4.443c-0.878,0 -1.766,0.197 -2.661,0.592c-0.896,0.394 -1.69,0.946 -2.382,1.656l0,11.616l-1.357,0l0,-14.822l1.357,0l0,1.849c0.647,-0.631 1.441,-1.165 2.382,-1.603c0.94,-0.44 1.796,-0.659 2.568,-0.659c1.543,0 2.734,0.459 3.572,1.377c0.839,0.919 1.258,2.202 1.258,3.852l0,10.006Z" style="fill:#797878;fill-rule:nonzero;"/><path d="M201.1,254.326c0,1.339 -0.496,2.407 -1.483,3.2c-0.99,0.793 -2.341,1.191 -4.052,1.191c-0.755,0 -1.524,-0.096 -2.309,-0.287c-0.784,-0.19 -1.648,-0.52 -2.588,-0.991l0,-1.569l0.08,0c0.682,0.505 1.466,0.918 2.349,1.237c0.881,0.32 1.793,0.479 2.734,0.479c1.259,0 2.226,-0.275 2.901,-0.824c0.673,-0.551 1.011,-1.323 1.011,-2.316c0,-0.524 -0.1,-0.943 -0.3,-1.258c-0.199,-0.314 -0.522,-0.577 -0.964,-0.785c-0.444,-0.207 -1.367,-0.467 -2.768,-0.778c-0.559,-0.124 -1.136,-0.264 -1.73,-0.419c-0.595,-0.154 -1.135,-0.377 -1.623,-0.665c-0.489,-0.288 -0.889,-0.667 -1.204,-1.138c-0.316,-0.471 -0.472,-1.078 -0.472,-1.823c0,-0.824 0.216,-1.571 0.652,-2.241c0.434,-0.671 1.044,-1.19 1.829,-1.557c0.785,-0.368 1.705,-0.553 2.761,-0.553c0.78,0 1.612,0.116 2.495,0.346c0.881,0.231 1.598,0.498 2.149,0.799l0,1.623l-0.133,0c-0.585,-0.426 -1.334,-0.785 -2.242,-1.078c-0.91,-0.292 -1.76,-0.439 -2.548,-0.439c-1.03,0 -1.886,0.253 -2.568,0.758c-0.684,0.506 -1.025,1.158 -1.025,1.956c0,0.913 0.31,1.592 0.932,2.036c0.62,0.445 1.693,0.812 3.22,1.105c1.783,0.319 3.043,0.783 3.785,1.39c0.74,0.607 1.111,1.475 1.111,2.601" style="fill:#797878;fill-rule:nonzero;"/><path d="M203.708,244.773l0,-1.211l1.65,0l0,-4.271l1.357,0l0,4.271l5.402,0l0,1.211l-5.402,0l0,8.01c0,1.197 0.09,2.124 0.273,2.78c0.181,0.657 0.475,1.13 0.885,1.417c0.407,0.288 1.001,0.433 1.783,0.433c0.771,0 1.61,-0.164 2.514,-0.493l0.04,0l0,1.332c-0.356,0.097 -0.81,0.192 -1.364,0.285c-0.555,0.093 -0.983,0.14 -1.284,0.14c-1.437,0 -2.498,-0.421 -3.18,-1.264c-0.683,-0.843 -1.024,-2.103 -1.024,-3.779l0,-8.861l-1.65,0Z" style="fill:#797878;fill-rule:nonzero;"/><path d="M224.199,250.068c-2.262,0.08 -4.002,0.267 -5.216,0.56c-1.216,0.292 -2.1,0.724 -2.655,1.296c-0.555,0.573 -0.831,1.337 -0.831,2.295c0,1.02 0.313,1.838 0.938,2.455c0.625,0.618 1.46,0.925 2.508,0.925c0.993,0 1.9,-0.161 2.721,-0.485c0.82,-0.324 1.665,-0.867 2.535,-1.63l0,-5.416Zm0,6.732c-0.958,0.764 -1.82,1.28 -2.582,1.551c-0.763,0.27 -1.601,0.405 -2.514,0.405c-1.527,0 -2.744,-0.414 -3.653,-1.244c-0.909,-0.829 -1.363,-1.917 -1.363,-3.266c0,-1.278 0.354,-2.293 1.064,-3.047c0.709,-0.753 1.813,-1.316 3.313,-1.683c1.499,-0.368 3.406,-0.574 5.721,-0.619l0,-0.864c0,-1.092 -0.384,-1.955 -1.151,-2.588c-0.768,-0.634 -1.799,-0.952 -3.093,-0.952c-1.543,0 -3.03,0.333 -4.457,0.998l-0.08,0l0,-1.583c0.496,-0.194 1.152,-0.367 1.969,-0.519c0.815,-0.151 1.6,-0.226 2.355,-0.226c3.894,0 5.841,1.724 5.841,5.176l0,10.045l-1.37,0l0,-1.584Z" style="fill:#797878;fill-rule:nonzero;"/><rect x="230.679" y="237.68" width="1.357" height="20.704" style="fill:#797878;"/><rect x="237.465" y="237.68" width="1.357" height="20.704" style="fill:#797878;"/><path d="M252.939,250.068c-2.262,0.08 -4.001,0.267 -5.216,0.56c-1.216,0.292 -2.1,0.724 -2.654,1.296c-0.556,0.573 -0.832,1.337 -0.832,2.295c0,1.02 0.313,1.838 0.938,2.455c0.626,0.618 1.46,0.925 2.508,0.925c0.993,0 1.9,-0.161 2.721,-0.485c0.82,-0.324 1.665,-0.867 2.535,-1.63l0,-5.416Zm0,6.732c-0.958,0.764 -1.819,1.28 -2.581,1.551c-0.764,0.27 -1.602,0.405 -2.515,0.405c-1.527,0 -2.744,-0.414 -3.653,-1.244c-0.909,-0.829 -1.363,-1.917 -1.363,-3.266c0,-1.278 0.354,-2.293 1.064,-3.047c0.709,-0.753 1.813,-1.316 3.313,-1.683c1.499,-0.368 3.406,-0.574 5.722,-0.619l0,-0.864c0,-1.092 -0.383,-1.955 -1.151,-2.588c-0.769,-0.634 -1.8,-0.952 -3.094,-0.952c-1.543,0 -3.03,0.333 -4.457,0.998l-0.08,0l0,-1.583c0.496,-0.194 1.152,-0.367 1.969,-0.519c0.815,-0.151 1.6,-0.226 2.355,-0.226c3.895,0 5.842,1.724 5.842,5.176l0,10.045l-1.371,0l0,-1.584Z" style="fill:#797878;fill-rule:nonzero;"/><path d="M257.782,244.773l0,-1.211l1.65,0l0,-4.271l1.357,0l0,4.271l5.402,0l0,1.211l-5.402,0l0,8.01c0,1.197 0.09,2.124 0.273,2.78c0.179,0.657 0.475,1.13 0.885,1.417c0.405,0.288 1.001,0.433 1.783,0.433c0.771,0 1.61,-0.164 2.514,-0.493l0.04,0l0,1.332c-0.356,0.097 -0.812,0.192 -1.364,0.285c-0.555,0.093 -0.984,0.14 -1.284,0.14c-1.437,0 -2.498,-0.421 -3.18,-1.264c-0.685,-0.843 -1.024,-2.103 -1.024,-3.779l0,-8.861l-1.65,0Z" style="fill:#797878;fill-rule:nonzero;"/><path d="M270.702,258.384l-1.37,0l0,-14.822l1.37,0l0,14.822Zm0.173,-17.483l-1.717,0l0,-2.076l1.717,0l0,2.076Z" style="fill:#797878;fill-rule:nonzero;"/><path d="M276.25,250.973c0,1.375 0.196,2.556 0.592,3.546c0.392,0.989 0.951,1.743 1.677,2.262c0.721,0.518 1.569,0.778 2.547,0.778c0.958,0 1.8,-0.258 2.528,-0.772c0.726,-0.513 1.291,-1.264 1.69,-2.249c0.4,-0.984 0.599,-2.173 0.599,-3.565c0,-1.366 -0.196,-2.543 -0.586,-3.533c-0.392,-0.989 -0.951,-1.743 -1.683,-2.262c-0.731,-0.518 -1.583,-0.778 -2.548,-0.778c-0.958,0 -1.802,0.258 -2.534,0.771c-0.732,0.515 -1.298,1.265 -1.69,2.249c-0.396,0.985 -0.592,2.169 -0.592,3.553m11.017,0c0,1.562 -0.26,2.936 -0.772,4.124c-0.516,1.189 -1.244,2.098 -2.182,2.729c-0.941,0.627 -2.022,0.944 -3.247,0.944c-1.889,0 -3.396,-0.712 -4.517,-2.136c-1.124,-1.424 -1.683,-3.311 -1.683,-5.661c0,-1.562 0.256,-2.936 0.772,-4.125c0.512,-1.189 1.24,-2.098 2.182,-2.728c0.938,-0.63 2.022,-0.944 3.246,-0.944c1.89,0 3.393,0.712 4.517,2.135c1.122,1.424 1.684,3.311 1.684,5.662" style="fill:#797878;fill-rule:nonzero;"/><path d="M302.249,258.384l-1.344,0l0,-9.421c0,-2.962 -1.131,-4.443 -3.393,-4.443c-0.878,0 -1.766,0.197 -2.661,0.592c-0.898,0.394 -1.69,0.946 -2.382,1.656l0,11.616l-1.357,0l0,-14.822l1.357,0l0,1.849c0.646,-0.631 1.441,-1.165 2.382,-1.603c0.938,-0.44 1.796,-0.659 2.568,-0.659c1.543,0 2.734,0.459 3.573,1.377c0.838,0.919 1.257,2.202 1.257,3.852l0,10.006Z" style="fill:#797878;fill-rule:nonzero;"/><rect x="308.875" y="255.523" width="2.142" height="2.861" style="fill:#797878;"/></g></svg>