<svg xmlns="http://www.w3.org/2000/svg" viewBox="0 0 432.78 258.77"><defs><style>.cls-1{fill:#b20f24;}.cls-2{fill:#fff;fill-rule:evenodd;}.cls-3{fill:#797978;}</style></defs><title>install</title><g id="Ebene_2" data-name="Ebene 2"><g id="Ebene_1-2" data-name="Ebene 1"><rect class="cls-1" width="432.56" height="170.66"/><path class="cls-2" d="M158.46,149.33H255.1a11.52,11.52,0,0,0,11.57-11.41V114.41A11.52,11.52,0,0,0,255.1,103H198.41a6.08,6.08,0,0,1-6-6,6,6,0,0,1,6-5.92h64.11V73.92H181.91a11.52,11.52,0,0,0-11.57,11.41v23.5a11.52,11.52,0,0,0,11.57,11.41H238.6a5.93,5.93,0,1,1,0,11.85H168.39a12,12,0,0,1-12-11.85V73.92H36A11.52,11.52,0,0,0,24.47,85.33v23.5A11.52,11.52,0,0,0,36,120.24h56.7a5.93,5.93,0,1,1,0,11.85H21.63v17.24h87.6a11.53,11.53,0,0,0,11.57-11.41V114.41A11.53,11.53,0,0,0,109.23,103H52.54a6.08,6.08,0,0,1-6-6,6,6,0,0,1,6-5.92h82.22V126A23.61,23.61,0,0,0,158.46,149.33Z"/><path class="cls-1" d="M6.88,216.47H.51V192.65H6.88Z"/><path class="cls-1" d="M38.55,211.29a6.52,6.52,0,0,1-.58,2.44,6,6,0,0,1-1.87,2.46,5,5,0,0,1-3.28,1.06,5.88,5.88,0,0,1-3-.62,8,8,0,0,1-2.11-2.31l-10.41-14a3.84,3.84,0,0,0-.79-.94,1.2,1.2,0,0,0-.72-.21,1,1,0,0,0-.59.24.84.84,0,0,0-.3.68v16.35H8.79v-19a4.41,4.41,0,0,1,.29-1.36,6.66,6.66,0,0,1,1-1.78,5.82,5.82,0,0,1,1.79-1.56,5.41,5.41,0,0,1,2.69-.64,5.69,5.69,0,0,1,3.12.74,7.84,7.84,0,0,1,1.82,1.61L30,208.22a3.19,3.19,0,0,0,.83.95,1.53,1.53,0,0,0,.81.21c.36,0,.58-.12.67-.36a3.23,3.23,0,0,0,.12-1V192.65h6.17Z"/><path class="cls-1" d="M69.19,212.82a4.21,4.21,0,0,1-.81,2.59,2.67,2.67,0,0,1-2.28,1.09H40.44v-5.85H61a2.06,2.06,0,0,0,1.15-.43,1.47,1.47,0,0,0,.6-1.29,1.75,1.75,0,0,0-.25-.88,1.86,1.86,0,0,0-.77-.66,2.44,2.44,0,0,0-1.11-.25H45.06a3.34,3.34,0,0,1-2-.61,4.4,4.4,0,0,1-1.35-1.41,2.88,2.88,0,0,1-.47-1.33v-7.73a3.51,3.51,0,0,1,1-2.2,3.3,3.3,0,0,1,2.65-1.21H68v5.66H49a1.07,1.07,0,0,0-.94.53,1.93,1.93,0,0,0-.36,1.11,1.86,1.86,0,0,0,.49,1.13,1.7,1.7,0,0,0,1.39.6h15.6a3.85,3.85,0,0,1,3.07,1.15,4.49,4.49,0,0,1,1,3Z"/><path class="cls-1" d="M88.24,216.47H82V198.35H70.47v-5.73H88.24Zm19.47-18.07H96.22v18.1H89.94V192.65h17.77Z"/><path class="cls-1" d="M139.09,216.5h-6.65v-1.66a2.79,2.79,0,0,1-1.05,1.14,2.65,2.65,0,0,1-1.43.52h-18a2.92,2.92,0,0,1-1.46-.41,3.27,3.27,0,0,1-1.2-1.14,3.06,3.06,0,0,1-.48-1.64c0-1.18,0-2.66,0-4.46s0-2.74,0-2.84a4.67,4.67,0,0,1,1-3.17,3,3,0,0,1,2.33-1.16h17a3.39,3.39,0,0,1,2.06.65,4.54,4.54,0,0,1,1.27,1.3v-2.17a2.94,2.94,0,0,0-.38-1.39A3.18,3.18,0,0,0,131,198.9a2.83,2.83,0,0,0-1.62-.46H109v-5.79h23a5.34,5.34,0,0,1,2.75.77,8.45,8.45,0,0,1,2.29,2,10.58,10.58,0,0,1,1.54,2.54,6.14,6.14,0,0,1,.55,2.34Zm-7.92-7.42a1.24,1.24,0,0,0-.31-.82,2.29,2.29,0,0,0-.77-.6,1.72,1.72,0,0,0-.73-.22H116.79a1.26,1.26,0,0,0-1.21.63,2.27,2.27,0,0,0-.34,1,1.58,1.58,0,0,0,.44,1.18,1.26,1.26,0,0,0,.89.45h13.14a1.43,1.43,0,0,0,.95-.49A1.51,1.51,0,0,0,131.17,209.08Z"/><path class="cls-1" d="M166,216.5H147.82a4.48,4.48,0,0,1-2.86-1.14,10,10,0,0,1-2.28-2.67,5.37,5.37,0,0,1-.89-2.43V192.65h6V207a3.7,3.7,0,0,0,.6,2.1,4.2,4.2,0,0,0,1.41,1.35,2.87,2.87,0,0,0,1.34.46H166Z"/><path class="cls-1" d="M191.81,216.5H173.6a4.48,4.48,0,0,1-2.86-1.14,10,10,0,0,1-2.28-2.67,5.37,5.37,0,0,1-.89-2.43V192.65h6V207a3.7,3.7,0,0,0,.6,2.1,4.2,4.2,0,0,0,1.41,1.35,2.87,2.87,0,0,0,1.34.46h14.86Z"/><path class="cls-3" d="M222.15,212.82a4.21,4.21,0,0,1-.81,2.59,2.67,2.67,0,0,1-2.28,1.09H193.4v-5.85H214a2.08,2.08,0,0,0,1.15-.43,1.47,1.47,0,0,0,.6-1.29,1.67,1.67,0,0,0-.26-.88,1.77,1.77,0,0,0-.76-.66,2.44,2.44,0,0,0-1.11-.25H198a3.39,3.39,0,0,1-2-.61,4.47,4.47,0,0,1-1.34-1.41,2.88,2.88,0,0,1-.47-1.33v-7.73a3.51,3.51,0,0,1,1-2.2,3.3,3.3,0,0,1,2.65-1.21h23v5.66h-19a1.07,1.07,0,0,0-.94.53,1.93,1.93,0,0,0-.36,1.11,1.8,1.8,0,0,0,.49,1.13,1.69,1.69,0,0,0,1.38.6H218.1a3.81,3.81,0,0,1,3.06,1.15,4.44,4.44,0,0,1,1,3Z"/><path class="cls-3" d="M254.44,209.25a6.75,6.75,0,0,1-1,3.64,8.34,8.34,0,0,1-2.5,2.64,5,5,0,0,1-2.61,1H231.25a6.13,6.13,0,0,1-3.72-1.18,7.94,7.94,0,0,1-2.5-2.94,7.67,7.67,0,0,1-.88-3.38v-8.95a6.78,6.78,0,0,1,.6-2.8,8.51,8.51,0,0,1,1.57-2.37,8,8,0,0,1,2.13-1.63,4.77,4.77,0,0,1,2.2-.6h16.78a6.77,6.77,0,0,1,2.79.8,7.93,7.93,0,0,1,2.94,2.59,7.82,7.82,0,0,1,1.28,4.63ZM248.07,207v-4.9a3.79,3.79,0,0,0-1-2.63A4,4,0,0,0,244,198.4h-9.82a3.09,3.09,0,0,0-1.41.47,5.08,5.08,0,0,0-1.47,1.23,2.52,2.52,0,0,0-.63,1.63v4.66a5,5,0,0,0,.84,2.83,2.8,2.8,0,0,0,2.43,1.14h10.93a3.39,3.39,0,0,0,2.26-.77A3.17,3.17,0,0,0,248.07,207Z"/><path class="cls-3" d="M281.07,216.5H262.85a4.44,4.44,0,0,1-2.85-1.14,10,10,0,0,1-2.28-2.67,5.25,5.25,0,0,1-.89-2.43V192.65h6V207a3.7,3.7,0,0,0,.6,2.1,4.14,4.14,0,0,0,1.42,1.35,2.84,2.84,0,0,0,1.34.46h14.86Z"/><path class="cls-3" d="M311,210a5.77,5.77,0,0,1-.87,2.76,9.26,9.26,0,0,1-2.21,2.64,4.15,4.15,0,0,1-2.63,1.1H289.63a5.82,5.82,0,0,1-3.51-1.18,8.46,8.46,0,0,1-2.54-3,7.61,7.61,0,0,1-.93-3.5V192.65h6.28v14.42a3.24,3.24,0,0,0,.53,1.8,4.36,4.36,0,0,0,1.26,1.3,2.38,2.38,0,0,0,1.27.48h9.61a2,2,0,0,0,1.27-.56,5,5,0,0,0,1.13-1.33,2.79,2.79,0,0,0,.45-1.32V192.65H311Z"/><path class="cls-3" d="M330.57,216.47h-6.28V198.35H312.8v-5.73h17.77ZM350,198.4H338.55v18.1h-6.28V192.65H350Z"/><path class="cls-3" d="M358.26,216.47h-6.37V192.65h6.37Z"/><path class="cls-3" d="M390.73,209.25a6.75,6.75,0,0,1-1,3.64,8.34,8.34,0,0,1-2.5,2.64,5,5,0,0,1-2.61,1h-17a6.14,6.14,0,0,1-3.73-1.18,8,8,0,0,1-2.5-2.94,7.65,7.65,0,0,1-.87-3.38v-8.95a6.77,6.77,0,0,1,.59-2.8,8.51,8.51,0,0,1,1.57-2.37,8,8,0,0,1,2.13-1.63,4.77,4.77,0,0,1,2.2-.6h16.79a6.74,6.74,0,0,1,2.78.8,7.93,7.93,0,0,1,2.94,2.59,7.82,7.82,0,0,1,1.28,4.63ZM384.36,207v-4.9a3.79,3.79,0,0,0-1-2.63,4,4,0,0,0-3.08-1.08h-9.82a3.09,3.09,0,0,0-1.42.47,5.08,5.08,0,0,0-1.47,1.23,2.52,2.52,0,0,0-.63,1.63v4.66a5,5,0,0,0,.85,2.83,2.78,2.78,0,0,0,2.42,1.14h10.93a3.39,3.39,0,0,0,2.26-.77A3.17,3.17,0,0,0,384.36,207Z"/><path class="cls-3" d="M422.14,211.29a6.52,6.52,0,0,1-.58,2.44,6,6,0,0,1-1.87,2.46,5,5,0,0,1-3.28,1.06,5.88,5.88,0,0,1-3-.62,8,8,0,0,1-2.11-2.31l-10.42-14a3.87,3.87,0,0,0-.78-.94,1.21,1.21,0,0,0-.73-.21.93.93,0,0,0-.58.24.84.84,0,0,0-.3.68v16.35h-6.07v-19a4.41,4.41,0,0,1,.29-1.36,6.66,6.66,0,0,1,1-1.78,5.82,5.82,0,0,1,1.79-1.56,5.38,5.38,0,0,1,2.69-.64,5.71,5.71,0,0,1,3.12.74A7.58,7.58,0,0,1,403,194.5l10.49,13.72a3.05,3.05,0,0,0,.84.95,1.53,1.53,0,0,0,.81.21c.36,0,.58-.12.67-.36a3.23,3.23,0,0,0,.12-1V192.65h6.17Z"/><path class="cls-3" d="M129.7,248.5a10,10,0,0,1-1.27,5.13,8.82,8.82,0,0,1-3.84,3.48,13,13,0,0,1-5.81,1.27h-4.91V238.57h4.86q5.22,0,8.1,2.61A9.4,9.4,0,0,1,129.7,248.5Zm-1.49,0a8,8,0,0,0-2.48-6.33c-1.65-1.46-4.08-2.19-7.27-2.19h-3.19v17.14h3a13.22,13.22,0,0,0,5.45-1,7.33,7.33,0,0,0,3.4-2.95A9,9,0,0,0,128.21,248.46Z"/><path class="cls-3" d="M135.49,240.9h-1.72v-2.07h1.72Zm-.17,17.48H134V243.56h1.37Z"/><path class="cls-3" d="M140.79,250.92a7.27,7.27,0,0,0,1.49,4.82,5,5,0,0,0,4,1.78,9.21,9.21,0,0,0,2.87-.51,6.5,6.5,0,0,0,2.22-1.1h.11v1.54a11.53,11.53,0,0,1-4.9,1.25,6.83,6.83,0,0,1-5.26-2,7.91,7.91,0,0,1-1.87-5.63,9.79,9.79,0,0,1,.83-4.13,6.45,6.45,0,0,1,2.32-2.78,6.08,6.08,0,0,1,3.44-1,5.28,5.28,0,0,1,4.16,1.78,6.9,6.9,0,0,1,1.59,4.76v1.2Zm9.75-1.25a5.71,5.71,0,0,0-1.2-3.83,4.07,4.07,0,0,0-3.27-1.41,4.82,4.82,0,0,0-3.59,1.45,5.86,5.86,0,0,0-1.64,3.79Z"/><path class="cls-3" d="M171.4,258.38h-6.65v-1.27h2.62V239.85h-2.62v-1.28h6.65v1.28h-2.62v17.26h2.62Z"/><path class="cls-3" d="M186.85,258.38h-1.34V249q0-4.44-3.4-4.44a6.68,6.68,0,0,0-2.66.59,7.68,7.68,0,0,0-2.38,1.66v11.61h-1.36V243.56h1.36v1.85a8.63,8.63,0,0,1,2.38-1.6,6.15,6.15,0,0,1,2.57-.66,4.59,4.59,0,0,1,3.57,1.38,5.48,5.48,0,0,1,1.26,3.85Z"/><path class="cls-3" d="M201.1,254.33a3.92,3.92,0,0,1-1.48,3.2,6.32,6.32,0,0,1-4.05,1.19,9.75,9.75,0,0,1-2.31-.29,12.31,12.31,0,0,1-2.59-1v-1.57h.08a8.89,8.89,0,0,0,2.35,1.24,7.93,7.93,0,0,0,2.73.48,4.47,4.47,0,0,0,2.9-.83,2.8,2.8,0,0,0,1-2.31,2.3,2.3,0,0,0-.3-1.26,2.2,2.2,0,0,0-1-.79,17.13,17.13,0,0,0-2.77-.77l-1.73-.42a6.5,6.5,0,0,1-1.62-.67,3.77,3.77,0,0,1-1.21-1.14,3.23,3.23,0,0,1-.47-1.82,4.07,4.07,0,0,1,.65-2.24,4.38,4.38,0,0,1,1.83-1.56,6.44,6.44,0,0,1,2.76-.55,9.52,9.52,0,0,1,2.5.35,9.69,9.69,0,0,1,2.15.79V246h-.13a7.86,7.86,0,0,0-2.25-1.08,8.43,8.43,0,0,0-2.54-.44,4.17,4.17,0,0,0-2.57.76,2.52,2.52,0,0,0-.1,4,8.72,8.72,0,0,0,3.22,1.1,8.45,8.45,0,0,1,3.79,1.4A3.16,3.16,0,0,1,201.1,254.33Z"/><path class="cls-3" d="M203.71,244.77v-1.21h1.65v-4.27h1.36v4.27h5.4v1.21h-5.4v8a11,11,0,0,0,.27,2.78,2.44,2.44,0,0,0,.88,1.42,3.07,3.07,0,0,0,1.79.43,7.33,7.33,0,0,0,2.51-.49h0v1.33c-.36.1-.81.19-1.36.29a8.93,8.93,0,0,1-1.29.14,3.84,3.84,0,0,1-3.18-1.27,5.92,5.92,0,0,1-1-3.78v-8.86Z"/><path class="cls-3" d="M224.2,256.8a9.48,9.48,0,0,1-2.58,1.55,7.52,7.52,0,0,1-2.52.41,5.22,5.22,0,0,1-3.65-1.25,4.19,4.19,0,0,1-1.36-3.26,4.26,4.26,0,0,1,1.06-3.05,6.57,6.57,0,0,1,3.31-1.68,26.4,26.4,0,0,1,5.73-.62V248a3.19,3.19,0,0,0-1.16-2.59,4.7,4.7,0,0,0-3.09-.95,10.55,10.55,0,0,0-4.46,1h-.08v-1.58a10.76,10.76,0,0,1,2-.52,13.08,13.08,0,0,1,2.36-.23q5.84,0,5.84,5.18v10H224.2Zm0-6.73a27.35,27.35,0,0,0-5.22.56,5.38,5.38,0,0,0-2.65,1.29,3.15,3.15,0,0,0-.83,2.3,3.25,3.25,0,0,0,.94,2.45,3.39,3.39,0,0,0,2.5.93,7.2,7.2,0,0,0,2.72-.49,8.66,8.66,0,0,0,2.54-1.63Z"/><path class="cls-3" d="M232,258.38h-1.36v-20.7H232Z"/><path class="cls-3" d="M238.82,258.38h-1.36v-20.7h1.36Z"/><path class="cls-3" d="M252.94,256.8a9.48,9.48,0,0,1-2.58,1.55,7.52,7.52,0,0,1-2.52.41,5.22,5.22,0,0,1-3.65-1.25,4.19,4.19,0,0,1-1.36-3.26,4.26,4.26,0,0,1,1.06-3.05,6.57,6.57,0,0,1,3.31-1.68,26.4,26.4,0,0,1,5.73-.62V248a3.19,3.19,0,0,0-1.16-2.59,4.7,4.7,0,0,0-3.09-.95,10.55,10.55,0,0,0-4.46,1h-.08v-1.58a10.76,10.76,0,0,1,2-.52,13.08,13.08,0,0,1,2.36-.23q5.84,0,5.84,5.18v10h-1.37Zm0-6.73a27.35,27.35,0,0,0-5.22.56,5.38,5.38,0,0,0-2.65,1.29,3.15,3.15,0,0,0-.83,2.3,3.25,3.25,0,0,0,.94,2.45,3.39,3.39,0,0,0,2.5.93,7.2,7.2,0,0,0,2.72-.49,8.66,8.66,0,0,0,2.54-1.63Z"/><path class="cls-3" d="M257.78,244.77v-1.21h1.65v-4.27h1.36v4.27h5.4v1.21h-5.4v8a11,11,0,0,0,.27,2.78A2.45,2.45,0,0,0,262,257a3,3,0,0,0,1.78.43,7.33,7.33,0,0,0,2.51-.49h0v1.33c-.35.1-.81.19-1.36.29a8.82,8.82,0,0,1-1.28.14,3.83,3.83,0,0,1-3.18-1.27,5.86,5.86,0,0,1-1-3.78v-8.86Z"/><path class="cls-3" d="M270.87,240.9h-1.71v-2.07h1.71Zm-.17,17.48h-1.37V243.56h1.37Z"/><path class="cls-3" d="M287.27,251a10.39,10.39,0,0,1-.77,4.13,6.14,6.14,0,0,1-2.19,2.73,5.76,5.76,0,0,1-3.24.94,5.44,5.44,0,0,1-4.52-2.14,8.89,8.89,0,0,1-1.68-5.66,10.2,10.2,0,0,1,.77-4.12,6.06,6.06,0,0,1,2.18-2.73,5.69,5.69,0,0,1,3.25-.94,5.44,5.44,0,0,1,4.51,2.13A8.91,8.91,0,0,1,287.27,251Zm-11,0a9.66,9.66,0,0,0,.59,3.55,4.87,4.87,0,0,0,1.68,2.26,4.53,4.53,0,0,0,5.07,0,4.91,4.91,0,0,0,1.69-2.25,9.49,9.49,0,0,0,.6-3.57,9.64,9.64,0,0,0-.58-3.53,4.82,4.82,0,0,0-1.69-2.26,4.27,4.27,0,0,0-2.54-.78,4.33,4.33,0,0,0-2.54.77,4.91,4.91,0,0,0-1.69,2.25A9.66,9.66,0,0,0,276.25,251Z"/><path class="cls-3" d="M302.25,258.38h-1.34V249c0-3-1.14-4.44-3.4-4.44a6.64,6.64,0,0,0-2.66.59,7.57,7.57,0,0,0-2.38,1.66v11.61h-1.36V243.56h1.36v1.85a8.48,8.48,0,0,1,2.38-1.6,6.15,6.15,0,0,1,2.57-.66,4.59,4.59,0,0,1,3.57,1.38,5.48,5.48,0,0,1,1.26,3.85Z"/><path class="cls-3" d="M311,258.38h-2.14v-2.86H311Z"/><path class="cls-3" d="M423.27,197.59a4.58,4.58,0,0,1,.64-2.37,4.75,4.75,0,0,1,4.11-2.37,4.68,4.68,0,0,1,2.38.63,4.81,4.81,0,0,1,1.74,1.73,4.71,4.71,0,0,1,0,4.76,4.71,4.71,0,0,1-1.74,1.75,4.71,4.71,0,0,1-4.74,0,4.86,4.86,0,0,1-1.74-1.75A4.77,4.77,0,0,1,423.27,197.59Zm.84,0A3.94,3.94,0,0,0,430,201a3.9,3.9,0,0,0,1.95-3.44,3.85,3.85,0,0,0-.52-2,3.75,3.75,0,0,0-1.42-1.43,3.94,3.94,0,0,0-3.93,0,3.73,3.73,0,0,0-1.43,1.44A3.86,3.86,0,0,0,424.11,197.6Zm6.36,2.35h-1.11l-1.53-1.88h-.67V200h-.89v-4.89h1.61a2.14,2.14,0,0,1,1.32.34,1.19,1.19,0,0,1,.47,1,1.45,1.45,0,0,1-.27.89,1.61,1.61,0,0,1-.73.52Zm-1.76-3.48a.55.55,0,0,0-.3-.52,1.5,1.5,0,0,0-.79-.17h-.46v1.55h.45a1.3,1.3,0,0,0,.82-.21A.81.81,0,0,0,428.71,196.47Z"/></g></g></svg>