<svg xmlns="http://www.w3.org/2000/svg" viewBox="0 0 432.56 257.24"><defs><style>.cls-1{fill:#b20f24;}.cls-2{fill:#fff;fill-rule:evenodd;}.cls-3{fill:#797978;}</style></defs><title>mediatec</title><g id="Ebene_2" data-name="Ebene 2"><g id="Ebene_1-2" data-name="Ebene 1"><rect class="cls-1" width="432.56" height="169.66"/><path class="cls-2" d="M155.38,148.45h94.76a11.37,11.37,0,0,0,11.34-11.34V113.74a11.37,11.37,0,0,0-11.34-11.34H194.55a6,6,0,0,1-5.89-6,5.91,5.91,0,0,1,5.89-5.89h62.86v-17h-79A11.37,11.37,0,0,0,167,84.83V108.2a11.38,11.38,0,0,0,11.34,11.34H234a5.89,5.89,0,1,1,0,11.77H165.12a11.81,11.81,0,0,1-11.78-11.77V73.49h-118A11.38,11.38,0,0,0,24,84.83V108.2a11.38,11.38,0,0,0,11.34,11.34H90.92a5.89,5.89,0,1,1,0,11.77H21.21v17.14h85.9a11.38,11.38,0,0,0,11.34-11.34V113.74a11.38,11.38,0,0,0-11.34-11.34H51.51a6,6,0,0,1-5.88-6,5.9,5.9,0,0,1,5.88-5.89h80.63v34.7A23.3,23.3,0,0,0,155.38,148.45Z"/><path class="cls-3" d="M41.5,215.2H34.65V200.5a.84.84,0,0,0-.3-.64.92.92,0,0,0-.57-.27,1,1,0,0,0-1,.64l-8.22,15H18.05l-8.46-15a1.08,1.08,0,0,0-.28-.5,1.67,1.67,0,0,0-.46-.32,1,1,0,0,0-.37-.11.69.69,0,0,0-.56.33,1.11,1.11,0,0,0-.25.7V215.2H1V196.94a4.81,4.81,0,0,1,.64-2.44,6.5,6.5,0,0,1,1.62-1.87,8,8,0,0,1,2.07-1.18,5.47,5.47,0,0,1,1.9-.43,6.24,6.24,0,0,1,3.88,1.19,13.91,13.91,0,0,1,3.26,4.06l6.78,12.21,7-12.25a12.7,12.7,0,0,1,3-3.88A6,6,0,0,1,35,191a6.49,6.49,0,0,1,4.69,2,6.46,6.46,0,0,1,1.33,2,5.47,5.47,0,0,1,.46,2.14Z"/><path class="cls-3" d="M76.4,202.33a4.22,4.22,0,0,1-.84,2.67,3.35,3.35,0,0,1-2.82,1.09l-21.64,0v1.16a2.43,2.43,0,0,0,.69,1.66,2,2,0,0,0,1.48.77H76v5.59H52A6.92,6.92,0,0,1,47.84,214a8.85,8.85,0,0,1-2.66-3,6.28,6.28,0,0,1-.91-2.76V198a4.77,4.77,0,0,1,.66-2.36,8.14,8.14,0,0,1,1.72-2.11A9.55,9.55,0,0,1,48.91,192a5.46,5.46,0,0,1,2.19-.53H70.74a4.26,4.26,0,0,1,1.89.52,7.89,7.89,0,0,1,1.88,1.3A7.2,7.2,0,0,1,75.88,195a3.3,3.3,0,0,1,.52,1.65Zm-6.68-3.49a1.43,1.43,0,0,0-.63-1.2,2.3,2.3,0,0,0-1.4-.46l-14.21,0a2.19,2.19,0,0,0-1.64.8,2.47,2.47,0,0,0-.74,1.72v1H69.69Z"/><path class="cls-3" d="M109.58,208.9a4.85,4.85,0,0,1-1.19,3.11,9.34,9.34,0,0,1-2.82,2.34,6.18,6.18,0,0,1-2.8.88H79.47v-14.6h6.84v8.78H98.8a3.74,3.74,0,0,0,3-1.12,4.07,4.07,0,0,0,1-2.81v-4.82a3.91,3.91,0,0,0-.51-1.86,3.25,3.25,0,0,0-1.4-1.26,5.14,5.14,0,0,0-2.29-.46H79.32v-5.56h23.05a6.33,6.33,0,0,1,3.69,1.16,8.55,8.55,0,0,1,2.59,2.78,6,6,0,0,1,.93,2.9Z"/><path class="cls-3" d="M120.19,215.2h-6.81V191.52h6.81Z"/><path class="cls-3" d="M155.82,215.23h-7.11v-1.65a2.82,2.82,0,0,1-1.13,1.13,2.91,2.91,0,0,1-1.52.52H126.8a3.52,3.52,0,0,1-2.84-1.54,2.92,2.92,0,0,1-.52-1.63c0-1.17,0-2.65,0-4.44s0-2.72,0-2.82a4.43,4.43,0,0,1,1.06-3.15,3.3,3.3,0,0,1,2.49-1.15h18.22a3.8,3.8,0,0,1,2.2.64,4.86,4.86,0,0,1,1.36,1.29v-2.16a2.71,2.71,0,0,0-.41-1.37,3.3,3.3,0,0,0-2.88-1.63H123.61v-5.75H148.2a6,6,0,0,1,2.94.76,9.12,9.12,0,0,1,2.45,2,10.35,10.35,0,0,1,1.64,2.52,5.83,5.83,0,0,1,.59,2.33Zm-8.47-7.37A1.21,1.21,0,0,0,147,207a2.39,2.39,0,0,0-.82-.6,1.94,1.94,0,0,0-.78-.22H132a1.36,1.36,0,0,0-1.29.63,2.12,2.12,0,0,0-.37,1,1.57,1.57,0,0,0,.47,1.18,1.43,1.43,0,0,0,1,.44H145.8a1.61,1.61,0,0,0,1-.48A1.48,1.48,0,0,0,147.35,207.86Z"/><path class="cls-1" d="M176.14,215.2h-6.71v-18H157.15v-5.7h19Zm20.82-18H184.68v18H178V191.52h19Z"/><path class="cls-1" d="M226.27,215.23H206.76a6.5,6.5,0,0,1-3.73-1.16,8.67,8.67,0,0,1-2.66-2.84,6.51,6.51,0,0,1-1-3.21V198.1a5,5,0,0,1,1.22-3.07,10.28,10.28,0,0,1,2.89-2.53,6,6,0,0,1,2.87-1h19.38v5.42H208.51a2.37,2.37,0,0,0-1.21.33,2.74,2.74,0,0,0-.94.85,1.89,1.89,0,0,0-.38,1.12v1.39h19.65V206H206.12v1.9a1.47,1.47,0,0,0,.82,1.22,2.84,2.84,0,0,0,1.57.53h17.76Z"/><path class="cls-1" d="M255.73,215.23H237.41a8.88,8.88,0,0,1-4.74-1.17,7.4,7.4,0,0,1-2.76-2.81,6.48,6.48,0,0,1-.86-3.06V198.13a5.36,5.36,0,0,1,1.1-3.15,9.25,9.25,0,0,1,2.65-2.5,5.16,5.16,0,0,1,2.58-1H255.6v5.56H239.78a3.38,3.38,0,0,0-1.78.54,4.84,4.84,0,0,0-1.45,1.36,2.72,2.72,0,0,0-.56,1.52v5.55a3.12,3.12,0,0,0,.43,1.56,3.48,3.48,0,0,0,1.24,1.26,3.3,3.3,0,0,0,1.79.51h16.28Z"/><path class="cls-3" d="M286.92,207.74a8.73,8.73,0,0,1-.48,2.92,7.25,7.25,0,0,1-1.36,2.38,6.3,6.3,0,0,1-2.14,1.6,6.07,6.07,0,0,1-2.68.59H265a6.87,6.87,0,0,1-3.13-.94,10,10,0,0,1-3.07-2.5,5.06,5.06,0,0,1-1.28-3.26V197.85a5.11,5.11,0,0,1,1-2.8,8.47,8.47,0,0,1,2.64-2.51,6.2,6.2,0,0,1,3.33-1h21.72v5.56H268.34a4,4,0,0,0-1.91.48,4.24,4.24,0,0,0-1.43,1.25,2.63,2.63,0,0,0-.55,1.56v5.24a4.15,4.15,0,0,0,.54,2.14,3.65,3.65,0,0,0,1.49,1.4,4.52,4.52,0,0,0,2.13.49h9.09a2.65,2.65,0,0,0,1.61-.49,1.57,1.57,0,0,0,.67-1.33,1.5,1.5,0,0,0-.57-1.27,1.9,1.9,0,0,0-1.2-.43h-6.69v-5.56H280l1.31.27a8.54,8.54,0,0,1,2.47,1A6.23,6.23,0,0,1,286,204,6.81,6.81,0,0,1,286.92,207.74Z"/><path class="cls-3" d="M330.17,223h-8.86l-15.62-16.76h-8.84v9H290V200.5H311.4a2.13,2.13,0,0,0,1.28-.47,1.57,1.57,0,0,0,.63-1.32,1.46,1.46,0,0,0-.31-1,1.74,1.74,0,0,0-.8-.53,3.29,3.29,0,0,0-1-.17H290v-5.52h25.87a4.46,4.46,0,0,1,4.43,4.45v5.92a4.12,4.12,0,0,1-.63,2.44,3.34,3.34,0,0,1-1.53,1.19,8.27,8.27,0,0,1-2,.47,10.05,10.05,0,0,0-1.35.2Z"/><path class="cls-3" d="M355.17,208a6.42,6.42,0,0,1-1.1,3.62,8.68,8.68,0,0,1-2.68,2.62,5.47,5.47,0,0,1-2.79,1H330.38a6.93,6.93,0,0,1-4-1.17,8.12,8.12,0,0,1-2.67-2.93,7.09,7.09,0,0,1-.94-3.36v-8.89a6.47,6.47,0,0,1,.64-2.79,8,8,0,0,1,1.68-2.35,8.17,8.17,0,0,1,2.27-1.62,5.39,5.39,0,0,1,2.36-.6h17.94a7.56,7.56,0,0,1,3,.79,8.3,8.3,0,0,1,3.15,2.58,7.38,7.38,0,0,1,1.37,4.6Zm-6.82-2.23v-4.87a3.6,3.6,0,0,0-1-2.61,4.43,4.43,0,0,0-3.29-1.07h-10.5a3.47,3.47,0,0,0-1.51.46,5.35,5.35,0,0,0-1.57,1.23,2.37,2.37,0,0,0-.67,1.61v4.64a4.62,4.62,0,0,0,.9,2.81,3.05,3.05,0,0,0,2.59,1.14H345a3.82,3.82,0,0,0,2.41-.77A3,3,0,0,0,348.35,205.79Z"/><path class="cls-3" d="M388.48,208.77a5.44,5.44,0,0,1-.93,2.74,9.57,9.57,0,0,1-2.36,2.63,4.6,4.6,0,0,1-2.81,1.09H365.66a6.54,6.54,0,0,1-3.74-1.17,8.59,8.59,0,0,1-2.72-3,7.21,7.21,0,0,1-1-3.48V191.52h6.71v14.34a3.07,3.07,0,0,0,.57,1.79,4.55,4.55,0,0,0,1.34,1.29,2.73,2.73,0,0,0,1.36.47h10.27a2.25,2.25,0,0,0,1.36-.55,4.92,4.92,0,0,0,1.2-1.33,2.61,2.61,0,0,0,.48-1.31v-14.7h7Z"/><path class="cls-3" d="M421.5,201.62a5.72,5.72,0,0,1-1,3.36,3.65,3.65,0,0,1-3.21,1.37h-19.4v8.88h-6.81v-14.6h22.16a1.23,1.23,0,0,0,.89-.51,1.68,1.68,0,0,0,.45-1.14,1.53,1.53,0,0,0-.37-1,2.29,2.29,0,0,0-1-.61,4.25,4.25,0,0,0-1.26-.2H391.12v-5.62h25.56c1.78,0,3,.43,3.74,1.29a4.91,4.91,0,0,1,1.08,3.26Z"/><path class="cls-3" d="M66.83,238.5H59.36v18.37H58V238.5H50.48v-1.33H66.83Z"/><path class="cls-3" d="M67.31,249.45a7.19,7.19,0,0,0,1.48,4.79,5,5,0,0,0,4,1.77,9.31,9.31,0,0,0,2.85-.5,6.72,6.72,0,0,0,2.21-1.1H78v1.53a11.59,11.59,0,0,1-4.87,1.25,6.83,6.83,0,0,1-5.23-2A7.9,7.9,0,0,1,66,249.6a9.73,9.73,0,0,1,.82-4.11,6.44,6.44,0,0,1,2.31-2.76,6.09,6.09,0,0,1,3.42-1,5.28,5.28,0,0,1,4.14,1.77,6.88,6.88,0,0,1,1.57,4.74v1.19ZM77,248.21a5.7,5.7,0,0,0-1.19-3.81A4,4,0,0,0,72.56,243,4.82,4.82,0,0,0,69,244.44a5.8,5.8,0,0,0-1.63,3.77Z"/><path class="cls-3" d="M87.43,257.16a5.82,5.82,0,0,1-4.75-2A8.67,8.67,0,0,1,81,249.5a8.5,8.5,0,0,1,1.76-5.62,5.88,5.88,0,0,1,4.78-2.1,10.24,10.24,0,0,1,4.51,1.33v1.68h-.13a8,8,0,0,0-4.63-1.73,4.26,4.26,0,0,0-3.59,1.67,7.69,7.69,0,0,0-1.28,4.77,7.77,7.77,0,0,0,1.31,4.78A4.17,4.17,0,0,0,87.27,256a6.34,6.34,0,0,0,2.29-.49,10.64,10.64,0,0,0,2.38-1.3h.13v1.38a5.79,5.79,0,0,1-2,1.08A8.19,8.19,0,0,1,87.43,257.16Z"/><path class="cls-3" d="M106.72,256.87h-1.33V247.5c0-2.94-1.13-4.41-3.37-4.41a6.4,6.4,0,0,0-2.65.59A7.58,7.58,0,0,0,97,245.32v11.55H95.65V236.29H97V244a8.93,8.93,0,0,1,2.37-1.59,6,6,0,0,1,2.55-.65,4.55,4.55,0,0,1,3.55,1.36,5.46,5.46,0,0,1,1.25,3.83Z"/><path class="cls-3" d="M122.57,256.87h-1.33V247.5q0-4.41-3.38-4.41a6.39,6.39,0,0,0-2.64.59,7.58,7.58,0,0,0-2.37,1.64v11.55H111.5V242.14h1.35V244a8.62,8.62,0,0,1,2.37-1.59,6,6,0,0,1,2.55-.65,4.57,4.57,0,0,1,3.55,1.36,5.5,5.5,0,0,1,1.25,3.83Z"/><path class="cls-3" d="M129.2,239.49h-1.71v-2.06h1.71ZM129,256.87h-1.37V242.14H129Z"/><path class="cls-3" d="M146.21,256.87h-1.68l-6.91-7.45-2.14,2.11v5.34h-1.35V236.29h1.35V250l7.62-7.81h1.75l-6.33,6.41Z"/><path class="cls-3" d="M169.3,256.87H168V247.5q0-4.41-3.28-4.41a5.92,5.92,0,0,0-2.51.58,7.31,7.31,0,0,0-2.28,1.65v11.55h-1.35V242.14h1.35V244a7.21,7.21,0,0,1,2.22-1.61,5.79,5.79,0,0,1,2.52-.63,4.8,4.8,0,0,1,2.66.69,4.05,4.05,0,0,1,1.57,2,8.79,8.79,0,0,1,2.46-2,5.65,5.65,0,0,1,2.69-.7,4.34,4.34,0,0,1,3.44,1.37,5.53,5.53,0,0,1,1.22,3.82v10h-1.33V247.5q0-4.41-3.28-4.41a6.09,6.09,0,0,0-2.66.65,7.53,7.53,0,0,0-2.26,1.66,8.34,8.34,0,0,1,.14,1.52Z"/><path class="cls-3" d="M185.32,239.49h-1.7v-2.06h1.7Zm-.17,17.38h-1.36V242.14h1.36Z"/><path class="cls-3" d="M188.93,243.34v-1.2h1.64v-4.25h1.35v4.25h5.37v1.2h-5.37v8a11,11,0,0,0,.27,2.77,2.49,2.49,0,0,0,.88,1.41,3.14,3.14,0,0,0,1.78.42,7.32,7.32,0,0,0,2.5-.49h0v1.33c-.36.09-.81.19-1.36.28a8.68,8.68,0,0,1-1.28.14,3.82,3.82,0,0,1-3.16-1.26,5.83,5.83,0,0,1-1-3.75v-8.81Z"/><path class="cls-3" d="M221.46,256.87H209.87v-19.7h1.39v18.4h10.2Z"/><path class="cls-3" d="M224.08,249.45a7.14,7.14,0,0,0,1.49,4.79,5,5,0,0,0,4,1.77,9.31,9.31,0,0,0,2.85-.5,6.62,6.62,0,0,0,2.21-1.1h.11v1.53a11.56,11.56,0,0,1-4.87,1.25,6.83,6.83,0,0,1-5.23-2,7.9,7.9,0,0,1-1.86-5.6,9.88,9.88,0,0,1,.82-4.11,6.44,6.44,0,0,1,2.31-2.76,6.09,6.09,0,0,1,3.42-1,5.28,5.28,0,0,1,4.14,1.77,6.88,6.88,0,0,1,1.57,4.74v1.19Zm9.69-1.24a5.65,5.65,0,0,0-1.19-3.81,4,4,0,0,0-3.25-1.41,4.82,4.82,0,0,0-3.57,1.45,5.85,5.85,0,0,0-1.63,3.77Z"/><path class="cls-3" d="M240.61,239.49h-1.7v-2.06h1.7Zm-.17,17.38h-1.36V242.14h1.36Z"/><path class="cls-3" d="M256.27,256.87h-1.33v-1.8a9.38,9.38,0,0,1-2.38,1.63,5.6,5.6,0,0,1-2.33.51,4.86,4.86,0,0,1-4.15-2,9.17,9.17,0,0,1-1.5-5.59,9.9,9.9,0,0,1,.79-4,6.61,6.61,0,0,1,2.2-2.84,5.33,5.33,0,0,1,3.2-1,7.61,7.61,0,0,1,2.09.27,10.63,10.63,0,0,1,2.08.88v-6.61h1.33Zm-1.33-12.59a7.29,7.29,0,0,0-4.22-1.31,4.07,4.07,0,0,0-3.47,1.8,8.07,8.07,0,0,0-1.29,4.8A8.65,8.65,0,0,0,247,254.3a3.39,3.39,0,0,0,3,1.63,6,6,0,0,0,2.4-.46,11,11,0,0,0,2.48-1.59Z"/><path class="cls-3" d="M261.39,249.45a7.19,7.19,0,0,0,1.49,4.79,5,5,0,0,0,4,1.77,9.31,9.31,0,0,0,2.85-.5,6.69,6.69,0,0,0,2.22-1.1h.1v1.53a11.52,11.52,0,0,1-4.86,1.25,6.85,6.85,0,0,1-5.24-2,8,8,0,0,1-1.85-5.6,9.73,9.73,0,0,1,.82-4.11,6.3,6.3,0,0,1,2.31-2.76,6.08,6.08,0,0,1,3.41-1,5.28,5.28,0,0,1,4.14,1.77,6.89,6.89,0,0,1,1.58,4.74v1.19Zm9.7-1.24a5.7,5.7,0,0,0-1.19-3.81,4,4,0,0,0-3.26-1.41,4.84,4.84,0,0,0-3.57,1.45,5.84,5.84,0,0,0-1.62,3.77Z"/><path class="cls-3" d="M287.15,256.87h-1.34V247.5q0-4.41-3.37-4.41a6.4,6.4,0,0,0-2.65.59,7.58,7.58,0,0,0-2.37,1.64v11.55h-1.34V242.14h1.34V244a8.93,8.93,0,0,1,2.37-1.59,6.08,6.08,0,0,1,2.56-.65,4.58,4.58,0,0,1,3.55,1.36,5.5,5.5,0,0,1,1.25,3.83Z"/><path class="cls-3" d="M301.31,252.84a3.87,3.87,0,0,1-1.47,3.18,6.28,6.28,0,0,1-4,1.18,9.62,9.62,0,0,1-2.29-.28,12.45,12.45,0,0,1-2.58-1v-1.56H291a9.27,9.27,0,0,0,2.34,1.23,7.83,7.83,0,0,0,2.72.48,4.49,4.49,0,0,0,2.88-.82,2.81,2.81,0,0,0,1-2.3,2.38,2.38,0,0,0-.29-1.25,2.2,2.2,0,0,0-1-.79,17,17,0,0,0-2.75-.77c-.56-.12-1.13-.26-1.72-.42a6.12,6.12,0,0,1-1.62-.66,3.7,3.7,0,0,1-1.2-1.13,3.22,3.22,0,0,1-.46-1.81,4,4,0,0,1,.64-2.23,4.4,4.4,0,0,1,1.82-1.55,6.52,6.52,0,0,1,2.75-.55,9.87,9.87,0,0,1,2.48.35,9.3,9.3,0,0,1,2.13.79v1.62h-.13a7.6,7.6,0,0,0-2.23-1.08,8.24,8.24,0,0,0-2.53-.43,4.19,4.19,0,0,0-2.55.75,2.52,2.52,0,0,0-.1,4,8.66,8.66,0,0,0,3.21,1.1,8.55,8.55,0,0,1,3.76,1.38A3.14,3.14,0,0,1,301.31,252.84Z"/><path class="cls-3" d="M310.67,257.16a5.82,5.82,0,0,1-4.75-2,8.67,8.67,0,0,1-1.66-5.65,8.5,8.5,0,0,1,1.76-5.62,5.88,5.88,0,0,1,4.78-2.1,10.24,10.24,0,0,1,4.51,1.33v1.68h-.13a8,8,0,0,0-4.63-1.73,4.29,4.29,0,0,0-3.6,1.67,9.48,9.48,0,0,0,0,9.55,4.17,4.17,0,0,0,3.52,1.74,6.34,6.34,0,0,0,2.29-.49,10.64,10.64,0,0,0,2.38-1.3h.13v1.38a5.79,5.79,0,0,1-2,1.08A8.19,8.19,0,0,1,310.67,257.16Z"/><path class="cls-3" d="M330,256.87h-1.34V247.5c0-2.94-1.13-4.41-3.37-4.41a6.4,6.4,0,0,0-2.65.59,7.58,7.58,0,0,0-2.37,1.64v11.55h-1.35V236.29h1.35V244a8.93,8.93,0,0,1,2.37-1.59,6.08,6.08,0,0,1,2.55-.65,4.55,4.55,0,0,1,3.55,1.36,5.46,5.46,0,0,1,1.26,3.83Z"/><path class="cls-3" d="M343.68,255.3a9.35,9.35,0,0,1-2.56,1.54,7.45,7.45,0,0,1-2.5.4A5.18,5.18,0,0,1,335,256a4.17,4.17,0,0,1-1.35-3.24,4.22,4.22,0,0,1,1.06-3,6.58,6.58,0,0,1,3.29-1.68,26.79,26.79,0,0,1,5.69-.61v-.86a3.13,3.13,0,0,0-1.15-2.57,4.66,4.66,0,0,0-3.07-.95,10.37,10.37,0,0,0-4.43,1h-.08v-1.57a10.2,10.2,0,0,1,2-.52,12.83,12.83,0,0,1,2.34-.22q5.81,0,5.81,5.14v10h-1.37Zm0-6.7a27.59,27.59,0,0,0-5.18.56,5.34,5.34,0,0,0-2.64,1.29,3.15,3.15,0,0,0-.83,2.28,3.28,3.28,0,0,0,.93,2.44,3.44,3.44,0,0,0,2.5.92,7.29,7.29,0,0,0,2.7-.48,8.61,8.61,0,0,0,2.52-1.62Z"/><path class="cls-3" d="M357.08,237.76h0a8.65,8.65,0,0,0-2.39-.39,3.17,3.17,0,0,0-2.51,1,4.71,4.71,0,0,0-.85,3.1v.69H356v1.2h-4.68v13.53H350V243.34h-1.67v-1.2H350v-.53a6,6,0,0,1,1.25-4,4.34,4.34,0,0,1,3.47-1.42,11.29,11.29,0,0,1,2.37.26Z"/><path class="cls-3" d="M357.05,243.34v-1.2h1.65v-4.25H360v4.25h5.37v1.2H360v8a10.51,10.51,0,0,0,.28,2.77,2.49,2.49,0,0,0,.87,1.41,3.14,3.14,0,0,0,1.78.42,7.27,7.27,0,0,0,2.5-.49h0v1.33c-.36.09-.81.19-1.36.28a8.68,8.68,0,0,1-1.28.14,3.83,3.83,0,0,1-3.16-1.26,5.83,5.83,0,0,1-1-3.75v-8.81Z"/><path class="cls-3" d="M372.16,256.87H370V254h2.13Z"/><path class="cls-3" d="M423,196.32a4.64,4.64,0,0,1,.63-2.36,4.81,4.81,0,0,1,1.73-1.74,4.76,4.76,0,0,1,7.15,4.1,4.69,4.69,0,0,1-.65,2.39,4.79,4.79,0,0,1-1.74,1.75,4.7,4.7,0,0,1-2.37.63,4.59,4.59,0,0,1-2.38-.64,4.76,4.76,0,0,1-1.73-1.75A4.65,4.65,0,0,1,423,196.32Zm.84,0a4,4,0,0,0,.53,2,3.91,3.91,0,0,0,6.77,0,4,4,0,0,0,.53-2,3.9,3.9,0,0,0-3.92-4,3.93,3.93,0,0,0-3.39,2A3.92,3.92,0,0,0,423.84,196.34Zm6.35,2.35h-1.11l-1.53-1.89h-.67v1.89H426v-4.9h1.61a2.19,2.19,0,0,1,1.33.35,1.25,1.25,0,0,1,.47,1,1.36,1.36,0,0,1-.28.88,1.6,1.6,0,0,1-.72.53Zm-1.76-3.49a.58.58,0,0,0-.29-.52,1.62,1.62,0,0,0-.79-.17h-.47v1.56h.45a1.29,1.29,0,0,0,.83-.22A.84.84,0,0,0,428.43,195.2Z"/></g></g></svg>