<?xml version="1.0" encoding="UTF-8" standalone="no"?><!DOCTYPE svg PUBLIC "-//W3C//DTD SVG 1.1//EN" "http://www.w3.org/Graphics/SVG/1.1/DTD/svg11.dtd"><svg width="100%" height="100%" viewBox="0 0 433 264" version="1.1" xmlns="http://www.w3.org/2000/svg" xmlns:xlink="http://www.w3.org/1999/xlink" xml:space="preserve" xmlns:serif="http://www.serif.com/" style="fill-rule:evenodd;clip-rule:evenodd;stroke-linejoin:round;stroke-miterlimit:1.41421;"><g id="mediatecgroup"><rect x="0" y="0" width="432.988" height="162.645" style="fill:#fff;"/><rect x="0" y="0" width="432.558" height="171.222" style="fill:#b20f24;"/><path d="M155.375,150.014l94.767,0c6.237,0 11.34,-5.103 11.34,-11.34l0,-23.37c0,-6.237 -5.103,-11.34 -11.34,-11.34l-55.592,0c-3.254,0 -5.888,-2.774 -5.888,-5.997c0,-3.239 2.65,-5.89 5.888,-5.89l62.863,0l0,-17.027l-79.044,-0.001c-6.238,0 -11.34,5.103 -11.34,11.341l0,23.37c0,6.237 5.102,11.34 11.34,11.34l55.591,0c3.239,0 5.89,2.65 5.89,5.889c0,3.239 -2.651,5.889 -5.89,5.889l-68.843,0c-6.477,0 -11.778,-5.3 -11.778,-11.778l0,-46.051l-118.005,0c-6.238,0 -11.341,5.103 -11.341,11.341l0,23.37c0,6.237 5.103,11.34 11.341,11.34l55.59,0c3.239,0 5.889,2.65 5.889,5.889c0.001,3.239 -2.65,5.889 -5.889,5.889l-69.717,0l0.001,17.136l85.897,0c6.238,0 11.34,-5.103 11.34,-11.34l0,-23.37c0,-6.237 -5.102,-11.34 -11.34,-11.34l-55.591,0c-3.255,0 -5.889,-2.774 -5.889,-5.997c0.001,-3.239 2.651,-5.89 5.889,-5.89l80.622,0l-0.001,34.697c0,12.782 10.458,23.24 23.24,23.24" style="fill:#fff;"/><path d="M42.471,219.85l-7.01,0l0,-16.577c0,-0.272 -0.105,-0.512 -0.313,-0.718c-0.21,-0.204 -0.404,-0.307 -0.584,-0.307c-0.497,0 -0.847,0.241 -1.05,0.726l-8.414,16.876l-6.637,0l-8.669,-16.95c-0.045,-0.211 -0.141,-0.398 -0.288,-0.558c-0.146,-0.163 -0.302,-0.284 -0.465,-0.365c-0.164,-0.081 -0.292,-0.122 -0.382,-0.122c-0.214,0 -0.406,0.126 -0.575,0.374c-0.169,0.249 -0.254,0.509 -0.254,0.782l0,16.839l-6.874,0l0,-20.586c0,-0.995 0.22,-1.911 0.66,-2.751c0.441,-0.839 0.994,-1.544 1.659,-2.116c0.667,-0.571 1.372,-1.017 2.117,-1.334c0.745,-0.316 1.394,-0.475 1.946,-0.475c1.581,0 2.904,0.445 3.971,1.333c1.066,0.889 2.181,2.415 3.344,4.578l6.942,13.782l7.144,-13.819c0.926,-1.915 1.936,-3.372 3.031,-4.374c1.095,-0.999 2.449,-1.5 4.063,-1.5c0.949,0 1.838,0.206 2.668,0.616c0.829,0.41 1.542,0.964 2.141,1.659c0.598,0.697 1.052,1.462 1.363,2.294c0.31,0.832 0.466,1.641 0.466,2.424l0,20.269Z" style="fill:#797878;fill-rule:nonzero;"/><path d="M71.367,201.408c0,-0.559 -0.214,-1.013 -0.643,-1.361c-0.429,-0.349 -0.908,-0.521 -1.439,-0.521l-14.546,-0.037c-0.621,0 -1.182,0.297 -1.684,0.894c-0.502,0.597 -0.752,1.243 -0.752,1.94l0,1.099l19.03,0l0.034,-2.014Zm6.84,3.935c0,1.193 -0.288,2.197 -0.864,3.012c-0.576,0.815 -1.535,1.221 -2.879,1.221l-22.161,-0.038l0,1.306c0,0.67 0.234,1.296 0.702,1.874c0.468,0.579 0.974,0.867 1.516,0.867l23.312,0l0,6.303l-24.616,0c-1.637,0 -3.054,-0.475 -4.249,-1.427c-1.197,-0.951 -2.107,-2.061 -2.726,-3.328c-0.622,-1.268 -0.932,-2.307 -0.932,-3.115l0,-11.598c0,-0.894 0.223,-1.781 0.67,-2.656c0.445,-0.878 1.034,-1.67 1.768,-2.379c0.733,-0.709 1.504,-1.266 2.311,-1.668c0.807,-0.405 1.555,-0.606 2.244,-0.606l20.114,0c0.575,0 1.218,0.194 1.93,0.586c0.71,0.392 1.354,0.88 1.929,1.464c0.576,0.585 1.042,1.206 1.398,1.866c0.355,0.658 0.533,1.28 0.533,1.865l0,6.451Z" style="fill:#797878;fill-rule:nonzero;"/><path d="M112.182,212.746c0,1.245 -0.404,2.412 -1.213,3.506c-0.809,1.094 -1.774,1.974 -2.894,2.638c-1.119,0.665 -2.076,0.998 -2.868,0.998l-23.855,0l0,-16.466l7.009,0l0,9.903l12.786,0c1.365,0 2.383,-0.42 3.053,-1.261c0.672,-0.838 1.007,-1.897 1.007,-3.179l0,-5.424c-0.023,-0.796 -0.195,-1.496 -0.516,-2.099c-0.322,-0.604 -0.802,-1.078 -1.44,-1.426c-0.637,-0.348 -1.419,-0.523 -2.345,-0.523l-19.707,0l0,-6.265l23.598,0c1.389,0 2.65,0.435 3.785,1.304c1.136,0.872 2.019,1.918 2.652,3.142c0.632,1.226 0.948,2.316 0.948,3.274l0,11.878Z" style="fill:#797878;fill-rule:nonzero;"/><rect x="116.073" y="193.147" width="6.975" height="26.703" style="fill:#797878;"/><path d="M150.862,211.571c0,-0.336 -0.113,-0.642 -0.339,-0.922c-0.226,-0.281 -0.505,-0.504 -0.838,-0.672c-0.333,-0.167 -0.601,-0.253 -0.804,-0.253l-13.765,0c-0.632,0 -1.072,0.237 -1.321,0.708c-0.248,0.474 -0.372,0.841 -0.372,1.102c0,0.546 0.161,0.988 0.483,1.324c0.321,0.334 0.646,0.504 0.973,0.504l14.391,0c0.316,0 0.66,-0.185 1.033,-0.551c0.372,-0.368 0.559,-0.781 0.559,-1.24m8.668,8.317l-7.28,0l0,-1.864c-0.193,0.459 -0.575,0.885 -1.151,1.276c-0.576,0.393 -1.095,0.588 -1.558,0.588l-19.724,0c-0.531,0 -1.064,-0.152 -1.601,-0.457c-0.535,-0.305 -0.972,-0.731 -1.311,-1.278c-0.339,-0.546 -0.513,-1.161 -0.526,-1.846c-0.01,-1.318 -0.024,-2.982 -0.042,-4.996c-0.016,-2.015 -0.025,-3.078 -0.025,-3.189c0,-1.505 0.364,-2.689 1.091,-3.553c0.729,-0.865 1.578,-1.296 2.549,-1.296l18.658,0c0.858,0 1.608,0.242 2.252,0.726c0.643,0.487 1.106,0.97 1.388,1.455l0,-2.433c0,-0.509 -0.138,-1.026 -0.415,-1.553c-0.276,-0.527 -0.668,-0.964 -1.176,-1.311c-0.508,-0.347 -1.101,-0.52 -1.778,-0.52l-22.332,0l0,-6.489l25.177,0c1.06,0 2.064,0.286 3.013,0.857c0.947,0.573 1.783,1.315 2.506,2.227c0.722,0.915 1.284,1.865 1.684,2.845c0.402,0.982 0.601,1.859 0.601,2.63l0,18.181Z" style="fill:#797878;fill-rule:nonzero;"/><path d="M201.658,199.6l-12.579,0l0,20.288l-6.874,0l0,-26.74l19.453,0l0,6.452Zm-21.316,20.25l-6.873,0l0,-20.308l-12.58,0l0,-6.432l19.453,0l0,26.74Z" style="fill:#b20f24;fill-rule:nonzero;"/><path d="M231.673,219.888l-19.978,0c-1.389,0 -2.661,-0.435 -3.818,-1.306c-1.157,-0.87 -2.066,-1.939 -2.726,-3.208c-0.661,-1.266 -0.99,-2.472 -0.99,-3.616l0,-11.188c0,-1.157 0.414,-2.313 1.244,-3.469c0.829,-1.155 1.817,-2.103 2.962,-2.844c1.146,-0.739 2.125,-1.109 2.938,-1.109l19.843,0l0,6.116l-17.659,0c-0.44,0 -0.855,0.121 -1.244,0.363c-0.39,0.244 -0.711,0.564 -0.966,0.962c-0.254,0.397 -0.381,0.819 -0.381,1.267l0,1.566l20.114,0l0,6.043l-19.977,0l0,2.144c0,0.521 0.278,0.982 0.837,1.38c0.558,0.397 1.098,0.596 1.617,0.596l18.184,0l0,6.303Z" style="fill:#b20f24;fill-rule:nonzero;"/><path d="M261.84,219.888l-18.76,0c-1.941,0 -3.561,-0.441 -4.859,-1.325c-1.298,-0.881 -2.24,-1.936 -2.828,-3.161c-0.587,-1.223 -0.88,-2.376 -0.88,-3.457l0,-11.338c0,-1.219 0.378,-2.405 1.134,-3.561c0.757,-1.157 1.66,-2.095 2.708,-2.816c1.051,-0.722 1.931,-1.082 2.642,-1.082l20.707,0l0,6.265l-16.204,0c-0.61,0 -1.217,0.205 -1.819,0.616c-0.604,0.409 -1.097,0.92 -1.482,1.528c-0.384,0.61 -0.576,1.182 -0.576,1.716l0,6.265c0,0.599 0.146,1.181 0.441,1.754c0.292,0.573 0.717,1.048 1.27,1.427c0.554,0.378 1.162,0.567 1.829,0.567l16.677,0l0,6.602Z" style="fill:#b20f24;fill-rule:nonzero;"/><path d="M293.774,211.44c0,1.17 -0.163,2.267 -0.49,3.292c-0.327,1.024 -0.794,1.92 -1.396,2.685c-0.604,0.764 -1.334,1.368 -2.185,1.809c-0.853,0.442 -1.77,0.662 -2.75,0.662l-15.681,0c-0.912,0 -1.98,-0.355 -3.199,-1.063c-1.218,-0.709 -2.264,-1.646 -3.14,-2.816c-0.874,-1.168 -1.312,-2.393 -1.312,-3.673l0,-12.046c0,-0.983 0.344,-2.036 1.034,-3.16c0.687,-1.127 1.588,-2.071 2.699,-2.835c1.113,-0.765 2.25,-1.147 3.412,-1.147l22.245,0l0,6.265l-18.265,0c-0.69,0 -1.34,0.183 -1.949,0.55c-0.608,0.366 -1.1,0.836 -1.472,1.407c-0.372,0.573 -0.559,1.157 -0.559,1.754l0,5.91c0,0.921 0.187,1.725 0.558,2.415c0.371,0.691 0.879,1.22 1.522,1.586c0.643,0.367 1.369,0.549 2.181,0.549l9.303,0c0.642,0 1.193,-0.182 1.65,-0.549c0.455,-0.366 0.684,-0.867 0.684,-1.501c0,-0.634 -0.192,-1.112 -0.575,-1.437c-0.384,-0.322 -0.795,-0.484 -1.235,-0.484l-6.849,0l0,-6.267l8.659,0c0.08,0.015 0.526,0.114 1.341,0.299c0.815,0.187 1.66,0.552 2.537,1.092c0.876,0.541 1.635,1.361 2.274,2.461c0.639,1.1 0.958,2.516 0.958,4.242" style="fill:#797878;fill-rule:nonzero;"/><path d="M338.063,228.596l-9.079,0l-15.989,-18.909l-9.048,0l0,10.2l-7.043,0l0,-16.614l21.942,0c0.441,0 0.875,-0.176 1.304,-0.531c0.428,-0.354 0.643,-0.85 0.643,-1.482c0,-0.46 -0.104,-0.828 -0.313,-1.102c-0.21,-0.272 -0.482,-0.472 -0.821,-0.596c-0.338,-0.124 -0.693,-0.187 -1.066,-0.187l-21.689,0l0,-6.227l26.497,0c1.241,0 2.308,0.49 3.2,1.472c0.889,0.983 1.336,2.164 1.336,3.544l0,6.676c0,1.18 -0.217,2.098 -0.652,2.749c-0.438,0.653 -0.957,1.105 -1.561,1.352c-0.607,0.249 -1.302,0.423 -2.088,0.523c-0.786,0.1 -1.247,0.173 -1.385,0.223l15.812,18.909Z" style="fill:#797878;fill-rule:nonzero;"/><path d="M356.681,209.244l0,-5.492c0,-1.155 -0.354,-2.135 -1.065,-2.942c-0.711,-0.806 -1.835,-1.21 -3.369,-1.21l-10.751,0c-0.419,0 -0.936,0.173 -1.55,0.521c-0.616,0.348 -1.151,0.806 -1.608,1.379c-0.458,0.571 -0.685,1.18 -0.685,1.823l0,5.233c0.021,1.256 0.329,2.31 0.92,3.165c0.594,0.858 1.477,1.287 2.651,1.287l11.971,0c0.969,0 1.795,-0.29 2.472,-0.867c0.676,-0.577 1.014,-1.542 1.014,-2.897m6.976,2.514c0,1.479 -0.375,2.84 -1.126,4.084c-0.751,1.242 -1.664,2.227 -2.743,2.956c-1.077,0.726 -2.028,1.09 -2.851,1.09l-18.658,0c-1.536,0 -2.896,-0.441 -4.082,-1.325c-1.185,-0.882 -2.096,-1.981 -2.734,-3.3c-0.637,-1.318 -0.956,-2.579 -0.956,-3.787l0,-10.03c0,-1.094 0.218,-2.141 0.653,-3.142c0.433,-1.002 1.005,-1.887 1.716,-2.657c0.713,-0.771 1.488,-1.38 2.33,-1.827c0.839,-0.449 1.644,-0.671 2.413,-0.671l18.368,0c0.824,0 1.84,0.296 3.048,0.894c1.209,0.597 2.28,1.566 3.217,2.908c0.937,1.343 1.405,3.07 1.405,5.184l0,9.623Z" style="fill:#797878;fill-rule:nonzero;"/><path d="M397.77,212.598c0,0.907 -0.32,1.939 -0.959,3.093c-0.637,1.159 -1.441,2.146 -2.411,2.967c-0.971,0.821 -1.93,1.23 -2.879,1.23l-17.116,0c-1.379,0 -2.656,-0.441 -3.835,-1.325c-1.179,-0.881 -2.108,-1.996 -2.786,-3.346c-0.677,-1.349 -1.015,-2.659 -1.015,-3.925l0,-18.144l6.873,0l0,16.167c0,0.732 0.195,1.407 0.585,2.023c0.39,0.616 0.846,1.1 1.371,1.455c0.525,0.353 0.991,0.532 1.397,0.532l10.514,0c0.441,0 0.906,-0.209 1.397,-0.626c0.492,-0.416 0.899,-0.914 1.228,-1.49c0.327,-0.579 0.491,-1.073 0.491,-1.485l0,-16.576l7.145,0l0,19.45Z" style="fill:#797878;fill-rule:nonzero;"/><path d="M431.576,204.541c0,1.491 -0.327,2.753 -0.982,3.784c-0.654,1.033 -1.749,1.55 -3.285,1.55l-19.86,0l0,10.012l-6.975,0l0,-16.464l22.688,0c0.303,0 0.609,-0.193 0.913,-0.579c0.307,-0.386 0.458,-0.814 0.458,-1.287c0,-0.46 -0.127,-0.845 -0.381,-1.156c-0.255,-0.311 -0.596,-0.54 -1.024,-0.69c-0.43,-0.149 -0.858,-0.222 -1.287,-0.222l-21.367,0l0,-6.342l26.175,0c1.817,0 3.092,0.485 3.825,1.455c0.734,0.969 1.102,2.195 1.102,3.672l0,6.267Z" style="fill:#797878;fill-rule:nonzero;"/><path d="M66.83,240.061l-7.473,0l0,18.373l-1.389,0l0,-18.373l-7.487,0l0,-1.322l16.349,0l0,1.322Z" style="fill:#797878;fill-rule:nonzero;"/><path d="M77.002,249.77c0,-1.604 -0.397,-2.874 -1.191,-3.811c-0.793,-0.933 -1.878,-1.401 -3.254,-1.401c-1.428,0 -2.619,0.482 -3.571,1.441c-0.953,0.962 -1.494,2.219 -1.627,3.771l9.643,0Zm-9.696,1.244c0,2.02 0.496,3.617 1.488,4.794c0.992,1.178 2.326,1.766 4.001,1.766c0.882,0 1.832,-0.167 2.851,-0.502c1.019,-0.335 1.757,-0.701 2.215,-1.098l0.107,0l0,1.534c-1.764,0.828 -3.387,1.243 -4.868,1.243c-2.249,0 -3.993,-0.663 -5.232,-1.991c-1.239,-1.326 -1.858,-3.193 -1.858,-5.6c0,-1.544 0.273,-2.911 0.82,-4.101c0.546,-1.191 1.316,-2.113 2.308,-2.765c0.992,-0.653 2.132,-0.979 3.419,-0.979c1.711,0 3.091,0.592 4.14,1.772c1.05,1.183 1.575,2.76 1.575,4.736l0,1.191l-10.966,0Z" style="fill:#797878;fill-rule:nonzero;"/><path d="M87.425,258.725c-2.055,0 -3.636,-0.67 -4.742,-2.01c-1.107,-1.341 -1.66,-3.223 -1.66,-5.649c0,-2.345 0.584,-4.219 1.753,-5.622c1.168,-1.402 2.762,-2.103 4.781,-2.103c1.27,0 2.773,0.446 4.511,1.336l0,1.681l-0.132,0c-1.606,-1.155 -3.148,-1.733 -4.63,-1.733c-1.543,0 -2.74,0.557 -3.591,1.672c-0.852,1.117 -1.277,2.705 -1.277,4.769c0,2.019 0.437,3.612 1.31,4.775c0.873,1.165 2.046,1.746 3.518,1.746c0.688,0 1.451,-0.163 2.289,-0.489c0.837,-0.326 1.631,-0.763 2.381,-1.309l0.132,0l0,1.388c-0.432,0.397 -1.111,0.755 -2.037,1.072c-0.926,0.317 -1.794,0.476 -2.606,0.476" style="fill:#797878;fill-rule:nonzero;"/><path d="M106.725,258.434l-1.335,0l0,-9.365c0,-2.945 -1.125,-4.418 -3.374,-4.418c-0.873,0 -1.755,0.196 -2.645,0.589c-0.891,0.392 -1.681,0.941 -2.369,1.646l0,11.548l-1.349,0l0,-20.582l1.349,0l0,7.686c0.644,-0.626 1.433,-1.159 2.369,-1.595c0.934,-0.436 1.786,-0.655 2.552,-0.655c1.535,0 2.719,0.457 3.552,1.37c0.833,0.913 1.25,2.189 1.25,3.829l0,9.947Z" style="fill:#797878;fill-rule:nonzero;"/><path d="M122.571,258.434l-1.335,0l0,-9.365c0,-2.945 -1.125,-4.418 -3.374,-4.418c-0.873,0 -1.754,0.196 -2.645,0.589c-0.891,0.392 -1.68,0.941 -2.368,1.646l0,11.548l-1.35,0l0,-14.735l1.35,0l0,1.839c0.644,-0.626 1.432,-1.159 2.368,-1.595c0.935,-0.436 1.786,-0.655 2.552,-0.655c1.535,0 2.719,0.457 3.552,1.37c0.833,0.913 1.25,2.189 1.25,3.829l0,9.947Z" style="fill:#797878;fill-rule:nonzero;"/><path d="M129.026,258.434l-1.363,0l0,-14.735l1.363,0l0,14.735Zm0.172,-17.381l-1.706,0l0,-2.063l1.706,0l0,2.063Z" style="fill:#797878;fill-rule:nonzero;"/><path d="M146.208,258.434l-1.68,0l-6.905,-7.447l-2.143,2.104l0,5.343l-1.349,0l0,-20.582l1.349,0l0,13.664l7.62,-7.817l1.746,0l-6.323,6.415l7.685,8.32Z" style="fill:#797878;fill-rule:nonzero;"/><path d="M169.303,258.434l-1.323,0l0,-9.365c0,-2.945 -1.093,-4.418 -3.281,-4.418c-0.828,0 -1.666,0.193 -2.513,0.582c-0.846,0.388 -1.605,0.939 -2.275,1.653l0,11.548l-1.349,0l0,-14.735l1.349,0l0,1.839c0.6,-0.654 1.338,-1.192 2.216,-1.614c0.878,-0.424 1.717,-0.636 2.52,-0.636c1.067,0 1.955,0.233 2.665,0.695c0.71,0.463 1.232,1.122 1.568,1.976c0.758,-0.845 1.578,-1.502 2.46,-1.969c0.881,-0.468 1.776,-0.702 2.686,-0.702c1.481,0 2.629,0.459 3.445,1.376c0.815,0.917 1.224,2.192 1.224,3.823l0,9.947l-1.337,0l0,-9.365c0,-2.945 -1.093,-4.418 -3.28,-4.418c-0.882,0 -1.768,0.219 -2.658,0.654c-0.891,0.437 -1.645,0.991 -2.263,1.66c0.097,0.486 0.146,0.992 0.146,1.522l0,9.947Z" style="fill:#797878;fill-rule:nonzero;"/><path d="M185.15,258.434l-1.363,0l0,-14.735l1.363,0l0,14.735Zm0.171,-17.381l-1.706,0l0,-2.063l1.706,0l0,2.063Z" style="fill:#797878;fill-rule:nonzero;"/><path d="M188.933,244.902l0,-1.203l1.64,0l0,-4.245l1.349,0l0,4.245l5.371,0l0,1.203l-5.371,0l0,7.964c0,1.189 0.091,2.111 0.272,2.765c0.18,0.652 0.473,1.122 0.879,1.408c0.405,0.287 0.997,0.429 1.773,0.429c0.767,0 1.6,-0.163 2.5,-0.489l0.04,0l0,1.323c-0.354,0.097 -0.806,0.192 -1.357,0.285c-0.551,0.091 -0.976,0.138 -1.276,0.138c-1.429,0 -2.483,-0.418 -3.161,-1.257c-0.68,-0.837 -1.019,-2.088 -1.019,-3.755l0,-8.811l-1.64,0Z" style="fill:#797878;fill-rule:nonzero;"/><path d="M221.459,258.434l-11.587,0l0,-19.695l1.389,0l0,18.399l10.198,0l0,1.296Z" style="fill:#797878;fill-rule:nonzero;"/><path d="M233.774,249.77c0,-1.604 -0.398,-2.874 -1.19,-3.811c-0.793,-0.933 -1.879,-1.401 -3.255,-1.401c-1.428,0 -2.618,0.482 -3.571,1.441c-0.952,0.962 -1.494,2.219 -1.627,3.771l9.643,0Zm-9.695,1.244c0,2.02 0.495,3.617 1.487,4.794c0.992,1.178 2.326,1.766 4.002,1.766c0.881,0 1.831,-0.167 2.851,-0.502c1.018,-0.335 1.756,-0.701 2.214,-1.098l0.107,0l0,1.534c-1.764,0.828 -3.386,1.243 -4.867,1.243c-2.249,0 -3.994,-0.663 -5.233,-1.991c-1.239,-1.326 -1.858,-3.193 -1.858,-5.6c0,-1.544 0.273,-2.911 0.82,-4.101c0.547,-1.191 1.316,-2.113 2.308,-2.765c0.992,-0.653 2.132,-0.979 3.419,-0.979c1.711,0 3.091,0.592 4.141,1.772c1.049,1.183 1.575,2.76 1.575,4.736l0,1.191l-10.966,0Z" style="fill:#797878;fill-rule:nonzero;"/><path d="M240.441,258.434l-1.364,0l0,-14.735l1.364,0l0,14.735Zm0.172,-17.381l-1.705,0l0,-2.063l1.705,0l0,2.063Z" style="fill:#797878;fill-rule:nonzero;"/><path d="M254.937,245.842c-1.278,-0.874 -2.685,-1.311 -4.218,-1.311c-1.448,0 -2.603,0.6 -3.467,1.799c-0.864,1.2 -1.296,2.8 -1.296,4.803c0,2.071 0.352,3.65 1.059,4.734c0.705,1.085 1.719,1.627 3.041,1.627c0.882,0 1.685,-0.153 2.408,-0.463c0.723,-0.308 1.547,-0.837 2.473,-1.586l0,-9.603Zm1.336,12.592l-1.336,0l0,-1.799c-0.838,0.75 -1.631,1.294 -2.38,1.633c-0.75,0.341 -1.525,0.511 -2.329,0.511c-1.773,0 -3.157,-0.668 -4.153,-2.005c-0.997,-1.336 -1.494,-3.2 -1.494,-5.589c0,-1.464 0.261,-2.801 0.786,-4.014c0.526,-1.213 1.258,-2.158 2.202,-2.837c0.944,-0.68 2.011,-1.019 3.202,-1.019c0.757,0 1.454,0.09 2.09,0.271c0.635,0.182 1.326,0.474 2.076,0.88l0,-6.614l1.336,0l0,20.582Z" style="fill:#797878;fill-rule:nonzero;"/><path d="M271.088,249.77c0,-1.604 -0.397,-2.874 -1.19,-3.811c-0.793,-0.933 -1.879,-1.401 -3.255,-1.401c-1.428,0 -2.618,0.482 -3.571,1.441c-0.953,0.962 -1.494,2.219 -1.627,3.771l9.643,0Zm-9.696,1.244c0,2.02 0.496,3.617 1.488,4.794c0.992,1.178 2.326,1.766 4.002,1.766c0.881,0 1.831,-0.167 2.851,-0.502c1.018,-0.335 1.756,-0.701 2.214,-1.098l0.107,0l0,1.534c-1.764,0.828 -3.386,1.243 -4.867,1.243c-2.25,0 -3.994,-0.663 -5.233,-1.991c-1.239,-1.326 -1.857,-3.193 -1.857,-5.6c0,-1.544 0.271,-2.911 0.819,-4.101c0.547,-1.191 1.316,-2.113 2.309,-2.765c0.991,-0.653 2.132,-0.979 3.418,-0.979c1.711,0 3.091,0.592 4.141,1.772c1.049,1.183 1.575,2.76 1.575,4.736l0,1.191l-10.967,0Z" style="fill:#797878;fill-rule:nonzero;"/><path d="M287.148,258.434l-1.337,0l0,-9.365c0,-2.945 -1.125,-4.418 -3.373,-4.418c-0.874,0 -1.755,0.196 -2.647,0.589c-0.889,0.392 -1.679,0.941 -2.368,1.646l0,11.548l-1.348,0l0,-14.735l1.348,0l0,1.839c0.645,-0.626 1.434,-1.159 2.368,-1.595c0.936,-0.436 1.786,-0.655 2.555,-0.655c1.533,0 2.717,0.457 3.55,1.37c0.834,0.913 1.251,2.189 1.251,3.829l0,9.947Z" style="fill:#797878;fill-rule:nonzero;"/><path d="M301.313,254.4c0,1.332 -0.491,2.393 -1.475,3.181c-0.983,0.789 -2.325,1.184 -4.028,1.184c-0.75,0 -1.514,-0.094 -2.295,-0.284c-0.781,-0.189 -1.637,-0.518 -2.574,-0.986l0,-1.56l0.081,0c0.68,0.502 1.457,0.912 2.334,1.229c0.878,0.318 1.784,0.476 2.719,0.476c1.251,0 2.214,-0.273 2.885,-0.819c0.668,-0.547 1.003,-1.315 1.003,-2.302c0,-0.519 -0.099,-0.937 -0.296,-1.25c-0.199,-0.312 -0.519,-0.573 -0.961,-0.78c-0.44,-0.207 -1.357,-0.465 -2.749,-0.774c-0.556,-0.124 -1.129,-0.262 -1.719,-0.418c-0.591,-0.153 -1.131,-0.374 -1.613,-0.661c-0.486,-0.286 -0.887,-0.664 -1.2,-1.13c-0.313,-0.467 -0.469,-1.071 -0.469,-1.812c0,-0.82 0.216,-1.564 0.649,-2.23c0.432,-0.665 1.038,-1.18 1.817,-1.546c0.783,-0.367 1.697,-0.549 2.747,-0.549c0.774,0 1.603,0.113 2.478,0.343c0.878,0.23 1.59,0.494 2.137,0.793l0,1.614l-0.132,0c-0.582,-0.422 -1.326,-0.781 -2.228,-1.072c-0.906,-0.29 -1.75,-0.435 -2.534,-0.435c-1.024,0 -1.874,0.251 -2.553,0.754c-0.678,0.502 -1.017,1.149 -1.017,1.944c0,0.908 0.306,1.583 0.924,2.024c0.618,0.441 1.685,0.806 3.202,1.098c1.773,0.318 3.026,0.779 3.764,1.382c0.736,0.605 1.103,1.466 1.103,2.586" style="fill:#797878;fill-rule:nonzero;"/><path d="M310.665,258.725c-2.054,0 -3.635,-0.67 -4.742,-2.01c-1.106,-1.341 -1.66,-3.223 -1.66,-5.649c0,-2.345 0.584,-4.219 1.753,-5.622c1.169,-1.402 2.763,-2.103 4.782,-2.103c1.269,0 2.773,0.446 4.511,1.336l0,1.681l-0.133,0c-1.605,-1.155 -3.149,-1.733 -4.63,-1.733c-1.542,0 -2.74,0.557 -3.592,1.672c-0.85,1.117 -1.275,2.705 -1.275,4.769c0,2.019 0.436,3.612 1.308,4.775c0.874,1.165 2.047,1.746 3.52,1.746c0.688,0 1.449,-0.163 2.289,-0.489c0.836,-0.326 1.629,-0.763 2.38,-1.309l0.133,0l0,1.388c-0.434,0.397 -1.111,0.755 -2.039,1.072c-0.924,0.317 -1.794,0.476 -2.605,0.476" style="fill:#797878;fill-rule:nonzero;"/><path d="M329.966,258.434l-1.336,0l0,-9.365c0,-2.945 -1.125,-4.418 -3.373,-4.418c-0.874,0 -1.755,0.196 -2.647,0.589c-0.889,0.392 -1.679,0.941 -2.368,1.646l0,11.548l-1.348,0l0,-20.582l1.348,0l0,7.686c0.645,-0.626 1.434,-1.159 2.368,-1.595c0.936,-0.436 1.786,-0.655 2.555,-0.655c1.533,0 2.717,0.457 3.55,1.37c0.834,0.913 1.251,2.189 1.251,3.829l0,9.947Z" style="fill:#797878;fill-rule:nonzero;"/><path d="M343.682,250.168c-2.249,0.079 -3.977,0.265 -5.186,0.556c-1.207,0.291 -2.087,0.719 -2.638,1.289c-0.551,0.568 -0.827,1.33 -0.827,2.282c0,1.014 0.312,1.827 0.933,2.44c0.623,0.614 1.453,0.919 2.494,0.919c0.988,0 1.889,-0.161 2.705,-0.483c0.815,-0.32 1.655,-0.861 2.519,-1.62l0,-5.383Zm0,6.693c-0.952,0.759 -1.808,1.272 -2.565,1.54c-0.759,0.27 -1.592,0.404 -2.5,0.404c-1.517,0 -2.727,-0.411 -3.633,-1.238c-0.902,-0.824 -1.355,-1.906 -1.355,-3.247c0,-1.268 0.354,-2.278 1.059,-3.029c0.705,-0.749 1.803,-1.307 3.292,-1.672c1.492,-0.366 3.388,-0.572 5.688,-0.616l0,-0.86c0,-1.083 -0.381,-1.941 -1.144,-2.572c-0.762,-0.63 -1.786,-0.945 -3.074,-0.945c-1.535,0 -3.011,0.33 -4.433,0.991l-0.078,0l0,-1.574c0.494,-0.193 1.146,-0.365 1.958,-0.517c0.81,-0.149 1.591,-0.224 2.34,-0.224c3.872,0 5.809,1.716 5.809,5.145l0,9.988l-1.364,0l0,-1.574Z" style="fill:#797878;fill-rule:nonzero;"/><path d="M357.082,239.32l-0.027,0c-0.899,-0.255 -1.698,-0.383 -2.394,-0.383c-1.102,0 -1.939,0.325 -2.507,0.979c-0.568,0.653 -0.853,1.684 -0.853,3.094l0,0.689l4.722,0l0,1.203l-4.682,0l0,13.532l-1.349,0l0,-13.532l-1.668,0l0,-1.203l1.668,0l0,-0.529c0,-1.729 0.414,-3.069 1.243,-4.021c0.828,-0.952 1.989,-1.43 3.479,-1.43c0.741,0 1.53,0.089 2.368,0.265l0,1.336Z" style="fill:#797878;fill-rule:nonzero;"/><path d="M357.055,244.902l0,-1.203l1.641,0l0,-4.245l1.348,0l0,4.245l5.371,0l0,1.203l-5.371,0l0,7.964c0,1.189 0.091,2.111 0.272,2.765c0.179,0.652 0.473,1.122 0.879,1.408c0.406,0.287 0.996,0.429 1.773,0.429c0.768,0 1.599,-0.163 2.499,-0.489l0.041,0l0,1.323c-0.354,0.097 -0.807,0.192 -1.357,0.285c-0.551,0.091 -0.976,0.138 -1.277,0.138c-1.428,0 -2.482,-0.418 -3.161,-1.257c-0.679,-0.837 -1.017,-2.088 -1.017,-3.755l0,-8.811l-1.641,0Z" style="fill:#797878;fill-rule:nonzero;"/><rect x="370.031" y="255.59" width="2.13" height="2.844" style="fill:#797878;"/></g></svg>