<svg xmlns="http://www.w3.org/2000/svg" viewBox="0 0 432.8 259.82"><defs><style>.cls-1{fill:#b20f24;}.cls-2{fill:#fff;fill-rule:evenodd;}.cls-3{fill:#797978;}</style></defs><title>online</title><g id="Ebene_2" data-name="Ebene 2"><g id="Ebene_1-2" data-name="Ebene 1"><rect class="cls-1" width="432.56" height="171.33"/><path class="cls-2" d="M158.46,149.92H255.1a11.54,11.54,0,0,0,11.57-11.45V114.86a11.54,11.54,0,0,0-11.57-11.45H198.41a6.09,6.09,0,0,1-6-6,6,6,0,0,1,6-6h64.11V74.21H181.91a11.55,11.55,0,0,0-11.57,11.45v23.6a11.55,11.55,0,0,0,11.57,11.46H238.6a5.95,5.95,0,1,1,0,11.89H168.39a12,12,0,0,1-12-11.89V74.21H36A11.54,11.54,0,0,0,24.47,85.66v23.6A11.54,11.54,0,0,0,36,120.72h56.7a5.95,5.95,0,1,1,0,11.89H21.63v17.31h87.6a11.55,11.55,0,0,0,11.57-11.45V114.86a11.55,11.55,0,0,0-11.57-11.45H52.54a6.09,6.09,0,0,1-6-6,6,6,0,0,1,6-6h82.22v35A23.65,23.65,0,0,0,158.46,149.92Z"/><path class="cls-1" d="M40.32,211.32A6.92,6.92,0,0,1,39,215.46a10.39,10.39,0,0,1-3.34,3,7.22,7.22,0,0,1-3.46,1.11H9.48a9.26,9.26,0,0,1-5-1.34,9.66,9.66,0,0,1-3.32-3.35A7.74,7.74,0,0,1,0,211V200.85a6.82,6.82,0,0,1,.79-3.19A9.52,9.52,0,0,1,2.92,195a10.42,10.42,0,0,1,2.83-1.86,7.28,7.28,0,0,1,2.93-.68H31a10.82,10.82,0,0,1,7.61,3.86,7.92,7.92,0,0,1,1.71,5.26Zm-8.48-2.55v-5.58a3.93,3.93,0,0,0-1.3-3A5.77,5.77,0,0,0,26.45,199H13.39a4.46,4.46,0,0,0-1.88.53,6.55,6.55,0,0,0-2,1.4,2.61,2.61,0,0,0-.83,1.85v5.31a5,5,0,0,0,1.12,3.21,3.94,3.94,0,0,0,3.22,1.31H27.6a5.12,5.12,0,0,0,3-.88A3.37,3.37,0,0,0,31.84,208.77Z"/><path class="cls-1" d="M86.72,213.65a6.47,6.47,0,0,1-.8,2.77,7.38,7.38,0,0,1-2.57,2.8,7.89,7.89,0,0,1-4.51,1.2,9.47,9.47,0,0,1-4.18-.71,10,10,0,0,1-2.9-2.62l-14.32-15.9a5,5,0,0,0-1.08-1.07,2,2,0,0,0-1-.23,1.48,1.48,0,0,0-.81.27.88.88,0,0,0-.41.77v18.6H45.8V197.94a4.34,4.34,0,0,1,.4-1.55,7.6,7.6,0,0,1,3.78-3.8,8.69,8.69,0,0,1,3.7-.73,9.13,9.13,0,0,1,4.29.84,10.11,10.11,0,0,1,2.49,1.83l14.43,15.61A3.93,3.93,0,0,0,76,211.23a2.39,2.39,0,0,0,1.11.24c.49,0,.8-.14.91-.41a2.89,2.89,0,0,0,.18-1.14V192.43h8.48Z"/><path class="cls-1" d="M126,219.57H101.33a6.69,6.69,0,0,1-3.87-1.3,12,12,0,0,1-3.09-3,5.57,5.57,0,0,1-1.21-2.77v-20h8.17v16.29a3.74,3.74,0,0,0,.81,2.39,5.24,5.24,0,0,0,1.92,1.54,4.43,4.43,0,0,0,1.82.52H126Z"/><path class="cls-1" d="M141.85,219.53h-8.48v-27.1h8.48Z"/><path class="cls-1" d="M190.6,213.65a6.47,6.47,0,0,1-.8,2.77,7.3,7.3,0,0,1-2.57,2.8,7.89,7.89,0,0,1-4.51,1.2,9.47,9.47,0,0,1-4.18-.71,10,10,0,0,1-2.9-2.62l-14.32-15.9a5,5,0,0,0-1.08-1.07,2,2,0,0,0-1-.23,1.5,1.5,0,0,0-.81.27.88.88,0,0,0-.41.77v18.6h-8.35V197.94a4.34,4.34,0,0,1,.4-1.55,7.57,7.57,0,0,1,3.79-3.8,8.61,8.61,0,0,1,3.69-.73,9.13,9.13,0,0,1,4.29.84,10.37,10.37,0,0,1,2.5,1.83l14.42,15.61a3.93,3.93,0,0,0,1.15,1.09,2.45,2.45,0,0,0,1.11.24c.49,0,.8-.14.92-.41a3.11,3.11,0,0,0,.17-1.14V192.43h8.48Z"/><path class="cls-1" d="M237.38,204.81a4.54,4.54,0,0,1-1,3.05,4.34,4.34,0,0,1-3.5,1.24l-26.92,0v1.32a2.67,2.67,0,0,0,.85,1.9,2.53,2.53,0,0,0,1.84.88h28.33v6.4H207a9.08,9.08,0,0,1-5.16-1.45,10.33,10.33,0,0,1-3.31-3.38,6.65,6.65,0,0,1-1.13-3.16V199.81a5.16,5.16,0,0,1,.81-2.7,9.35,9.35,0,0,1,2.15-2.41,11.54,11.54,0,0,1,2.81-1.69,7.13,7.13,0,0,1,2.73-.62h24.43a5.7,5.7,0,0,1,2.35.6,10.43,10.43,0,0,1,2.34,1.48,8.77,8.77,0,0,1,1.7,1.9,3.55,3.55,0,0,1,.65,1.89Zm-8.31-4a1.62,1.62,0,0,0-.78-1.38,3.08,3.08,0,0,0-1.75-.53l-17.68,0a2.86,2.86,0,0,0-2,.91,2.74,2.74,0,0,0-.91,2v1.12H229Z"/><path class="cls-3" d="M283.07,215.39a4.38,4.38,0,0,1-1.07,2.94,3.83,3.83,0,0,1-3,1.24H244.83v-6.66h27.36a2.89,2.89,0,0,0,1.52-.49,1.58,1.58,0,0,0,.8-1.46,1.76,1.76,0,0,0-.33-1,2.39,2.39,0,0,0-1-.75,3.79,3.79,0,0,0-1.48-.29H251a5,5,0,0,1-2.64-.69,5.43,5.43,0,0,1-1.79-1.61,2.9,2.9,0,0,1-.63-1.5v-8.8a3.83,3.83,0,0,1,1.37-2.51,4.79,4.79,0,0,1,3.53-1.37h30.64v6.43H256.17a1.54,1.54,0,0,0-1.26.61,2,2,0,0,0-.47,1.27,1.9,1.9,0,0,0,.65,1.28,2.39,2.39,0,0,0,1.84.69h20.75a5.6,5.6,0,0,1,4.08,1.3,4.61,4.61,0,0,1,1.31,3.43Z"/><path class="cls-3" d="M299,219.57h-8.36v-27.1H299Zm29.58,0h-8.52V209.33H304.36v-6.59h15.71V192.39h8.52Z"/><path class="cls-3" d="M376.54,211.32a6.92,6.92,0,0,1-1.37,4.14,10.36,10.36,0,0,1-3.33,3,7.28,7.28,0,0,1-3.47,1.11H345.7a9.23,9.23,0,0,1-5-1.34,9.66,9.66,0,0,1-3.32-3.35,7.64,7.64,0,0,1-1.16-3.85V200.85a6.82,6.82,0,0,1,.79-3.19,9.52,9.52,0,0,1,2.09-2.69,10.58,10.58,0,0,1,2.83-1.86,7.24,7.24,0,0,1,2.93-.68h22.32a10.82,10.82,0,0,1,7.61,3.86,7.92,7.92,0,0,1,1.71,5.26Zm-8.48-2.55v-5.58a3.93,3.93,0,0,0-1.3-3,5.77,5.77,0,0,0-4.09-1.23H349.61a4.54,4.54,0,0,0-1.89.53,6.64,6.64,0,0,0-2,1.4,2.66,2.66,0,0,0-.83,1.85v5.31a5.06,5.06,0,0,0,1.12,3.21,3.94,3.94,0,0,0,3.22,1.31h14.54a5.1,5.1,0,0,0,3-.88A3.37,3.37,0,0,0,368.06,208.77Z"/><path class="cls-3" d="M421.52,204a6.22,6.22,0,0,1-1.19,3.85,4.73,4.73,0,0,1-4,1.57H392.2v10.16h-8.47V202.86H411.3a1.61,1.61,0,0,0,1.11-.59A1.84,1.84,0,0,0,413,201a1.62,1.62,0,0,0-.46-1.18,2.86,2.86,0,0,0-1.25-.7,5.61,5.61,0,0,0-1.56-.23h-26v-6.43h31.8q3.32,0,4.65,1.48a5.28,5.28,0,0,1,1.34,3.72Z"/><path class="cls-3" d="M141.93,249.48a10.13,10.13,0,0,1-1.28,5.16,8.9,8.9,0,0,1-3.86,3.49,13,13,0,0,1-5.83,1.28H126V239.52h4.88q5.25,0,8.13,2.62A9.38,9.38,0,0,1,141.93,249.48Zm-1.5,0a8,8,0,0,0-2.49-6.35c-1.66-1.46-4.09-2.2-7.3-2.2h-3.21V258.1h3a13.15,13.15,0,0,0,5.47-1,7.29,7.29,0,0,0,3.42-3A9.1,9.1,0,0,0,140.43,249.44Z"/><path class="cls-3" d="M154.9,257.82a9.51,9.51,0,0,1-2.59,1.55,7.34,7.34,0,0,1-2.53.41,5.18,5.18,0,0,1-3.66-1.25,4.19,4.19,0,0,1-1.37-3.28,4.3,4.3,0,0,1,1.06-3.06,6.81,6.81,0,0,1,3.33-1.69,27.85,27.85,0,0,1,5.75-.62V249a3.19,3.19,0,0,0-1.16-2.6,4.72,4.72,0,0,0-3.11-1,10.56,10.56,0,0,0-4.47,1h-.08v-1.59a12.24,12.24,0,0,1,2-.52,13,13,0,0,1,2.36-.22q5.86,0,5.86,5.19v10.09H154.9Zm0-6.76a28.34,28.34,0,0,0-5.24.56,5.38,5.38,0,0,0-2.66,1.3,3.17,3.17,0,0,0-.84,2.31,3.33,3.33,0,0,0,.94,2.46,3.44,3.44,0,0,0,2.52.93,7.25,7.25,0,0,0,2.73-.49,8.9,8.9,0,0,0,2.55-1.63Z"/><path class="cls-3" d="M170.58,255.33a3.93,3.93,0,0,1-1.49,3.22,6.36,6.36,0,0,1-4.07,1.19,9.31,9.31,0,0,1-2.31-.29,12.37,12.37,0,0,1-2.6-1v-1.58h.08a9.28,9.28,0,0,0,2.36,1.25,8,8,0,0,0,2.74.48,4.5,4.5,0,0,0,2.91-.83,2.83,2.83,0,0,0,1-2.33,2.35,2.35,0,0,0-.3-1.26,2.31,2.31,0,0,0-1-.79,16,16,0,0,0-2.78-.78q-.84-.18-1.74-.42a6.21,6.21,0,0,1-1.63-.67,3.64,3.64,0,0,1-1.2-1.14,3.19,3.19,0,0,1-.48-1.83,4,4,0,0,1,.66-2.25,4.26,4.26,0,0,1,1.83-1.56,6.46,6.46,0,0,1,2.77-.56,11.21,11.21,0,0,1,4.67,1.15V247h-.14a7.73,7.73,0,0,0-2.25-1.08,8.45,8.45,0,0,0-2.56-.44,4.17,4.17,0,0,0-2.57.76,2.33,2.33,0,0,0-1,2,2.36,2.36,0,0,0,.93,2.05,8.87,8.87,0,0,0,3.24,1.11,8.56,8.56,0,0,1,3.8,1.39A3.19,3.19,0,0,1,170.58,255.33Z"/><path class="cls-3" d="M200.57,257.78a14.68,14.68,0,0,1-3.42,1.49,12.49,12.49,0,0,1-3.55.55,11.4,11.4,0,0,1-5.44-1.23,8.4,8.4,0,0,1-3.55-3.58,11.77,11.77,0,0,1-1.25-5.57,11.92,11.92,0,0,1,1.19-5.45,8.27,8.27,0,0,1,3.42-3.58,10.75,10.75,0,0,1,5.27-1.24,14.4,14.4,0,0,1,3.61.48,16.75,16.75,0,0,1,3.52,1.32v1.83h-.11a16.26,16.26,0,0,0-3.78-1.74,12.87,12.87,0,0,0-3.64-.53,7.52,7.52,0,0,0-5.9,2.37,9.33,9.33,0,0,0-2.12,6.46,9.49,9.49,0,0,0,2.23,6.69,7.89,7.89,0,0,0,6.16,2.44,13.58,13.58,0,0,0,3.29-.36,9.64,9.64,0,0,0,2.71-1.14v-5.8h-6v-1.31h7.33Z"/><path class="cls-3" d="M205,251.91a7.31,7.31,0,0,0,1.5,4.85,5,5,0,0,0,4,1.78,9.16,9.16,0,0,0,2.87-.51,6.71,6.71,0,0,0,2.24-1.11h.11v1.55a11.64,11.64,0,0,1-4.92,1.26,6.87,6.87,0,0,1-5.28-2,8,8,0,0,1-1.88-5.66,9.84,9.84,0,0,1,.83-4.14,6.49,6.49,0,0,1,2.33-2.79,6.13,6.13,0,0,1,3.46-1,5.36,5.36,0,0,1,4.18,1.79,7,7,0,0,1,1.59,4.78v1.2Zm9.79-1.25a5.78,5.78,0,0,0-1.2-3.85,4.09,4.09,0,0,0-3.28-1.41,4.86,4.86,0,0,0-3.61,1.45,5.92,5.92,0,0,0-1.64,3.81Z"/><path class="cls-3" d="M229.3,255.33a3.9,3.9,0,0,1-1.49,3.22,6.35,6.35,0,0,1-4.06,1.19,9.39,9.39,0,0,1-2.32-.29,12.37,12.37,0,0,1-2.6-1v-1.58h.08a9.45,9.45,0,0,0,2.36,1.25,8,8,0,0,0,2.74.48,4.53,4.53,0,0,0,2.92-.83,2.85,2.85,0,0,0,1-2.33,2.35,2.35,0,0,0-.3-1.26,2.25,2.25,0,0,0-1-.79,16,16,0,0,0-2.78-.78c-.56-.12-1.14-.26-1.73-.42a6.07,6.07,0,0,1-1.63-.67,3.67,3.67,0,0,1-1.21-1.14,3.19,3.19,0,0,1-.48-1.83,4,4,0,0,1,.66-2.25,4.29,4.29,0,0,1,1.84-1.56,6.43,6.43,0,0,1,2.77-.56,10,10,0,0,1,2.5.35,9.57,9.57,0,0,1,2.16.8V247h-.13a7.86,7.86,0,0,0-2.25-1.08,8.55,8.55,0,0,0-2.56-.44,4.18,4.18,0,0,0-2.58.76,2.53,2.53,0,0,0-.09,4,8.88,8.88,0,0,0,3.23,1.11,8.56,8.56,0,0,1,3.8,1.39A3.19,3.19,0,0,1,229.3,255.33Z"/><path class="cls-3" d="M238.75,259.7a5.82,5.82,0,0,1-4.79-2,8.69,8.69,0,0,1-1.68-5.7,8.6,8.6,0,0,1,1.77-5.68,5.94,5.94,0,0,1,4.83-2.12,10.38,10.38,0,0,1,4.56,1.35v1.69h-.14a8.11,8.11,0,0,0-4.67-1.75,4.32,4.32,0,0,0-3.63,1.69,9.55,9.55,0,0,0,0,9.64,4.22,4.22,0,0,0,3.56,1.76,6.44,6.44,0,0,0,2.31-.49,10.63,10.63,0,0,0,2.4-1.32h.14v1.4a6,6,0,0,1-2.06,1.08A8.16,8.16,0,0,1,238.75,259.7Z"/><path class="cls-3" d="M258.24,259.41h-1.35V250q0-4.45-3.41-4.46a6.69,6.69,0,0,0-2.67.59,7.48,7.48,0,0,0-2.39,1.67v11.66h-1.36V238.62h1.36v7.76a8.94,8.94,0,0,1,2.39-1.61,6.15,6.15,0,0,1,2.58-.66A4.57,4.57,0,0,1,257,245.5a5.48,5.48,0,0,1,1.27,3.86Z"/><path class="cls-3" d="M272.09,257.82a9.51,9.51,0,0,1-2.59,1.55,7.34,7.34,0,0,1-2.53.41,5.18,5.18,0,0,1-3.66-1.25,4.19,4.19,0,0,1-1.37-3.28,4.26,4.26,0,0,1,1.07-3.06,6.78,6.78,0,0,1,3.32-1.69,27.93,27.93,0,0,1,5.75-.62V249a3.19,3.19,0,0,0-1.16-2.6,4.7,4.7,0,0,0-3.11-1,10.56,10.56,0,0,0-4.47,1h-.08v-1.59a12.53,12.53,0,0,1,2-.52,13,13,0,0,1,2.36-.22q5.86,0,5.86,5.19v10.09h-1.37Zm0-6.76a28.34,28.34,0,0,0-5.24.56,5.38,5.38,0,0,0-2.66,1.3,3.17,3.17,0,0,0-.84,2.31,3.33,3.33,0,0,0,.94,2.46,3.44,3.44,0,0,0,2.52.93,7.25,7.25,0,0,0,2.73-.49,8.77,8.77,0,0,0,2.55-1.63Zm-5.16-9.2h-2v-2.09h2Zm4.69,0h-2v-2.09h2Z"/><path class="cls-3" d="M285.62,240.11h0a8.84,8.84,0,0,0-2.41-.39,3.19,3.19,0,0,0-2.54,1,4.71,4.71,0,0,0-.86,3.12v.7h4.77v1.21h-4.73v13.67h-1.36V245.74h-1.68v-1.21h1.68V244a6,6,0,0,1,1.26-4.06,4.4,4.4,0,0,1,3.51-1.44,11.52,11.52,0,0,1,2.39.27Z"/><path class="cls-3" d="M285.59,245.74v-1.21h1.66v-4.29h1.36v4.29H294v1.21h-5.43v8a10.66,10.66,0,0,0,.28,2.8,2.45,2.45,0,0,0,.89,1.42,3.05,3.05,0,0,0,1.79.43,7.42,7.42,0,0,0,2.52-.49h0v1.33a12.64,12.64,0,0,1-1.37.29,7.69,7.69,0,0,1-1.29.14,3.86,3.86,0,0,1-3.19-1.27,5.89,5.89,0,0,1-1-3.79v-8.9Z"/><path class="cls-3" d="M300.85,259.41H298.7v-2.87h2.15Z"/><path class="cls-3" d="M423.29,197.28a4.58,4.58,0,0,1,.64-2.37,4.78,4.78,0,0,1,1.73-1.73,4.57,4.57,0,0,1,2.38-.64,4.68,4.68,0,0,1,2.38.63,4.81,4.81,0,0,1,1.74,1.73,4.59,4.59,0,0,1,.64,2.38,4.69,4.69,0,0,1-.65,2.39,4.79,4.79,0,0,1-1.74,1.75,4.67,4.67,0,0,1-2.37.63,4.58,4.58,0,0,1-2.37-.64,4.79,4.79,0,0,1-1.74-1.75A4.65,4.65,0,0,1,423.29,197.28Zm.84,0a3.87,3.87,0,0,0,.54,2,3.78,3.78,0,0,0,1.43,1.43,4,4,0,0,0,3.91,0,3.82,3.82,0,0,0,1.42-1.43,3.86,3.86,0,0,0,.53-2,3.92,3.92,0,0,0-.52-2,3.9,3.9,0,0,0-3.39-2,3.88,3.88,0,0,0-2,.53,3.78,3.78,0,0,0-1.43,1.43A4,4,0,0,0,424.13,197.3Zm6.35,2.34h-1.11l-1.53-1.88h-.67v1.88h-.88v-4.89h1.6a2.11,2.11,0,0,1,1.33.35,1.21,1.21,0,0,1,.47,1,1.37,1.37,0,0,1-.28.89,1.55,1.55,0,0,1-.72.53Zm-1.76-3.48a.55.55,0,0,0-.29-.52,1.62,1.62,0,0,0-.79-.17h-.47V197h.45a1.33,1.33,0,0,0,.83-.22A.78.78,0,0,0,428.72,196.16Z"/></g></g></svg>