<?xml version="1.0" encoding="UTF-8" standalone="no"?><!DOCTYPE svg PUBLIC "-//W3C//DTD SVG 1.1//EN" "http://www.w3.org/Graphics/SVG/1.1/DTD/svg11.dtd"><svg width="100%" height="100%" viewBox="0 0 433 264" version="1.1" xmlns="http://www.w3.org/2000/svg" xmlns:xlink="http://www.w3.org/1999/xlink" xml:space="preserve" xmlns:serif="http://www.serif.com/" style="fill-rule:evenodd;clip-rule:evenodd;stroke-linejoin:round;stroke-miterlimit:1.41421;"><g id="onlineshop"><rect x="0" y="0" width="432.988" height="169.845" style="fill:#fff;"/><rect x="0" y="0" width="432.559" height="171.334" style="fill:#b20f24;"/><path d="M158.458,149.918l96.646,0c6.362,0 11.566,-5.154 11.566,-11.453l0,-23.601c0,-6.299 -5.204,-11.452 -11.566,-11.452l-56.694,0c-3.318,0 -6.006,-2.802 -6.006,-6.057c0,-3.27 2.703,-5.947 6.006,-5.947l64.11,0l0,-17.196l-80.612,0c-6.361,0 -11.565,5.153 -11.565,11.453l0,23.6c0,6.299 5.204,11.452 11.565,11.452l56.695,0c3.302,0 6.005,2.677 6.005,5.948c0,3.271 -2.703,5.947 -6.005,5.947l-70.209,0c-6.607,0 -12.012,-5.352 -12.012,-11.895l0,-46.505l-120.348,0c-6.361,0 -11.565,5.153 -11.565,11.453l0,23.6c0,6.299 5.204,11.452 11.565,11.452l56.694,0c3.303,0 6.006,2.677 6.006,5.948c0,3.271 -2.703,5.947 -6.006,5.947l-71.1,0l0,17.306l87.602,0c6.362,0 11.566,-5.154 11.566,-11.453l0,-23.601c0,-6.299 -5.204,-11.452 -11.566,-11.452l-56.694,0c-3.319,0 -6.006,-2.802 -6.006,-6.057c0,-3.27 2.703,-5.947 6.006,-5.947l82.221,0l0,35.04c0,12.908 10.665,23.47 23.701,23.47" style="fill:#fff;"/><path d="M32.601,211.182l0,-6.371c0,-1.34 -0.441,-2.477 -1.327,-3.414c-0.885,-0.935 -2.28,-1.403 -4.192,-1.403l-13.377,0c-0.516,0 -1.159,0.202 -1.925,0.604c-0.766,0.404 -1.432,0.937 -2,1.6c-0.571,0.662 -0.855,1.367 -0.855,2.116l0,6.07c0.027,1.454 0.41,2.677 1.149,3.672c0.735,0.994 1.836,1.489 3.296,1.489l14.892,0c1.206,0 2.232,-0.334 3.075,-1.005c0.844,-0.668 1.264,-1.787 1.264,-3.358m8.679,2.915c0,1.716 -0.468,3.296 -1.403,4.736c-0.933,1.442 -2.071,2.585 -3.412,3.428c-1.34,0.845 -2.523,1.267 -3.549,1.267l-23.211,0c-1.909,0 -3.601,-0.512 -5.074,-1.536c-1.478,-1.023 -2.61,-2.301 -3.403,-3.83c-0.793,-1.527 -1.19,-2.991 -1.19,-4.39l0,-11.637c0,-1.267 0.27,-2.483 0.81,-3.643c0.541,-1.161 1.252,-2.189 2.138,-3.083c0.884,-0.894 1.85,-1.6 2.895,-2.119c1.048,-0.519 2.049,-0.78 3.004,-0.78l22.851,0c1.026,0 2.292,0.346 3.792,1.038c1.505,0.693 2.838,1.817 4.005,3.375c1.162,1.558 1.747,3.562 1.747,6.012l0,11.162Z" style="fill:#b20f24;fill-rule:nonzero;"/><path d="M88.79,216.757c0,0.894 -0.27,1.95 -0.814,3.168c-0.54,1.22 -1.416,2.286 -2.633,3.201c-1.214,0.916 -2.756,1.374 -4.623,1.374c-1.921,0 -3.347,-0.271 -4.274,-0.811c-0.927,-0.541 -1.919,-1.539 -2.972,-2.996l-14.658,-18.168c-0.466,-0.634 -0.832,-1.041 -1.106,-1.222c-0.277,-0.18 -0.614,-0.27 -1.022,-0.27c-0.266,0 -0.541,0.105 -0.82,0.314c-0.285,0.208 -0.424,0.5 -0.424,0.875l0,21.262l-8.553,0l0,-24.679c0,-0.433 0.137,-1.02 0.414,-1.763c0.274,-0.742 0.725,-1.513 1.359,-2.315c0.631,-0.801 1.469,-1.477 2.516,-2.033c1.046,-0.554 2.304,-0.832 3.782,-0.832c1.866,0 3.331,0.321 4.39,0.962c1.06,0.642 1.915,1.338 2.558,2.087l14.768,17.845c0.462,0.648 0.855,1.064 1.18,1.244c0.322,0.18 0.701,0.269 1.136,0.269c0.506,0 0.816,-0.154 0.937,-0.465c0.119,-0.308 0.18,-0.745 0.18,-1.308l0,-19.986l8.679,0l0,24.247Z" style="fill:#b20f24;fill-rule:nonzero;"/><path d="M129.03,223.527l-25.277,0c-1.361,0 -2.681,-0.494 -3.962,-1.482c-1.283,-0.986 -2.336,-2.144 -3.16,-3.471c-0.828,-1.327 -1.24,-2.379 -1.24,-3.159l0,-22.905l8.362,0l0,18.623c0,1.038 0.278,1.946 0.831,2.726c0.554,0.779 1.208,1.365 1.96,1.762c0.75,0.398 1.371,0.595 1.863,0.595l20.623,0l0,7.311Z" style="fill:#b20f24;fill-rule:nonzero;"/><rect x="136.563" y="192.51" width="8.68" height="30.974" style="fill:#b20f24;"/><path d="M195.155,216.757c0,0.894 -0.27,1.95 -0.814,3.168c-0.54,1.22 -1.415,2.286 -2.632,3.201c-1.215,0.916 -2.757,1.374 -4.623,1.374c-1.922,0 -3.348,-0.271 -4.275,-0.811c-0.927,-0.541 -1.918,-1.539 -2.972,-2.996l-14.658,-18.168c-0.466,-0.634 -0.831,-1.041 -1.106,-1.222c-0.276,-0.18 -0.614,-0.27 -1.022,-0.27c-0.266,0 -0.539,0.105 -0.82,0.314c-0.285,0.208 -0.424,0.5 -0.424,0.875l0,21.262l-8.553,0l0,-24.679c0,-0.433 0.138,-1.02 0.414,-1.763c0.275,-0.742 0.725,-1.513 1.359,-2.315c0.633,-0.801 1.469,-1.477 2.517,-2.033c1.045,-0.554 2.304,-0.832 3.781,-0.832c1.867,0 3.331,0.321 4.39,0.962c1.06,0.642 1.915,1.338 2.558,2.087l14.769,17.845c0.461,0.648 0.855,1.064 1.179,1.244c0.322,0.18 0.702,0.269 1.136,0.269c0.506,0 0.816,-0.154 0.937,-0.465c0.12,-0.308 0.18,-0.745 0.18,-1.308l0,-19.986l8.679,0l0,24.247Z" style="fill:#b20f24;fill-rule:nonzero;"/><path d="M234.546,202.092c0,-0.648 -0.267,-1.174 -0.8,-1.578c-0.534,-0.404 -1.129,-0.606 -1.789,-0.606l-18.098,-0.044c-0.773,0 -1.472,0.347 -2.093,1.038c-0.626,0.693 -0.937,1.444 -0.937,2.25l0,1.276l23.676,0l0.041,-2.336Zm8.508,4.563c0,1.386 -0.356,2.551 -1.075,3.494c-0.714,0.945 -1.908,1.417 -3.579,1.417l-27.571,-0.043l0,1.513c0,0.779 0.291,1.504 0.871,2.175c0.586,0.67 1.215,1.004 1.888,1.004l29.004,0l0,7.313l-30.629,0c-2.034,0 -3.798,-0.554 -5.286,-1.655c-1.487,-1.103 -2.618,-2.39 -3.391,-3.861c-0.773,-1.471 -1.156,-2.674 -1.156,-3.613l0,-13.453c0,-1.038 0.276,-2.067 0.83,-3.082c0.554,-1.017 1.289,-1.937 2.203,-2.757c0.912,-0.823 1.87,-1.468 2.872,-1.937c1.005,-0.468 1.935,-0.703 2.794,-0.703l25.022,0c0.716,0 1.516,0.227 2.401,0.682c0.886,0.454 1.687,1.019 2.401,1.697c0.718,0.679 1.296,1.4 1.737,2.164c0.444,0.764 0.664,1.485 0.664,2.162l0,7.483Z" style="fill:#b20f24;fill-rule:nonzero;"/><path d="M289.843,218.747c0,1.297 -0.369,2.42 -1.105,3.363c-0.738,0.946 -1.775,1.418 -3.107,1.418l-34.943,0l0,-7.614l28.014,0c0.489,0 1.009,-0.185 1.556,-0.552c0.547,-0.368 0.821,-0.926 0.821,-1.677c0,-0.402 -0.113,-0.785 -0.344,-1.146c-0.234,-0.36 -0.579,-0.649 -1.044,-0.864c-0.462,-0.217 -0.967,-0.326 -1.515,-0.326l-21.197,0c-1.009,0 -1.912,-0.261 -2.704,-0.789c-0.794,-0.526 -1.402,-1.139 -1.83,-1.838c-0.427,-0.699 -0.643,-1.273 -0.643,-1.72l0,-10.057c0,-0.865 0.469,-1.821 1.403,-2.867c0.932,-1.044 2.136,-1.568 3.61,-1.568l31.381,0l0,7.355l-25.903,0c-0.534,0 -0.965,0.231 -1.286,0.691c-0.325,0.462 -0.486,0.945 -0.486,1.451c0,0.461 0.223,0.95 0.664,1.47c0.444,0.519 1.071,0.778 1.887,0.778l21.251,0c1.881,0 3.274,0.498 4.173,1.492c0.9,0.996 1.347,2.302 1.347,3.916l0,9.084Z" style="fill:#797878;fill-rule:nonzero;"/><path d="M336.446,223.527l-8.719,0l0,-11.701l-16.091,0l0,-7.527l16.091,0l0,-11.832l8.719,0l0,31.06Zm-30.289,0l-8.552,0l0,-30.974l8.552,0l0,30.974Z" style="fill:#797878;fill-rule:nonzero;"/><path d="M376.864,211.182l0,-6.371c0,-1.34 -0.444,-2.477 -1.33,-3.414c-0.882,-0.935 -2.28,-1.403 -4.189,-1.403l-13.376,0c-0.52,0 -1.163,0.202 -1.929,0.604c-0.766,0.404 -1.433,0.937 -2,1.6c-0.568,0.662 -0.852,1.367 -0.852,2.116l0,6.07c0.027,1.454 0.41,2.677 1.146,3.672c0.738,0.994 1.836,1.489 3.296,1.489l14.896,0c1.206,0 2.232,-0.334 3.074,-1.005c0.84,-0.668 1.264,-1.787 1.264,-3.358m8.676,2.915c0,1.716 -0.465,3.296 -1.4,4.736c-0.933,1.442 -2.071,2.585 -3.412,3.428c-1.34,0.845 -2.523,1.267 -3.548,1.267l-23.212,0c-1.912,0 -3.605,-0.512 -5.077,-1.536c-1.475,-1.023 -2.61,-2.301 -3.404,-3.83c-0.792,-1.527 -1.19,-2.991 -1.19,-4.39l0,-11.637c0,-1.267 0.271,-2.483 0.81,-3.643c0.542,-1.161 1.256,-2.189 2.141,-3.083c0.883,-0.894 1.851,-1.6 2.897,-2.119c1.043,-0.519 2.045,-0.78 2.999,-0.78l22.855,0c1.026,0 2.288,0.346 3.793,1.038c1.501,0.693 2.835,1.817 4.001,3.375c1.165,1.558 1.747,3.562 1.747,6.012l0,11.162Z" style="fill:#797878;fill-rule:nonzero;"/><path d="M431.6,205.726c0,1.73 -0.407,3.194 -1.221,4.391c-0.814,1.197 -2.178,1.795 -4.087,1.795l-24.708,0l0,11.615l-8.679,0l0,-19.099l28.227,0c0.377,0 0.757,-0.223 1.136,-0.67c0.38,-0.446 0.57,-0.944 0.57,-1.493c0,-0.532 -0.16,-0.98 -0.475,-1.34c-0.314,-0.361 -0.741,-0.628 -1.275,-0.8c-0.533,-0.174 -1.067,-0.261 -1.6,-0.261l-26.583,0l0,-7.353l32.567,0c2.26,0 3.846,0.562 4.76,1.687c0.913,1.123 1.368,2.545 1.368,4.26l0,7.268Z" style="fill:#797878;fill-rule:nonzero;"/><path d="M140.432,249.442c0,-2.769 -0.832,-4.886 -2.491,-6.351c-1.663,-1.464 -4.095,-2.197 -7.301,-2.197l-3.206,0l0,17.204l2.978,0c2.128,0 3.952,-0.342 5.471,-1.028c1.517,-0.685 2.655,-1.672 3.413,-2.959c0.755,-1.286 1.136,-2.842 1.136,-4.669m1.496,0.04c0,1.969 -0.428,3.688 -1.276,5.156c-0.852,1.47 -2.137,2.632 -3.861,3.488c-1.722,0.854 -3.667,1.282 -5.831,1.282l-4.928,0l0,-19.89l4.876,0c3.499,0 6.211,0.873 8.134,2.618c1.924,1.745 2.886,4.195 2.886,7.346" style="fill:#797878;fill-rule:nonzero;"/><path d="M154.898,251.058c-2.27,0.08 -4.018,0.268 -5.236,0.562c-1.223,0.293 -2.112,0.727 -2.665,1.302c-0.558,0.574 -0.835,1.342 -0.835,2.304c0,1.025 0.313,1.847 0.941,2.465c0.628,0.619 1.467,0.929 2.519,0.929c0.995,0 1.906,-0.163 2.731,-0.489c0.821,-0.323 1.67,-0.869 2.545,-1.636l0,-5.437Zm0,6.76c-0.962,0.766 -1.827,1.286 -2.592,1.556c-0.767,0.272 -1.608,0.408 -2.523,0.408c-1.534,0 -2.756,-0.416 -3.667,-1.249c-0.916,-0.832 -1.369,-1.926 -1.369,-3.28c0,-1.283 0.352,-2.301 1.067,-3.059c0.713,-0.756 1.82,-1.32 3.326,-1.69c1.504,-0.369 3.421,-0.576 5.744,-0.621l0,-0.868c0,-1.095 -0.386,-1.961 -1.155,-2.598c-0.77,-0.636 -1.806,-0.955 -3.105,-0.955c-1.549,0 -3.043,0.334 -4.476,1.002l-0.08,0l0,-1.59c0.499,-0.195 1.155,-0.369 1.977,-0.521c0.819,-0.15 1.607,-0.227 2.365,-0.227c3.907,0 5.864,1.733 5.864,5.196l0,10.086l-1.376,0l0,-1.59Z" style="fill:#797878;fill-rule:nonzero;"/><path d="M170.581,255.334c0,1.346 -0.498,2.416 -1.489,3.212c-0.995,0.799 -2.352,1.196 -4.069,1.196c-0.757,0 -1.529,-0.096 -2.317,-0.287c-0.788,-0.19 -1.656,-0.523 -2.598,-0.995l0,-1.577l0.08,0c0.685,0.508 1.469,0.922 2.358,1.243c0.885,0.32 1.8,0.48 2.745,0.48c1.263,0 2.234,-0.275 2.912,-0.828c0.675,-0.55 1.016,-1.326 1.016,-2.324c0,-0.524 -0.101,-0.945 -0.301,-1.263c-0.2,-0.315 -0.525,-0.578 -0.969,-0.788c-0.447,-0.209 -1.372,-0.468 -2.778,-0.781c-0.562,-0.124 -1.143,-0.264 -1.736,-0.421c-0.598,-0.155 -1.143,-0.377 -1.63,-0.668c-0.492,-0.289 -0.896,-0.67 -1.209,-1.142c-0.318,-0.471 -0.475,-1.082 -0.475,-1.829c0,-0.829 0.218,-1.579 0.655,-2.251c0.434,-0.672 1.048,-1.193 1.836,-1.563c0.788,-0.369 1.71,-0.555 2.773,-0.555c0.781,0 1.616,0.117 2.505,0.348c0.884,0.232 1.602,0.499 2.157,0.802l0,1.63l-0.134,0c-0.588,-0.428 -1.339,-0.789 -2.251,-1.082c-0.915,-0.294 -1.767,-0.442 -2.558,-0.442c-1.036,0 -1.893,0.254 -2.578,0.762c-0.688,0.508 -1.029,1.162 -1.029,1.964c0,0.917 0.311,1.598 0.936,2.043c0.621,0.445 1.699,0.814 3.232,1.108c1.79,0.32 3.056,0.786 3.801,1.396c0.741,0.611 1.115,1.481 1.115,2.612" style="fill:#797878;fill-rule:nonzero;"/><path d="M200.57,257.778c-1.035,0.624 -2.174,1.12 -3.42,1.489c-1.249,0.369 -2.431,0.555 -3.553,0.555c-2.084,0 -3.897,-0.409 -5.437,-1.23c-1.543,-0.818 -2.725,-2.013 -3.553,-3.585c-0.828,-1.572 -1.242,-3.427 -1.242,-5.565c0,-2.073 0.393,-3.891 1.182,-5.449c0.788,-1.558 1.926,-2.752 3.419,-3.58c1.49,-0.828 3.247,-1.242 5.27,-1.242c1.176,0 2.378,0.158 3.613,0.474c1.233,0.317 2.406,0.76 3.521,1.329l0,1.83l-0.108,0c-1.336,-0.81 -2.597,-1.391 -3.787,-1.743c-1.188,-0.351 -2.404,-0.528 -3.639,-0.528c-2.512,0 -4.476,0.788 -5.891,2.364c-1.416,1.577 -2.124,3.733 -2.124,6.465c0,2.842 0.741,5.073 2.224,6.692c1.482,1.622 3.537,2.432 6.165,2.432c1.235,0 2.334,-0.12 3.293,-0.36c0.955,-0.242 1.856,-0.619 2.705,-1.136l0,-5.798l-5.972,0l0,-1.309l7.334,0l0,7.895Z" style="fill:#797878;fill-rule:nonzero;"/><path d="M214.783,250.658c0,-1.62 -0.4,-2.902 -1.202,-3.847c-0.802,-0.943 -1.897,-1.416 -3.286,-1.416c-1.443,0 -2.645,0.487 -3.607,1.456c-0.962,0.972 -1.509,2.241 -1.643,3.807l9.738,0Zm-9.791,1.256c0,2.04 0.501,3.653 1.503,4.842c1.001,1.189 2.348,1.784 4.04,1.784c0.889,0 1.851,-0.169 2.879,-0.508c1.028,-0.338 1.773,-0.708 2.237,-1.109l0.108,0l0,1.549c-1.784,0.839 -3.42,1.256 -4.916,1.256c-2.271,0 -4.035,-0.67 -5.284,-2.01c-1.252,-1.339 -1.877,-3.226 -1.877,-5.658c0,-1.557 0.275,-2.937 0.829,-4.139c0.55,-1.202 1.329,-2.133 2.331,-2.792c1.002,-0.659 2.151,-0.989 3.453,-0.989c1.726,0 3.119,0.597 4.181,1.79c1.059,1.194 1.589,2.788 1.589,4.782l0,1.202l-11.073,0Z" style="fill:#797878;fill-rule:nonzero;"/><path d="M229.304,255.334c0,1.346 -0.497,2.416 -1.489,3.212c-0.995,0.799 -2.351,1.196 -4.068,1.196c-0.757,0 -1.529,-0.096 -2.317,-0.287c-0.789,-0.19 -1.657,-0.523 -2.599,-0.995l0,-1.577l0.08,0c0.685,0.508 1.47,0.922 2.358,1.243c0.886,0.32 1.801,0.48 2.745,0.48c1.263,0 2.234,-0.275 2.912,-0.828c0.675,-0.55 1.016,-1.326 1.016,-2.324c0,-0.524 -0.101,-0.945 -0.301,-1.263c-0.2,-0.315 -0.525,-0.578 -0.968,-0.788c-0.448,-0.209 -1.373,-0.468 -2.779,-0.781c-0.561,-0.124 -1.142,-0.264 -1.736,-0.421c-0.598,-0.155 -1.143,-0.377 -1.63,-0.668c-0.491,-0.289 -0.895,-0.67 -1.209,-1.142c-0.318,-0.471 -0.474,-1.082 -0.474,-1.829c0,-0.829 0.217,-1.579 0.654,-2.251c0.435,-0.672 1.049,-1.193 1.837,-1.563c0.788,-0.369 1.71,-0.555 2.772,-0.555c0.781,0 1.616,0.117 2.505,0.348c0.884,0.232 1.602,0.499 2.157,0.802l0,1.63l-0.134,0c-0.588,-0.428 -1.339,-0.789 -2.251,-1.082c-0.915,-0.294 -1.767,-0.442 -2.558,-0.442c-1.035,0 -1.893,0.254 -2.578,0.762c-0.688,0.508 -1.028,1.162 -1.028,1.964c0,0.917 0.311,1.598 0.935,2.043c0.621,0.445 1.7,0.814 3.232,1.108c1.79,0.32 3.056,0.786 3.801,1.396c0.741,0.611 1.115,1.481 1.115,2.612" style="fill:#797878;fill-rule:nonzero;"/><path d="M238.748,259.702c-2.077,0 -3.673,-0.677 -4.789,-2.031c-1.118,-1.353 -1.676,-3.254 -1.676,-5.703c0,-2.369 0.588,-4.261 1.77,-5.677c1.178,-1.416 2.789,-2.124 4.829,-2.124c1.282,0 2.799,0.45 4.555,1.349l0,1.697l-0.133,0c-1.623,-1.167 -3.18,-1.75 -4.676,-1.75c-1.56,0 -2.769,0.563 -3.627,1.689c-0.861,1.127 -1.289,2.732 -1.289,4.816c0,2.04 0.441,3.646 1.322,4.822c0.882,1.175 2.065,1.763 3.554,1.763c0.694,0 1.463,-0.163 2.311,-0.495c0.845,-0.329 1.646,-0.769 2.405,-1.322l0.133,0l0,1.403c-0.437,0.401 -1.123,0.761 -2.057,1.082c-0.936,0.321 -1.814,0.481 -2.632,0.481" style="fill:#797878;fill-rule:nonzero;"/><path d="M258.236,259.408l-1.35,0l0,-9.458c0,-2.973 -1.134,-4.461 -3.406,-4.461c-0.88,0 -1.771,0.199 -2.67,0.595c-0.901,0.396 -1.696,0.951 -2.39,1.663l0,11.661l-1.364,0l0,-20.785l1.364,0l0,7.762c0.647,-0.633 1.445,-1.169 2.39,-1.611c0.943,-0.44 1.804,-0.661 2.577,-0.661c1.549,0 2.745,0.461 3.586,1.383c0.842,0.922 1.263,2.211 1.263,3.866l0,10.046Z" style="fill:#797878;fill-rule:nonzero;"/><path d="M271.621,241.856l-2.004,0l0,-2.084l2.004,0l0,2.084Zm-4.688,0l-2.004,0l0,-2.084l2.004,0l0,2.084Zm5.156,9.202c-2.271,0.08 -4.016,0.268 -5.236,0.562c-1.221,0.294 -2.11,0.727 -2.665,1.302c-0.556,0.575 -0.835,1.342 -0.835,2.304c0,1.026 0.313,1.847 0.941,2.465c0.628,0.619 1.468,0.929 2.519,0.929c0.997,0 1.908,-0.162 2.731,-0.489c0.823,-0.323 1.672,-0.869 2.545,-1.635l0,-5.438Zm0,6.76c-0.962,0.767 -1.825,1.286 -2.592,1.557c-0.766,0.271 -1.607,0.407 -2.524,0.407c-1.532,0 -2.754,-0.416 -3.667,-1.249c-0.913,-0.832 -1.369,-1.926 -1.369,-3.279c0,-1.284 0.355,-2.302 1.068,-3.06c0.713,-0.756 1.822,-1.319 3.326,-1.689c1.505,-0.37 3.42,-0.577 5.744,-0.622l0,-0.868c0,-1.094 -0.385,-1.961 -1.155,-2.597c-0.77,-0.637 -1.805,-0.955 -3.105,-0.955c-1.55,0 -3.042,0.334 -4.476,1.001l-0.08,0l0,-1.589c0.5,-0.196 1.157,-0.369 1.977,-0.522c0.82,-0.15 1.608,-0.226 2.365,-0.226c3.909,0 5.864,1.732 5.864,5.195l0,10.086l-1.376,0l0,-1.59Z" style="fill:#797878;fill-rule:nonzero;"/><path d="M285.621,240.106l-0.027,0c-0.909,-0.259 -1.715,-0.388 -2.418,-0.388c-1.114,0 -1.956,0.33 -2.532,0.989c-0.574,0.66 -0.861,1.701 -0.861,3.126l0,0.694l4.769,0l0,1.216l-4.729,0l0,13.665l-1.362,0l0,-13.665l-1.684,0l0,-1.216l1.684,0l0,-0.534c0,-1.745 0.419,-3.099 1.256,-4.061c0.836,-0.962 2.008,-1.443 3.512,-1.443c0.748,0 1.545,0.09 2.392,0.267l0,1.35Z" style="fill:#797878;fill-rule:nonzero;"/><path d="M285.594,245.743l0,-1.216l1.657,0l0,-4.288l1.363,0l0,4.288l5.422,0l0,1.216l-5.422,0l0,8.041c0,1.202 0.091,2.134 0.273,2.792c0.183,0.659 0.479,1.134 0.889,1.423c0.409,0.29 1.006,0.433 1.79,0.433c0.774,0 1.616,-0.163 2.524,-0.494l0.04,0l0,1.336c-0.355,0.099 -0.813,0.194 -1.369,0.287c-0.556,0.094 -0.986,0.141 -1.289,0.141c-1.442,0 -2.506,-0.423 -3.192,-1.27c-0.687,-0.844 -1.029,-2.11 -1.029,-3.793l0,-8.896l-1.657,0Z" style="fill:#797878;fill-rule:nonzero;"/><rect x="298.699" y="256.536" width="2.151" height="2.872" style="fill:#797878;"/></g></svg>