<svg xmlns="http://www.w3.org/2000/svg" viewBox="0 0 433.07 259.3"><defs><style>.cls-1{fill:#b20f24;}.cls-2{fill:#fff;fill-rule:evenodd;}.cls-3{fill:#797978;}</style></defs><title>stage</title><g id="Ebene_2" data-name="Ebene 2"><g id="Ebene_1-2" data-name="Ebene 1"><rect class="cls-1" x="0.21" width="432.56" height="170.99"/><path class="cls-2" d="M159.35,149.61h95.51a11.47,11.47,0,0,0,11.43-11.43V114.63a11.47,11.47,0,0,0-11.43-11.43h-56a6,6,0,0,1-5.94-6,6,6,0,0,1,5.94-5.94h63.35V74.06H182.52a11.47,11.47,0,0,0-11.43,11.43V109a11.47,11.47,0,0,0,11.43,11.43h56a5.94,5.94,0,0,1,0,11.87H169.17a11.9,11.9,0,0,1-11.87-11.87V74.06H38.37A11.46,11.46,0,0,0,26.94,85.49V109a11.46,11.46,0,0,0,11.43,11.43h56a5.94,5.94,0,1,1,0,11.87H24.13v17.27H110.7a11.46,11.46,0,0,0,11.43-11.43V114.63A11.47,11.47,0,0,0,110.7,103.2h-56a6,6,0,0,1-5.93-6,6,6,0,0,1,5.93-5.94h81.26v35A23.49,23.49,0,0,0,159.35,149.61Z"/><path class="cls-1" d="M24.09,213.34a4.78,4.78,0,0,1-.68,2.6A2.13,2.13,0,0,1,21.5,217H0v-5.88H17.24a1.55,1.55,0,0,0,1-.42,1.64,1.64,0,0,0,.5-1.3,1.9,1.9,0,0,0-.21-.88,1.59,1.59,0,0,0-.64-.67,1.8,1.8,0,0,0-.93-.25h-13A2.56,2.56,0,0,1,2.21,207a4.26,4.26,0,0,1-1.13-1.42,3.28,3.28,0,0,1-.39-1.33V196.5a3.9,3.9,0,0,1,.86-2.22,2.62,2.62,0,0,1,2.22-1.21H23.08v5.68H7.14a.89.89,0,0,0-.79.54,2.27,2.27,0,0,0-.3,1.12,2,2,0,0,0,.41,1.13,1.31,1.31,0,0,0,1.16.61H20.7a3,3,0,0,1,2.57,1.15,5.09,5.09,0,0,1,.82,3Z"/><path class="cls-1" d="M39.68,217H34.43V198.8H24.8V193H39.68ZM56,198.85H46.37V217H41.11v-24H56Z"/><path class="cls-1" d="M84,217H78.2v-1.67a2.64,2.64,0,0,1-.92,1.15A2.12,2.12,0,0,1,76,217H60.32a2.3,2.3,0,0,1-1.27-.41,3,3,0,0,1-1-1.14,3.36,3.36,0,0,1-.41-1.65c0-1.18,0-2.68,0-4.48s0-2.76,0-2.86a5.18,5.18,0,0,1,.87-3.18,2.5,2.5,0,0,1,2-1.16H75.3a2.65,2.65,0,0,1,1.79.65,4.59,4.59,0,0,1,1.11,1.3v-2.18a3.25,3.25,0,0,0-.33-1.39,3.07,3.07,0,0,0-.94-1.17,2.21,2.21,0,0,0-1.42-.47H57.72v-5.82H77.78a4.25,4.25,0,0,1,2.4.77,7.76,7.76,0,0,1,2,2,11.14,11.14,0,0,1,1.34,2.55,7,7,0,0,1,.48,2.35Zm-6.91-7.45a1.42,1.42,0,0,0-.27-.83,2,2,0,0,0-.67-.6,1.35,1.35,0,0,0-.64-.22h-11a1.07,1.07,0,0,0-1.05.63,2.7,2.7,0,0,0-.29,1,1.78,1.78,0,0,0,.38,1.18,1.06,1.06,0,0,0,.78.46H75.82a1.22,1.22,0,0,0,.83-.5A1.64,1.64,0,0,0,77.09,209.58Z"/><path class="cls-1" d="M109.54,209.46a10.79,10.79,0,0,1-.39,2.95,8.22,8.22,0,0,1-1.11,2.41,5.61,5.61,0,0,1-1.75,1.62,4.21,4.21,0,0,1-2.19.59H91.61a4.81,4.81,0,0,1-2.55-.95,8.7,8.7,0,0,1-2.5-2.52,5.85,5.85,0,0,1-1-3.29v-10.8a6.06,6.06,0,0,1,.82-2.83,8,8,0,0,1,2.16-2.54,4.43,4.43,0,0,1,2.72-1h17.72v5.62H94.38a2.74,2.74,0,0,0-1.56.49,3.92,3.92,0,0,0-1.17,1.26,3.06,3.06,0,0,0-.44,1.57v5.3a4.9,4.9,0,0,0,.44,2.16,3.4,3.4,0,0,0,1.21,1.42,3.18,3.18,0,0,0,1.74.5H102a1.9,1.9,0,0,0,1.32-.5,2,2,0,0,0,.09-2.63,1.43,1.43,0,0,0-1-.43H97v-5.62h6.9l1.07.27a6.34,6.34,0,0,1,2,1,5.89,5.89,0,0,1,1.81,2.2A8.28,8.28,0,0,1,109.54,209.46Z"/><path class="cls-1" d="M137,204a5,5,0,0,1-.69,2.7,2.5,2.5,0,0,1-2.29,1.09l-17.66,0v1.17a2.85,2.85,0,0,0,.56,1.68,1.53,1.53,0,0,0,1.2.78h18.58V217H117.12a4.9,4.9,0,0,1-3.38-1.27,8.58,8.58,0,0,1-2.17-3,7.24,7.24,0,0,1-.74-2.79V199.59a5.64,5.64,0,0,1,.53-2.38,8.05,8.05,0,0,1,1.41-2.13,7.63,7.63,0,0,1,1.84-1.5,3.7,3.7,0,0,1,1.79-.54h16a3,3,0,0,1,1.54.53,6.58,6.58,0,0,1,1.54,1.31,7.14,7.14,0,0,1,1.11,1.67,3.8,3.8,0,0,1,.43,1.67Zm-5.45-3.52a1.54,1.54,0,0,0-.52-1.22,1.61,1.61,0,0,0-1.14-.47l-11.59,0a1.67,1.67,0,0,0-1.34.81,2.82,2.82,0,0,0-.6,1.73v1h15.16Z"/><path class="cls-1" d="M169.57,217h-5.26V202.15a1,1,0,0,0-.24-.65.62.62,0,0,0-.43-.27.81.81,0,0,0-.79.65L156.53,217h-5L145,201.81a1.13,1.13,0,0,0-.22-.5,1.16,1.16,0,0,0-.35-.32.53.53,0,0,0-.28-.11.52.52,0,0,0-.43.33,1.38,1.38,0,0,0-.2.7V217h-5.16V198.55a6,6,0,0,1,.5-2.46,6.44,6.44,0,0,1,1.24-1.9,6,6,0,0,1,1.59-1.19,3.28,3.28,0,0,1,1.47-.43,4.06,4.06,0,0,1,3,1.2,14,14,0,0,1,2.51,4.1l5.21,12.35,5.37-12.38a12.89,12.89,0,0,1,2.28-3.92,4,4,0,0,1,5.05-.8,5.42,5.42,0,0,1,1.61,1.49,7.53,7.53,0,0,1,1.37,4.23Z"/><path class="cls-1" d="M197.61,209.75a7.74,7.74,0,0,1-.89,3.66,8.17,8.17,0,0,1-2.19,2.65,4,4,0,0,1-2.27,1H177.39a4.93,4.93,0,0,1-3.25-1.18,7.91,7.91,0,0,1-2.18-3,8.7,8.7,0,0,1-.76-3.39v-9a7.71,7.71,0,0,1,.52-2.82,8.46,8.46,0,0,1,1.37-2.38,7,7,0,0,1,1.85-1.63,3.68,3.68,0,0,1,1.92-.61H191.5a5.23,5.23,0,0,1,2.43.81,7.17,7.17,0,0,1,2.56,2.6,8.68,8.68,0,0,1,1.12,4.65Zm-5.55-2.25v-4.92a4.12,4.12,0,0,0-.86-2.64,3.2,3.2,0,0,0-2.68-1.09H180a2.47,2.47,0,0,0-1.24.47,4.43,4.43,0,0,0-1.28,1.24,2.71,2.71,0,0,0-.55,1.63v4.69a5.47,5.47,0,0,0,.74,2.84,2.32,2.32,0,0,0,2.11,1.15h9.53a2.75,2.75,0,0,0,2-.78A3.46,3.46,0,0,0,192.06,207.5Z"/><path class="cls-1" d="M224.07,213.17a5,5,0,0,1-.29,1.56,4.15,4.15,0,0,1-.94,1.59,2.25,2.25,0,0,1-1.67.68H199.29V202.25h16.93a1.7,1.7,0,0,0,1-.48,1.65,1.65,0,0,0,.58-1.33,2.14,2.14,0,0,0-.47-1.24,1.48,1.48,0,0,0-1.27-.65H199.29V193h20.36a2.62,2.62,0,0,1,1.72.71,5.34,5.34,0,0,1,1.32,1.72,4.15,4.15,0,0,1,.5,1.85v3.39a4.62,4.62,0,0,1-.2,1.52,3.11,3.11,0,0,1-.55,1c-.24.28-.62.68-1.16,1.21a17.76,17.76,0,0,1,2,2,3.06,3.06,0,0,1,.75,2Zm-5.77-3.49q0-1.65-1.35-1.65h-12.1v3.19h12.31a1,1,0,0,0,.83-.45A1.92,1.92,0,0,0,218.3,209.68Z"/><path class="cls-1" d="M231.81,217h-5.56V193.07h5.56Z"/><path class="cls-1" d="M255.46,217H239.27a3.74,3.74,0,0,1-2.54-1.14,9.75,9.75,0,0,1-2-2.68,5.85,5.85,0,0,1-.8-2.44v-17.7h5.36v14.39a4.16,4.16,0,0,0,.53,2.11,4.06,4.06,0,0,0,1.26,1.36,2.43,2.43,0,0,0,1.19.46h13.21Z"/><path class="cls-3" d="M281.44,193.07l-8.88,20.54a10.18,10.18,0,0,1-1.05,1.89,5.29,5.29,0,0,1-1.7,1.53,4.9,4.9,0,0,1-2.6.66,4.83,4.83,0,0,1-2.58-.69,6.32,6.32,0,0,1-1.81-1.61,6.79,6.79,0,0,1-.93-1.65l-8.8-20.67h6.12l7,16.16a7.85,7.85,0,0,0,.45.94.56.56,0,0,0,.49.23.57.57,0,0,0,.53-.25,7.54,7.54,0,0,0,.46-.92l7.08-16.16Z"/><path class="cls-3" d="M307.34,204a5.06,5.06,0,0,1-.68,2.7,2.51,2.51,0,0,1-2.3,1.09l-17.66,0v1.17a2.85,2.85,0,0,0,.56,1.68,1.55,1.55,0,0,0,1.21.78h18.58V217H287.43a4.9,4.9,0,0,1-3.38-1.27,8.6,8.6,0,0,1-2.18-3,7.42,7.42,0,0,1-.74-2.79V199.59a5.79,5.79,0,0,1,.53-2.38,8.05,8.05,0,0,1,1.41-2.13,7.67,7.67,0,0,1,1.85-1.5,3.66,3.66,0,0,1,1.78-.54h16a3,3,0,0,1,1.54.53,6.53,6.53,0,0,1,1.53,1.31,7.51,7.51,0,0,1,1.12,1.67,3.92,3.92,0,0,1,.42,1.67Zm-5.45-3.52a1.56,1.56,0,0,0-.51-1.22,1.62,1.62,0,0,0-1.15-.47l-11.59,0a1.69,1.69,0,0,0-1.34.81,2.82,2.82,0,0,0-.6,1.73v1h15.17Z"/><path class="cls-3" d="M340.93,224.84h-6.88l-12.11-17h-6.86V217h-5.34V202.15h16.63a1.44,1.44,0,0,0,1-.48,1.79,1.79,0,0,0,.48-1.33,1.84,1.84,0,0,0-.23-1,1.37,1.37,0,0,0-.63-.54,2,2,0,0,0-.8-.17H309.74v-5.58h20.08a3,3,0,0,1,2.42,1.32,5,5,0,0,1,1,3.18v6a5,5,0,0,1-.5,2.46,2.84,2.84,0,0,1-1.18,1.22,5.62,5.62,0,0,1-1.58.46,7.52,7.52,0,0,0-1.05.2Z"/><path class="cls-3" d="M358.66,217H342.47a3.74,3.74,0,0,1-2.54-1.14,9.75,9.75,0,0,1-2-2.68,5.85,5.85,0,0,1-.8-2.44v-17.7h5.36v14.39a4.16,4.16,0,0,0,.53,2.11,4.06,4.06,0,0,0,1.26,1.36,2.43,2.43,0,0,0,1.19.46h13.21Z"/><path class="cls-3" d="M386.83,204a5,5,0,0,1-.69,2.7,2.49,2.49,0,0,1-2.29,1.09l-17.66,0v1.17a2.85,2.85,0,0,0,.56,1.68,1.55,1.55,0,0,0,1.21.78h18.57V217H366.92a4.94,4.94,0,0,1-3.39-1.27,8.7,8.7,0,0,1-2.17-3,7.42,7.42,0,0,1-.74-2.79V199.59a5.79,5.79,0,0,1,.53-2.38,8.05,8.05,0,0,1,1.41-2.13,7.83,7.83,0,0,1,1.84-1.5,3.73,3.73,0,0,1,1.79-.54h16a3,3,0,0,1,1.54.53,6.74,6.74,0,0,1,1.53,1.31,7.51,7.51,0,0,1,1.12,1.67,3.92,3.92,0,0,1,.42,1.67Zm-5.45-3.52a1.56,1.56,0,0,0-.51-1.22,1.62,1.62,0,0,0-1.15-.47l-11.59,0a1.69,1.69,0,0,0-1.34.81,2.82,2.82,0,0,0-.6,1.73v1h15.16Z"/><path class="cls-3" d="M394.4,217h-5.55V193.07h5.55Z"/><path class="cls-3" d="M402.78,217h-5.47V193.11h5.47Zm19.4,0H416.6v-9H406.29v-5.81H416.6V193h5.58Z"/><path class="cls-3" d="M161.17,249a10.05,10.05,0,0,1-1.28,5.14A8.79,8.79,0,0,1,156,257.6a12.83,12.83,0,0,1-5.82,1.28H145.3V239h4.87q5.24,0,8.12,2.62A9.38,9.38,0,0,1,161.17,249Zm-1.5,0a8,8,0,0,0-2.48-6.34q-2.49-2.19-7.29-2.19h-3.2v17.17h3a13.07,13.07,0,0,0,5.46-1,7.3,7.3,0,0,0,3.41-3A9,9,0,0,0,159.67,248.94Z"/><path class="cls-3" d="M167,241.37h-1.72v-2.08H167Zm-.18,17.51h-1.37V244h1.37Z"/><path class="cls-3" d="M172.27,251.41a7.27,7.27,0,0,0,1.5,4.83,5,5,0,0,0,4,1.78,9.22,9.22,0,0,0,2.88-.51,6.74,6.74,0,0,0,2.23-1.11H183V258a11.61,11.61,0,0,1-4.91,1.25,6.87,6.87,0,0,1-5.27-2,8,8,0,0,1-1.88-5.65,9.82,9.82,0,0,1,.83-4.13,6.49,6.49,0,0,1,2.33-2.79,6.18,6.18,0,0,1,3.44-1,5.32,5.32,0,0,1,4.18,1.78,7,7,0,0,1,1.58,4.77v1.21Zm9.77-1.26a5.73,5.73,0,0,0-1.2-3.84,4.08,4.08,0,0,0-3.28-1.41,4.85,4.85,0,0,0-3.6,1.45,6,6,0,0,0-1.64,3.8Z"/><path class="cls-3" d="M196.92,239H202a9.21,9.21,0,0,1,5.06,1.08,3.7,3.7,0,0,1,1.6,3.3,4.65,4.65,0,0,1-.75,2.66,3.59,3.59,0,0,1-2.1,1.5v.17a5.9,5.9,0,0,1,3.32,1.8,4.87,4.87,0,0,1,1.12,3.3,5.5,5.5,0,0,1-1.86,4.51,8.68,8.68,0,0,1-5.58,1.53h-5.89Zm5.71,8.22a5.15,5.15,0,0,0,3.45-1,3.44,3.44,0,0,0,1.09-2.76,2.61,2.61,0,0,0-1.2-2.43,8.92,8.92,0,0,0-4.24-.72h-3.42v6.87ZM202,257.59q3.69,0,5.27-1.1a4,4,0,0,0,1.57-3.53,3.81,3.81,0,0,0-1.45-3.3,7.17,7.17,0,0,0-4.27-1.07h-4.78v9Z"/><path class="cls-3" d="M224.66,258.88H223.3v-2a6.88,6.88,0,0,1-4.94,2.39,4.65,4.65,0,0,1-3.58-1.36,5.43,5.43,0,0,1-1.28-3.88V244h1.35v9.41a5.63,5.63,0,0,0,.83,3.35,3,3,0,0,0,2.6,1.12,6.63,6.63,0,0,0,2.81-.71,5.73,5.73,0,0,0,2.21-1.66V244h1.36Zm-6.89-17.51h-2v-2.08h2Zm4.68,0h-2v-2.08h2Z"/><path class="cls-3" d="M240.65,258.88H239.3v-9.43q0-4.45-3.4-4.46a6.54,6.54,0,0,0-2.67.6,7.36,7.36,0,0,0-2.38,1.66v11.63h-1.36V238.14h1.36v7.75a8.44,8.44,0,0,1,2.38-1.61,6.19,6.19,0,0,1,2.58-.66,4.61,4.61,0,0,1,3.58,1.38,5.52,5.52,0,0,1,1.26,3.86Z"/><path class="cls-3" d="M256.62,258.88h-1.35v-9.43q0-4.45-3.4-4.46a6.46,6.46,0,0,0-2.66.6,7.3,7.3,0,0,0-2.39,1.66v11.63h-1.36V244h1.36v1.86a8.35,8.35,0,0,1,2.39-1.61,6.15,6.15,0,0,1,2.57-.66,4.61,4.61,0,0,1,3.58,1.38,5.52,5.52,0,0,1,1.26,3.86Z"/><path class="cls-3" d="M261.76,251.41a7.27,7.27,0,0,0,1.5,4.83,5,5,0,0,0,4,1.78,9.21,9.21,0,0,0,2.87-.51,6.74,6.74,0,0,0,2.23-1.11h.11V258a11.57,11.57,0,0,1-4.91,1.25,6.89,6.89,0,0,1-5.27-2,8,8,0,0,1-1.87-5.65,9.82,9.82,0,0,1,.82-4.13,6.49,6.49,0,0,1,2.33-2.79,6.19,6.19,0,0,1,3.45-1,5.31,5.31,0,0,1,4.17,1.78,6.9,6.9,0,0,1,1.58,4.77v1.21Zm9.77-1.26a5.73,5.73,0,0,0-1.19-3.84,4.09,4.09,0,0,0-3.28-1.41,4.85,4.85,0,0,0-3.6,1.45,5.91,5.91,0,0,0-1.64,3.8Z"/><path class="cls-3" d="M280,258.88h-2.15V256H280Z"/><path class="cls-3" d="M423.56,197.81a4.67,4.67,0,0,1,.63-2.37,4.78,4.78,0,0,1,1.73-1.73,4.63,4.63,0,0,1,2.39-.64,4.71,4.71,0,0,1,2.38.63,4.81,4.81,0,0,1,1.74,1.73,4.71,4.71,0,0,1,0,4.76,4.64,4.64,0,0,1-1.74,1.75,4.71,4.71,0,0,1-4.74,0,4.79,4.79,0,0,1-1.74-1.75A4.67,4.67,0,0,1,423.56,197.81Zm.84,0a4,4,0,0,0,.53,2,3.89,3.89,0,0,0,3.39,1.94,3.83,3.83,0,0,0,3.38-1.94,4.05,4.05,0,0,0,0-4,3.75,3.75,0,0,0-1.42-1.43,3.88,3.88,0,0,0-2-.53,4,4,0,0,0-2,.52,3.93,3.93,0,0,0-2,3.42Zm6.35,2.35h-1.11l-1.53-1.88h-.67v1.88h-.88v-4.89h1.6a2.13,2.13,0,0,1,1.33.35,1.21,1.21,0,0,1,.47,1,1.39,1.39,0,0,1-.28.89,1.53,1.53,0,0,1-.72.52ZM429,196.69a.57.57,0,0,0-.29-.52,1.62,1.62,0,0,0-.79-.17h-.47v1.56h.45a1.33,1.33,0,0,0,.83-.22A.84.84,0,0,0,429,196.69Z"/></g></g></svg>