<?xml version="1.0" encoding="UTF-8" standalone="no"?><!DOCTYPE svg PUBLIC "-//W3C//DTD SVG 1.1//EN" "http://www.w3.org/Graphics/SVG/1.1/DTD/svg11.dtd"><svg width="100%" height="100%" viewBox="0 0 434 264" version="1.1" xmlns="http://www.w3.org/2000/svg" xmlns:xlink="http://www.w3.org/1999/xlink" xml:space="preserve" xmlns:serif="http://www.serif.com/" style="fill-rule:evenodd;clip-rule:evenodd;stroke-linejoin:round;stroke-miterlimit:1.41421;"><g id="stagemobilverleih"><rect x="0.21" y="0" width="432.988" height="169.845" style="fill:#fff;"/><rect x="0.21" y="0" width="432.558" height="170.986" style="fill:#b20f24;"/><path d="M159.348,149.613l95.509,0c6.286,0 11.429,-5.143 11.429,-11.429l0,-23.553c0,-6.286 -5.143,-11.429 -11.429,-11.429l-56.027,0c-3.28,0 -5.935,-2.796 -5.935,-6.044c0,-3.265 2.671,-5.936 5.935,-5.936l63.355,0l0,-17.161l-79.663,0c-6.286,0 -11.429,5.143 -11.429,11.429l0,23.553c0,6.286 5.143,11.429 11.429,11.429l56.027,0c3.264,0 5.935,2.671 5.935,5.935c0,3.265 -2.671,5.936 -5.935,5.936l-69.383,0c-6.528,0 -11.87,-5.342 -11.87,-11.871l0,-46.411l-118.93,0c-6.288,0 -11.43,5.143 -11.43,11.429l0,23.553c0,6.286 5.142,11.429 11.43,11.429l56.026,0c3.265,0 5.935,2.671 5.935,5.935c0,3.265 -2.67,5.936 -5.935,5.936l-70.264,0l0,17.27l86.572,0c6.287,0 11.429,-5.143 11.429,-11.429l0,-23.553c0,-6.286 -5.142,-11.429 -11.429,-11.429l-56.027,0c-3.28,0 -5.935,-2.796 -5.935,-6.044c0,-3.265 2.671,-5.936 5.935,-5.936l81.253,0l0,34.969c0,12.882 10.54,23.422 23.422,23.422" style="fill:#fff;"/><path d="M24.656,214.731c0,1.07 -0.233,1.994 -0.698,2.773c-0.462,0.778 -1.116,1.167 -1.955,1.167l-22.003,0l0,-6.275l17.642,0c0.307,0 0.635,-0.151 0.979,-0.454c0.343,-0.303 0.516,-0.764 0.516,-1.382c0,-0.334 -0.072,-0.649 -0.218,-0.945c-0.144,-0.297 -0.364,-0.535 -0.655,-0.713c-0.291,-0.179 -0.61,-0.268 -0.954,-0.268l-13.348,0c-0.635,0 -1.201,-0.216 -1.702,-0.65c-0.498,-0.434 -0.884,-0.939 -1.154,-1.516c-0.268,-0.576 -0.402,-1.049 -0.402,-1.416l0,-8.291c0,-0.713 0.292,-1.5 0.881,-2.362c0.586,-0.861 1.346,-1.293 2.273,-1.293l19.759,0l0,6.062l-16.31,0c-0.335,0 -0.603,0.19 -0.81,0.57c-0.202,0.381 -0.305,0.779 -0.305,1.195c0,0.381 0.141,0.784 0.42,1.212c0.278,0.428 0.674,0.642 1.185,0.642l13.384,0c1.187,0 2.061,0.409 2.627,1.23c0.563,0.821 0.848,1.896 0.848,3.226l0,7.488Z" style="fill:#b20f24;fill-rule:nonzero;"/><path d="M57.291,199.275l-9.845,0l0,19.397l-5.382,0l0,-25.565l15.227,0l0,6.168Zm-16.682,19.36l-5.38,0l0,-19.414l-9.847,0l0,-6.15l15.227,0l0,25.564Z" style="fill:#b20f24;fill-rule:nonzero;"/><path d="M78.889,210.72c0,-0.321 -0.092,-0.615 -0.277,-0.882c-0.183,-0.268 -0.412,-0.481 -0.684,-0.642c-0.27,-0.16 -0.488,-0.24 -0.655,-0.24l-11.223,0c-0.515,0 -0.873,0.226 -1.078,0.676c-0.2,0.451 -0.303,0.803 -0.303,1.052c0,0.523 0.132,0.945 0.395,1.266c0.262,0.321 0.525,0.482 0.795,0.482l11.731,0c0.258,0 0.539,-0.176 0.843,-0.526c0.303,-0.351 0.456,-0.746 0.456,-1.186m7.065,7.951l-5.934,0l0,-1.783c-0.157,0.44 -0.47,0.847 -0.937,1.222c-0.471,0.374 -0.893,0.561 -1.271,0.561l-16.082,0c-0.432,0 -0.868,-0.146 -1.304,-0.437c-0.437,-0.29 -0.795,-0.698 -1.071,-1.222c-0.275,-0.522 -0.419,-1.11 -0.425,-1.763c-0.012,-1.26 -0.024,-2.853 -0.038,-4.778c-0.015,-1.926 -0.021,-2.942 -0.021,-3.05c0,-1.437 0.297,-2.569 0.894,-3.395c0.593,-0.826 1.284,-1.239 2.075,-1.239l15.211,0c0.7,0 1.313,0.231 1.838,0.695c0.525,0.463 0.9,0.927 1.131,1.392l0,-2.328c0,-0.487 -0.112,-0.981 -0.338,-1.486c-0.224,-0.502 -0.544,-0.919 -0.96,-1.251c-0.412,-0.332 -0.896,-0.497 -1.449,-0.497l-18.207,0l0,-6.206l20.525,0c0.866,0 1.683,0.274 2.458,0.821c0.774,0.546 1.455,1.257 2.045,2.13c0.586,0.873 1.045,1.78 1.373,2.719c0.323,0.939 0.487,1.778 0.487,2.514l0,17.381Z" style="fill:#b20f24;fill-rule:nonzero;"/><path d="M112.091,210.595c0,1.117 -0.133,2.166 -0.399,3.147c-0.265,0.98 -0.647,1.836 -1.139,2.567c-0.494,0.731 -1.087,1.307 -1.782,1.729c-0.693,0.422 -1.442,0.633 -2.244,0.633l-12.781,0c-0.746,0 -1.616,-0.338 -2.608,-1.017c-0.994,-0.677 -1.847,-1.573 -2.562,-2.691c-0.713,-1.117 -1.07,-2.288 -1.07,-3.512l0,-11.517c0,-0.938 0.282,-1.945 0.842,-3.021c0.562,-1.076 1.297,-1.979 2.201,-2.709c0.907,-0.732 1.834,-1.098 2.784,-1.098l18.138,0l0,5.991l-14.896,0c-0.558,0 -1.091,0.175 -1.588,0.526c-0.494,0.35 -0.896,0.799 -1.2,1.346c-0.303,0.546 -0.454,1.106 -0.454,1.676l0,5.651c0,0.879 0.151,1.649 0.454,2.309c0.304,0.659 0.716,1.164 1.241,1.515c0.525,0.35 1.117,0.526 1.779,0.526l7.584,0c0.524,0 0.971,-0.176 1.346,-0.526c0.371,-0.351 0.556,-0.83 0.556,-1.436c0,-0.605 -0.153,-1.063 -0.467,-1.372c-0.314,-0.31 -0.648,-0.464 -1.005,-0.464l-5.587,0l0,-5.99l7.059,0c0.064,0.013 0.429,0.108 1.093,0.286c0.666,0.178 1.354,0.526 2.07,1.042c0.715,0.518 1.333,1.302 1.854,2.354c0.521,1.052 0.781,2.403 0.781,4.055" style="fill:#b20f24;fill-rule:nonzero;"/><path d="M134.654,201.004c0,-0.534 -0.174,-0.968 -0.526,-1.301c-0.347,-0.332 -0.738,-0.499 -1.171,-0.499l-11.861,-0.036c-0.505,0 -0.961,0.285 -1.371,0.856c-0.409,0.57 -0.613,1.188 -0.613,1.853l0,1.053l15.515,0l0.027,-1.926Zm5.576,3.761c0,1.142 -0.235,2.101 -0.702,2.88c-0.47,0.778 -1.254,1.167 -2.348,1.167l-18.068,-0.035l0,1.247c0,0.643 0.191,1.24 0.572,1.793c0.382,0.551 0.793,0.829 1.233,0.829l19.009,0l0,6.026l-20.072,0c-1.332,0 -2.488,-0.456 -3.463,-1.365c-0.974,-0.909 -1.717,-1.969 -2.222,-3.181c-0.508,-1.214 -0.76,-2.206 -0.76,-2.978l0,-11.089c0,-0.855 0.181,-1.702 0.545,-2.54c0.365,-0.838 0.846,-1.595 1.443,-2.272c0.599,-0.679 1.227,-1.21 1.884,-1.597c0.658,-0.385 1.269,-0.579 1.831,-0.579l16.398,0c0.47,0 0.996,0.187 1.575,0.562c0.578,0.373 1.104,0.841 1.57,1.399c0.471,0.559 0.849,1.153 1.143,1.782c0.289,0.631 0.432,1.225 0.432,1.783l0,6.168Z" style="fill:#b20f24;fill-rule:nonzero;"/><path d="M173.525,218.635l-5.386,0l0,-15.848c0,-0.262 -0.079,-0.49 -0.24,-0.687c-0.161,-0.196 -0.312,-0.293 -0.449,-0.293c-0.384,0 -0.653,0.231 -0.808,0.695l-6.468,16.133l-5.102,0l-6.662,-16.205c-0.035,-0.201 -0.109,-0.38 -0.221,-0.534c-0.113,-0.155 -0.231,-0.27 -0.356,-0.348c-0.129,-0.077 -0.225,-0.115 -0.296,-0.115c-0.165,0 -0.312,0.118 -0.441,0.356c-0.132,0.238 -0.196,0.486 -0.196,0.748l0,16.098l-5.283,0l0,-19.681c0,-0.951 0.167,-1.827 0.508,-2.629c0.339,-0.802 0.762,-1.478 1.277,-2.024c0.511,-0.546 1.053,-0.972 1.625,-1.275c0.572,-0.302 1.069,-0.454 1.497,-0.454c1.215,0 2.23,0.425 3.049,1.275c0.82,0.849 1.678,2.308 2.571,4.376l5.338,13.175l5.491,-13.21c0.71,-1.831 1.489,-3.224 2.33,-4.181c0.842,-0.956 1.883,-1.435 3.123,-1.435c0.728,0 1.411,0.196 2.051,0.589c0.636,0.391 1.185,0.92 1.644,1.585c0.459,0.666 0.81,1.398 1.047,2.194c0.238,0.796 0.357,1.569 0.357,2.317l0,19.378Z" style="fill:#b20f24;fill-rule:nonzero;"/><path d="M196.532,208.497l0,-5.253c0,-1.103 -0.292,-2.041 -0.872,-2.812c-0.58,-0.77 -1.493,-1.158 -2.747,-1.158l-8.764,0c-0.34,0 -0.763,0.168 -1.264,0.499c-0.501,0.333 -0.938,0.772 -1.312,1.318c-0.372,0.545 -0.559,1.127 -0.559,1.744l0,5.004c0.019,1.198 0.269,2.206 0.753,3.025c0.484,0.82 1.204,1.229 2.161,1.229l9.759,0c0.79,0 1.465,-0.276 2.017,-0.827c0.552,-0.553 0.828,-1.476 0.828,-2.769m5.686,2.402c0,1.413 -0.307,2.715 -0.917,3.904c-0.613,1.187 -1.357,2.129 -2.236,2.826c-0.88,0.695 -1.657,1.042 -2.328,1.042l-15.211,0c-1.252,0 -2.36,-0.421 -3.327,-1.265c-0.965,-0.844 -1.708,-1.896 -2.23,-3.156c-0.518,-1.26 -0.78,-2.466 -0.78,-3.619l0,-9.591c0,-1.047 0.176,-2.047 0.531,-3.004c0.355,-0.956 0.822,-1.804 1.401,-2.541c0.581,-0.736 1.214,-1.319 1.9,-1.746c0.684,-0.428 1.341,-0.643 1.966,-0.643l14.975,0c0.677,0 1.504,0.286 2.486,0.857c0.984,0.57 1.86,1.497 2.625,2.78c0.763,1.284 1.145,2.936 1.145,4.956l0,9.2Z" style="fill:#b20f24;fill-rule:nonzero;"/><path d="M223.384,210.827c0,-1.177 -0.46,-1.764 -1.381,-1.764l-12.382,0l0,3.404l12.604,0c0.351,0 0.63,-0.16 0.841,-0.481c0.212,-0.321 0.318,-0.707 0.318,-1.159m5.91,3.725c0,0.465 -0.098,1.017 -0.297,1.659c-0.2,0.641 -0.521,1.206 -0.967,1.694c-0.446,0.487 -1.016,0.73 -1.705,0.73l-22.39,0l0,-15.741l17.326,0c0.256,0 0.582,-0.17 0.978,-0.508c0.395,-0.339 0.593,-0.812 0.593,-1.417c0,-0.429 -0.157,-0.871 -0.474,-1.328c-0.32,-0.458 -0.753,-0.687 -1.305,-0.687l-17.118,0l0,-5.883l20.83,0c0.616,0 1.205,0.254 1.768,0.757c0.56,0.506 1.012,1.118 1.35,1.837c0.341,0.72 0.511,1.376 0.511,1.97l0,3.618c0,0.666 -0.068,1.207 -0.204,1.623c-0.139,0.416 -0.328,0.772 -0.565,1.07c-0.244,0.297 -0.638,0.724 -1.191,1.284c0.877,0.772 1.573,1.483 2.087,2.13c0.514,0.647 0.773,1.352 0.773,2.112l0,5.08Z" style="fill:#b20f24;fill-rule:nonzero;"/><rect x="231.519" y="193.107" width="5.69" height="25.529" style="fill:#b20f24;"/><path d="M261.412,218.671l-16.565,0c-0.89,0 -1.755,-0.407 -2.598,-1.221c-0.838,-0.814 -1.53,-1.768 -2.072,-2.861c-0.541,-1.094 -0.811,-1.962 -0.811,-2.603l0,-18.88l5.481,0l0,15.35c0,0.856 0.18,1.605 0.546,2.246c0.36,0.643 0.79,1.126 1.281,1.454c0.494,0.326 0.9,0.49 1.224,0.49l13.514,0l0,6.025Z" style="fill:#b20f24;fill-rule:nonzero;"/><path d="M288,193.106l-9.085,21.91c-0.301,0.726 -0.661,1.4 -1.079,2.024c-0.413,0.624 -0.992,1.167 -1.733,1.632c-0.742,0.463 -1.632,0.694 -2.666,0.694c-0.993,0 -1.874,-0.243 -2.641,-0.731c-0.768,-0.486 -1.383,-1.06 -1.849,-1.721c-0.463,-0.659 -0.781,-1.245 -0.95,-1.755l-9.005,-22.053l6.256,0l7.196,17.239c0.205,0.499 0.359,0.832 0.463,1c0.103,0.165 0.271,0.248 0.502,0.248c0.252,0 0.431,-0.088 0.543,-0.267c0.113,-0.179 0.265,-0.504 0.464,-0.981l7.248,-17.239l6.336,0Z" style="fill:#797878;fill-rule:nonzero;"/><path d="M308.928,201.004c0,-0.534 -0.173,-0.968 -0.525,-1.301c-0.347,-0.332 -0.738,-0.499 -1.171,-0.499l-11.861,-0.036c-0.505,0 -0.961,0.285 -1.372,0.856c-0.408,0.57 -0.613,1.188 -0.613,1.853l0,1.053l15.516,0l0.026,-1.926Zm5.576,3.761c0,1.142 -0.234,2.101 -0.701,2.88c-0.47,0.778 -1.254,1.167 -2.348,1.167l-18.069,-0.035l0,1.247c0,0.643 0.192,1.24 0.573,1.793c0.382,0.551 0.794,0.829 1.234,0.829l19.009,0l0,6.026l-20.073,0c-1.333,0 -2.488,-0.456 -3.463,-1.365c-0.975,-0.909 -1.717,-1.969 -2.222,-3.181c-0.508,-1.214 -0.76,-2.206 -0.76,-2.978l0,-11.089c0,-0.855 0.181,-1.702 0.545,-2.54c0.365,-0.838 0.846,-1.595 1.443,-2.272c0.599,-0.679 1.227,-1.21 1.884,-1.597c0.658,-0.385 1.269,-0.579 1.83,-0.579l16.399,0c0.47,0 0.995,0.187 1.574,0.562c0.579,0.373 1.104,0.841 1.572,1.399c0.469,0.559 0.848,1.153 1.141,1.782c0.29,0.631 0.432,1.225 0.432,1.783l0,6.168Z" style="fill:#797878;fill-rule:nonzero;"/><path d="M348.871,226.997l-7.039,0l-12.391,-18.077l-7.017,0l0,9.751l-5.461,0l0,-15.883l17.014,0c0.34,0 0.677,-0.171 1.008,-0.509c0.334,-0.339 0.499,-0.811 0.499,-1.417c0,-0.44 -0.081,-0.79 -0.243,-1.051c-0.163,-0.263 -0.374,-0.453 -0.635,-0.572c-0.263,-0.118 -0.539,-0.178 -0.826,-0.178l-16.817,0l0,-5.955l20.544,0c0.961,0 1.788,0.471 2.478,1.41c0.691,0.938 1.038,2.067 1.038,3.386l0,6.383c0,1.128 -0.169,2.005 -0.506,2.63c-0.338,0.624 -0.743,1.054 -1.213,1.292c-0.466,0.236 -1.007,0.404 -1.616,0.498c-0.609,0.096 -0.966,0.167 -1.074,0.215l12.257,18.077Z" style="fill:#797878;fill-rule:nonzero;"/><path d="M367.017,218.671l-16.564,0c-0.891,0 -1.756,-0.407 -2.598,-1.221c-0.838,-0.814 -1.531,-1.768 -2.073,-2.861c-0.541,-1.094 -0.811,-1.962 -0.811,-2.603l0,-18.88l5.482,0l0,15.35c0,0.856 0.179,1.605 0.544,2.246c0.361,0.643 0.791,1.126 1.282,1.454c0.494,0.326 0.9,0.49 1.223,0.49l13.515,0l0,6.025Z" style="fill:#797878;fill-rule:nonzero;"/><path d="M390.269,201.004c0,-0.534 -0.173,-0.968 -0.525,-1.301c-0.347,-0.332 -0.738,-0.499 -1.171,-0.499l-11.861,-0.036c-0.505,0 -0.961,0.285 -1.372,0.856c-0.408,0.57 -0.613,1.188 -0.613,1.853l0,1.053l15.516,0l0.026,-1.926Zm5.576,3.761c0,1.142 -0.234,2.101 -0.701,2.88c-0.47,0.778 -1.254,1.167 -2.348,1.167l-18.069,-0.035l0,1.247c0,0.643 0.192,1.24 0.573,1.793c0.382,0.551 0.794,0.829 1.234,0.829l19.008,0l0,6.026l-20.072,0c-1.333,0 -2.488,-0.456 -3.463,-1.365c-0.975,-0.909 -1.717,-1.969 -2.222,-3.181c-0.508,-1.214 -0.76,-2.206 -0.76,-2.978l0,-11.089c0,-0.855 0.181,-1.702 0.545,-2.54c0.365,-0.838 0.846,-1.595 1.443,-2.272c0.599,-0.679 1.227,-1.21 1.884,-1.597c0.658,-0.385 1.269,-0.579 1.83,-0.579l16.399,0c0.47,0 0.995,0.187 1.574,0.562c0.579,0.373 1.104,0.841 1.572,1.399c0.469,0.559 0.848,1.153 1.141,1.782c0.29,0.631 0.432,1.225 0.432,1.783l0,6.168Z" style="fill:#797878;fill-rule:nonzero;"/><rect x="397.908" y="193.107" width="5.689" height="25.529" style="fill:#797878;"/><path d="M432.023,218.671l-5.716,0l0,-9.645l-10.546,0l0,-6.203l10.546,0l0,-9.752l5.716,0l0,25.6Zm-19.85,0l-5.604,0l0,-25.528l5.604,0l0,25.528Z" style="fill:#797878;fill-rule:nonzero;"/><path d="M159.673,248.938c0,-2.764 -0.829,-4.877 -2.486,-6.339c-1.659,-1.462 -4.086,-2.192 -7.286,-2.192l-3.2,0l0,17.17l2.973,0c2.124,0 3.944,-0.342 5.459,-1.027c1.516,-0.684 2.651,-1.668 3.406,-2.953c0.756,-1.284 1.134,-2.837 1.134,-4.659m1.493,0.04c0,1.965 -0.425,3.68 -1.273,5.147c-0.849,1.465 -2.133,2.625 -3.853,3.478c-1.72,0.854 -3.66,1.28 -5.819,1.28l-4.919,0l0,-19.85l4.865,0c3.493,0 6.199,0.871 8.119,2.613c1.92,1.742 2.88,4.187 2.88,7.332" style="fill:#797878;fill-rule:nonzero;"/><path d="M166.792,258.883l-1.374,0l0,-14.851l1.374,0l0,14.851Zm0.173,-17.517l-1.72,0l0,-2.079l1.72,0l0,2.079Z" style="fill:#797878;fill-rule:nonzero;"/><path d="M182.043,250.152c-0.001,-1.618 -0.4,-2.897 -1.2,-3.84c-0.8,-0.942 -1.894,-1.413 -3.28,-1.413c-1.44,0 -2.639,0.484 -3.599,1.453c-0.96,0.969 -1.507,2.236 -1.64,3.8l9.718,0Zm-9.771,1.253c0,2.035 0.5,3.645 1.5,4.832c1,1.186 2.343,1.78 4.032,1.78c0.888,0 1.846,-0.169 2.873,-0.507c1.026,-0.337 1.77,-0.707 2.233,-1.106l0.107,0l0,1.546c-1.778,0.836 -3.413,1.254 -4.907,1.254c-2.265,0 -4.023,-0.669 -5.272,-2.007c-1.248,-1.337 -1.873,-3.22 -1.873,-5.646c0,-1.555 0.275,-2.932 0.827,-4.132c0.551,-1.201 1.326,-2.128 2.326,-2.787c1,-0.657 2.149,-0.986 3.446,-0.986c1.724,0 3.115,0.596 4.172,1.786c1.058,1.192 1.587,2.783 1.587,4.773l0,1.2l-11.051,0Z" style="fill:#797878;fill-rule:nonzero;"/><path d="M201.972,257.591c2.462,0 4.218,-0.368 5.267,-1.101c1.047,-0.732 1.573,-1.909 1.573,-3.525c0,-1.493 -0.486,-2.595 -1.453,-3.308c-0.969,-0.71 -2.392,-1.066 -4.267,-1.066l-4.786,0l0,9l3.666,0Zm0.653,-10.346c1.574,0 2.725,-0.317 3.453,-0.952c0.729,-0.637 1.093,-1.558 1.093,-2.767c0,-1.138 -0.401,-1.947 -1.206,-2.427c-0.805,-0.48 -2.215,-0.72 -4.232,-0.72l-3.427,0l0,6.866l4.319,0Zm-5.705,-8.213l5.079,0c2.311,0 3.999,0.361 5.066,1.08c1.066,0.72 1.599,1.818 1.599,3.293c0,1.032 -0.251,1.92 -0.753,2.666c-0.502,0.748 -1.202,1.246 -2.099,1.494l0,0.173c1.467,0.329 2.573,0.929 3.319,1.8c0.747,0.871 1.12,1.973 1.12,3.306c0,1.982 -0.622,3.484 -1.866,4.506c-1.245,1.022 -3.102,1.533 -5.572,1.533l-5.893,0l0,-19.851Z" style="fill:#797878;fill-rule:nonzero;"/><path d="M222.45,241.366l-2,0l0,-2.079l2,0l0,2.079Zm-4.679,0l-2,0l0,-2.079l2,0l0,2.079Zm6.892,17.517l-1.36,0l0,-1.972c-1.555,1.591 -3.204,2.386 -4.946,2.386c-1.537,0 -2.731,-0.452 -3.579,-1.353c-0.849,-0.902 -1.274,-2.197 -1.274,-3.887l0,-10.024l1.347,0l0,9.411c0,1.484 0.277,2.6 0.833,3.347c0.556,0.746 1.42,1.119 2.593,1.119c0.88,0 1.817,-0.236 2.813,-0.706c0.995,-0.471 1.733,-1.027 2.213,-1.666l0,-11.505l1.36,0l0,14.85Z" style="fill:#797878;fill-rule:nonzero;"/><path d="M240.647,258.883l-1.347,0l0,-9.438c0,-2.969 -1.132,-4.453 -3.399,-4.453c-0.88,0 -1.769,0.198 -2.666,0.593c-0.898,0.396 -1.693,0.949 -2.387,1.66l0,11.638l-1.359,0l0,-20.743l1.359,0l0,7.745c0.649,-0.631 1.445,-1.166 2.387,-1.606c0.941,-0.44 1.8,-0.661 2.572,-0.661c1.547,0 2.74,0.46 3.58,1.38c0.84,0.92 1.26,2.207 1.26,3.86l0,10.025Z" style="fill:#797878;fill-rule:nonzero;"/><path d="M256.618,258.883l-1.347,0l0,-9.438c0,-2.969 -1.133,-4.453 -3.399,-4.453c-0.88,0 -1.769,0.198 -2.666,0.593c-0.898,0.396 -1.693,0.949 -2.387,1.66l0,11.638l-1.359,0l0,-14.851l1.359,0l0,1.853c0.649,-0.631 1.444,-1.166 2.387,-1.606c0.941,-0.44 1.8,-0.661 2.572,-0.661c1.547,0 2.74,0.46 3.58,1.38c0.84,0.92 1.26,2.207 1.26,3.86l0,10.025Z" style="fill:#797878;fill-rule:nonzero;"/><path d="M271.535,250.152c0,-1.618 -0.399,-2.897 -1.199,-3.84c-0.8,-0.942 -1.894,-1.413 -3.28,-1.413c-1.44,0 -2.639,0.484 -3.599,1.453c-0.96,0.969 -1.507,2.236 -1.64,3.8l9.718,0Zm-9.771,1.253c0,2.035 0.5,3.645 1.5,4.832c1,1.186 2.343,1.78 4.032,1.78c0.888,0 1.846,-0.169 2.873,-0.507c1.026,-0.337 1.77,-0.707 2.233,-1.106l0.107,0l0,1.546c-1.778,0.836 -3.413,1.254 -4.907,1.254c-2.265,0 -4.023,-0.669 -5.272,-2.007c-1.248,-1.337 -1.873,-3.22 -1.873,-5.646c0,-1.555 0.275,-2.932 0.827,-4.132c0.551,-1.201 1.326,-2.128 2.326,-2.787c1,-0.657 2.149,-0.986 3.446,-0.986c1.724,0 3.115,0.596 4.172,1.786c1.058,1.192 1.587,2.783 1.587,4.773l0,1.2l-11.051,0Z" style="fill:#797878;fill-rule:nonzero;"/><rect x="277.854" y="256.017" width="2.146" height="2.866" style="fill:#797878;"/></g></svg>