<?xml version="1.0" encoding="UTF-8" standalone="no"?><!DOCTYPE svg PUBLIC "-//W3C//DTD SVG 1.1//EN" "http://www.w3.org/Graphics/SVG/1.1/DTD/svg11.dtd"><svg width="100%" height="100%" viewBox="0 0 434 264" version="1.1" xmlns="http://www.w3.org/2000/svg" xmlns:xlink="http://www.w3.org/1999/xlink" xml:space="preserve" xmlns:serif="http://www.serif.com/" style="fill-rule:evenodd;clip-rule:evenodd;stroke-linejoin:round;stroke-miterlimit:1.41421;"><g id="supportsolution"><rect x="0.458" y="0" width="432.988" height="168.645" style="fill:#fff;"/><rect x="0.458" y="0" width="432.559" height="170.601" style="fill:#b20f24;"/><path d="M158.916,149.276l96.646,0c6.362,0 11.566,-5.131 11.566,-11.403l0,-23.5c0,-6.272 -5.204,-11.404 -11.566,-11.404l-56.693,0c-3.32,0 -6.007,-2.789 -6.007,-6.03c0,-3.257 2.703,-5.922 6.007,-5.922l64.109,0l0,-17.123l-80.612,0c-6.361,0 -11.565,5.132 -11.565,11.403l0,23.5c0,6.272 5.204,11.404 11.565,11.404l56.695,0c3.303,0 6.005,2.665 6.005,5.922c0,3.257 -2.702,5.922 -6.005,5.922l-70.209,0c-6.607,0 -12.013,-5.33 -12.013,-11.844l0,-46.307l-120.347,0c-6.361,0 -11.566,5.132 -11.566,11.403l0,23.5c0,6.272 5.204,11.404 11.566,11.404l56.694,0c3.303,0 6.006,2.665 6.006,5.922c0,3.257 -2.703,5.922 -6.006,5.922l-71.1,0l0,17.231l87.602,0c6.362,0 11.566,-5.131 11.566,-11.403l0,-23.5c0,-6.272 -5.204,-11.404 -11.566,-11.404l-56.694,0c-3.319,0 -6.006,-2.789 -6.006,-6.03c0,-3.257 2.703,-5.922 6.006,-5.922l82.221,0l0,34.89c0,12.852 10.665,23.369 23.701,23.369" style="fill:#fff;"/><path d="M26.106,214.542c0,1.099 -0.247,2.049 -0.738,2.85c-0.491,0.799 -1.181,1.2 -2.071,1.2l-23.297,0l0,-6.449l18.678,0c0.327,0 0.674,-0.156 1.037,-0.467c0.367,-0.312 0.55,-0.785 0.55,-1.419c0,-0.343 -0.079,-0.666 -0.233,-0.973c-0.154,-0.304 -0.386,-0.548 -0.694,-0.732c-0.309,-0.184 -0.646,-0.275 -1.011,-0.275l-14.131,0c-0.674,0 -1.275,-0.223 -1.804,-0.668c-0.528,-0.446 -0.934,-0.965 -1.22,-1.558c-0.285,-0.592 -0.428,-1.077 -0.428,-1.456l0,-8.519c0,-0.733 0.312,-1.541 0.933,-2.426c0.623,-0.886 1.425,-1.329 2.408,-1.329l20.923,0l0,6.228l-17.27,0c-0.356,0 -0.643,0.196 -0.858,0.587c-0.215,0.391 -0.322,0.8 -0.322,1.228c0,0.391 0.148,0.805 0.442,1.245c0.296,0.44 0.713,0.66 1.258,0.66l14.168,0c1.254,0 2.183,0.421 2.781,1.263c0.599,0.843 0.899,1.949 0.899,3.316l0,7.694Z" style="fill:#b20f24;fill-rule:nonzero;"/><path d="M55.051,211.428c0,0.892 -0.281,1.906 -0.846,3.041c-0.565,1.136 -1.277,2.108 -2.136,2.914c-0.859,0.806 -1.708,1.209 -2.547,1.209l-15.148,0c-1.219,0 -2.351,-0.434 -3.394,-1.301c-1.044,-0.868 -1.865,-1.963 -2.466,-3.289c-0.598,-1.325 -0.898,-2.61 -0.898,-3.856l0,-17.825l6.083,0l0,15.884c0,0.72 0.173,1.382 0.517,1.986c0.345,0.606 0.75,1.082 1.215,1.429c0.462,0.349 0.875,0.523 1.235,0.523l9.304,0c0.391,0 0.804,-0.204 1.238,-0.613c0.433,-0.41 0.797,-0.899 1.085,-1.466c0.29,-0.569 0.435,-1.054 0.435,-1.457l0,-16.286l6.323,0l0,19.107Z" style="fill:#b20f24;fill-rule:nonzero;"/><path d="M84.101,203.513c0,1.467 -0.283,2.707 -0.847,3.72c-0.564,1.013 -1.507,1.52 -2.831,1.52l-17.12,0l0,9.838l-6.012,0l0,-16.176l19.557,0c0.262,0 0.525,-0.189 0.788,-0.567c0.262,-0.379 0.394,-0.8 0.394,-1.265c0,-0.452 -0.111,-0.83 -0.329,-1.136c-0.22,-0.304 -0.514,-0.531 -0.884,-0.678c-0.369,-0.147 -0.738,-0.22 -1.108,-0.22l-18.418,0l0,-6.229l22.563,0c1.566,0 2.666,0.476 3.298,1.429c0.632,0.953 0.949,2.156 0.949,3.61l0,6.154Z" style="fill:#b20f24;fill-rule:nonzero;"/><path d="M112.402,203.513c0,1.467 -0.282,2.707 -0.845,3.72c-0.565,1.013 -1.508,1.52 -2.831,1.52l-17.121,0l0,9.838l-6.013,0l0,-16.176l19.557,0c0.262,0 0.525,-0.189 0.788,-0.567c0.262,-0.379 0.394,-0.8 0.394,-1.265c0,-0.452 -0.11,-0.83 -0.327,-1.136c-0.22,-0.304 -0.515,-0.531 -0.884,-0.678c-0.371,-0.147 -0.739,-0.22 -1.11,-0.22l-18.418,0l0,-6.229l22.564,0c1.565,0 2.665,0.476 3.299,1.429c0.632,0.953 0.947,2.156 0.947,3.61l0,6.154Z" style="fill:#b20f24;fill-rule:nonzero;"/><path d="M137.837,208.136l0,-5.397c0,-1.134 -0.314,-2.097 -0.944,-2.89c-0.629,-0.793 -1.623,-1.189 -2.982,-1.189l-9.514,0c-0.37,0 -0.826,0.17 -1.37,0.511c-0.545,0.342 -1.02,0.793 -1.425,1.354c-0.404,0.561 -0.606,1.159 -0.606,1.793l0,5.14c0.02,1.232 0.292,2.27 0.816,3.111c0.525,0.842 1.307,1.262 2.345,1.262l10.593,0c0.861,0 1.59,-0.283 2.189,-0.85c0.599,-0.566 0.898,-1.516 0.898,-2.845m6.174,2.467c0,1.455 -0.333,2.792 -0.996,4.013c-0.665,1.221 -1.473,2.19 -2.428,2.904c-0.954,0.714 -1.797,1.071 -2.524,1.071l-16.513,0c-1.359,0 -2.561,-0.432 -3.611,-1.299c-1.048,-0.868 -1.855,-1.948 -2.42,-3.243c-0.565,-1.294 -0.847,-2.535 -0.847,-3.719l0,-9.857c0,-1.074 0.192,-2.104 0.577,-3.087c0.385,-0.984 0.892,-1.853 1.521,-2.611c0.629,-0.756 1.316,-1.355 2.061,-1.795c0.744,-0.441 1.455,-0.66 2.135,-0.66l16.258,0c0.729,0 1.628,0.294 2.696,0.881c1.068,0.584 2.018,1.538 2.848,2.856c0.829,1.32 1.243,3.017 1.243,5.093l0,9.453Z" style="fill:#b20f24;fill-rule:nonzero;"/><path d="M180.678,227.147l-7.677,0l-13.522,-18.576l-7.653,0l0,10.021l-5.956,0l0,-16.323l18.558,0c0.371,0 0.739,-0.175 1.1,-0.523c0.363,-0.348 0.546,-0.834 0.546,-1.457c0,-0.451 -0.089,-0.81 -0.265,-1.08c-0.176,-0.268 -0.409,-0.464 -0.695,-0.587c-0.286,-0.12 -0.587,-0.183 -0.902,-0.183l-18.342,0l0,-6.118l22.409,0c1.049,0 1.951,0.482 2.704,1.447c0.755,0.965 1.132,2.125 1.132,3.48l0,6.559c0,1.161 -0.183,2.061 -0.553,2.703c-0.368,0.64 -0.807,1.084 -1.32,1.327c-0.511,0.246 -1.1,0.416 -1.766,0.514c-0.664,0.097 -1.055,0.172 -1.168,0.22l13.37,18.576Z" style="fill:#b20f24;fill-rule:nonzero;"/><path d="M210.311,198.66l-11.135,0l0,19.932l-6.083,0l0,-26.272l17.218,0l0,6.34Zm-18.867,19.895l-6.083,0l0,-19.951l-11.132,0l0,-6.32l17.215,0l0,26.271Z" style="fill:#b20f24;fill-rule:nonzero;"/><path d="M238.166,214.542c0,1.099 -0.247,2.049 -0.738,2.85c-0.491,0.799 -1.181,1.2 -2.071,1.2l-23.297,0l0,-6.449l18.678,0c0.328,0 0.674,-0.156 1.038,-0.467c0.365,-0.312 0.549,-0.785 0.549,-1.419c0,-0.343 -0.079,-0.666 -0.233,-0.973c-0.154,-0.304 -0.385,-0.548 -0.694,-0.732c-0.309,-0.184 -0.646,-0.275 -1.011,-0.275l-14.131,0c-0.674,0 -1.275,-0.223 -1.804,-0.668c-0.528,-0.446 -0.934,-0.965 -1.221,-1.558c-0.284,-0.592 -0.427,-1.077 -0.427,-1.456l0,-8.519c0,-0.733 0.312,-1.541 0.933,-2.426c0.623,-0.886 1.426,-1.329 2.408,-1.329l20.923,0l0,6.228l-17.27,0c-0.356,0 -0.643,0.196 -0.858,0.587c-0.216,0.391 -0.322,0.8 -0.322,1.228c0,0.391 0.148,0.805 0.442,1.245c0.296,0.44 0.713,0.66 1.257,0.66l14.169,0c1.254,0 2.182,0.421 2.782,1.263c0.598,0.843 0.898,1.949 0.898,3.316l0,7.694Z" style="fill:#797878;fill-rule:nonzero;"/><path d="M264.142,208.136l0,-5.397c0,-1.134 -0.314,-2.097 -0.945,-2.89c-0.629,-0.793 -1.623,-1.189 -2.982,-1.189l-9.514,0c-0.369,0 -0.826,0.17 -1.37,0.511c-0.545,0.342 -1.019,0.793 -1.425,1.354c-0.404,0.561 -0.605,1.159 -0.605,1.793l0,5.14c0.019,1.232 0.291,2.27 0.815,3.111c0.525,0.842 1.307,1.262 2.346,1.262l10.593,0c0.86,0 1.59,-0.283 2.188,-0.85c0.599,-0.566 0.899,-1.516 0.899,-2.845m6.173,2.467c0,1.455 -0.332,2.792 -0.995,4.013c-0.666,1.221 -1.474,2.19 -2.429,2.904c-0.953,0.714 -1.797,1.071 -2.524,1.071l-16.513,0c-1.359,0 -2.561,-0.432 -3.611,-1.299c-1.048,-0.868 -1.855,-1.948 -2.42,-3.243c-0.565,-1.294 -0.846,-2.535 -0.846,-3.719l0,-9.857c0,-1.074 0.191,-2.104 0.576,-3.087c0.386,-0.984 0.892,-1.853 1.521,-2.611c0.63,-0.756 1.316,-1.355 2.061,-1.795c0.744,-0.441 1.455,-0.66 2.135,-0.66l16.258,0c0.729,0 1.628,0.294 2.696,0.881c1.068,0.584 2.018,1.538 2.848,2.856c0.829,1.32 1.243,3.017 1.243,5.093l0,9.453Z" style="fill:#797878;fill-rule:nonzero;"/><path d="M295.971,218.591l-17.438,0c-0.937,0 -1.848,-0.418 -2.731,-1.255c-0.885,-0.836 -1.612,-1.816 -2.181,-2.94c-0.571,-1.123 -0.855,-2.015 -0.855,-2.674l0,-19.402l5.767,0l0,15.774c0,0.88 0.192,1.648 0.575,2.309c0.383,0.66 0.833,1.156 1.352,1.494c0.518,0.334 0.946,0.502 1.286,0.502l14.225,0l0,6.192Z" style="fill:#797878;fill-rule:nonzero;"/><path d="M325.077,211.428c0,0.892 -0.281,1.906 -0.846,3.041c-0.565,1.136 -1.277,2.108 -2.136,2.914c-0.859,0.806 -1.708,1.209 -2.547,1.209l-15.148,0c-1.219,0 -2.35,-0.434 -3.394,-1.301c-1.044,-0.868 -1.865,-1.963 -2.466,-3.289c-0.598,-1.325 -0.898,-2.61 -0.898,-3.856l0,-17.825l6.083,0l0,15.884c0,0.72 0.173,1.382 0.518,1.986c0.344,0.606 0.749,1.082 1.214,1.429c0.463,0.349 0.874,0.523 1.235,0.523l9.304,0c0.391,0 0.804,-0.204 1.238,-0.613c0.433,-0.41 0.797,-0.899 1.085,-1.466c0.29,-0.569 0.435,-1.054 0.435,-1.457l0,-16.286l6.323,0l0,19.107Z" style="fill:#797878;fill-rule:nonzero;"/><path d="M362.982,198.66l-11.134,0l0,19.932l-6.083,0l0,-26.272l17.217,0l0,6.34Zm-18.866,19.895l-6.082,0l0,-19.951l-11.134,0l0,-6.32l17.216,0l0,26.271Z" style="fill:#797878;fill-rule:nonzero;"/><rect x="364.771" y="192.321" width="6.173" height="26.235" style="fill:#797878;"/><path d="M396.227,208.136l0,-5.397c0,-1.134 -0.315,-2.097 -0.945,-2.89c-0.629,-0.793 -1.623,-1.189 -2.982,-1.189l-9.514,0c-0.37,0 -0.826,0.17 -1.37,0.511c-0.545,0.342 -1.02,0.793 -1.425,1.354c-0.404,0.561 -0.606,1.159 -0.606,1.793l0,5.14c0.02,1.232 0.292,2.27 0.816,3.111c0.525,0.842 1.307,1.262 2.345,1.262l10.593,0c0.861,0 1.59,-0.283 2.189,-0.85c0.599,-0.566 0.899,-1.516 0.899,-2.845m6.173,2.467c0,1.455 -0.333,2.792 -0.996,4.013c-0.665,1.221 -1.473,2.19 -2.428,2.904c-0.954,0.714 -1.797,1.071 -2.524,1.071l-16.513,0c-1.359,0 -2.561,-0.432 -3.611,-1.299c-1.048,-0.868 -1.855,-1.948 -2.42,-3.243c-0.565,-1.294 -0.846,-2.535 -0.846,-3.719l0,-9.857c0,-1.074 0.191,-2.104 0.576,-3.087c0.385,-0.984 0.892,-1.853 1.521,-2.611c0.63,-0.756 1.316,-1.355 2.061,-1.795c0.744,-0.441 1.455,-0.66 2.135,-0.66l16.258,0c0.728,0 1.628,0.294 2.696,0.881c1.068,0.584 2.018,1.538 2.848,2.856c0.829,1.32 1.243,3.017 1.243,5.093l0,9.453Z" style="fill:#797878;fill-rule:nonzero;"/><path d="M432.489,212.858c0,0.758 -0.184,1.651 -0.55,2.683c-0.367,1.032 -0.962,1.936 -1.787,2.711c-0.824,0.776 -1.871,1.164 -3.137,1.164c-1.305,0 -2.272,-0.229 -2.902,-0.687c-0.628,-0.458 -1.301,-1.304 -2.013,-2.537l-9.949,-15.388c-0.314,-0.538 -0.564,-0.883 -0.749,-1.036c-0.186,-0.154 -0.417,-0.23 -0.694,-0.23c-0.182,0 -0.368,0.089 -0.557,0.267c-0.19,0.176 -0.286,0.424 -0.286,0.741l0,18.009l-5.803,0l0,-20.903c0,-0.366 0.093,-0.865 0.279,-1.494c0.186,-0.63 0.494,-1.282 0.923,-1.96c0.428,-0.678 0.997,-1.251 1.708,-1.722c0.708,-0.47 1.563,-0.705 2.565,-0.705c1.267,0 2.259,0.272 2.98,0.816c0.718,0.543 1.297,1.132 1.735,1.767l10.019,15.114c0.314,0.55 0.581,0.901 0.799,1.054c0.22,0.152 0.478,0.228 0.772,0.228c0.343,0 0.556,-0.131 0.637,-0.393c0.082,-0.263 0.122,-0.632 0.122,-1.109l0,-16.927l5.888,0l0,20.537Z" style="fill:#797878;fill-rule:nonzero;"/><path d="M110.346,248.377c0,-2.758 -0.828,-4.866 -2.481,-6.325c-1.654,-1.458 -4.077,-2.188 -7.269,-2.188l-3.192,0l0,17.132l2.966,0c2.118,0 3.934,-0.341 5.447,-1.024c1.511,-0.683 2.643,-1.664 3.398,-2.947c0.754,-1.281 1.131,-2.831 1.131,-4.648m1.49,0.04c0,1.96 -0.425,3.671 -1.271,5.134c-0.848,1.463 -2.128,2.62 -3.844,3.472c-1.716,0.851 -3.651,1.276 -5.806,1.276l-4.908,0l0,-19.805l4.855,0c3.485,0 6.185,0.869 8.101,2.607c1.915,1.738 2.873,4.176 2.873,7.316" style="fill:#797878;fill-rule:nonzero;"/><path d="M117.449,258.298l-1.37,0l0,-14.817l1.37,0l0,14.817Zm0.173,-17.477l-1.716,0l0,-2.075l1.716,0l0,2.075Z" style="fill:#797878;fill-rule:nonzero;"/><path d="M132.666,249.587c0,-1.613 -0.399,-2.891 -1.197,-3.831c-0.799,-0.94 -1.889,-1.409 -3.272,-1.409c-1.437,0 -2.634,0.483 -3.592,1.449c-0.958,0.967 -1.503,2.23 -1.636,3.791l9.697,0Zm-9.75,1.25c0,2.031 0.499,3.639 1.497,4.822c0.997,1.184 2.337,1.776 4.023,1.776c0.886,0 1.842,-0.168 2.866,-0.505c1.025,-0.337 1.766,-0.705 2.228,-1.105l0.107,0l0,1.543c-1.774,0.834 -3.406,1.25 -4.895,1.25c-2.261,0 -4.015,-0.666 -5.261,-2.002c-1.247,-1.334 -1.869,-3.212 -1.869,-5.633c0,-1.55 0.275,-2.925 0.825,-4.123c0.549,-1.197 1.324,-2.123 2.321,-2.78c0.998,-0.655 2.143,-0.984 3.439,-0.984c1.719,0 3.107,0.595 4.163,1.782c1.054,1.189 1.583,2.776 1.583,4.763l0,1.196l-11.027,0Z" style="fill:#797878;fill-rule:nonzero;"/><path d="M161.848,248.377c0,-2.758 -0.828,-4.866 -2.481,-6.325c-1.654,-1.458 -4.077,-2.188 -7.269,-2.188l-3.192,0l0,17.132l2.966,0c2.118,0 3.934,-0.341 5.447,-1.024c1.511,-0.683 2.643,-1.664 3.398,-2.947c0.754,-1.281 1.131,-2.831 1.131,-4.648m1.49,0.04c0,1.96 -0.425,3.671 -1.271,5.134c-0.847,1.463 -2.128,2.62 -3.844,3.472c-1.715,0.851 -3.651,1.276 -5.806,1.276l-4.908,0l0,-19.805l4.855,0c3.485,0 6.185,0.869 8.101,2.607c1.915,1.738 2.873,4.176 2.873,7.316" style="fill:#797878;fill-rule:nonzero;"/><path d="M168.951,258.298l-1.37,0l0,-14.817l1.37,0l0,14.817Zm0.173,-17.477l-1.716,0l0,-2.075l1.716,0l0,2.075Z" style="fill:#797878;fill-rule:nonzero;"/><path d="M184.168,249.587c0,-1.613 -0.399,-2.891 -1.197,-3.831c-0.798,-0.94 -1.889,-1.409 -3.272,-1.409c-1.437,0 -2.634,0.483 -3.592,1.449c-0.957,0.967 -1.502,2.23 -1.636,3.791l9.697,0Zm-9.75,1.25c0,2.031 0.499,3.639 1.497,4.822c0.997,1.184 2.337,1.776 4.023,1.776c0.886,0 1.842,-0.168 2.867,-0.505c1.024,-0.337 1.765,-0.705 2.227,-1.105l0.107,0l0,1.543c-1.774,0.834 -3.405,1.25 -4.895,1.25c-2.261,0 -4.015,-0.666 -5.261,-2.002c-1.247,-1.334 -1.868,-3.212 -1.868,-5.633c0,-1.55 0.274,-2.925 0.824,-4.123c0.549,-1.197 1.324,-2.123 2.321,-2.78c0.998,-0.655 2.143,-0.984 3.439,-0.984c1.719,0 3.107,0.595 4.163,1.782c1.054,1.189 1.583,2.776 1.583,4.763l0,1.196l-11.027,0Z" style="fill:#797878;fill-rule:nonzero;"/><path d="M200.315,258.298l-1.343,0l0,-9.417c0,-2.961 -1.131,-4.442 -3.392,-4.442c-0.878,0 -1.766,0.198 -2.661,0.591c-0.896,0.395 -1.688,0.948 -2.38,1.657l0,11.611l-1.357,0l0,-14.817l1.357,0l0,1.849c0.647,-0.63 1.44,-1.163 2.38,-1.603c0.94,-0.439 1.796,-0.657 2.568,-0.657c1.543,0 2.733,0.458 3.571,1.376c0.838,0.918 1.257,2.202 1.257,3.851l0,10.002Z" style="fill:#797878;fill-rule:nonzero;"/><path d="M214.561,254.242c0,1.34 -0.496,2.406 -1.483,3.199c-0.989,0.794 -2.339,1.191 -4.05,1.191c-0.755,0 -1.523,-0.096 -2.308,-0.286c-0.785,-0.191 -1.648,-0.521 -2.587,-0.992l0,-1.569l0.08,0c0.681,0.506 1.464,0.918 2.348,1.237c0.88,0.32 1.792,0.479 2.733,0.479c1.258,0 2.225,-0.275 2.899,-0.824c0.674,-0.55 1.011,-1.322 1.011,-2.315c0,-0.523 -0.1,-0.942 -0.299,-1.257c-0.199,-0.314 -0.522,-0.576 -0.965,-0.785c-0.443,-0.208 -1.366,-0.467 -2.766,-0.778c-0.559,-0.124 -1.135,-0.264 -1.729,-0.419c-0.595,-0.154 -1.136,-0.376 -1.623,-0.665c-0.489,-0.287 -0.889,-0.666 -1.204,-1.137c-0.316,-0.47 -0.472,-1.078 -0.472,-1.822c0,-0.825 0.216,-1.571 0.652,-2.241c0.434,-0.67 1.044,-1.189 1.829,-1.557c0.785,-0.367 1.704,-0.552 2.76,-0.552c0.779,0 1.611,0.115 2.494,0.346c0.881,0.231 1.597,0.497 2.148,0.798l0,1.623l-0.133,0c-0.585,-0.426 -1.334,-0.785 -2.241,-1.077c-0.91,-0.293 -1.76,-0.44 -2.548,-0.44c-1.029,0 -1.885,0.253 -2.567,0.759c-0.683,0.505 -1.024,1.156 -1.024,1.955c0,0.913 0.31,1.592 0.931,2.035c0.62,0.444 1.693,0.811 3.219,1.104c1.783,0.319 3.043,0.783 3.784,1.389c0.74,0.609 1.111,1.476 1.111,2.601" style="fill:#797878;fill-rule:nonzero;"/><path d="M217.168,244.692l0,-1.211l1.649,0l0,-4.269l1.357,0l0,4.269l5.4,0l0,1.211l-5.4,0l0,8.007c0,1.197 0.09,2.124 0.273,2.78c0.181,0.656 0.475,1.129 0.884,1.417c0.408,0.288 1.001,0.432 1.783,0.432c0.771,0 1.609,-0.164 2.513,-0.492l0.041,0l0,1.33c-0.356,0.098 -0.81,0.193 -1.364,0.286c-0.555,0.093 -0.983,0.139 -1.283,0.139c-1.437,0 -2.498,-0.42 -3.18,-1.263c-0.683,-0.842 -1.024,-2.102 -1.024,-3.778l0,-8.858l-1.649,0Z" style="fill:#797878;fill-rule:nonzero;"/><rect x="228.7" y="237.602" width="1.356" height="20.696" style="fill:#797878;"/><path d="M245.26,249.587c0,-1.613 -0.399,-2.891 -1.197,-3.831c-0.799,-0.94 -1.889,-1.409 -3.272,-1.409c-1.437,0 -2.634,0.483 -3.592,1.449c-0.958,0.967 -1.503,2.23 -1.636,3.791l9.697,0Zm-9.75,1.25c0,2.031 0.499,3.639 1.497,4.822c0.997,1.184 2.337,1.776 4.023,1.776c0.886,0 1.842,-0.168 2.866,-0.505c1.025,-0.337 1.766,-0.705 2.228,-1.105l0.107,0l0,1.543c-1.774,0.834 -3.405,1.25 -4.895,1.25c-2.261,0 -4.015,-0.666 -5.261,-2.002c-1.247,-1.334 -1.868,-3.212 -1.868,-5.633c0,-1.55 0.274,-2.925 0.824,-4.123c0.549,-1.197 1.324,-2.123 2.321,-2.78c0.998,-0.655 2.143,-0.984 3.439,-0.984c1.719,0 3.107,0.595 4.163,1.782c1.054,1.189 1.583,2.776 1.583,4.763l0,1.196l-11.027,0Z" style="fill:#797878;fill-rule:nonzero;"/><path d="M251.964,258.298l-1.37,0l0,-14.817l1.37,0l0,14.817Zm0.172,-17.477l-1.716,0l0,-2.075l1.716,0l0,2.075Z" style="fill:#797878;fill-rule:nonzero;"/><path d="M266.54,254.242c0,1.34 -0.494,2.406 -1.483,3.199c-0.989,0.794 -2.339,1.191 -4.05,1.191c-0.753,0 -1.523,-0.096 -2.308,-0.286c-0.784,-0.191 -1.647,-0.521 -2.587,-0.992l0,-1.569l0.08,0c0.683,0.506 1.465,0.918 2.348,1.237c0.882,0.32 1.793,0.479 2.733,0.479c1.259,0 2.226,-0.275 2.9,-0.824c0.673,-0.55 1.011,-1.322 1.011,-2.315c0,-0.523 -0.1,-0.942 -0.3,-1.257c-0.199,-0.314 -0.52,-0.576 -0.964,-0.785c-0.444,-0.208 -1.365,-0.467 -2.767,-0.778c-0.558,-0.124 -1.135,-0.264 -1.729,-0.419c-0.593,-0.154 -1.135,-0.376 -1.623,-0.665c-0.487,-0.287 -0.889,-0.666 -1.203,-1.137c-0.315,-0.47 -0.473,-1.078 -0.473,-1.822c0,-0.825 0.218,-1.571 0.652,-2.241c0.434,-0.67 1.044,-1.189 1.829,-1.557c0.785,-0.367 1.704,-0.552 2.76,-0.552c0.78,0 1.611,0.115 2.494,0.346c0.883,0.231 1.598,0.497 2.148,0.798l0,1.623l-0.133,0c-0.585,-0.426 -1.332,-0.785 -2.241,-1.077c-0.909,-0.293 -1.758,-0.44 -2.547,-0.44c-1.029,0 -1.884,0.253 -2.568,0.759c-0.683,0.505 -1.023,1.156 -1.023,1.955c0,0.913 0.31,1.592 0.931,2.035c0.62,0.444 1.694,0.811 3.218,1.104c1.783,0.319 3.045,0.783 3.785,1.389c0.739,0.609 1.11,1.476 1.11,2.601" style="fill:#797878;fill-rule:nonzero;"/><path d="M269.147,244.692l0,-1.211l1.649,0l0,-4.269l1.357,0l0,4.269l5.4,0l0,1.211l-5.4,0l0,8.007c0,1.197 0.091,2.124 0.272,2.78c0.182,0.656 0.478,1.129 0.885,1.417c0.407,0.288 1.003,0.432 1.782,0.432c0.772,0 1.61,-0.164 2.514,-0.492l0.04,0l0,1.33c-0.354,0.098 -0.81,0.193 -1.363,0.286c-0.554,0.093 -0.983,0.139 -1.283,0.139c-1.437,0 -2.497,-0.42 -3.18,-1.263c-0.683,-0.842 -1.024,-2.102 -1.024,-3.778l0,-8.858l-1.649,0Z" style="fill:#797878;fill-rule:nonzero;"/><path d="M291.493,258.298l-1.357,0l0,-1.968c-1.551,1.589 -3.197,2.381 -4.935,2.381c-1.534,0 -2.725,-0.45 -3.571,-1.35c-0.846,-0.9 -1.27,-2.193 -1.27,-3.877l0,-10.003l1.343,0l0,9.39c0,1.482 0.278,2.594 0.832,3.339c0.553,0.745 1.416,1.118 2.587,1.118c0.878,0 1.814,-0.235 2.807,-0.706c0.992,-0.469 1.729,-1.022 2.207,-1.661l0,-11.48l1.357,0l0,14.818Z" style="fill:#797878;fill-rule:nonzero;"/><path d="M307.441,258.298l-1.344,0l0,-9.417c0,-2.961 -1.13,-4.442 -3.391,-4.442c-0.878,0 -1.765,0.198 -2.661,0.591c-0.896,0.395 -1.689,0.948 -2.38,1.657l0,11.611l-1.357,0l0,-14.817l1.357,0l0,1.849c0.646,-0.63 1.441,-1.163 2.38,-1.603c0.94,-0.439 1.796,-0.657 2.567,-0.657c1.543,0 2.734,0.458 3.572,1.376c0.838,0.918 1.257,2.202 1.257,3.851l0,10.002Z" style="fill:#797878;fill-rule:nonzero;"/><path d="M321.687,245.623c-0.647,-0.46 -1.304,-0.798 -1.969,-1.011c-0.665,-0.213 -1.428,-0.319 -2.287,-0.319c-1.446,0 -2.602,0.579 -3.472,1.736c-0.87,1.157 -1.304,2.729 -1.304,4.715c0,1.96 0.353,3.452 1.058,4.476c0.704,1.024 1.741,1.536 3.105,1.536c0.923,0 1.775,-0.186 2.555,-0.559c0.779,-0.372 1.551,-0.917 2.314,-1.636l0,-8.938Zm1.343,10.734c0,2.598 -0.512,4.509 -1.536,5.733c-1.024,1.223 -2.596,1.836 -4.715,1.836c-0.594,0 -1.184,-0.049 -1.769,-0.147c-0.586,-0.097 -1.312,-0.284 -2.182,-0.558l0,-1.451l0.16,0c0.39,0.222 0.999,0.419 1.829,0.592c0.829,0.174 1.696,0.26 2.6,0.26c0.87,0 1.621,-0.198 2.255,-0.592c0.633,-0.394 1.129,-0.996 1.483,-1.803c0.354,-0.806 0.532,-1.747 0.532,-2.819l0,-1.529c-0.931,0.85 -1.769,1.423 -2.514,1.716c-0.745,0.292 -1.578,0.438 -2.501,0.438c-1.684,0 -3.006,-0.639 -3.964,-1.915c-0.957,-1.277 -1.436,-3.023 -1.436,-5.241c0,-1.533 0.254,-2.888 0.765,-4.064c0.51,-1.174 1.255,-2.101 2.234,-2.779c0.979,-0.679 2.056,-1.017 3.226,-1.017c0.763,0 1.428,0.071 1.995,0.212c0.567,0.142 1.303,0.448 2.208,0.917l0.16,-0.665l1.17,0l0,12.876Z" style="fill:#797878;fill-rule:nonzero;"/><rect x="329.654" y="255.439" width="2.142" height="2.859" style="fill:#797878;"/></g></svg>