<svg xmlns="http://www.w3.org/2000/svg" viewBox="0 0 433.45 263.93"><defs><style>.cls-1{fill:#b20f24;}.cls-2{fill:#fff;fill-rule:evenodd;}.cls-3{fill:#797978;}</style></defs><title>support</title><g id="Ebene_2" data-name="Ebene 2"><g id="Ebene_1-2" data-name="Ebene 1"><rect class="cls-1" x="0.46" width="432.56" height="170.6"/><path class="cls-2" d="M158.92,149.28h96.64a11.52,11.52,0,0,0,11.57-11.41v-23.5A11.52,11.52,0,0,0,255.56,103H198.87a6.08,6.08,0,0,1-6-6,6,6,0,0,1,6-5.92H263V73.89H182.37A11.53,11.53,0,0,0,170.8,85.3v23.5a11.52,11.52,0,0,0,11.57,11.4h56.69a5.92,5.92,0,1,1,0,11.84H168.85a12,12,0,0,1-12-11.84V73.89H36.49A11.52,11.52,0,0,0,24.93,85.3v23.5a11.51,11.51,0,0,0,11.56,11.4h56.7a5.92,5.92,0,1,1,0,11.84H22.09v17.24h87.6a11.52,11.52,0,0,0,11.56-11.41v-23.5A11.51,11.51,0,0,0,109.69,103H53a6.08,6.08,0,0,1-6-6A6,6,0,0,1,53,91h82.23v34.89A23.6,23.6,0,0,0,158.92,149.28Z"/><path class="cls-1" d="M25.51,213.15a4.88,4.88,0,0,1-.72,2.68,2.26,2.26,0,0,1-2,1.12H0v-6H18.25a1.67,1.67,0,0,0,1-.44,1.64,1.64,0,0,0,.53-1.33,1.91,1.91,0,0,0-.22-.91,1.67,1.67,0,0,0-.68-.69,2,2,0,0,0-1-.26H4.1a2.71,2.71,0,0,1-1.76-.63,4.39,4.39,0,0,1-1.2-1.46,3.36,3.36,0,0,1-.41-1.37v-8a4,4,0,0,1,.91-2.28A2.79,2.79,0,0,1,4,192.29H24.44v5.85H7.56a.94.94,0,0,0-.84.55,2.26,2.26,0,0,0-.31,1.15A2,2,0,0,0,6.84,201a1.42,1.42,0,0,0,1.23.62H21.92a3.14,3.14,0,0,1,2.71,1.18,5.1,5.1,0,0,1,.88,3.12Z"/><path class="cls-1" d="M53.8,210.23a6.33,6.33,0,0,1-.83,2.85,9.53,9.53,0,0,1-2.09,2.74A3.72,3.72,0,0,1,48.4,217H33.59a5.14,5.14,0,0,1-3.31-1.22,8.3,8.3,0,0,1-2.41-3.09A8.4,8.4,0,0,1,27,209V192.29h5.94V207.2a3.58,3.58,0,0,0,.51,1.87,4.31,4.31,0,0,0,1.18,1.34,2.16,2.16,0,0,0,1.21.49h9.1a1.81,1.81,0,0,0,1.2-.58A4.79,4.79,0,0,0,47.19,209a3,3,0,0,0,.43-1.37V192.29H53.8Z"/><path class="cls-1" d="M82.19,202.8a6.88,6.88,0,0,1-.83,3.49,2.94,2.94,0,0,1-2.77,1.43H61.86V217H56V201.77H75.1c.26,0,.51-.18.77-.54a1.93,1.93,0,0,0,.38-1.18,1.7,1.7,0,0,0-.32-1.07,1.86,1.86,0,0,0-.86-.64,3,3,0,0,0-1.08-.2H56v-5.85H78a3.62,3.62,0,0,1,3.22,1.34,5.8,5.8,0,0,1,.93,3.39Z"/><path class="cls-1" d="M109.85,202.8a6.88,6.88,0,0,1-.83,3.49,3,3,0,0,1-2.77,1.43H89.52V217H83.64V201.77h19.12c.25,0,.51-.18.77-.54a2,2,0,0,0,.38-1.18,1.76,1.76,0,0,0-.32-1.07,1.86,1.86,0,0,0-.86-.64,3,3,0,0,0-1.09-.2h-18v-5.85h22a3.63,3.63,0,0,1,3.23,1.34,5.8,5.8,0,0,1,.93,3.39Z"/><path class="cls-1" d="M140.73,209.45a7.48,7.48,0,0,1-1,3.77,8.37,8.37,0,0,1-2.37,2.73,4.43,4.43,0,0,1-2.47,1H118.78a5.46,5.46,0,0,1-3.52-1.22,8,8,0,0,1-2.37-3,8.49,8.49,0,0,1-.83-3.49v-9.26a7.57,7.57,0,0,1,.57-2.9,8.75,8.75,0,0,1,1.48-2.45,7.69,7.69,0,0,1,2-1.68,4.13,4.13,0,0,1,2.08-.62H134.1a6,6,0,0,1,2.64.82,7.7,7.7,0,0,1,2.78,2.69,8.56,8.56,0,0,1,1.21,4.78Zm-6-2.31v-5.07a4.12,4.12,0,0,0-.92-2.71,3.57,3.57,0,0,0-2.92-1.12h-9.29a2.76,2.76,0,0,0-1.34.48,4.78,4.78,0,0,0-1.39,1.27,2.74,2.74,0,0,0-.6,1.68v4.83a5.45,5.45,0,0,0,.8,2.92,2.56,2.56,0,0,0,2.29,1.19h10.35a3.05,3.05,0,0,0,2.14-.8A3.45,3.45,0,0,0,134.7,207.14Z"/><path class="cls-1" d="M176.57,225h-7.5l-13.22-17.45h-7.48V217h-5.82V201.63h18.14a1.61,1.61,0,0,0,1.07-.49,1.76,1.76,0,0,0,.53-1.37,1.84,1.84,0,0,0-.25-1,1.59,1.59,0,0,0-.68-.55,2.42,2.42,0,0,0-.88-.17H142.55v-5.74h21.9a3.29,3.29,0,0,1,2.64,1.36,5,5,0,0,1,1.11,3.26v6.16a5,5,0,0,1-.54,2.54,3,3,0,0,1-1.29,1.25,6.16,6.16,0,0,1-1.73.48,8.9,8.9,0,0,0-1.14.2Z"/><path class="cls-1" d="M187.09,216.92h-6V198.19H170.26v-5.94h16.83Zm18.44-18.68H194.64V217H188.7V192.29h16.83Z"/><path class="cls-3" d="M232.75,213.15a4.88,4.88,0,0,1-.72,2.68,2.28,2.28,0,0,1-2,1.12H207.24v-6h18.25a1.68,1.68,0,0,0,1.55-1.77,1.92,1.92,0,0,0-.23-.91,1.67,1.67,0,0,0-.68-.69,2,2,0,0,0-1-.26h-13.8a2.74,2.74,0,0,1-1.77-.63,4.48,4.48,0,0,1-1.19-1.46,3.25,3.25,0,0,1-.42-1.37v-8a4.08,4.08,0,0,1,.91-2.28,2.81,2.81,0,0,1,2.36-1.24h20.44v5.85H214.8a.94.94,0,0,0-.84.55,2.27,2.27,0,0,0-.32,1.15,2.06,2.06,0,0,0,.44,1.17,1.39,1.39,0,0,0,1.22.62h13.85a3.16,3.16,0,0,1,2.72,1.18,5.17,5.17,0,0,1,.88,3.12Z"/><path class="cls-3" d="M264.16,209.45a7.48,7.48,0,0,1-1,3.77,8.37,8.37,0,0,1-2.37,2.73,4.43,4.43,0,0,1-2.47,1H242.21a5.46,5.46,0,0,1-3.52-1.22,8,8,0,0,1-2.37-3,8.49,8.49,0,0,1-.83-3.49v-9.26a7.57,7.57,0,0,1,.57-2.9,8.75,8.75,0,0,1,1.48-2.45,7.69,7.69,0,0,1,2-1.68,4.16,4.16,0,0,1,2.08-.62h15.89a6,6,0,0,1,2.64.82A7.7,7.7,0,0,1,263,195.8a8.56,8.56,0,0,1,1.21,4.78Zm-6-2.31v-5.07a4.07,4.07,0,0,0-.92-2.71,3.56,3.56,0,0,0-2.91-1.12H245a2.76,2.76,0,0,0-1.34.48,4.78,4.78,0,0,0-1.39,1.27,2.74,2.74,0,0,0-.6,1.68v4.83a5.45,5.45,0,0,0,.8,2.92,2.56,2.56,0,0,0,2.29,1.19h10.36a3,3,0,0,0,2.13-.8A3.45,3.45,0,0,0,258.13,207.14Z"/><path class="cls-3" d="M289.24,217h-17a4,4,0,0,1-2.67-1.17A9.91,9.91,0,0,1,267.4,213a5.91,5.91,0,0,1-.84-2.52V192.29h5.64V207.1a4.08,4.08,0,0,0,.56,2.17,4.15,4.15,0,0,0,1.32,1.4,2.6,2.6,0,0,0,1.26.47h13.9Z"/><path class="cls-3" d="M317.68,210.23a6.21,6.21,0,0,1-.83,2.85,9.5,9.5,0,0,1-2.08,2.74,3.74,3.74,0,0,1-2.49,1.13H297.47a5.16,5.16,0,0,1-3.31-1.22,9.08,9.08,0,0,1-3.29-6.71V192.29h5.94V207.2a3.58,3.58,0,0,0,.51,1.87,4.34,4.34,0,0,0,1.19,1.34,2.11,2.11,0,0,0,1.2.49h9.1a1.86,1.86,0,0,0,1.21-.58,5.17,5.17,0,0,0,1.06-1.37,3.1,3.1,0,0,0,.42-1.37V192.29h6.18Z"/><path class="cls-3" d="M336.29,216.92h-6V198.19H319.46v-5.94h16.83Zm18.43-18.68H343.84V217H337.9V192.29h16.82Z"/><path class="cls-3" d="M362.51,216.92h-6V192.29h6Z"/><path class="cls-3" d="M393.24,209.45a7.48,7.48,0,0,1-1,3.77A8.37,8.37,0,0,1,389.9,216a4.43,4.43,0,0,1-2.47,1H371.29a5.46,5.46,0,0,1-3.52-1.22,8,8,0,0,1-2.37-3,8.49,8.49,0,0,1-.83-3.49v-9.26a7.57,7.57,0,0,1,.57-2.9,8.75,8.75,0,0,1,1.48-2.45,7.69,7.69,0,0,1,2-1.68,4.13,4.13,0,0,1,2.08-.62h15.89a6,6,0,0,1,2.64.82A7.7,7.7,0,0,1,392,195.8a8.56,8.56,0,0,1,1.21,4.78Zm-6-2.31v-5.07a4.12,4.12,0,0,0-.92-2.71,3.57,3.57,0,0,0-2.92-1.12h-9.29a2.76,2.76,0,0,0-1.34.48,4.78,4.78,0,0,0-1.39,1.27,2.74,2.74,0,0,0-.6,1.68v4.83a5.45,5.45,0,0,0,.8,2.92,2.56,2.56,0,0,0,2.29,1.19H384.2a3,3,0,0,0,2.13-.8A3.45,3.45,0,0,0,387.21,207.14Z"/><path class="cls-3" d="M422.65,211.57a7.43,7.43,0,0,1-.54,2.52,6.38,6.38,0,0,1-1.75,2.55,4.41,4.41,0,0,1-3.06,1.09,5,5,0,0,1-2.84-.65,7.78,7.78,0,0,1-2-2.38l-9.73-14.45a3.9,3.9,0,0,0-.73-1,1.09,1.09,0,0,0-.68-.22.86.86,0,0,0-.54.25.88.88,0,0,0-.28.7v16.91h-5.67V197.29a5.15,5.15,0,0,1,.27-1.4,7.24,7.24,0,0,1,.9-1.84,5.5,5.5,0,0,1,1.67-1.62,4.58,4.58,0,0,1,2.51-.66,4.86,4.86,0,0,1,2.91.77,7.47,7.47,0,0,1,1.7,1.66l9.79,14.19a3.55,3.55,0,0,0,.78,1,1.34,1.34,0,0,0,.75.21c.34,0,.55-.12.63-.37a3.53,3.53,0,0,0,.11-1V192.29h5.76Z"/><path class="cls-3" d="M111.84,248.42a10.11,10.11,0,0,1-1.27,5.13,8.83,8.83,0,0,1-3.85,3.47,12.88,12.88,0,0,1-5.8,1.28H96V238.49h4.85q5.24,0,8.1,2.61A9.38,9.38,0,0,1,111.84,248.42Zm-1.49,0a8,8,0,0,0-2.48-6.33q-2.49-2.19-7.27-2.19H97.4V257h3a13.25,13.25,0,0,0,5.45-1,7.3,7.3,0,0,0,3.4-2.94A9.1,9.1,0,0,0,110.35,248.38Z"/><path class="cls-3" d="M117.62,240.82h-1.71v-2.07h1.71Zm-.17,17.48h-1.37V243.48h1.37Z"/><path class="cls-3" d="M122.92,250.84a7.22,7.22,0,0,0,1.49,4.82,5,5,0,0,0,4,1.77,9.08,9.08,0,0,0,2.86-.5,6.85,6.85,0,0,0,2.23-1.1h.11v1.54a11.71,11.71,0,0,1-4.9,1.25,6.87,6.87,0,0,1-5.26-2,8,8,0,0,1-1.87-5.64,9.78,9.78,0,0,1,.83-4.12,6.45,6.45,0,0,1,2.32-2.78,6.08,6.08,0,0,1,3.44-1,5.29,5.29,0,0,1,4.16,1.78,6.92,6.92,0,0,1,1.58,4.76v1.2Zm9.75-1.25a5.71,5.71,0,0,0-1.2-3.83,4.07,4.07,0,0,0-3.27-1.41,4.82,4.82,0,0,0-3.59,1.45,5.86,5.86,0,0,0-1.64,3.79Z"/><path class="cls-3" d="M163.34,248.42a10.11,10.11,0,0,1-1.27,5.13,8.83,8.83,0,0,1-3.85,3.47,12.88,12.88,0,0,1-5.8,1.28h-4.91V238.49h4.85q5.23,0,8.1,2.61A9.38,9.38,0,0,1,163.34,248.42Zm-1.49,0a8,8,0,0,0-2.48-6.33q-2.49-2.19-7.27-2.19h-3.19V257h3a13.22,13.22,0,0,0,5.45-1,7.3,7.3,0,0,0,3.4-2.94A9.1,9.1,0,0,0,161.85,248.38Z"/><path class="cls-3" d="M169.12,240.82h-1.71v-2.07h1.71ZM169,258.3h-1.37V243.48H169Z"/><path class="cls-3" d="M174.42,250.84a7.27,7.27,0,0,0,1.49,4.82,5,5,0,0,0,4,1.77,9.08,9.08,0,0,0,2.86-.5,6.85,6.85,0,0,0,2.23-1.1h.11v1.54a11.71,11.71,0,0,1-4.9,1.25,6.87,6.87,0,0,1-5.26-2,8,8,0,0,1-1.87-5.64,9.78,9.78,0,0,1,.83-4.12,6.45,6.45,0,0,1,2.32-2.78,6.08,6.08,0,0,1,3.44-1,5.28,5.28,0,0,1,4.16,1.78,6.88,6.88,0,0,1,1.58,4.76v1.2Zm9.75-1.25a5.71,5.71,0,0,0-1.2-3.83,4.07,4.07,0,0,0-3.27-1.41,4.82,4.82,0,0,0-3.59,1.45,5.86,5.86,0,0,0-1.64,3.79Z"/><path class="cls-3" d="M200.32,258.3H199v-9.42q0-4.44-3.39-4.44a6.6,6.6,0,0,0-2.66.59,7.57,7.57,0,0,0-2.38,1.66V258.3h-1.36V243.48h1.36v1.85a8.63,8.63,0,0,1,2.38-1.6,6.15,6.15,0,0,1,2.57-.66,4.59,4.59,0,0,1,3.57,1.38,5.48,5.48,0,0,1,1.26,3.85Z"/><path class="cls-3" d="M214.56,254.24a3.88,3.88,0,0,1-1.48,3.2,6.26,6.26,0,0,1-4.05,1.19,9.73,9.73,0,0,1-2.31-.28,11.86,11.86,0,0,1-2.59-1v-1.56h.08a9.34,9.34,0,0,0,2.35,1.23,7.93,7.93,0,0,0,2.73.48,4.47,4.47,0,0,0,2.9-.82,2.8,2.8,0,0,0,1-2.32,2.29,2.29,0,0,0-.3-1.25,2.15,2.15,0,0,0-1-.79,15.84,15.84,0,0,0-2.77-.78c-.55-.12-1.13-.26-1.73-.42a6.12,6.12,0,0,1-1.62-.66,3.64,3.64,0,0,1-1.2-1.14,3.18,3.18,0,0,1-.47-1.82,4,4,0,0,1,.65-2.24,4.26,4.26,0,0,1,1.83-1.56,6.38,6.38,0,0,1,2.76-.55,9.45,9.45,0,0,1,2.49.35,9.69,9.69,0,0,1,2.15.79v1.63h-.13a7.86,7.86,0,0,0-2.25-1.08,8.38,8.38,0,0,0-2.54-.44,4.17,4.17,0,0,0-2.57.76,2.32,2.32,0,0,0-1,2,2.34,2.34,0,0,0,.93,2,8.65,8.65,0,0,0,3.22,1.1,8.59,8.59,0,0,1,3.78,1.39A3.18,3.18,0,0,1,214.56,254.24Z"/><path class="cls-3" d="M217.17,244.69v-1.21h1.65v-4.27h1.35v4.27h5.4v1.21h-5.4v8a10.54,10.54,0,0,0,.28,2.78,2.44,2.44,0,0,0,.88,1.42,3.14,3.14,0,0,0,1.78.43,7.67,7.67,0,0,0,2.52-.49h0v1.33c-.36.09-.81.19-1.37.28a7.49,7.49,0,0,1-1.28.14,3.85,3.85,0,0,1-3.18-1.26,5.92,5.92,0,0,1-1-3.78v-8.86Z"/><path class="cls-3" d="M230.06,258.3H228.7V237.6h1.36Z"/><path class="cls-3" d="M235.51,250.84a7.22,7.22,0,0,0,1.5,4.82,5,5,0,0,0,4,1.77,9.13,9.13,0,0,0,2.87-.5,6.88,6.88,0,0,0,2.22-1.1h.11v1.54a11.64,11.64,0,0,1-4.89,1.25,6.84,6.84,0,0,1-5.26-2,8,8,0,0,1-1.87-5.64,9.78,9.78,0,0,1,.82-4.12,6.45,6.45,0,0,1,2.32-2.78,6.1,6.1,0,0,1,3.44-1,5.28,5.28,0,0,1,4.16,1.78,6.88,6.88,0,0,1,1.59,4.76v1.2Zm9.75-1.25a5.71,5.71,0,0,0-1.2-3.83,4.07,4.07,0,0,0-3.27-1.41,4.83,4.83,0,0,0-3.59,1.45,5.91,5.91,0,0,0-1.64,3.79Z"/><path class="cls-3" d="M252.14,240.82h-1.72v-2.07h1.72ZM252,258.3h-1.37V243.48H252Z"/><path class="cls-3" d="M266.54,254.24a3.88,3.88,0,0,1-1.48,3.2,6.26,6.26,0,0,1-4.05,1.19,9.73,9.73,0,0,1-2.31-.28,11.86,11.86,0,0,1-2.59-1v-1.56h.08a9.34,9.34,0,0,0,2.35,1.23,7.93,7.93,0,0,0,2.73.48,4.47,4.47,0,0,0,2.9-.82,2.8,2.8,0,0,0,1-2.32,2.29,2.29,0,0,0-.3-1.25,2.2,2.2,0,0,0-1-.79,15.84,15.84,0,0,0-2.77-.78c-.56-.12-1.13-.26-1.73-.42a6.12,6.12,0,0,1-1.62-.66,3.64,3.64,0,0,1-1.2-1.14,3.18,3.18,0,0,1-.47-1.82,4,4,0,0,1,.65-2.24,4.26,4.26,0,0,1,1.83-1.56,6.38,6.38,0,0,1,2.76-.55,9.45,9.45,0,0,1,2.49.35,9.69,9.69,0,0,1,2.15.79v1.63h-.14a7.66,7.66,0,0,0-2.24-1.08,8.38,8.38,0,0,0-2.54-.44,4.17,4.17,0,0,0-2.57.76,2.32,2.32,0,0,0-1,2,2.34,2.34,0,0,0,.93,2,8.65,8.65,0,0,0,3.22,1.1,8.59,8.59,0,0,1,3.78,1.39A3.18,3.18,0,0,1,266.54,254.24Z"/><path class="cls-3" d="M269.15,244.69v-1.21h1.65v-4.27h1.35v4.27h5.4v1.21h-5.4v8a10.54,10.54,0,0,0,.28,2.78,2.44,2.44,0,0,0,.88,1.42,3.14,3.14,0,0,0,1.78.43,7.67,7.67,0,0,0,2.52-.49h0v1.33c-.36.09-.81.19-1.37.28a7.49,7.49,0,0,1-1.28.14,3.85,3.85,0,0,1-3.18-1.26,5.92,5.92,0,0,1-1-3.78v-8.86Z"/><path class="cls-3" d="M291.49,258.3h-1.35v-2a6.89,6.89,0,0,1-4.94,2.38,4.67,4.67,0,0,1-3.57-1.35,5.43,5.43,0,0,1-1.27-3.88v-10h1.34v9.39a5.59,5.59,0,0,0,.83,3.34,3,3,0,0,0,2.59,1.12,6.59,6.59,0,0,0,2.81-.71,5.8,5.8,0,0,0,2.21-1.66V243.48h1.35Z"/><path class="cls-3" d="M307.44,258.3H306.1v-9.42q0-4.44-3.39-4.44a6.6,6.6,0,0,0-2.66.59,7.72,7.72,0,0,0-2.39,1.66V258.3h-1.35V243.48h1.35v1.85a8.69,8.69,0,0,1,2.39-1.6,6.07,6.07,0,0,1,2.56-.66,4.56,4.56,0,0,1,3.57,1.38,5.48,5.48,0,0,1,1.26,3.85Z"/><path class="cls-3" d="M323,256.36q0,3.9-1.54,5.73a5.8,5.8,0,0,1-4.71,1.84,10.4,10.4,0,0,1-1.77-.15,16,16,0,0,1-2.18-.56v-1.45H313a6.62,6.62,0,0,0,1.83.59,12.2,12.2,0,0,0,2.6.26,4.19,4.19,0,0,0,2.25-.59,3.88,3.88,0,0,0,1.48-1.8,6.89,6.89,0,0,0,.54-2.82v-1.53a8.49,8.49,0,0,1-2.52,1.71,6.63,6.63,0,0,1-2.5.44,4.7,4.7,0,0,1-4-1.91,8.56,8.56,0,0,1-1.44-5.24,10.15,10.15,0,0,1,.77-4.07,6.41,6.41,0,0,1,2.23-2.78,5.61,5.61,0,0,1,3.23-1,8.38,8.38,0,0,1,2,.21,10.58,10.58,0,0,1,2.21.92l.16-.67H323Zm-1.34-10.74a7.52,7.52,0,0,0-2-1,7.63,7.63,0,0,0-2.29-.32A4.13,4.13,0,0,0,314,246a7.68,7.68,0,0,0-1.3,4.71,7.93,7.93,0,0,0,1,4.48,3.55,3.55,0,0,0,3.11,1.54,5.88,5.88,0,0,0,2.55-.56,9.26,9.26,0,0,0,2.32-1.64Z"/><path class="cls-3" d="M331.8,258.3h-2.15v-2.86h2.15Z"/><path class="cls-3" d="M423.94,197.45a4.66,4.66,0,0,1,.63-2.36,4.81,4.81,0,0,1,1.73-1.74,4.78,4.78,0,0,1,6.51,1.73,4.71,4.71,0,0,1,0,4.76,4.79,4.79,0,0,1-1.74,1.75,4.68,4.68,0,0,1-2.37.64,4.63,4.63,0,0,1-2.38-.65,4.76,4.76,0,0,1-1.73-1.75A4.65,4.65,0,0,1,423.94,197.45Zm.84,0a3.94,3.94,0,0,0,.53,2,3.9,3.9,0,0,0,6.77,0,3.94,3.94,0,0,0,.53-2,3.93,3.93,0,0,0-5.88-3.42,3.9,3.9,0,0,0-2,3.42Zm6.35,2.35H430l-1.53-1.89h-.67v1.89h-.88v-4.9h1.6a2.19,2.19,0,0,1,1.33.35,1.22,1.22,0,0,1,.47,1,1.39,1.39,0,0,1-.28.89,1.53,1.53,0,0,1-.72.52Zm-1.76-3.49a.55.55,0,0,0-.29-.51,1.52,1.52,0,0,0-.79-.17h-.47v1.55h.45a1.33,1.33,0,0,0,.83-.21A.86.86,0,0,0,429.37,196.33Z"/></g></g></svg>